<svg xmlns="http://www.w3.org/2000/svg" viewBox="0 0 77.17 65.6"><defs><style>.cls-1{fill:#1c1c4c;}.cls-2{fill:#ffb93a;}</style></defs><title>contact-phone</title><g id="Capa_2" data-name="Capa 2"><g id="Capa_1-2" data-name="Capa 1"><polygon class="cls-1" points="65.61 65.61 0 65.61 11.57 0 77.17 0 65.61 65.61"/><path class="cls-2" d="M45.22,36.13l4.65,4.64.54-.55a1.91,1.91,0,0,0,0-2.65l-2-2a1.88,1.88,0,0,0-2.66,0Z"/><path class="cls-2" d="M37.9,27.71a2,2,0,0,0,0-2.66l-2-2a1.88,1.88,0,0,0-2.66,0l-.54.55,4.64,4.63Z"/><path class="cls-2" d="M48.17,42.46l.44-.44L44,37.38l-.81.81a.61.61,0,0,1-.44.19.64.64,0,0,1-.45-.19l-7-7a.65.65,0,0,1,0-.88l.82-.82-4.65-4.63-.44.44a5.4,5.4,0,0,0-1.38,3.83c0,2,.89,5.32,5.14,9.57C43.24,47.19,48,42.66,48.17,42.46Z"/></g></g></svg>