<svg xmlns="http://www.w3.org/2000/svg" viewBox="0 0 77.17 65.6"><defs><style>.cls-1{fill:#1c1c4c;}.cls-2{fill:#ffb93a;}</style></defs><title>contact-mail</title><g id="Capa_2" data-name="Capa 2"><g id="Capa_1-2" data-name="Capa 1"><polygon class="cls-1" points="65.61 65.61 0 65.61 11.57 0 77.17 0 65.61 65.61"/><path class="cls-2" d="M26.16,25.59l11.06,5.95a3.22,3.22,0,0,0,2.67,0L51,25.59c.72-.38,1.4-1.89.08-1.89h-25C24.76,23.7,25.44,25.21,26.16,25.59Zm25.13,3.25-11.4,5.94a3.12,3.12,0,0,1-2.67,0L25.88,28.84c-.57-.3-.57.05-.57.32V39.92a1.81,1.81,0,0,0,1.48,1.48h23.6a1.79,1.79,0,0,0,1.47-1.48V29.17C51.86,28.89,51.87,28.54,51.29,28.84Z"/></g></g></svg>