<svg xmlns="http://www.w3.org/2000/svg" viewBox="0 0 8.36 15.47"><defs><style>.cls-1{fill:#302d5c;}</style></defs><title>facebook</title><g id="Capa_2" data-name="Capa 2"><g id="Capa_1-2" data-name="Capa 1"><path class="cls-1" d="M8.05,0H6A3.52,3.52,0,0,0,2.33,3.81V5.56h-2A.32.32,0,0,0,0,5.88V8.42a.32.32,0,0,0,.32.32h2v6.41a.32.32,0,0,0,.32.32H5.28a.31.31,0,0,0,.31-.32V8.74H8a.32.32,0,0,0,.32-.32V5.88a.32.32,0,0,0-.09-.23A.36.36,0,0,0,8,5.56H5.59V4.07C5.59,3.36,5.76,3,6.7,3H8.05a.32.32,0,0,0,.31-.32V.32A.31.31,0,0,0,8.05,0Z"/></g></g></svg>