<svg xmlns="http://www.w3.org/2000/svg" viewBox="0 0 228.64 59.31"><defs><style>.cls-1{fill:#15255c;}</style></defs><title>logo-footer</title><g id="Capa_2" data-name="Capa 2"><g id="Capa_1-2" data-name="Capa 1"><path class="cls-1" d="M91.36,49.28l4.7-.64c.08.64.12,1,.21,1.58l-.28,0c-.07-.52-.1-.77-.17-1.29l-3.23.43c.17,1.25.26,1.87.43,3.12l1.6-.22a2.7,2.7,0,0,1,0,.28l-1.6.22c.16,1.11.23,1.66.39,2.77l.9-.12c0,.11,0,.17,0,.29L92.32,56a2.7,2.7,0,0,1,0-.28l.89-.13c-.34-2.47-.51-3.7-.86-6.17l-.91.13c0-.11,0-.17,0-.29"/><path class="cls-1" d="M92.2,56.17l-.07-.55L93,55.5l-.82-5.91-.91.13-.08-.55.13,0,4.7-.64h.14l.23,1.84-.54.07-.17-1.29c-1.16.15-1.8.23-3,.4l.4,2.85,1.47-.2.13,0,.07.55-.13,0-1.47.2.35,2.5.9-.12.07.55-.13,0-2.07.28Zm.23-.32v0l1.81-.25v0l-.89.12-.42-3,.13,0,1.46-.2v0l-1.47.2-.13,0-.47-3.38.13,0,3.23-.43.13,0,.17,1.29h0L96,48.79c-1.78.23-2.7.36-4.44.61v0l.91-.13.9,6.43Z"/><path class="cls-1" d="M104.39,47.94l-.92.1c.25,2.24.38,3.35.62,5.59l-.75,1-2.37.27-1-.79c-.27-2.23-.41-3.34-.68-5.57l-.91.11a2.89,2.89,0,0,1,0-.29l1.19-.15.7,5.76.78.63,2.14-.25.61-.8c-.25-2.3-.38-3.45-.64-5.75l1.2-.14c0,.12,0,.18,0,.29"/><path class="cls-1" d="M100.93,55l0,0-1-.79,0,0-.67-5.5-.91.11-.07-.55h.13l1.2-.15h.13l.7,5.83.7.56,2-.23.55-.71L103,47.67h.14l1.19-.14h.13l.06.55-.91.1.61,5.51,0,0c-.31.39-.46.59-.76,1l0,0h-.06L101,55Zm-.8-1c.35.28.54.43.88.72l2.25-.27.7-.9-.63-5.66.91-.1v0l-.93.1.63,5.68-.68.89h-.05l-2.15.25h0l-.87-.71-.68-5.67-.93.11v0l.91-.11Z"/><path class="cls-1" d="M111.82,47.21c-.95.08-1.42.12-2.37.22l.6,6.2.9-.09c0,.12,0,.17,0,.29l-2.07.2c0-.12,0-.17,0-.29l.9-.09-.6-6.2-2.36.24c0,.52.08.78.13,1.29l-.28,0c-.07-.63-.1-.95-.16-1.58,2.23-.23,3.34-.34,5.57-.54.06.64.09,1,.14,1.59l-.28,0Z"/><path class="cls-1" d="M108.78,54.17l-.06-.55.9-.09-.57-5.93-2.1.21.13,1.29-.54.06-.19-1.85h.13c2.25-.24,3.35-.34,5.58-.54h.13l.17,1.85-.55,0-.11-1.3-2.1.19.57,5.94.9-.08.05.55H111l-2.08.2Zm.23-.31v0l1.81-.17v0l-.9.09-.62-6.46.13,0,2.37-.22h.13l.11,1.3h0L112,47c-2.1.18-3.19.29-5.31.51l.14,1.32h0l-.13-1.3h.13l2.37-.24h.13l.62,6.46Z"/><path class="cls-1" d="M114.78,53.49c0-.11,0-.17,0-.29l.9-.07-.5-6.21-.92.08,0-.29,3.85-.31.93.84c0,.7.08,1,.13,1.74l-.67.81.78.7c.05.7.07,1,.12,1.74l-.79,1c-1.52.11-2.27.17-3.79.3m4.06-4.6c0-.61-.07-.91-.11-1.52L118,46.7l-2.53.2.24,3,2.51-.2.65-.77M118.21,50c-1,.08-1.51.11-2.51.2.09,1.18.14,1.77.24,3l2.49-.2.65-.77L119,50.62l-.76-.67"/><path class="cls-1" d="M114.66,53.63l0-.55.9-.07L115,47.06l-.91.08-.05-.55h.13l3.86-.31h0l0,0,.94.84,0,0,.13,1.86,0,0-.59.7.72.65.14,1.86,0,0-.79,1,0,0h0l-3.79.3Zm.24-.31v0l3.6-.29.73-.87-.12-1.64-.84-.75.08-.1.64-.76-.11-1.64-.86-.76-3.66.29v0l.92-.07.52,6.47Zm.92-.07L115.56,50h.13l2.51-.19h.06l.83.75.12,1.62,0,0-.64.78,0,0h-.06l-2.49.2Zm0-3,.22,2.69,2.31-.18.57-.68-.1-1.41-.67-.6c-.93.07-1.43.1-2.33.18m-.29-.27-.26-3.22h.14c1-.09,1.52-.13,2.53-.2H118l.84.74.12,1.62-.72.86h-.06l-2.51.2Zm0-3,.22,2.69,2.33-.18.57-.69-.1-1.41-.67-.59-2.35.18"/><path class="cls-1" d="M122.78,52.9l-.92-.84c-.13-2-.19-3-.32-5l.81-1,2.42-.15.92.85c.11,2,.17,3,.28,5-.33.37-.49.56-.81.94l-2.38.14m2.9-1.18c-.1-1.91-.16-2.87-.26-4.78l-.75-.68-2.18.13-.66.77.3,4.77.75.68,2.15-.13.65-.76"/><path class="cls-1" d="M122.74,53l0,0c-.36-.34-.55-.5-.92-.84l0,0L121.4,47l0,0c.32-.39.49-.58.81-1l0,0h.06l2.41-.15h.06l0,0,.92.85,0,0,.28,5.11,0,0-.81,1,0,0h-.06l-2.37.15ZM122,52l.84.77,2.26-.14.74-.86-.27-4.9-.84-.77-2.3.14-.75.87Zm.84.74L122,52l-.32-4.88.73-.85h.06l2.18-.13h.06l0,0,.75.69,0,0,.27,4.88-.73.85h0l-2.16.13Zm-.57-.87.66.6,2-.12.59-.68L125.29,47l-.67-.6-2.07.12-.59.68Z"/><path class="cls-1" d="M129.19,52.26c-.11-2.49-.17-3.73-.29-6.22l-.91,0c0-.11,0-.17,0-.29l2.12-.09a2.71,2.71,0,0,1,0,.29l-.91,0c.11,2.49.17,3.73.28,6.22,1.28-.06,1.92-.09,3.2-.13l0-1.31h.28c0,.64,0,1,.06,1.59-1.86.07-2.79.11-4.65.2l0-.29.9,0"/><path class="cls-1" d="M128.18,52.73l0-.55.91,0-.28-6-.92,0,0-.55H128l2.12-.1h.13l0,.55-.92,0,.28,6,2.93-.12-.05-1.3.54,0,.07,1.86H133c-1.88.07-2.79.11-4.65.2Zm.25-.3v0c1.73-.09,2.64-.13,4.39-.19l0-1.33h0l0,1.3h-.13l-3.19.13h-.13l-.3-6.49.92,0v0l-1.85.09v0l.92-.05.3,6.49Z"/><path class="cls-1" d="M147.06,51.83v.29h-1l-.3-2-3,0c-.11.78-.16,1.17-.27,2h-1a2.81,2.81,0,0,0,0-.29h.77c.37-2.61.56-3.92.94-6.53l2,0c.43,2.61.64,3.91,1,6.52h.77m-1.36-1.95c-.27-1.71-.41-2.56-.69-4.27l-1.58,0c-.25,1.71-.37,2.56-.61,4.28l2.88,0"/><path class="cls-1" d="M141.37,52.3v-.55h.78c.36-2.54.55-3.85.93-6.42l0-.11h.11l2,0h.11l0,.11c.42,2.57.63,3.87,1,6.4h.79v.56h-1.26l0-.11c-.11-.75-.17-1.14-.28-1.84-1.07,0-1.66,0-2.73,0l-.27,2Zm.26-.29v0l.77,0,.27-2h.11l3,0h.11l0,.11c.12.75.18,1.14.28,1.84l.77,0h-.74l0-.11c-.41-2.57-.62-3.87-1-6.41l-1.81,0c-.38,2.54-.56,3.84-.93,6.42l0,.11Zm1-2,0-.15c.24-1.71.36-2.57.61-4.28l0-.11h1.81v.11c.28,1.71.42,2.56.69,4.27l0,.15h-.15l-2.88,0Zm.88-4.28c-.23,1.58-.36,2.44-.58,4l2.57,0c-.25-1.57-.38-2.42-.64-4h-1.35"/><path class="cls-1" d="M156.23,45.41v.29l-.92,0c-.05,2.49-.07,3.74-.12,6.23l.9,0v.29l-1.19,0c0-2.45.07-3.67.12-6.12-1,1.7-1.44,2.55-2.38,4.26-.9-1.73-1.36-2.6-2.28-4.32,0,2.45,0,3.67,0,6.12h-1.18v-.29h.9c0-2.49,0-3.74,0-6.23h-.91v-.29h1.16c.93,1.75,1.4,2.63,2.31,4.39,1-1.73,1.45-2.6,2.43-4.33l1.16,0"/><path class="cls-1" d="M156.21,52.35l-1.44,0,.11-5.73c-.8,1.41-1.27,2.25-2.13,3.8l-.12.22-.11-.22c-.82-1.58-1.26-2.42-2-3.86l0,5.74H149V51.7h.9l0-6H149v-.55h1.37l0,.07c.9,1.68,1.35,2.55,2.21,4.18.89-1.6,1.36-2.45,2.31-4.12l0-.07,1.37,0v.55h-.92l-.12,6,.91,0ZM155,52.06l.92,0v0l-.91,0,.13-6.49h.92v0l-.95,0c-1,1.69-1.44,2.54-2.39,4.27l-.12.21-.11-.22c-.92-1.75-1.37-2.62-2.28-4.32h-.95v0h.92l0,6.5h-.91v0h.92l.05-6.52.24.46c.88,1.66,1.33,2.51,2.16,4.11.87-1.58,1.34-2.41,2.27-4l.25-.45Z"/><path class="cls-1" d="M161.06,49.1,159.45,49c0,1.19-.06,1.78-.09,3l3.19.11,0-1.3h.28c0,.64,0,1-.06,1.59-1.86-.07-2.79-.1-4.65-.15a2.71,2.71,0,0,1,0-.29l.9,0c.07-2.49.11-3.73.18-6.22l-.91,0v-.29c1.9,0,2.84.08,4.74.16L163,47.21h-.28l0-1.3c-1.3,0-1.95-.08-3.24-.11,0,1.18-.06,1.78-.09,3l1.61.06a2.71,2.71,0,0,0,0,.29"/><path class="cls-1" d="M163,52.56h-.13l-4.65-.15H158l0-.56.9,0,.18-6-.92,0,0-.55h.13c1.91.05,2.84.08,4.73.16h.13l-.07,1.86-.54,0,0-1.31-3-.1-.08,2.71,1.48,0h.13v.55h-.14l-1.47,0-.09,2.7,2.94.1,0-1.3.54,0Zm-4.65-.42,4.39.14.06-1.32h0l0,1.3h-.13l-3.2-.11h-.13l.1-3.23h.13l1.48.05v0l-1.48,0h-.13l.1-3.23h.13l3.25.11h.13l-.05,1.3h0l0-1.32c-1.76-.07-2.69-.1-4.47-.15v0l.92,0-.19,6.49-.9,0Z"/><path class="cls-1" d="M170.46,52.5c0,.12,0,.18,0,.29l-.89,0-.6-2.93-2.52-.13c-.06,1.16-.08,1.73-.14,2.89l-1.18,0c0-.12,0-.18,0-.29l.9,0c.12-2.49.17-3.73.29-6.22l-.92,0c0-.12,0-.18,0-.29,1.54.06,2.31.1,3.85.19l.83.94c0,.85-.08,1.27-.12,2.11l-.77.72c.23,1.11.34,1.67.57,2.78l.68,0m-.76-3.67c.05-.75.07-1.13.11-1.88l-.67-.76-2.54-.13c-.06,1.33-.09,2-.16,3.33l2.52.13.74-.69"/><path class="cls-1" d="M170.57,52.93l-1.13-.06,0-.1c-.23-1.14-.35-1.73-.58-2.84l-2.28-.11-.14,2.89h-.13l-1.18-.05H165l0-.55.9,0,.28-6-.91,0,0-.55h.13c1.55.07,2.32.11,3.86.2h.05l0,0,.83,1,0,0L170.11,49l-.76.7c.22,1,.33,1.59.54,2.62l.71,0Zm-.91-.32.66,0v0l-.65,0,0-.1-.57-2.79,0-.07.79-.73.11-2-.75-.86-3.67-.19v0l.92,0-.31,6.49-.9,0v0l.92,0,.14-2.89h.13l2.51.12h.11l0,.1c.23,1.14.36,1.73.58,2.83m-.7-3-2.52-.13h-.13l.17-3.59h.13l2.54.13h.06l.73.85-.11,2-.81.75Zm-2.38-.39,2.33.12.66-.61.1-1.77-.59-.68-2.35-.12Z"/><path class="cls-1" d="M174.6,53.06l-2.08-.14c0-.12,0-.17,0-.29l.9.06c.17-2.49.25-3.73.41-6.22l-.91-.06c0-.11,0-.17,0-.29l2.11.15c0,.11,0,.17,0,.28l-.91-.06c-.17,2.49-.25,3.73-.42,6.22l.9.06c0,.11,0,.17,0,.29"/><path class="cls-1" d="M174.73,53.2h-.14l-2.08-.14h-.13l0-.55.9.06.39-5.95-.91-.06,0-.56H173l2.12.14h.13l0,.56-.92-.07-.4,5.95.89.06v.14Zm-2.07-.4,1.82.12v0l-.9-.06.43-6.48.92.06v0l-1.85-.12v0l.91.06-.42,6.48-.9-.06Z"/><path class="cls-1" d="M181,53.55l-3.23-.26-.79-1c.15-2,.22-3,.37-5l.94-.83c1.32.1,2,.15,3.29.27-.05.63-.08.95-.14,1.58l-.28,0c.05-.52.07-.78.11-1.3l-2.89-.23-.75.67c-.15,1.9-.22,2.86-.37,4.76l.64.78,2.85.23c0-.52.06-.78.11-1.3l.28,0c-.06.64-.09.95-.14,1.59"/><path class="cls-1" d="M181.1,53.69H181l-3.23-.26h-.06l0,0-.79-1,0,0,.39-5.1,0,0,.94-.83,0,0h.05l3.29.26.13,0-.16,1.85-.54,0,.11-1.3-2.7-.22-.68.6-.35,4.66.57.69,2.66.21.11-1.29.54,0Zm-3.28-.53,3,.25.11-1.33h0l-.11,1.3h-.13l-2.85-.23h-.05l-.71-.86.37-4.87.84-.74h.06c1.15.08,1.73.13,2.88.23h.14l-.11,1.3h0l.12-1.32c-1.21-.11-1.87-.16-3.1-.25l-.86.75-.37,4.89.73.88"/><path class="cls-1" d="M188.83,54c0,.11,0,.17,0,.29l-1-.11c0-.79,0-1.18-.09-2l-2.95-.29c-.19.76-.28,1.15-.47,1.92l-1-.1c0-.11,0-.17,0-.29l.76.07c.65-2.55,1-3.83,1.64-6.39l2,.2c.14,2.64.22,3.95.35,6.59l.76.08m-1.14-2.09c-.09-1.72-.13-2.59-.23-4.31l-1.57-.16c-.43,1.68-.65,2.51-1.07,4.19l2.87.28"/><path class="cls-1" d="M188.92,54.44l-1.25-.13-.1-2-2.72-.27L184.38,54l-1.26-.12,0-.55.78.07c.63-2.48,1-3.76,1.61-6.28l0-.11h.11l2,.2h.11v.11c.14,2.6.22,3.92.35,6.48l.78.08Zm-1-.37.76.08v0l-.74-.08v-.11c-.13-2.6-.21-3.92-.35-6.48l-1.8-.18c-.64,2.49-1,3.76-1.61,6.29l0,.11-.74-.07v0l.76.07.48-1.92h.11l3,.29.12,0Zm-.09-2h-.16l-2.86-.29h-.16l0-.15c.43-1.68.64-2.52,1.07-4.19l0-.11h.11l1.57.15.12,0v.11c.1,1.73.14,2.59.23,4.32ZM185,51.52l2.56.26c-.08-1.59-.13-2.45-.21-4.05L186,47.59c-.4,1.56-.61,2.39-1,3.93"/><path class="cls-1" d="M190.91,54.23l.9.1.7-6.18L191.6,48c0-.11,0-.17,0-.28l1.28.14c1,2.67,1.45,4,2.38,6.67l.77-6.3,1.19.15c0,.12,0,.17,0,.29l-.92-.12c-.3,2.48-.45,3.71-.76,6.19l.9.11c0,.11,0,.17,0,.28L195.15,55c-.93-2.67-1.41-4-2.38-6.67-.29,2.52-.43,3.78-.72,6.3l-1.17-.13,0-.29"/><path class="cls-1" d="M196.52,55.32h-.13l-1.26-.16h-.08l0-.08c-.88-2.53-1.34-3.83-2.18-6.14l-.67,5.88H192l-1.18-.14h-.13l.06-.55.9.1.67-5.93-.91-.1.06-.55h.13l1.28.15H193l0,.07c.9,2.47,1.37,3.78,2.2,6.14l.71-5.86h.13l1.2.15.13,0-.07.55-.91-.12-.73,5.92.9.11Zm-1.14-.41.91.12v0l-.89-.11.79-6.44.91.11v0l-.93-.11Zm-.13,0h0l-.1-.29c-.93-2.68-1.4-4-2.35-6.59h0l.11.29c.95,2.61,1.42,3.92,2.35,6.59M191,54.41l.92.1.74-6.5-.93-.11v0l.92.1-.73,6.45-.9-.1Z"/><path class="cls-1" d="M199.54,55.58l-.74-1,.65-5,1-.78,2.4.33.74,1-.7,5-1,.77-2.36-.32m3.08-.6c.27-1.89.4-2.84.67-4.73l-.6-.82-2.18-.3-.79.63c-.25,1.9-.38,2.84-.63,4.74l.6.81,2.14.29.79-.62"/><path class="cls-1" d="M201.94,56h-.06l-2.36-.32h-.05l0,0-.74-1,0,0,.67-5.07,0,0,1-.77,0,0h.06l2.4.33h0l0,0,.74,1,0,0L203,55.21l0,0L202,56Zm-2.33-.58,2.25.3.9-.7.69-4.85-.68-.93L200.48,49l-.9.71-.64,4.86.67.92m2.26.28h-.06l-2.14-.29h-.06l-.66-.9.64-4.84.89-.69h.05l2.18.3h0l.67.9-.69,4.84Zm-2.11-.55,2,.27.71-.55.65-4.63-.53-.72-2.07-.29-.71.56-.61,4.63Z"/><path class="cls-1" d="M225.11,10.37c-4.79-.76-9.66-1.46-14.47-2.08l-1.86-.24-1.42,1.24-2.7,2.37-3-3.38-1.07-1.19L199,6.92c-3.49-.37-7-.7-10.56-1l-1.82-.15L185.25,7V5.66l-3.89-.27c-3.74-.26-5.67-.37-9.4-.56l-4.39-.23v0l-1.72-.07-6.24-.2v0l-3.52-.05-2.51,0v0c-2.22,0-4.46,0-6.68,0-3.21,0-6.45,0-9.68.07v0l-3.15.1-2.87.06v0c-5.75.2-11.54.48-17.28.83v0l-2.75.2-3.28.21v0c-4.33.33-8.7.73-13,1.17L93.3,7,92.23,8.2l-3,3.38L86.48,9.2,85.06,8,83.2,8.2c-3.49.44-7,.93-10.52,1.45l-1.53.23-1,1.17c-1.85,2.14-2.78,3.21-4.63,5.37l-1,1.18V39.68L66,40.93c1.85,1.57,2.77,2.35,4.61,3.93L72,46.1l1.89-.28c3.41-.51,6.89-1,10.33-1.43l1.56-.19.69-.79v.68l4.65-.53c4.73-.53,9.54-1,14.29-1.4l1.62-.13.83-.91v.8l4.45-.29c6.9-.44,13.91-.78,20.84-1l1.11,0,1.16,0c3.8-.07,7.64-.1,11.44-.1,2.81,0,5.67,0,8.49.05h.6l1.69,0c3.72.08,5.54.14,9.25.29l3.53.15h0l2.48.13c3.14.17,4.68.26,7.85.48l4.47.31v-.82l.83.91,1.63.13c3.43.28,6.91.61,10.36,1l1.85.19,1.37-1.23v1.37l3.69.44c4.74.57,9.53,1.21,14.24,1.91l1.89.28,1.45-1.24,4.6-3.93,1.48-1.25V10.92ZM84.2,40.37Q79,41,73.78,41.8l-4.62-3.94V19.26l4.62-5.36q5.2-.78,10.42-1.44c1.86,1.63,2.79,2.44,4.64,4.09v18.6L84.2,40.37m26-21.22c-2.79.2-4.18.32-7,.56V17.39c-2,.18-3.07.27-5.11.48v2.55q6.06,1.3,12.09,2.68v10l-4.65,5q-7.21.62-14.41,1.42v-9.3c2.79-.31,4.18-.46,7-.74v2.33c2-.2,3.07-.3,5.11-.48V28.78q-6-1.29-12.08-2.5v-10c1.86-2.07,2.79-3.1,4.65-5.15q7.2-.75,14.41-1.28Zm23.3,0c-2.79.08-4.19.12-7,.24V15.88l-4.66.21v4.66c1.86-.1,2.79-.14,4.66-.22v4.65c-1.87.08-2.8.12-4.66.22v4.65c1.86-.1,2.79-.14,4.66-.22V26.34c2.8-.11,4.2-.16,7-.24V36.57q-10.5.33-21,1v-7l2.33-.16V16.5l-2.33.15v-7q10.49-.67,21-1Zm22.39,17.33q-10-.14-20,0v-7q5.92-7.07,11.94-14.07c-2,0-3,0-5,0V17.8c-2.8,0-4.2.05-7,.11V8.61q10-.18,20,0v7q-6,6.9-11.89,13.88c2,0,2.94,0,4.9,0V27.09c2.79,0,4.19,0,7,.07Zm0-13.59-1.38,0,1.38-1.6Zm25.63-6.22-2.33-.15v14l2.33.16v7c-3.17-.22-4.75-.32-7.92-.49l-6.06-12.56V36.81c-3.73-.16-5.59-.22-9.33-.3v-7l2.34.06V15.64l-2.34-.06v-7c3.18.07,4.76.12,7.93.24q3,6.24,6.06,12.5V9.12c3.73.19,5.59.3,9.32.56ZM203.63,35,199,39.1q-5.22-.56-10.46-1c-1.86-2-2.79-3-4.66-5V14.5l4.66-4.29q5.24.43,10.46,1c1.86,2.05,2.79,3.09,4.64,5.16Zm21.31-11c-2.77-.44-4.16-.65-6.94-1.05V20.54c-2-.29-3.05-.44-5.09-.71v2.56q6,2.67,12,5.48v10l-4.62,3.94q-7.17-1.06-14.37-1.92v-9.3c2.79.33,4.18.51,7,.88v2.32l5.09.71V31.93q-6-2.71-12.05-5.3v-10l4.64-4.08q7.18.93,14.35,2.06Z"/><path class="cls-1" d="M190.85,31.34c2.33.2,3.49.31,5.82.55V17.94c-2.33-.24-3.49-.35-5.82-.55Z"/><path class="cls-1" d="M76.1,34.49c2.31-.33,3.47-.49,5.79-.8V19.74c-2.32.31-3.48.47-5.79.8Z"/><path class="cls-1" d="M75,16.74l-2.87,3.31V36.14L75,38.6c3.17-.47,4.75-.68,7.92-1.1l2.88-3.24V18.17L83,15.65c-3.17.41-4.75.63-7.92,1.09M84.9,34l-2.32,2.62c-2.87.38-4.31.58-7.18,1l-2.31-2V20.28c.92-1.07,1.39-1.6,2.31-2.66,2.87-.42,4.31-.62,7.18-1l2.32,2Z"/><path class="cls-1" d="M94.18,24c4,.84,8.06,1.72,12.09,2.62v5.21l-2.33,2.52c-3.53.31-5.3.48-8.83.85v-3l-.93.1v4c4-.44,6.08-.63,10.13-1l2.89-3.12V25.8c-4-.92-8-1.8-12.09-2.65V17.48l2.32-2.57c3.53-.35,5.3-.51,8.84-.8v3l.93-.08v-4c-4.06.33-6.09.51-10.14.92L94.18,17.2Z"/><path class="cls-1" d="M117.91,33.28l-3,.19v.93q7.8-.46,15.61-.76V28.52l-.93,0v4.19c-3.57.12-7.15.28-10.72.49V23.7c2.14-.12,3.21-.18,5.36-.28v-.93c-2.15.1-3.22.16-5.36.28V13.23c3.57-.2,7.15-.37,10.72-.49v4.19l.93,0V11.78q-7.82.3-15.61.76v.94l3-.19Z"/><path class="cls-1" d="M139.82,32.48V30.3q6.5-7.66,13.06-15.27V11.54q-7-.09-14,0v3.95h.93v-3q6.06-.06,12.13,0v2.18q-6.57,7.62-13.06,15.3v3.49q7-.12,14,0v-4H152v3q-6.07,0-12.13,0"/><path class="cls-1" d="M160.58,11.69v.93l3,.09v20l-3-.09v.93c1.58,0,2.37.06,4,.12V13.3Q169.78,23.71,175,34.15c1.7.09,2.54.14,4.24.25v-.93l-3-.18v-20l3,.19v-.94l-4-.24V32.67q-5.2-10.43-10.44-20.85c-1.7-.06-2.55-.09-4.24-.13"/><path class="cls-1" d="M189.78,13.34c-1.15,1.06-1.73,1.58-2.88,2.65V32.08l2.88,3.12c3.19.27,4.78.42,8,.75l2.88-2.58V17.28l-2.88-3.19c-3.18-.32-4.77-.47-8-.75m9.91,19.56L197.36,35c-2.88-.29-4.32-.43-7.2-.68l-2.33-2.52V16.43l2.33-2.13c2.88.26,4.32.39,7.2.68l2.33,2.57Z"/><path class="cls-1" d="M209,25q6,2.64,12,5.42v5.21l-2.31,2c-3.52-.51-5.28-.75-8.8-1.2v-3l-.93-.12v4c4,.5,6.06.78,10.1,1.37l2.87-2.46V29.86q-6-2.79-12-5.44V18.74l2.31-2c3.53.46,5.29.71,8.8,1.24v3l.93.14V17.17c-4-.62-6.06-.9-10.1-1.43L209,18.25Z"/><path class="cls-1" d="M31.23,42.77s0,0,0,0a.18.18,0,0,0,0-.09h0a.15.15,0,0,1,.05.06s0,0,0,.07"/><path class="cls-1" d="M44.25,34.06a13.4,13.4,0,0,1-3.65.55c-.21,0-.42,0-.63,0a14.89,14.89,0,0,1-7.86-2.8,17.34,17.34,0,0,1-4.77-5.14l-.15-.26c-.11-.15-.08-.25.08-.36a8.6,8.6,0,0,0,3.48-4.83c0-.08,0-.16.05-.23s0,0,0-.11l-.26.28a8.7,8.7,0,0,1-5,3.11,10.48,10.48,0,0,1-1.84.16,8.48,8.48,0,0,1-8.07-5.31c-.27-.62-.44-1.28-.66-1.93a1.77,1.77,0,0,0-.1-.22,1.46,1.46,0,0,0-.09.22,22.84,22.84,0,0,0-.5,6.9,52.85,52.85,0,0,0,3.23,14.36.53.53,0,0,0,.18.27l.18-1.09A15.21,15.21,0,0,1,19.87,32a8.28,8.28,0,0,1,2.46-2.61l.13-.05c0,.14,0,.26,0,.37a37.64,37.64,0,0,0,.1,6.37,24,24,0,0,0,1.08,5.25,13.34,13.34,0,0,0,2.95,5.1,8.59,8.59,0,0,0,5.54,2.74c.4,0,.79,0,1.19,0A16.36,16.36,0,0,0,39.26,48c1.55-.59,3.09-1.24,4.64-1.82a11.74,11.74,0,0,1,4.16-.84q.38,0,.75,0a5,5,0,0,1,2.46.67,3.28,3.28,0,0,1,.82.8,1.4,1.4,0,0,1,.11,1.44,1.63,1.63,0,0,0-.15.44c1.35-.79,1.76-2.17,2.18-3.54a13.72,13.72,0,0,1-.81,4.44l.07,0,.26-.2a12.44,12.44,0,0,0,2.66-3.87,21.1,21.1,0,0,0,1.9-7.22c.14-1.56.16-3.14.23-4.71a1.35,1.35,0,0,1,0-.33A15.4,15.4,0,0,1,60.45,38h.1l.24-2.2V32.36c-.09-.74-.16-1.48-.28-2.21a20.65,20.65,0,0,0-4.77-10.34A16.58,16.58,0,0,0,53,17.22a1.27,1.27,0,0,0-.34-.2c3.23,3.8,5.71,7.93,5.95,13.09a17.67,17.67,0,0,0-3-4.46A28,28,0,0,1,57,33.5a27.17,27.17,0,0,1-.87,7.93,28.91,28.91,0,0,0-2-8.29,22.65,22.65,0,0,1-2.78,11c0-.16,0-.23,0-.3a16.94,16.94,0,0,0-.87-5.13.86.86,0,0,1,0-.45A9,9,0,0,0,51,35.62a.73.73,0,0,0-.18-.52,4.83,4.83,0,0,0-3.24-1.5.27.27,0,0,1-.13,0h-.17l0,0H47a10.18,10.18,0,0,0-2.74.49M26.34,27.88a17.83,17.83,0,0,0,2.76,3l.16,0a2.23,2.23,0,0,1,1.47,1.23c.15.1.29.21.45.3a2.55,2.55,0,0,0-.3.26v.07a.4.4,0,0,1-.22.36.17.17,0,0,1-.1,0,2.13,2.13,0,0,0-.17.59l.15-.15a1.36,1.36,0,0,1,1.13-.58,2,2,0,0,1,.47.06,4.11,4.11,0,0,1,1.77,1,.45.45,0,0,1,.13.28c0,.56,0,1.13,0,1.69a.62.62,0,0,1-.2.38,6,6,0,0,0-1.47,1.66l-.16.21a11.32,11.32,0,0,1-1.74-2.36,2.18,2.18,0,0,0,.05.38.4.4,0,0,1,0,.27c-.26.29-.54.57-.84.89a10.83,10.83,0,0,1-1.48-2.43,2,2,0,0,0,0,.35c0,.09,0,.22,0,.27-.23.23-.48.43-.74.66l-.18-.22a7.08,7.08,0,0,1-1.22-4A1.24,1.24,0,0,1,26.75,31L27,31c.35,0,.57.28.79.54a1.33,1.33,0,0,1,.14.19l.1-.2a2.07,2.07,0,0,0-.69-1,.84.84,0,0,0-.46-.15.72.72,0,0,0-.6.34c-.1.14-.18.29-.27.44a7.25,7.25,0,0,1,.36-3.21m21.55,6.63a5.33,5.33,0,0,1,1.77.61,1.75,1.75,0,0,0-1.13.73l.07.11,0,0h0a1.5,1.5,0,0,1,1-.45h.14c.2,0,.31.09.31.31a9.18,9.18,0,0,1-.31,2.76c-.11.38-.26.74-.39,1.12a6.13,6.13,0,0,0-.75-1.69c.33.62,0,1-.37,1.47l-.21.25.06.15.8-.72c.12.89.22,1.73.33,2.58.18-.84.11-1.76.82-2.45,0,.12.09.24.12.36a11.42,11.42,0,0,1,.23,3.91c0,.4-.06.52-.24.52a2.72,2.72,0,0,1-.42-.07c-.43-.11-.89-.15-.91-.77a.88.88,0,0,1-.57.28.61.61,0,0,1-.28-.07,4.23,4.23,0,0,1-.53-.33l0,0a1,1,0,0,0-.07.15l.24.43-.54.06a.92.92,0,0,1-.68.32,1.06,1.06,0,0,1-.51-.14l0,0-.61.11a35.55,35.55,0,0,0-5.5,1.76,24,24,0,0,1-5.88,1.61,10.69,10.69,0,0,1-1.13.06,7,7,0,0,1-6.17-3.41c-.2-.3-.37-.61-.57-.94a3.66,3.66,0,0,0,1.76-.57,2.46,2.46,0,0,1,.07-.29l-.46.18a1.9,1.9,0,0,1-.64.12,1.07,1.07,0,0,1-1.16-1.09s0,0-.06-.06l-.16.18a1.54,1.54,0,0,1-.09-.19c-.22-1-.44-2-.65-3a.6.6,0,0,1,.08-.39c.36-.57.72-1.14,1.1-1.68a4.85,4.85,0,0,1,.6-.6c.18.33.31.61.48.88a.46.46,0,0,1,0,.49,9.35,9.35,0,0,0-.38.92c.32-.33.56-.71.85-1a12.31,12.31,0,0,1,1-.9c.29.63.53,1.18.8,1.71a.65.65,0,0,1,.05.59,6.55,6.55,0,0,0-.22.79l.09,0a4.84,4.84,0,0,1,1.7-2.19c.35.61.66,1.17,1,1.72a.56.56,0,0,1,.09.51c-.08.23-.11.46-.18.75.38-.61.69-1.17,1.06-1.69a5,5,0,0,1,1.42-1.31c0,.11.06.18.08.26a13.29,13.29,0,0,0,1,3.32.5.5,0,0,1,0,.36c-.22.56-.46,1.12-.7,1.67a.54.54,0,0,1-.13.22,4,4,0,0,1-1.7.81l-.28,0a1.07,1.07,0,0,1-1.13-.81.46.46,0,0,1-.11.27,1.07,1.07,0,0,1-.16.14v.09a1,1,0,0,0,1,1.07h.17a2.9,2.9,0,0,0,1-.36,10.58,10.58,0,0,0,1.11-.85c0,.15,0,.27,0,.39a12,12,0,0,1,3.34-4.43c.09.14.16.22.21.31a8.22,8.22,0,0,1,1,3.54,1.11,1.11,0,0,0,.73.94.63.63,0,0,0,.29.08.64.64,0,0,0,.39-.14,1.31,1.31,0,0,0,.47-.8,1.49,1.49,0,0,1,0-.21l-.08.12a.91.91,0,0,1-.77.5,1,1,0,0,1-.59-.21A.57.57,0,0,1,39,43a9.79,9.79,0,0,0-.22-2V41a.42.42,0,0,1,0-.19A10,10,0,0,0,38.14,39a1.52,1.52,0,0,1-.09-1.18,6.75,6.75,0,0,0,.17-1.11l-.1,0a.86.86,0,0,0-.1.16,6.23,6.23,0,0,1-1.56,2.45,12,12,0,0,0-1,1.16c-.64-1.26-1.09-5.21-.68-6,.65.21,1.29.46,2,.62A1.73,1.73,0,0,1,38,36a2.09,2.09,0,0,0,.17.15c0-.3-.07-.5-.1-.73l1,.13-.68.59,0,.08a2.74,2.74,0,0,1,1.23-.42,1.27,1.27,0,0,1,1.06.64.67.67,0,0,1,.06-.15c-.11-.22-.23-.43-.34-.66h.13c.28,0,.56,0,.83,0a1.37,1.37,0,0,1,.73-.23h0a1.65,1.65,0,0,1,.32.06c.92-.2,1.84-.48,2.76-.73a6.54,6.54,0,0,1,1.64-.22,6.09,6.09,0,0,1,1,.09"/><path class="cls-1" d="M48.53,47.24a4.87,4.87,0,0,0-.66,0A12,12,0,0,0,44,48c-1.65.57-3.28,1.17-4.95,1.67a23,23,0,0,1-6.07,1h-.22A8.77,8.77,0,0,1,26.48,48a14.58,14.58,0,0,1-4.13-7.67c-.17-.79-.25-1.6-.37-2.4a.6.6,0,0,0-.08-.21,19.33,19.33,0,0,0,.58,6.56,17.63,17.63,0,0,0,6.42,9.54,19.54,19.54,0,0,0,6.47,3.38,11.65,11.65,0,0,1-2.56-2.82,38.52,38.52,0,0,0,12.38,4.7c-.67-.72-1.3-1.35-1.88-2a8.89,8.89,0,0,1-1.39-2.34c.09.05.13.07.15.1a10.34,10.34,0,0,0,4.27,3.06c1.17.5,2.38.91,3.58,1.37l.13.06h.18c-.21-.37-.43-.74-.62-1.11a7.21,7.21,0,0,1-.85-4.39,1.91,1.91,0,0,1,.13-.51A4.8,4.8,0,0,0,50,56.12l.08,0c0-.15,0-.3,0-.45a8,8,0,0,1,.53-3,18.26,18.26,0,0,0,.54-2.18,2.61,2.61,0,0,0-2.54-3.21"/><path class="cls-1" d="M28.4.91a20.22,20.22,0,0,0-4.29.48,21,21,0,0,0-5,1.82.34.34,0,0,1-.16,0,.42.42,0,0,1-.25-.12A14.84,14.84,0,0,0,12.59.27C12.08.16,11.56.09,11,0H8.73a.53.53,0,0,1-.12,0A12.39,12.39,0,0,0,2.3,2.69c-.23.18-.44.38-.66.58l.05,0,1.89-.54a.12.12,0,0,1,0,.12A7.26,7.26,0,0,0,.38,7.29C.21,7.87.13,8.48,0,9.08v2.26A2.37,2.37,0,0,0,.22,11c.29-.67.56-1.34.85-2a1.21,1.21,0,0,1,.26-.36,9.4,9.4,0,0,0,3.06,8.71,13.72,13.72,0,0,1-2.1-5.44,12,12,0,0,1,.6-5.79A8.43,8.43,0,0,0,1.11,7.75a9.78,9.78,0,0,1,5.79-6H6.18l-.73.05a.29.29,0,0,0,0-.09c.58-.18,1.15-.39,1.73-.53A10.45,10.45,0,0,1,9.55.93,11.73,11.73,0,0,1,15,2.36a15.17,15.17,0,0,1,3.37,2.4.39.39,0,0,0,.24.13.32.32,0,0,0,.19-.07,18.25,18.25,0,0,1,7.64-2.76,18.62,18.62,0,0,1,2.34-.15,15.37,15.37,0,0,1,7.41,1.83A13.21,13.21,0,0,1,39,5.79l.22.2.07-.06c-.27-.35-.51-.72-.8-1a11.39,11.39,0,0,0-5.76-3.41A16.52,16.52,0,0,0,28.4.91"/><path class="cls-1" d="M1.61,31.93a34.25,34.25,0,0,0,1.33,8.83,1.42,1.42,0,0,0,.16.36A30.26,30.26,0,0,1,3.94,35c.15,1,.27,1.92.43,2.84a27,27,0,0,0,1.41,5,21.27,21.27,0,0,0,3.55,6.07A18.85,18.85,0,0,0,15,53.45a.42.42,0,0,0,.2,0h0a12,12,0,0,1-2.8-5.22l.12.06a16.66,16.66,0,0,0,4.73,3.09,49.1,49.1,0,0,0,4.7,1.9c2.09.71,4.23,1.28,6.36,1.9a.48.48,0,0,0,.18,0l.15,0a1.19,1.19,0,0,0-.15-.09A16.16,16.16,0,0,1,21,48.67a21.76,21.76,0,0,1-2.92-7.54.64.64,0,0,0-.12-.27,19.6,19.6,0,0,0,.14,4.53,15.82,15.82,0,0,0,1.27,4.36l-.06,0L19,49.69a15.22,15.22,0,0,1-6.21-5.45,17.16,17.16,0,0,1-2.66-6.73c-.18-1-.26-2.12-.38-3.18A.61.61,0,0,0,9.65,34c-1.09,3.38-.82,6.79-.27,10.22-.13-.3-.27-.59-.4-.89s-.26-.61-.38-.93a25.3,25.3,0,0,1-1.29-5.35,28.61,28.61,0,0,1-.08-6.54,31.15,31.15,0,0,1,1.66-7.45.37.37,0,0,0,0-.21,21.48,21.48,0,0,0-3.62,9c-.07-.56-.15-1.12-.21-1.68a24,24,0,0,1,1-9.82,25.18,25.18,0,0,1,5-8.83A26.17,26.17,0,0,1,15,7.75l.24-.17c.4-.28.41-.29.11-.65a7.3,7.3,0,0,0-3-2.47A7.23,7.23,0,0,0,9.85,4a6.3,6.3,0,0,0-3,.79A3.45,3.45,0,0,0,6,5.46a6.24,6.24,0,0,1,2.38-.57l.55,0A5.38,5.38,0,0,0,4.94,7,4.8,4.8,0,0,0,4,9.65c.16-.28.31-.58.5-.85s.42-.47.64-.71l.05.05c-.06.39-.15.79-.2,1.19a7.07,7.07,0,0,0,1.59,5.28.44.44,0,0,1,0,.63A24.07,24.07,0,0,0,2.05,25.87a30.81,30.81,0,0,0-.44,6.06"/><path class="cls-1" d="M48.29,31.77a3.52,3.52,0,0,0,2-1.08.41.41,0,0,0,0-.61,5.75,5.75,0,0,1-.63-5c0,.52,0,1.15,0,1.78a4.27,4.27,0,0,0,.62,2,.85.85,0,0,0,.69.5.94.94,0,0,0,.68-.38c.17-.19.32-.39.52-.64a12.13,12.13,0,0,1-.53,6.68l.07,0,.19-.27a13.58,13.58,0,0,0,2.15-7.48c0-.75-.13-1.49-.21-2.24q-.08-.84-.18-1.68a4.32,4.32,0,0,0-1.56-3.09,6.11,6.11,0,0,0-2.45-1.1.39.39,0,0,1-.25.25l-.13,0a.39.39,0,0,1-.23-.07l-.59-.39a12.12,12.12,0,0,0-1.59-.1,13.69,13.69,0,0,0-5.09,1,2.11,2.11,0,0,0-.34.16l0,.07.34-.07a16.66,16.66,0,0,1,4.43-.6c.42,0,.85,0,1.27,0a6.33,6.33,0,0,1,3.29,1,2.25,2.25,0,0,1,.79.94l-1-.25A13.78,13.78,0,0,0,47.88,21a15.32,15.32,0,0,0-4.13.59,3.7,3.7,0,0,1-1,.14,2.52,2.52,0,0,1-2-1s0,0-.06-.06l-.11-.06a6.93,6.93,0,0,0-.41.76,6.41,6.41,0,0,0,.16,5.35,8.32,8.32,0,0,0,1,1.58,2.55,2.55,0,0,0,2,1,2.61,2.61,0,0,0,2.14-1.1,5.46,5.46,0,0,0,.9-3.11c0-.14,0-.28,0-.41a4.72,4.72,0,0,1-.64,4.15,2.91,2.91,0,0,1-2.17,1.12l-.46.05a3.93,3.93,0,0,0,.39.36,7.11,7.11,0,0,0,3.36,1.52.4.4,0,0,1,.28.24,7.11,7.11,0,0,1,.1.79c0,.1,0,.19,0,.29h.12a6.1,6.1,0,0,0,.31-.91.55.55,0,0,1,.54-.5"/><path class="cls-1" d="M47.32,33.2l.11,0v0h-.12v0"/><path class="cls-1" d="M49.14,9.1c-.28.05-.46.07-.63.11A2,2,0,0,1,48,9.3h0l.64-.56-.51,0a2.65,2.65,0,0,0-2,.76,3.18,3.18,0,0,0-.88,2.44c.37-1,.71-2.05,2-2.41l-.42,1,.08.06a4.7,4.7,0,0,1,2.38-.75,3.91,3.91,0,0,1,.67.07,5.22,5.22,0,0,1,1.11.39H49.53l0,.07a.78.78,0,0,0,.15.1,4,4,0,0,1,2.45,2.82,8.37,8.37,0,0,1,.35,2.49,1,1,0,0,0,0,.36,7.86,7.86,0,0,0,1.57-3.45,12.23,12.23,0,0,0,0-3.82,3.88,3.88,0,0,1,.67,1.31,4.33,4.33,0,0,0-.8-3,4.57,4.57,0,0,0-2.61-1.67,5.62,5.62,0,0,1,1,.08c.33.07.63.24,1,.33a3.59,3.59,0,0,0-.38-.4,3.32,3.32,0,0,0-2.11-.69,6.11,6.11,0,0,0-.73,0A4,4,0,0,0,48,6L46.34,4.72A6.61,6.61,0,0,1,50.89,3a6.54,6.54,0,0,1,3.33.88l-1.3-.07a.56.56,0,0,1-.05.08,7.82,7.82,0,0,1,4.39,5.72,7.77,7.77,0,0,0-1.57-1.87,12.84,12.84,0,0,1-1.25,9.75,6.22,6.22,0,0,0,2-3.08,11.22,11.22,0,0,0,.5-3.65,13,13,0,0,1,1.11,2.6c.31-3.15,0-6.14-2.49-8.51l.72.26.76.32A1.16,1.16,0,0,0,57,5.26,9.37,9.37,0,0,0,52.46,2.4a7.88,7.88,0,0,0-2-.25A8.28,8.28,0,0,0,46.92,3c-.52.25-1,.62-1.49.91a.56.56,0,0,1-.26.07A.25.25,0,0,1,45,4,12.78,12.78,0,0,0,39,2.52c-.32,0-.63,0-.95,0a14.08,14.08,0,0,0-1.42.17h.25A13.93,13.93,0,0,1,49.14,9.1"/><polyline class="cls-1" points="36.6 2.72 36.61 2.72 36.61 2.72 36.6 2.72"/><path class="cls-1" d="M48.79,16.79a1.58,1.58,0,0,1-.55,1.08c-.21-.06-.18-.19-.09-.34a1.43,1.43,0,0,0,.12-1.23c0,.09-.05.19-.08.28a1.09,1.09,0,0,1-.55.74.22.22,0,0,1-.15,0l-.08,0s-.06-.15-.06-.23a.71.71,0,0,1,0-.22,3.42,3.42,0,0,1-.5-.21s0-.23,0-.26a2.73,2.73,0,0,1,.47-.18.36.36,0,0,0,0-.2c-.15-.23,0-.38.13-.53a1.49,1.49,0,0,1,.92-.41,1.41,1.41,0,0,1,.94.47c.2.19.36.42.56.65a.46.46,0,0,0,0-.16,4.39,4.39,0,0,0-.74-1.7A1.42,1.42,0,0,0,48,13.73a1.58,1.58,0,0,0-.58.12,5.58,5.58,0,0,0-1.77,1.23l-.44.42-.09,0v-1.6H45a3.19,3.19,0,0,1-.13.44c-.19.49-.38,1-.58,1.46a.25.25,0,0,1-.24.18l-.12,0a14.52,14.52,0,0,0-3.51-.42,18.55,18.55,0,0,0-4,.46L36.1,16a9.51,9.51,0,0,0,.55-2.51l-.07,0c-.06.1-.13.2-.18.3A3.43,3.43,0,0,1,35,15.28a5.7,5.7,0,0,1-1.35.41h0a.68.68,0,0,1-.39-.26,17.09,17.09,0,0,0-2.68-2.63,6.47,6.47,0,0,0-1-.63,1.94,1.94,0,0,0-.85-.21,1.88,1.88,0,0,0-1,.32A5.23,5.23,0,0,0,26,14.41a.62.62,0,0,0,0,.16,4.78,4.78,0,0,1,2.4-1.1,2.26,2.26,0,0,1,.88.19,1.93,1.93,0,0,0-.93,1.07A5.24,5.24,0,0,1,29,15c.08.05.11.23.11.35,0,.31-.24.45-.69.45h-.14c0,.06,0,.12,0,.19l-.08,0-.51-1.11a2.38,2.38,0,0,0,.89,2.37,3.15,3.15,0,0,0,1.79.55,2.88,2.88,0,0,0,.41,0c.44,0,.87-.12,1.35-.19a4.4,4.4,0,0,0-.86,1.84A7.81,7.81,0,0,1,37,17a11.26,11.26,0,0,1,3.26.53l.06-.06-1.49-.85a21.59,21.59,0,0,1,2.27-.13,14.39,14.39,0,0,1,3.18.34l-.71.51a.28.28,0,0,1,0,.09,5.6,5.6,0,0,1,1.2-.14,7.18,7.18,0,0,1,3.88,1.37l.71.11a4.2,4.2,0,0,0-.59-2m-18.08.3.93-.88.3.51-1.23.37"/><path class="cls-1" d="M49.38,18.76l-.71-.11.4.27.31,0a1.47,1.47,0,0,0,0-.21"/><path class="cls-1" d="M49.35,19.11l0-.14-.31,0,.28.19"/><path class="cls-1" d="M29.05,8.14a12.23,12.23,0,0,1,1.58.11l0-.08-1-.68A10.12,10.12,0,0,1,34.06,10,5.9,5.9,0,0,0,33.17,8a6.14,6.14,0,0,1,3.4,3.62A4.19,4.19,0,0,0,35.5,8.88a6.1,6.1,0,0,0-4.32-2h-.06l1.19,1a.59.59,0,0,0,0,.08,7.33,7.33,0,0,0-3.88-1.06A11.09,11.09,0,0,0,26.5,7l1.83.43V7.5c-2.57.22-4.69,1.65-5,3.43a6.64,6.64,0,0,1,5.7-2.79"/><path class="cls-1" d="M26.14,15.5H26A10.72,10.72,0,0,0,25.8,17a7.22,7.22,0,0,0,.06,1.86,1.51,1.51,0,0,0,1.53,1.41,2.49,2.49,0,0,0,.68-.1,6.65,6.65,0,0,0,2.38-1.29,4.06,4.06,0,0,0,.5-.45c-.21,0-.42,0-.63,0a3.92,3.92,0,0,1-4.18-2.92"/><path class="cls-1" d="M47.31,39.59c0-.23,0-.47,0-.71h-.09c0,.18,0,.36-.07.54s-.13.4-.37.4h-.08l-.86-.06c-.17,0-.24-.09-.24-.26s0-.46,0-.7h-.08c0,.19-.1.38-.13.58a.34.34,0,0,1-.38.35h0l-1.27,0a.26.26,0,0,1-.27-.31,1.11,1.11,0,0,0-.09-.49,4.69,4.69,0,0,0-.21.46.38.38,0,0,1-.39.3h0l-1.51-.06a.32.32,0,0,1-.33-.31c0-.31-.1-.62-.15-.92l-1.48,2.44,0,.06,1.05-.93.59,1h0a5.17,5.17,0,0,0-.07-.55c0-.25.05-.43.3-.44h1.57a.29.29,0,0,1,.31.29.46.46,0,0,0,.14.32,2.3,2.3,0,0,0,.06-.28c0-.21.1-.32.31-.32h0c.59,0,1.17.05,1.75.1.07,0,.16.14.19.23s0,.21.08.32c0-.05.08-.1.08-.16a.4.4,0,0,1,.44-.4h.07l1,.09c.28,0,.37.18.39.43s0,.49.05.73h.09c0-.27,0-.53.07-.8l-.09-.05,0,0h0a.4.4,0,0,1-.09-.51.05.05,0,0,1,0,0l-.11,0c-.05,0-.1-.15-.11-.23"/><path class="cls-1" d="M47.6,40.39l0,0,0,0,.09.05v-.1a.57.57,0,0,0,0-.13l0,0a.19.19,0,0,1,0-.25l0,0a.45.45,0,0,0-.17-.11l0,0a.4.4,0,0,0,.09.51"/><path class="cls-1" d="M39.16,40.82v0h0l0-.06v0"/><path class="cls-1" d="M47.73,40.23l0,0A.53.53,0,0,0,47.7,40l0,0a.2.2,0,0,0,0,.25"/><path class="cls-1" d="M36.55,45.39a2.68,2.68,0,0,1-2.11-1.1,1.89,1.89,0,0,0,1.88,2,1.65,1.65,0,0,0,.44-.05,3.56,3.56,0,0,0,2-1.35.3.3,0,0,0,0-.08s0,0,0-.1a4.85,4.85,0,0,1-2.21.69"/><path class="cls-1" d="M28.28,43.46a.85.85,0,0,0,.58.34H29a2.34,2.34,0,0,0,1.57-.65l0-.16a5.68,5.68,0,0,1-.7.22,1.64,1.64,0,0,1-.42.06,1.05,1.05,0,0,1-1.06-.83,1.31,1.31,0,0,1-.3.41,1.09,1.09,0,0,0,.13.61"/><path class="cls-1" d="M30.6,43.15a1.7,1.7,0,0,0,.24-.22h0l-.21.07,0,.16"/><path class="cls-1" d="M28.45,42.44l-.06-.19s0,0-.06-.13l0,.09a.2.2,0,0,1,0,.11.31.31,0,0,1-.05.1,2.31,2.31,0,0,0-.08.43,1.31,1.31,0,0,0,.3-.41"/><path class="cls-1" d="M30.86,42.91h0l0,0"/><path class="cls-1" d="M28.3,42.21a1.72,1.72,0,0,0-.07.21.31.31,0,0,0,.05-.1.2.2,0,0,0,0-.11"/><path class="cls-1" d="M47.11,36.15c0,.13-.08.26-.13.44-.19-.35-.35-.7-.74-.7a.65.65,0,0,0-.19,0,.88.88,0,0,0-.55.49,3,3,0,0,1,.1.32l0,0a.92.92,0,0,1,.6-.28.84.84,0,0,1,.59.28.28.28,0,0,0,.15.08s.08,0,.13-.1q.32-.45.6-.45a.36.36,0,0,1,.2.06.37.37,0,0,1,0-.18c0-.06.05-.11.07-.17a.59.59,0,0,0-.39-.17.61.61,0,0,0-.54.41"/><path class="cls-1" d="M48.33,36.68h0a.14.14,0,0,0,.12.07l0-.09h-.08"/><polygon class="cls-1" points="48.32 36.27 48.32 36.27 48.33 36.28 48.32 36.27"/><path class="cls-1" d="M47.92,36.26a1.15,1.15,0,0,1,.39.42h.1c0-.07,0-.13,0-.2h0a.2.2,0,0,1-.17-.09h0a.2.2,0,0,1,0-.22l0-.09L48.12,36a.6.6,0,0,0-.08-.08c0,.06,0,.11-.07.17a.35.35,0,0,0,0,.18m.41.41Z"/><polygon class="cls-1" points="48.32 36.27 48.32 36.27 48.33 36.28 48.32 36.27"/><path class="cls-1" d="M48.16,36.39h0a.2.2,0,0,0,.17.09h0c0-.07,0-.13,0-.2a2.14,2.14,0,0,0-.13-.19l0,.09a.2.2,0,0,0,0,.22"/><path class="cls-1" d="M44.16,43.16c-.29,0-.58-.24-1-.71a1.71,1.71,0,0,1,0,.32,3.7,3.7,0,0,0,.33.66.76.76,0,0,0,.64.35.83.83,0,0,0,.63-.29,1.53,1.53,0,0,0,.32-.55,1.3,1.3,0,0,1-.07-.33c-.34.36-.61.55-.87.55"/><path class="cls-1" d="M41.91,43.8h0a1,1,0,0,0,.83-1h0a1.05,1.05,0,0,1-.06-.24c-.35.47-.61.65-.87.65a1.51,1.51,0,0,1-.7-.28c0,.07,0,.14,0,.2a.88.88,0,0,0,.8.65"/><path class="cls-1" d="M41.07,42.92a.59.59,0,0,0,0,.23c0-.06,0-.13,0-.2l-.06,0"/><path class="cls-1" d="M42.78,42.48l-.08.1a1.05,1.05,0,0,0,.06.24h0a2,2,0,0,0,0-.35"/><path class="cls-1" d="M45.59,42.56a1.8,1.8,0,0,1-.07.38,1.63,1.63,0,0,0,.44.67l.87-.11h.05l0-.1,0-.09a.42.42,0,0,1-.05-.22.72.72,0,0,1-.37.11c-.25,0-.52-.17-.87-.63"/><path class="cls-1" d="M46,43.61l.12.08a1.13,1.13,0,0,0,.24.08l.31,0a.6.6,0,0,0,.23-.22l0,0h-.05l-.87.11"/><path class="cls-1" d="M46.88,43.3l0,.09a1.63,1.63,0,0,0,.11-.23.21.21,0,0,1,.07-.23l0,0v0a2.62,2.62,0,0,1-.34.21.42.42,0,0,0,.05.22"/><path class="cls-1" d="M46.41,43.78a.59.59,0,0,0,.22-.05l-.31,0h.09"/><path class="cls-1" d="M47,43.16l.12-.26,0,0a.19.19,0,0,0-.07.22"/><path class="cls-1" d="M45.52,42.94a1.8,1.8,0,0,0,.07-.38l-.16-.22a1.33,1.33,0,0,0,.09.6"/><path class="cls-1" d="M43,36.81a1.17,1.17,0,0,0-.6-1,8.46,8.46,0,0,1-.9.14,1.54,1.54,0,0,0-.3.32v0a.4.4,0,0,1,0,.41,1.45,1.45,0,0,1,.91-.46,1.14,1.14,0,0,1,.9.59"/><path class="cls-1" d="M41.23,36.27v0a1.64,1.64,0,0,0-.25.65l.24-.22a.4.4,0,0,0,0-.41"/><path class="cls-1" d="M42.12,35.72h0a1,1,0,0,0-.6.21,8.46,8.46,0,0,0,.9-.14.73.73,0,0,0-.3-.07"/><path class="cls-1" d="M44.41,35.94h0a1.08,1.08,0,0,0-.92,1.1,1.63,1.63,0,0,1,1-.55.86.86,0,0,1,.54.21,2.46,2.46,0,0,1,.07-.29.77.77,0,0,0-.65-.47"/><path class="cls-1" d="M45.19,36.75a1.26,1.26,0,0,0-.13-.34,2.46,2.46,0,0,0-.07.29,1.41,1.41,0,0,1,.18.17s0-.08,0-.12"/><path class="cls-1" d="M45.22,36.92l0-.17s0,.08,0,.12l0,.05"/><path class="cls-1" d="M28.45,31.58c0,.1,0,.2.05.3a.41.41,0,0,1-.23.41.59.59,0,0,1-.17,0h0a1.22,1.22,0,0,1-.07.17l.11.06a1.27,1.27,0,0,1,.93-.63,1,1,0,0,1,.32.06,5.09,5.09,0,0,1,1,.74.86.86,0,0,1,.07-.1,1.21,1.21,0,0,0-.05-.18A17.89,17.89,0,0,1,29,31.33a.73.73,0,0,0-.5.25"/><path class="cls-1" d="M30.48,32.8a.57.57,0,0,0,0-.18.86.86,0,0,0-.07.1l.1.08"/><path class="cls-1" d="M28.27,32.29a.41.41,0,0,0,.23-.41c0-.1,0-.2-.05-.3l-.1.12-.06.12s0,.05,0,.08a.19.19,0,0,1-.12.2h0l-.09.21h0a.59.59,0,0,0,.17,0"/><path class="cls-1" d="M30.16,32c-.29-.21-.56-.43-.84-.65a.28.28,0,0,0-.13,0l-.17,0H29a17.89,17.89,0,0,0,1.45,1.11,1.91,1.91,0,0,0-.24-.41"/><path class="cls-1" d="M29.32,31.38c.28.22.55.44.84.65a1.8,1.8,0,0,0-.84-.65"/><path class="cls-1" d="M28.3,31.9s0,0,0-.08-.1.19-.14.29h0a.19.19,0,0,0,.12-.2"/></g></g></svg>