<svg xmlns="http://www.w3.org/2000/svg" viewBox="0 0 1685.26 547.35"><defs><style>.cls-1{fill:#17173a;opacity:0.05;}</style></defs><title>gray-torn-bg</title><g id="Capa_2" data-name="Capa 2"><g id="Capa_1-2" data-name="Capa 1"><path class="cls-1" d="M1685.26,35.14V547.35H0V0H13.94c3.64,3.1,2.86,10.33,13.13,13.32.42.11,1,.36,1.06.66,7.33,26.31,49.47-3.24,56.62,4.79.79.85,4.37-.25,11-1.62.68,16.38,17.69,7.18,25.15,4.41,1.29-.48,4.79.52,6.83.38,12.78-.86,16.44,2.11,20.54-3.55,4.58-6.29,9-1.72,12.51-4.81,5.86-5.22,8.05-3.3,10.51,2.46,2.69,6.34,5.24,2.59,11,5.9,6.81,3.95,13-2.13,16.16-4.24,25,14.93,35.73,6,40.58,7.17A13.53,13.53,0,0,0,252.09,35s12.72-.47,13.29-.66c7.35-2.27,5.26.92,7.92,1,4.63.11,2.33,3,6.72,3.95,12.36,2.66,14.65-3.62,19.61-3.47s9.86-1.82,14.79-.06c1.43.51,19.77,1.44,30-.17,1.12,1.83,2.51,3.57,4.63,3.6,5.56.06,11.13-.25,16.48-2.15,4.47-1.6,1.71,1.63,9.94.71,4.32-.49,5.2,1,11.9,2.27,7.24,1.37,5.66,6.51,10.59,6.14,10.27-.79,35.2,2.51,42.78-4.11,5-4.34,9.53-.8,12.33-4.78,1.67-2.41,5.23-.31,8-1.37,4.9-1.93,4.27,3.27,12.5.48,2.59-.91,5-2.54,7.69-3.08,2.32-.46,3.68-1.81,5.36-3.1,6.74-5,20.21-4.58,22.7-10.59,9.66,0-.08,3.28,15.21,1.86,23-2.13,24.23,7.54,30.63,8.27.65.05,1.5-.5,2-.24,1.92,1.11,3.38.08,5-.74,5.44-2.69,6.16,3.11,14.42-2.47,1.71-1.14,9-3.86,10.55-2.53,1.84,1.55,2.74.68,11.29-2.85,2.4,3.46,12,3.47,13-2,6.21.21,8.54,3,12.69-.62.83-.73,3.6-.38,4.51-.92,3.11-1.85,10.78-.79,11.32-.17,2.13,2.37,4,1.3,10,.47,2.26,7.73,10.68-2.29,14.72-.55.47.21,1.3-.26,1.91-.51,7.51-3.16,8.5,3.83,11.85,4.19,1.85.22,3.62,1,5.59.1s3.65,1.39,5.65,1.31c4.23-.17,6.42-.14,8-1.64a7.73,7.73,0,0,0,3.9-1.3,38.53,38.53,0,0,0,3.28-3.7l.19.38c9.09-4.24,3.37-2.73,14.78,2.75,9.64,4.64,5.44.12,18.07,4.91,5.91,2.24,5.2-.95,9.27.65,3.52,1.42,5.39.51,11.7-2.48,3.92-1.84,9.36,8.91,17.1,8.47s-1.12,5.82,20.6-1.08c4.2-1.31,6.87,4.49,11.57-1.54,3.63-4.7,5.4.91,10.72-2.75a3.48,3.48,0,0,1,2.26-.26c3.06.45,12.46,3.23,16.41,2.06C847,24,856.15,21.15,857,20.86c1.79-.63,5.92-.33,7.74-1.18,4-1.84,4,1,18.19,1.78,5.12.29,10.17.65,14.95,2.38,3.85,1.39,7.4,3.53,12,3.49,0,0,2.61,1.87,7.7,2.19,35.76,2.26,19.35-2.43,49-.15,11.24.86,19.38,3.1,23.77,1.56,2.75-1,3.52-.49,15.87-.55,3.36,0,19.64-3.53,31.39-2,5.42.69,15.89-.16,16.33-.11,8,1.11,7.75-.81,10-1,24.54-1.9,9.5-4.39,25.76-3.42,4.75.28,4.7-1.87,10.93-2.73,11.79-1.61,12.92-1.63,16.58.43,1.51.86,7.37,4.87,12.27,4.93,10.84.17,11.88-.32,13-1.67,2-2.4,4.25-1.36,6.53-1.77,25.81-4.56,22.55.79,63.23-12.24,7.09,3.43,8.91.73,21.92-1.91,20.71-4.19-6-2.24,30.17-4.5,6.62-.43,4.6,1.09,14.95-1,18.23-3.62,21.12.08,25.65.88,3.67.66,7.36,1.26,10.58,2.88a4.17,4.17,0,0,0,2.57.36c6.29-1.84,32.84,6.19,45.47,3.07a5.57,5.57,0,0,1,3,0c2.79,1.23,7.86.15,9.48.59,6.26,1.66,9.83-1.59,14.23-1.31.57,0,16.57,1.34,18.13,1.65,6.57,1.28,10.16-.4,14.42.52,16.22,3.51,0-5,25.16,5.06,1,3.16,3.13,4.19,6.9,2.69,4.42-1.77,7.18,2.62,13.66,1.07,0,0,6.91,1.25,10.87.69,5.28-.76,9.79,1.1,12.88.47,5.77-1.18,8,1.15,11.23-.94,4.33-2.84,19.59-.63,21.26-.58,7.05.24,8.34,4.28,11.1,4.93,3.84.87,10.7,2.12,14.36.78,9.31-3.37,12.27-1.47,17.54-1.25,42,1.87,31.92,6.3,49.66,3.48,2.67-.42,5.54,0,8-1.32a3.38,3.38,0,0,1,.66,0c3.85.78,5.38-2,10-1.23a6.61,6.61,0,0,0,2.54-.3c4.15-1,8.23-2.33,12.67-1.93,5.83.47,7,.46,8.44,1.8,5.35,5,8.64.78,16.37,5.89A37.66,37.66,0,0,0,1685.26,35.14Z"/></g></g></svg>