<svg xmlns="http://www.w3.org/2000/svg" viewBox="0 0 80.14 60.75"><defs><style>.cls-1{fill:#302d5c;}</style></defs><title>header-logo</title><g id="Capa_2" data-name="Capa 2"><g id="Capa_1-2" data-name="Capa 1"><path class="cls-1" d="M44.63,49.41v-.79L44,49.4Z"/><path class="cls-1" d="M78.42,43.3c-2.34-.37-4.72-.71-7.07-1l-.91-.12-.69.6-1.32,1.16-1.49-1.65-.52-.58-.78-.08c-1.7-.18-18.37-2.91-50.8,0l-.78.08-.52.58-1.49,1.65-1.32-1.16-.69-.6-.91.11c-1.7.22-3.43.46-5.13.71l-.75.11-.49.57L.49,46.26,0,46.83V57.61l.72.61L3,60.14l.71.61.92-.14c1.67-.25,3.36-.48,5-.7l.76-.09.34-.38v.33L13,59.51c2.31-.26,4.66-.49,7-.69l.79-.06.41-.44v.39l2.17-.14c3.36-.22,6.79-.39,10.17-.5h1.11c1.85,0,3.73,0,5.58,0l4.15,0h.29l.83,0c1.82,0,2.7.07,4.51.14l1.73.07h0l1.21.06c1.53.08,2.28.13,3.83.24l2.18.15v-.4l.41.44.79.06c1.68.14,3.38.3,5.06.48l.9.1.68-.61v.67l1.8.22c2.31.27,4.65.59,7,.93l.92.14.71-.61,2.25-1.92.72-.61v-14ZM9.62,58c-1.7.21-3.39.45-5.09.7-.9-.77-1.35-1.16-2.26-1.92V47.64L4.53,45c1.7-.26,3.39-.49,5.09-.7l2.27,2V55.4C11,56.41,10.53,56.92,9.62,58Zm12.7-10.36c-1.36.1-2,.15-3.4.27V46.73l-2.5.23v1.25q3,.63,5.9,1.31V54.4l-2.27,2.45c-2.35.19-4.69.43-7,.69V53c1.36-.15,2-.23,3.4-.36v1.13l2.5-.23V52.29c-2-.42-3.93-.83-5.9-1.22V46.19c.9-1,1.36-1.52,2.27-2.52,2.34-.24,4.69-.45,7-.62Zm11.38,0c-1.37,0-2.05.06-3.41.12V46L28,46.1v2.27l2.28-.11v2.27L28,50.64v2.27l2.28-.11V51.1L33.7,51v5.11q-5.13.16-10.24.5V53.18l1.14-.07V46.29l-1.14.08V43c3.41-.23,6.82-.39,10.24-.5ZM44.63,56q-4.91-.06-9.79,0v-3.4q2.89-3.45,5.83-6.87H38.25v1.13c-1.36,0-2,0-3.41,0V42.44c3.26-.06,6.52-.06,9.79,0v3.41q-2.93,3.36-5.81,6.77h2.39V51.46l3.42,0Zm12.52-9.67L56,46.29v6.82l1.14.07v3.41c-1.55-.11-2.32-.16-3.87-.24q-1.47-3.08-3-6.13v6c-1.82-.08-2.73-.1-4.55-.15v-3.4l1.14,0V45.88l-1.14,0V42.44c1.55,0,2.32.06,3.87.12,1,2,2,4.07,3,6.1v-6c1.82.09,2.73.15,4.55.28Zm10.78,8.94-2.27,2c-1.7-.18-3.4-.34-5.11-.48-.9-1-1.36-1.48-2.27-2.45V45.32l2.27-2.09c1.71.14,3.41.3,5.11.48.91,1,1.36,1.5,2.27,2.52Zm10.4-5.4-3.39-.51V48.27c-1-.15-1.49-.21-2.48-.35v1.25c2,.87,3.92,1.76,5.87,2.67v4.89l-2.26,1.92q-3.5-.52-7-.94V53.17c1.36.16,2,.25,3.4.43v1.13l2.48.35V53.83C73,53,71,52.08,69.06,51.24V46.36l2.27-2q3.51.45,7,1Z"/><path class="cls-1" d="M5.66,55.08l2.83-.39V47.88c-1.13.15-1.7.22-2.83.39Z"/><path class="cls-1" d="M61.69,53.54c1.14.1,1.7.15,2.84.27V47c-1.14-.12-1.7-.17-2.84-.27Z"/><path class="cls-1" d="M5.14,46.41,3.74,48v7.86l1.4,1.19c1.55-.22,2.32-.33,3.87-.53L10.41,55V47.11L9,45.88C7.46,46.08,6.69,46.19,5.14,46.41ZM10,54.84,8.83,56.12c-1.4.18-2.11.28-3.51.48-.45-.38-.67-.58-1.13-1v-7.5l1.13-1.3c1.4-.2,2.11-.3,3.51-.48l1.13,1Z"/><path class="cls-1" d="M14.49,46.64v3.29q3,.62,5.9,1.28v2.55c-.45.49-.68.73-1.13,1.23-1.73.15-2.59.23-4.31.41V53.92l-.46,0V55.9c2-.21,3-.3,5-.48l1.41-1.52V50.83c-2-.44-3.93-.87-5.9-1.29V46.77l1.13-1.25c1.72-.17,2.59-.25,4.31-.39V46.6l.46,0V44.64c-2,.16-3,.25-5,.44Z"/><path class="cls-1" d="M26.08,54.49l-1.48.09V55c2.54-.16,5.08-.28,7.62-.38v-2.5l-.46,0v2c-1.74.06-3.49.14-5.23.24V49.81c1-.06,1.57-.09,2.62-.13v-.46l-2.62.14V44.7c1.74-.1,3.49-.18,5.23-.24v2h.46V44q-3.81.15-7.62.37v.46l1.48-.09Z"/><path class="cls-1" d="M36.77,54.1V53Q40,49.3,43.15,45.58V43.87c-2.28,0-4.55,0-6.83,0v1.93h.45V44.34c2,0,3.95,0,5.92,0v1.07q-3.19,3.72-6.37,7.47v1.7c2.28,0,4.55,0,6.83,0V52.61h-.46v1.48C40.72,54.07,38.75,54.08,36.77,54.1Z"/><path class="cls-1" d="M46.91,44v.45l1.48.05v9.76l-1.48-.05v.46l1.93.06v-10q2.56,5.09,5.1,10.18L56,55v-.46l-1.48-.09V44.73l1.48.09v-.46l-1.93-.11v9.94L49,44Z"/><path class="cls-1" d="M61.17,44.75,59.76,46V53.9l1.41,1.52c1.55.14,2.33.21,3.88.37l1.41-1.26V46.68l-1.41-1.56C63.5,45,62.72,44.89,61.17,44.75ZM66,54.3l-1.13,1c-1.41-.14-2.11-.21-3.52-.33-.45-.5-.68-.74-1.14-1.23v-7.5l1.14-1c1.41.13,2.11.19,3.52.34L66,46.81Z"/><path class="cls-1" d="M70.53,50.44q3,1.31,5.88,2.65v2.55c-.45.38-.67.58-1.13,1-1.71-.25-2.57-.36-4.29-.58V54.54l-.46-.06v1.93c2,.25,3,.39,4.93.67l1.4-1.19V52.82C74.92,51.91,73,51,71,50.16V47.39l1.13-1c1.72.23,2.58.35,4.29.61v1.47l.45.07V46.62c-2-.3-3-.44-4.92-.7l-1.41,1.23Z"/><path class="cls-1" d="M54.84,11.3c.22.26.43.52.64.79l.12-.23c-.17-.14-.35-.29-.53-.42Z"/><path class="cls-1" d="M58.79,20a11.9,11.9,0,0,0-2-3,18.91,18.91,0,0,1,.89,5.21,18,18,0,0,1-.58,5.27A19.34,19.34,0,0,0,55.84,22,15.29,15.29,0,0,1,54,29.34a1.19,1.19,0,0,1,0-.2,11.23,11.23,0,0,0-.58-3.4.54.54,0,0,1,0-.31,5.92,5.92,0,0,0,.35-1.77.55.55,0,0,0-.12-.35,3.21,3.21,0,0,0-2-1v.05l-.23-.05h-.24a6.71,6.71,0,0,0-1.82.33,9.1,9.1,0,0,1-2.43.36h-.41a10,10,0,0,1-5.22-1.86A11.5,11.5,0,0,1,38,17.7a1,1,0,0,1-.1-.17c-.08-.1-.06-.17.05-.24a5.73,5.73,0,0,0,2.31-3.21.83.83,0,0,0,0-.15l0-.07c-.07.07-.13.12-.18.18a5.77,5.77,0,0,1-3.34,2.07,7.28,7.28,0,0,1-1.22.11,5.64,5.64,0,0,1-5.36-3.53c-.18-.41-.29-.85-.44-1.28a1.14,1.14,0,0,0-.06-.15.93.93,0,0,0-.07.15A15.62,15.62,0,0,0,29.32,16a35.12,35.12,0,0,0,2.15,9.54.32.32,0,0,0,.12.17l.12-.72a10.08,10.08,0,0,1,1.36-3.75,5.53,5.53,0,0,1,1.64-1.73l.09,0a2.18,2.18,0,0,1,0,.25,26,26,0,0,0,.07,4.23,15.92,15.92,0,0,0,.72,3.49,8.91,8.91,0,0,0,2,3.38,5.66,5.66,0,0,0,3.68,1.82,7,7,0,0,0,.79,0A11,11,0,0,0,46,31.85c1-.39,2-.82,3.08-1.21a7.72,7.72,0,0,1,2.76-.56l.5,0a3.44,3.44,0,0,1,1.63.45,2.31,2.31,0,0,1,.55.53.92.92,0,0,1,.07,1,1.24,1.24,0,0,0-.1.29A3.61,3.61,0,0,0,55.9,30a9,9,0,0,1-.54,2.95l0,0,.17-.14a8.15,8.15,0,0,0,1.77-2.57,14,14,0,0,0,1.26-4.79c.09-1,.11-2.09.15-3.13a.89.89,0,0,1,0-.22A10.07,10.07,0,0,1,60,25.21h.07l.16-1.47V21.49c-.06-.49-.11-1-.19-1.46a13.68,13.68,0,0,0-3.17-6.87A9.87,9.87,0,0,0,55.79,12l-.27.11A13.54,13.54,0,0,1,58.79,20ZM37.37,18.52a11.86,11.86,0,0,0,1.84,2h.1a1.53,1.53,0,0,1,1,.82l.3.2a1.12,1.12,0,0,0-.2.17v.38a.92.92,0,0,1,.53-.16,1.53,1.53,0,0,1,.3,0,2.8,2.8,0,0,1,1.18.65.26.26,0,0,1,.09.19c0,.37,0,.74,0,1.12a.36.36,0,0,1-.13.25,4.12,4.12,0,0,0-1,1.1l-.1.14a7.42,7.42,0,0,1-1.16-1.57,1.86,1.86,0,0,0,0,.26.23.23,0,0,1,0,.17c-.17.2-.36.38-.56.6a7.29,7.29,0,0,1-1-1.62.85.85,0,0,0,0,.23c0,.07,0,.15,0,.18s-.32.29-.49.44A.75.75,0,0,1,38,24a4.82,4.82,0,0,1-.82-2.66.82.82,0,0,1,.49-.74.36.36,0,0,1,.14,0c.24,0,.38.18.53.35l.09.13a.83.83,0,0,1,.07-.13,1.33,1.33,0,0,0-.46-.68.56.56,0,0,0-.31-.11.5.5,0,0,0-.4.23l-.18.29A5,5,0,0,1,37.37,18.52ZM53.38,29c0,.26-.05.34-.16.34a1.51,1.51,0,0,1-.28-.05c-.29-.07-.6-.09-.61-.51A.56.56,0,0,1,52,29a.31.31,0,0,1-.18-.05,3.48,3.48,0,0,1-.36-.22v0a1,1,0,0,0,0,.1l.15.28-.35,0a.59.59,0,0,1-.46.21.75.75,0,0,1-.34-.09h0l-.4.07a22.28,22.28,0,0,0-3.66,1.17,16,16,0,0,1-3.9,1.07,6.28,6.28,0,0,1-.75,0,5,5,0,0,1-1.74-.29,4.87,4.87,0,0,1-2.36-2c-.14-.19-.25-.4-.38-.62a2.36,2.36,0,0,0,1.17-.38,1.29,1.29,0,0,1,0-.19l-.3.12a1.35,1.35,0,0,1-.43.08.72.72,0,0,1-.77-.72s0,0,0-.05l-.12.12a1,1,0,0,1-.05-.12c-.15-.67-.3-1.33-.43-2a.34.34,0,0,1,.05-.26c.23-.38.47-.76.73-1.12a2.52,2.52,0,0,1,.4-.4c.11.22.2.41.31.59a.29.29,0,0,1,0,.32c-.1.2-.17.41-.25.62.21-.23.37-.48.57-.69s.44-.4.66-.6c.19.41.35.78.53,1.14a.4.4,0,0,1,0,.38c-.06.17-.09.35-.14.53l.06,0a3.13,3.13,0,0,1,1.13-1.45c.23.4.43.77.66,1.13a.37.37,0,0,1,.05.35,4.24,4.24,0,0,0-.11.5c.25-.41.45-.78.7-1.13a3.41,3.41,0,0,1,.94-.87c0,.07,0,.12,0,.17A8.92,8.92,0,0,0,43.26,27a.39.39,0,0,1,0,.24l-.46,1.11c0,.05,0,.11-.1.14a2.54,2.54,0,0,1-1.12.54l-.19,0a.74.74,0,0,1-.73-.47l-.09.1-.1.1a.13.13,0,0,0,0,.06.66.66,0,0,0,.67.71h.11a1.91,1.91,0,0,0,.68-.24,4.67,4.67,0,0,0,.58-.44v-.16l.08.1.07-.06,0,.12,0,0a7.66,7.66,0,0,1,2.17-2.84c.06.09.11.14.14.2a5.59,5.59,0,0,1,.68,2.35c0,.36.24.49.48.63a.49.49,0,0,0,.2.05.4.4,0,0,0,.25-.09.91.91,0,0,0,.32-.53.68.68,0,0,1,0-.14.35.35,0,0,0,0,.08.61.61,0,0,1-.51.33.69.69,0,0,1-.39-.14.38.38,0,0,1-.14-.25,6.14,6.14,0,0,0-.14-1.29v-.05l0-.13,0,0a7,7,0,0,0-.4-1.17,1,1,0,0,1-.06-.78,4.75,4.75,0,0,0,.12-.74l-.07,0-.07.11a4.12,4.12,0,0,1-1,1.63,7.82,7.82,0,0,0-.63.77,8.18,8.18,0,0,1-.46-4c.43.14.86.3,1.3.41a1.19,1.19,0,0,1,.79.59s0,0,.11.1l-.06-.49.66.09-.45.39,0,.06a1.75,1.75,0,0,1,.82-.28.82.82,0,0,1,.7.42,1,1,0,0,1,0-.1l-.22-.43h.09a4.89,4.89,0,0,0,.54,0,.84.84,0,0,1,.49-.15h0a.78.78,0,0,1,.22,0c.61-.13,1.22-.32,1.83-.48A4.46,4.46,0,0,1,51,22.87l.43,0,0-.12.09.13.19,0a3.47,3.47,0,0,1,1.18.41,1.18,1.18,0,0,0-.76.49l.07.1h0a1,1,0,0,1,.67-.3H53c.13,0,.2.06.21.2A6.35,6.35,0,0,1,53,25.67c-.08.25-.17.49-.26.74a4.18,4.18,0,0,0-.49-1.12c.21.41,0,.7-.25,1l-.14.16,0,.1.53-.48.22,1.72c.12-.56.07-1.17.54-1.63a2.25,2.25,0,0,1,.08.24A7.82,7.82,0,0,1,53.38,29Z"/><path class="cls-1" d="M40.17,22.34l.09-.11-.12-.09a2.17,2.17,0,0,0-.08.3Z"/><path class="cls-1" d="M43.87,37.61q-.55-.24-1.11-.54c.19.19.38.37.58.54Z"/><path class="cls-1" d="M52.11,31.38a3.1,3.1,0,0,0-.43,0,7.86,7.86,0,0,0-2.57.53c-1.09.38-2.18.78-3.28,1.11a15,15,0,0,1-4,.65h-.15a5.81,5.81,0,0,1-4.17-1.76,9.69,9.69,0,0,1-2.74-5.09c-.12-.53-.17-1.07-.25-1.6a.28.28,0,0,0-.06-.14,12.81,12.81,0,0,0,.39,4.36,11.68,11.68,0,0,0,4.27,6.34,13,13,0,0,0,3.16,1.84,11.68,11.68,0,0,0,1.13.4l-.44-.39a6.63,6.63,0,0,1-1.26-1.48,18.13,18.13,0,0,0,2.87,1.48,31.9,31.9,0,0,0,5.35,1.64c-.44-.48-.86-.9-1.24-1.35l-.15-.19a6.19,6.19,0,0,1-.78-1.36l.11.06a6,6,0,0,0,1.47,1.33,8.36,8.36,0,0,0,1.36.71c.78.33,1.58.6,2.37.9l.09,0h.12c-.14-.25-.28-.49-.41-.74a6.5,6.5,0,0,1-.33-.78,4.51,4.51,0,0,1-.24-2.13,2.25,2.25,0,0,1,.09-.35,3.19,3.19,0,0,0,.72,1.88h0l0-.3a5.53,5.53,0,0,1,.35-2,10.59,10.59,0,0,0,.36-1.45A1.73,1.73,0,0,0,52.11,31.38Z"/><path class="cls-1" d="M21.79,4.06a5.51,5.51,0,0,0-1.17,1.09,6.48,6.48,0,0,1,3.84-4H24l-.48,0,0-.07c.39-.11.77-.26,1.16-.35A7.16,7.16,0,0,1,26.22.62a7.7,7.7,0,0,1,3.62,1,10.11,10.11,0,0,1,2.24,1.59.24.24,0,0,0,.16.09.27.27,0,0,0,.13,0,12,12,0,0,1,5.07-1.83A11.63,11.63,0,0,1,39,1.27a10.27,10.27,0,0,1,4.93,1.21,9.22,9.22,0,0,1,1.87,1.36l.15.14,0,0a8.58,8.58,0,0,0-.53-.7A7.53,7.53,0,0,0,41.63,1,11,11,0,0,0,38.74.6a13.19,13.19,0,0,0-2.85.33,13.82,13.82,0,0,0-3.35,1.2l-.1,0c-.07,0-.11,0-.17-.08a9.92,9.92,0,0,0-4-1.9c-.34-.08-.68-.12-1-.18H25.67L25.6,0a8.16,8.16,0,0,0-4.2,1.77c-.15.12-.29.25-.43.38l0,0,1.26-.36s0,.07,0,.07a4.84,4.84,0,0,0-2.11,2.92c-.11.39-.17.8-.25,1.19v1.5A1.28,1.28,0,0,0,20,7.32L20.59,6a.89.89,0,0,1,.17-.24,6.25,6.25,0,0,0,2,5.79A9.1,9.1,0,0,1,21.4,7.9,8,8,0,0,1,21.79,4.06Z"/><path class="cls-1" d="M21.24,17.19a20.05,20.05,0,0,0-.29,4,22.91,22.91,0,0,0,.88,5.87.54.54,0,0,0,.11.23,19.36,19.36,0,0,1,.56-4c.09.66.17,1.27.28,1.89a18.08,18.08,0,0,0,.93,3.31,14.35,14.35,0,0,0,2.37,4,12.43,12.43,0,0,0,3.76,3,.29.29,0,0,0,.14,0h0a8,8,0,0,1-1.86-3.46l.08,0a11,11,0,0,0,3.14,2,32.36,32.36,0,0,0,3.12,1.27c1.39.47,2.82.85,4.23,1.26l.12,0h.1l-.1-.06a10.69,10.69,0,0,1-5-4.3,14.62,14.62,0,0,1-2-5,.45.45,0,0,0-.07-.18,12.63,12.63,0,0,0,.09,3,10.59,10.59,0,0,0,.84,2.9l0,0L32.49,33a10.18,10.18,0,0,1-4.13-3.62,11.52,11.52,0,0,1-1.76-4.48c-.12-.69-.17-1.4-.25-2.11a.56.56,0,0,0-.06-.2,14.27,14.27,0,0,0-.18,6.78l-.27-.58c-.08-.21-.17-.41-.25-.62a17.28,17.28,0,0,1-.86-3.56,18.53,18.53,0,0,1-.05-4.34,20.39,20.39,0,0,1,1.1-5,.22.22,0,0,0,0-.14,14.1,14.1,0,0,0-2.4,6c-.05-.38-.11-.75-.14-1.12a16,16,0,0,1,.64-6.52l.15-.44-1-1A16.39,16.39,0,0,0,21.24,17.19Z"/><path class="cls-1" d="M27.2,7.63a18,18,0,0,1,2.61-2.48L30,5c.26-.18.27-.19.07-.43a4.83,4.83,0,0,0-2-1.63,4.58,4.58,0,0,0-1.64-.31,4.16,4.16,0,0,0-2,.52,2.53,2.53,0,0,0-.55.45,4.26,4.26,0,0,1,1.59-.38,2.17,2.17,0,0,1,.36,0,3.55,3.55,0,0,0-2.64,1.41,3.25,3.25,0,0,0-.6,1.73c.11-.19.21-.39.33-.56s.29-.32.43-.47l0,0c0,.26-.1.52-.13.79a4.75,4.75,0,0,0,1.05,3.51.26.26,0,0,1,0,.41,17.88,17.88,0,0,0-1.05,1.57L24.06,13A16.94,16.94,0,0,1,27.2,7.63Z"/><path class="cls-1" d="M24,13.06l0-.05-.84-1.32-.08.13.35.54-.43-.4-.06.12Z"/><path class="cls-1" d="M23.14,11.82a.64.64,0,0,1-.08.14l.43.4Z"/><path class="cls-1" d="M52,21.1a2.29,2.29,0,0,0,1.35-.71.27.27,0,0,0,0-.41,3.8,3.8,0,0,1-.41-3.31c0,.35,0,.77,0,1.18a2.92,2.92,0,0,0,.41,1.35c.14.22.29.33.46.33a.61.61,0,0,0,.45-.25l.34-.43a8,8,0,0,1-.35,4.44l.05,0,.13-.17a9.1,9.1,0,0,0,1.43-5c0-.5-.09-1-.14-1.49l-.12-1.11a2.91,2.91,0,0,0-1-2.06,4.08,4.08,0,0,0-1.63-.73l-.1.34-.3-.21-.39-.26a9.55,9.55,0,0,0-1.06-.06,9,9,0,0,0-3.38.66l-.23.11v.05l.23-.05a11.32,11.32,0,0,1,2.94-.4c.28,0,.57,0,.85,0a4.22,4.22,0,0,1,2.18.66,1.46,1.46,0,0,1,.52.62c-.24-.06-.45-.12-.66-.16a9.46,9.46,0,0,0-1.83-.18,9.93,9.93,0,0,0-2.75.39,2.39,2.39,0,0,1-.63.09A1.68,1.68,0,0,1,47,13.78a.08.08,0,0,0,0,0l-.08,0c-.09.16-.19.32-.27.5a4.27,4.27,0,0,0,.11,3.55,5.12,5.12,0,0,0,.65,1.05,1.67,1.67,0,0,0,1.34.65,1.76,1.76,0,0,0,1.42-.73,3.7,3.7,0,0,0,.6-2.07v-.27a3.13,3.13,0,0,1-.43,2.75,1.94,1.94,0,0,1-1.44.75l-.3,0a2.4,2.4,0,0,0,.25.23,4.67,4.67,0,0,0,2.24,1,.29.29,0,0,1,.18.16,4.51,4.51,0,0,1,.07.53c0,.06,0,.13,0,.19h.08a6.26,6.26,0,0,0,.21-.61A.36.36,0,0,1,52,21.1Z"/><path class="cls-1" d="M51.31,22.05l.07,0v0h-.08Z"/><path class="cls-1" d="M50.05,2.6a.31.31,0,0,1-.17,0h-.09a8.35,8.35,0,0,0-4-.95c-.21,0-.42,0-.63,0a6.16,6.16,0,0,0-.94.11h.16a9.26,9.26,0,0,1,8.16,4.24c-.18,0-.3,0-.42.07a1.74,1.74,0,0,1-.34,0h0l.43-.37-.34,0a1.8,1.8,0,0,0-1.35.51,2.12,2.12,0,0,0-.58,1.62c.24-.67.47-1.36,1.3-1.6L50.91,7,51,7a3.15,3.15,0,0,1,1.58-.49,2.25,2.25,0,0,1,.44,0,3.6,3.6,0,0,1,.74.26h-.94l0,0a.46.46,0,0,0,.1.07,2.69,2.69,0,0,1,1.63,1.88,5.73,5.73,0,0,1,.24,1.65.93.93,0,0,0,0,.23,5.16,5.16,0,0,0,1-2.29,8,8,0,0,0,0-2.53,2.55,2.55,0,0,1,.44.87,2.88,2.88,0,0,0-.53-2A3,3,0,0,0,54,3.69a4.77,4.77,0,0,1,.66.05c.22,0,.42.16.66.23a2.16,2.16,0,0,0-.25-.27,2.23,2.23,0,0,0-1.41-.46A3,3,0,0,0,51.74,4l-1.08-.82a4.4,4.4,0,0,1,3-1.13,4.35,4.35,0,0,1,2.21.58l-.86,0,0,.05a5.18,5.18,0,0,1,2.91,3.8,5.17,5.17,0,0,0-1-1.25A8.54,8.54,0,0,1,56,11.63a4.09,4.09,0,0,0,1.35-2,7.15,7.15,0,0,0,.34-2.43,8.47,8.47,0,0,1,.73,1.73c.21-2.1,0-4.08-1.65-5.65a4.59,4.59,0,0,1,.48.17l.5.21a.85.85,0,0,0-.06-.13,6.22,6.22,0,0,0-3-1.89,5,5,0,0,0-1.31-.17A5.44,5.44,0,0,0,51,2C50.7,2.16,50.39,2.41,50.05,2.6Z"/><polygon class="cls-1" points="44.19 1.81 44.2 1.81 44.2 1.81 44.19 1.81"/><path class="cls-1" d="M52.29,11.15a1.06,1.06,0,0,1-.37.72c-.14,0-.12-.12-.06-.22a1,1,0,0,0,.08-.83l0,.19a.78.78,0,0,1-.36.5l-.1,0h-.06a.25.25,0,0,1,0-.16.37.37,0,0,1,0-.14,2.18,2.18,0,0,1-.34-.14s0-.16,0-.17a1.19,1.19,0,0,1,.32-.12.63.63,0,0,0,0-.14c-.1-.15,0-.24.09-.35A1,1,0,0,1,52,10a.92.92,0,0,1,.62.31,5.7,5.7,0,0,1,.37.44.22.22,0,0,0,0-.11,2.86,2.86,0,0,0-.49-1.13.92.92,0,0,0-.76-.42,1.09,1.09,0,0,0-.39.08A3.54,3.54,0,0,0,50.2,10l-.3.28-.06,0V9.21h-.07c0,.1-.05.2-.08.29-.13.33-.26.65-.4,1a.16.16,0,0,1-.15.12h-.08a9.34,9.34,0,0,0-2.33-.28,12.52,12.52,0,0,0-2.65.3l-.22,0A6.33,6.33,0,0,0,44.22,9l0,0-.12.2a2.26,2.26,0,0,1-.91,1,3.47,3.47,0,0,1-.9.27h0a.43.43,0,0,1-.26-.17A11.78,11.78,0,0,0,40.19,8.5a3.88,3.88,0,0,0-.67-.41A1.2,1.2,0,0,0,39,8a1.23,1.23,0,0,0-.67.21,3.39,3.39,0,0,0-1.16,1.41,1,1,0,0,0,0,.11A3.15,3.15,0,0,1,38.71,9a1.68,1.68,0,0,1,.59.12,1.24,1.24,0,0,0-.62.72,2.2,2.2,0,0,1,.47.19c.05,0,.07.15.07.23s-.16.3-.46.3h-.09v.12l0,0-.34-.74a1.6,1.6,0,0,0,.59,1.57,2.09,2.09,0,0,0,1.19.37l.27,0,.9-.12c0,.06-.09.12-.13.19h0L41,12a2.58,2.58,0,0,0-.37.92,5.19,5.19,0,0,1,3.81-1.66,7.29,7.29,0,0,1,2.16.36l.05,0-1-.57c.5,0,1-.08,1.5-.08a9.54,9.54,0,0,1,2.12.22l-.47.34v.06a3.77,3.77,0,0,1,.8-.09,4.8,4.8,0,0,1,2.58.91l.47.07A2.89,2.89,0,0,0,52.29,11.15Zm-12,.2.63-.58.19.34Z"/><path class="cls-1" d="M52.68,12.46l-.47-.07.26.18.21,0Z"/><path class="cls-1" d="M52.68,12.6l-.21,0,.19.12S52.67,12.63,52.68,12.6Z"/><path class="cls-1" d="M39.18,5.4a7.65,7.65,0,0,1,1,.08l0-.06L39.57,5A6.69,6.69,0,0,1,42.5,6.61a3.65,3.65,0,0,0-.59-1.27,4.2,4.2,0,0,1,1.4,1,4.26,4.26,0,0,1,.86,1.42,2.79,2.79,0,0,0-.71-1.84,4.07,4.07,0,0,0-2.87-1.36h0l.79.63,0,.06a4.82,4.82,0,0,0-2.58-.7,6.69,6.69,0,0,0-1.25.12l1.22.28V5c-1.71.15-3.12,1.1-3.3,2.28A4.42,4.42,0,0,1,39.18,5.4Z"/><path class="cls-1" d="M37.24,10.3h-.07c-.05.32-.14.65-.16,1a5.05,5.05,0,0,0,.05,1.23,1,1,0,0,0,1,.94,1.9,1.9,0,0,0,.45-.07,5,5,0,0,0,1.92-1.16l-.42,0A2.61,2.61,0,0,1,37.24,10.3Z"/><path class="cls-1" d="M51.5,26.83l-.1-.08a.35.35,0,0,1,.05.18c0,.17,0,.33,0,.49h.06c0-.17,0-.35,0-.52l-.05-.05Z"/><path class="cls-1" d="M47,27.18h0c0-.13,0-.25-.05-.37s0-.28.2-.29h.35l.69,0a.18.18,0,0,1,.2.19.41.41,0,0,0,.1.21,1.06,1.06,0,0,0,0-.19c0-.13.07-.21.2-.21h0l1.16.07c.05,0,.11.09.13.15s0,.14,0,.21a.53.53,0,0,0,.06-.1.26.26,0,0,1,.28-.27h0c.23,0,.46.05.69.06a.35.35,0,0,1,.12,0l.12-.19v0l-.07,0s-.07-.1-.08-.15,0-.31,0-.47h-.06c0,.12,0,.24,0,.37s-.08.26-.25.26h-.05l-.57,0c-.11,0-.16-.06-.16-.17s0-.31,0-.46h-.06a2.7,2.7,0,0,0-.08.39.23.23,0,0,1-.26.23h0l-.84,0c-.13,0-.19-.07-.18-.2a.61.61,0,0,0-.06-.32c0,.1-.1.2-.14.3a.26.26,0,0,1-.26.19h0l-1,0c-.14,0-.2-.08-.22-.21s-.07-.4-.1-.61l-1,1.62v0l.7-.62Z"/><path class="cls-1" d="M51.32,26.68a.19.19,0,0,1,.08.07l.1.08,0,0,.05.05s0-.05,0-.08v-.09l-.1-.09,0-.09v0a.18.18,0,0,0-.11-.07v0Z"/><path class="cls-1" d="M45.89,27.11v0h0v0Z"/><path class="cls-1" d="M51.5,26.65l.1.09a.27.27,0,0,0,0-.2v0Z"/><path class="cls-1" d="M44,30.74a1.53,1.53,0,0,0,.3,0,2.38,2.38,0,0,0,1.3-.9s0,0,0,0,0,0,0-.07a3.22,3.22,0,0,1-1.47.46,1.8,1.8,0,0,1-1.41-.73A1.26,1.26,0,0,0,44,30.74Z"/><path class="cls-1" d="M38.66,28.87a.57.57,0,0,0,.39.22h.11a1.58,1.58,0,0,0,1.05-.44.34.34,0,0,1,0-.1,3.5,3.5,0,0,1-.46.14,1,1,0,0,1-.28,0,.72.72,0,0,1-.71-.55.83.83,0,0,1-.19.27A.74.74,0,0,0,38.66,28.87Z"/><path class="cls-1" d="M40.21,28.66l.15-.14h0l-.15,0A.34.34,0,0,0,40.21,28.66Z"/><path class="cls-1" d="M38.74,28.06l0,0,0,.1a.43.43,0,0,1,0,.07,1,1,0,0,0-.05.28.83.83,0,0,0,.19-.27Z"/><polygon class="cls-1" points="40.37 28.51 40.37 28.51 40.36 28.52 40.37 28.51"/><path class="cls-1" d="M38.71,28l0,0-.06.2a.43.43,0,0,0,0-.07Z"/><path class="cls-1" d="M51.17,24c0,.08-.05.17-.09.28-.12-.23-.23-.46-.49-.46h-.12a.56.56,0,0,0-.36.33l.06.21,0,0a.62.62,0,0,1,.4-.19.54.54,0,0,1,.39.19.19.19,0,0,0,.1.05s.06,0,.09-.07.27-.3.4-.3h0l.13-.12s0-.05,0-.08a.37.37,0,0,0-.62.17Z"/><polygon class="cls-1" points="51.98 24.09 51.98 24.09 51.98 24.1 51.98 24.09"/><path class="cls-1" d="M51.62,24.05h0a.4.4,0,0,1,.2.11v0l0-.05.07-.06a.17.17,0,0,1,0-.05s0,0,0-.05l-.05-.06s0,0,0,.08Z"/><path class="cls-1" d="M52,24.29l0,0a.21.21,0,0,1,0,.06.1.1,0,0,0,.08.05v-.07l0,0Z"/><path class="cls-1" d="M51.8,24.07l0,.05v0a1,1,0,0,1,.11.15l0,0,.07.1,0,0L52,24.1,51.89,24a.17.17,0,0,0,0,.05Z"/><polygon class="cls-1" points="51.98 24.09 51.98 24.09 51.98 24.1 51.98 24.09"/><path class="cls-1" d="M49.21,28.67c-.19,0-.38-.16-.65-.47a.74.74,0,0,1,0,.21,2.26,2.26,0,0,0,.22.44.51.51,0,0,0,.43.23.58.58,0,0,0,.42-.19,1.07,1.07,0,0,0,.2-.36,1.85,1.85,0,0,1,0-.23C49.56,28.55,49.39,28.67,49.21,28.67Z"/><path class="cls-1" d="M47.71,29.09h0a.68.68,0,0,0,.56-.64h0a1.24,1.24,0,0,1,0-.16c-.23.3-.4.42-.58.42a.93.93,0,0,1-.46-.18s0,.09,0,.13A.58.58,0,0,0,47.71,29.09Z"/><path class="cls-1" d="M47.16,28.51a.77.77,0,0,0,0,.15s0-.08,0-.13Z"/><path class="cls-1" d="M48.29,28.22l0,.07a1.24,1.24,0,0,0,0,.16h0A.88.88,0,0,0,48.29,28.22Z"/><path class="cls-1" d="M50.16,28.27c0,.08,0,.16,0,.26a1.06,1.06,0,0,0,.29.44l.58-.08h0l0-.07,0-.06L51,28.64a.54.54,0,0,1-.21.05C50.57,28.69,50.4,28.57,50.16,28.27Z"/><path class="cls-1" d="M50.41,29l.08.05a.44.44,0,0,0,.15.05l.21,0A.45.45,0,0,0,51,28.9h0Z"/><path class="cls-1" d="M51.05,28.82a.61.61,0,0,0,.07-.14l0-.09.12-.09v0a1.64,1.64,0,0,1-.26.17l.07.12Z"/><path class="cls-1" d="M51.12,28.68l.08-.18-.12.09Z"/><path class="cls-1" d="M50.7,29.08a.33.33,0,0,0,.15,0l-.21,0Z"/><path class="cls-1" d="M50.12,28.53c0-.1,0-.18,0-.26a1,1,0,0,1-.1-.15A.76.76,0,0,0,50.12,28.53Z"/><path class="cls-1" d="M48.46,24.45a.81.81,0,0,0-.4-.68c-.2,0-.4.08-.6.1a.8.8,0,0,0-.2.21h0l.08.16-.08.1a.94.94,0,0,1,.59-.29A.78.78,0,0,1,48.46,24.45Z"/><path class="cls-1" d="M47.86,23.73h0a.64.64,0,0,0-.39.14c.2,0,.4-.06.6-.1A.45.45,0,0,0,47.86,23.73Z"/><path class="cls-1" d="M47.27,24.09h0a.64.64,0,0,0-.08.14h0l0,0a1,1,0,0,0-.07.25l.18-.16.08-.1Z"/><path class="cls-1" d="M47.18,24.22s0,0,0,0l0,0Z"/><path class="cls-1" d="M49.38,23.88h0a.72.72,0,0,0-.61.71h0a1,1,0,0,1,.65-.36.55.55,0,0,1,.36.14c0-.07,0-.13.05-.19A.5.5,0,0,0,49.38,23.88Z"/><path class="cls-1" d="M49.89,24.41a.53.53,0,0,0-.08-.22c0,.06,0,.12-.05.19l.12.11A.22.22,0,0,0,49.89,24.41Z"/><path class="cls-1" d="M49.92,24.52l0-.11a.22.22,0,0,1,0,.08Z"/><path class="cls-1" d="M48.74,24.61h0Z"/><path class="cls-1" d="M38.54,21.62h0l-.06-.07,0,0Z"/><path class="cls-1" d="M38.81,21.18v.14a.64.64,0,0,1,.34-.12.54.54,0,0,1,.21.05,3,3,0,0,1,.69.48l0-.07a.76.76,0,0,0,0-.11c-.33-.23-.66-.48-1-.74a.52.52,0,0,0-.33.16A1.55,1.55,0,0,1,38.81,21.18Z"/><path class="cls-1" d="M38.64,21.5l-.09-.1-.06.14.06.07Z"/><path class="cls-1" d="M39.92,21.28a6.26,6.26,0,0,1-.57-.45H39.1c.31.26.64.51,1,.74A1.22,1.22,0,0,0,39.92,21.28Z"/><path class="cls-1" d="M40.12,21.79a.62.62,0,0,0,0-.13l0,.07Z"/><path class="cls-1" d="M38.7,21.43l.12-.11v-.14a1.55,1.55,0,0,0,0-.21l-.06.09a.2.2,0,0,0,0,.08v.05Z"/><path class="cls-1" d="M39.35,20.83a6.26,6.26,0,0,0,.57.45A1.29,1.29,0,0,0,39.35,20.83Z"/><path class="cls-1" d="M38.7,21.43l0-.24v-.05a1.23,1.23,0,0,0-.12.26l.09.1Z"/></g></g></svg>