<svg xmlns="http://www.w3.org/2000/svg" viewBox="0 0 601.11 594.08"><defs><style>.cls-1{opacity:0.21;}.cls-2{fill:#fff;}.cls-3{opacity:0.15;}</style></defs><title>honor-proud</title><g id="Capa_2" data-name="Capa 2"><g id="Capa_1-2" data-name="Capa 1"><g class="cls-1"><path class="cls-2" d="M112.84,87c-.78,5.35-1.36,9.37-2.23,14.27-1.83,10.39-3.61,20.79-5.82,31.24-1.11,5.24-5.84,8.91-9.1,9.9-4.09,1.25-6-1.1-6.55-4.64-1.21-8.24-1.81-16.82-2.92-25.13-.76-5.74-1.4-11.65-3.11-16.74-1.39-4.15-4-7.49-6.58-10.64a9.9,9.9,0,0,1-1.25-10.47c1.68-4,5.46-7.48,9.29-7.8s7.38.19,11.07.29c3.25.09,6.52.1,10.3.15.88-4.51,1.83-8.73,2.57-12.89,1.65-9.38,1.84-12.36,4.26-25.21.68-2.56,2.15-4.46,4.41-4.3s4.25,1.33,3.88,3.9c-2,13.92-2.44,22.42-4.67,37.36,11.27-1.88,17-3.12,27.65-13.67,1.49-1.48,2.36-4.28,3.1-6.49,3.57-10.84,8.07-26.58,15.84-36.75,2.88-3.77,6-6.85,9.84-6.65,4.08.21,5.51,3.4,5.83,7.69.49,6.63-1.38,13.7-3.82,20.77-3.41,9.84-8.37,19.32-15.51,27.2-4.47,4.93-6,9.73-7,15.09-3.73,20.83-7.38,41.64-11.19,62.48-.35,1.9-.82,5.27-2.58,5.94s-3.83-1.84-4-3.54a45.3,45.3,0,0,1,.11-10.52c2.23-17.1,4-33.57,6.37-50.7.07-.5,0-1,.06-1.86C130.14,82.79,123.68,84.93,112.84,87Zm-13,15,.58-.19c.66-4.56,1.31-9.11,2-13.88l-4.09.23Z"/><path class="cls-2" d="M238.73,66.91c-2.33,3.57-6.62,7-9.6,9.5-2.16,1.84-14.68,8-21.21,8.65-3.32,17.38-9.26,29.59-22.18,43.58-5.09,5.52-10.69,9.61-16.75,10.58-8.19,1.32-13.05-4.62-12.67-15a111,111,0,0,1,9.87-40.73c4.07-9.2,9.67-18,19.27-20.82,9.33-2.73,16.19-.6,20.49,6.82.48.82,1.17,4,2.08,4.11,6.11,1.09,16.06-2.29,26.17-8.86A11.48,11.48,0,0,1,237.61,63C239,62.66,240,64,238.73,66.91ZM192,88.44c-8.26,1.68-15.87,2.32-21.95-.36-3.76,12.18-6.34,23.53-4.68,33.87,1,6.41,4.93,6.79,10.47,1.14A57.35,57.35,0,0,0,189.57,99.7C190.71,96,191.15,92.33,192,88.44Z"/><path class="cls-2" d="M306.84,47.7C303,58.42,301.64,62.44,291,81.87c-4.54,8.26-7.47,13.39-13.3,20.19-9.51,10.57-19.5,11.07-23.54,1.1C251.56,96.79,252.05,89,252.81,81c.31-3.27,1-5.44,1.41-9.94,0-.39-.69-.51-.93-.14-4.67,7.28-9.24,15.47-13.95,23.16-3.14,5.13-6.35,10.23-9.71,15.22a21.5,21.5,0,0,1-4.32,4.6c-4.69,3.79-9.33,2.64-9.06-2.82.23-4.65,8-42,12.64-56.09,2.76-7.29,6.68-7,8.83-6.94,2.33.1,4.42,1.87,2.73,6.73-2.28,8-3.36,10.38-5,18.49,1-1.78,1.91-3.56,2.85-5.34,5.1-9.66,7.81-13.66,15.82-21.15,10.59-9.89,19.61-7.57,19.61,5.13a39.41,39.41,0,0,1-1,7.68c-1.37,6.65-3.18,13.37-4.29,20a36.79,36.79,0,0,0-.55,10.93c.52,3.87,7,2.76,14.3-9.68,8-13.72,18.4-34.75,19.16-35.56a6.57,6.57,0,0,1,3.38-2C307.52,43.07,307.08,47.05,306.84,47.7Z"/><path class="cls-2" d="M366.32,39.74c-2.33,3.57-6.62,6.95-9.61,9.49-2.15,1.85-14.67,8.05-21.2,8.65-3.32,17.39-9.26,29.6-22.18,43.58-5.1,5.52-10.7,9.62-16.75,10.59-8.19,1.31-13.06-4.62-12.67-15a111.17,111.17,0,0,1,9.86-40.73c4.07-9.2,9.68-18,19.27-20.82,9.34-2.73,16.2-.6,20.5,6.81.47.83,1.17,4,2.08,4.12,6.11,1.09,16.06-2.3,26.17-8.87a11.69,11.69,0,0,1,3.41-1.77C366.57,35.49,367.61,36.8,366.32,39.74ZM319.54,61.27c-8.26,1.68-15.87,2.31-22-.37-3.76,12.19-6.35,23.53-4.69,33.88,1,6.4,4.94,6.78,10.48,1.14a57.32,57.32,0,0,0,13.78-23.4C318.3,68.85,318.74,65.16,319.54,61.27Z"/><path class="cls-2" d="M450.42,17.72c-8.37,20.31-25.12,47-37.31,57.1-5.56,5.35-11.46,7.88-16.78,5.9-5.63-2.1-7.27-8-6.13-15.3,1.11-7.14,3.37-14.5,5.08-21.56-3.88,1.25-8.44,3.35-12.67,3.89s-7.83-.56-12.33-1c-3.84,6.21-8.27,13.64-13,20.9C352,75.9,346.42,84,340.88,92.16c-1.33,1.94-3,4.39-4.9,2.85s0-3.61,1.4-5.63c11.31-16.1,19.88-33.46,28.63-50.72a7.87,7.87,0,0,0,.78-3.36c-.15-9.65,3.38-19.1,9.45-28.35C379.75,1.59,384-.83,387.3.25c3.17,1,4.22,4.43,2.51,9.29-1.18,3.36-2.8,6.68-4.13,10-2.66,6.73-1.16,8.73,4.73,6.11,4.21-1.88,8.42-4.36,12.63-6.05,10.91-4.36,16.74,2.56,12.54,15.1-1.9,5.7-10.79,24.61-6.38,26.59,3.29,1.47,9.89-7.08,15.32-14.49,9.21-14.53,11.23-16.72,18.82-30.47,1.28-2.32,4.41-4,6.36-3.21C450.61,13.54,451,16.32,450.42,17.72Z"/><path class="cls-2" d="M105.38,197.07c-4.71,5.86-6.17,8-11,13.78C80,228.06,68.43,242,56,257.37c-2.3,2.84-2.49,5.08-3.47,9-3.93,15.5-8,31-15.42,46.27-3.37,6.92-7.32,13.61-13,18.73-2.94,2.64-6.36,5.21-9.54,6.39-12.26,4.53-18-4.91-12.36-19.87,4-10.71,10.88-20,17.66-29.22,4.9-6.67,10.14-13.07,15-19.77A23.68,23.68,0,0,0,38,261.72c2.32-8.08,4.42-16.16,6.58-24.23a14,14,0,0,0,.32-2.15c-5,5.69-5.9,8.35-15.25,17.14A32.09,32.09,0,0,1,20.09,259c-7.85,3.4-14.38,1.73-15.53-6.76-1.64-12.17,1.72-20.82,5.54-37,1.26-3.4,4.2-11,5.75-14.29,1.87-4,8.25-8.72,9.48-9,4.49-1,4.83,3.59,3.67,6,1.2-2.48-8.14,19.75-11.71,40.24-.28,10.82,6.42,6.24,9.77,2.56a170.39,170.39,0,0,0,18.49-23.86c4.06-7.33,7.91-14.75,11.91-22.1,2.8-5.13,5.57-7.26,8.91-7,3.06.22,4.68,3.1,3.48,8.17-2.49,10.43-5.41,20.9-8.1,31.36-1.08,4.21-2,8.42-3.32,13.86l5.79-6.48C74.88,222.78,99.7,193,102.63,189.92c1.16-1.23,3.42-2.32,4.47-2C108.8,188.45,107,195,105.38,197.07Zm-75,91.32c-6.33,8.44-12.94,16.71-17.1,26.37-1.11,2.56-3.21,7.31-1.28,8.12s5-3.73,6.68-6.19C24.7,307.77,27.61,298.1,30.36,288.39Z"/><path class="cls-2" d="M224.91,169.18c-2.33,3.57-6.62,6.95-9.6,9.5-2.16,1.84-14.68,8-21.21,8.64-3.32,17.39-9.26,29.6-22.18,43.59-5.1,5.51-10.7,9.61-16.75,10.58-8.19,1.32-13.06-4.62-12.67-15a111.22,111.22,0,0,1,9.86-40.73c4.07-9.2,9.68-18,19.27-20.82,9.34-2.73,16.2-.6,20.5,6.81.48.83,1.17,4,2.08,4.12,6.11,1.09,16.06-2.29,26.17-8.86a11.48,11.48,0,0,1,3.41-1.78C225.16,164.93,226.2,166.24,224.91,169.18Zm-46.78,21.53c-8.26,1.68-15.87,2.32-21.95-.37-3.76,12.19-6.35,23.53-4.68,33.88,1,6.41,4.93,6.78,10.47,1.14A57.35,57.35,0,0,0,175.75,202C176.89,198.29,177.33,194.6,178.13,190.71Z"/><path class="cls-2" d="M309,147.16c-8.37,20.31-25.12,47-37.31,57.1-5.55,5.35-11.45,7.88-16.78,5.9-5.63-2.09-7.26-8-6.13-15.3,1.11-7.14,3.38-14.5,5.09-21.56-3.88,1.25-8.44,3.35-12.68,3.9-4.08.52-7.83-.57-12.33-1-3.84,6.21-8.27,13.64-13,20.9-5.35,8.25-10.89,16.38-16.44,24.51-1.32,2-3,4.4-4.89,2.85s0-3.61,1.4-5.63c11.31-16.1,19.87-33.45,28.62-50.72a7.56,7.56,0,0,0,.78-3.36c-.15-9.65,3.39-19.1,9.45-28.35,3.51-5.35,7.74-7.77,11.07-6.7,3.17,1,4.21,4.43,2.5,9.29-1.18,3.36-2.8,6.68-4.12,10-2.66,6.74-1.17,8.73,4.72,6.11,4.22-1.88,8.42-4.36,12.63-6,10.91-4.37,16.74,2.55,12.55,15.1-1.91,5.69-10.79,24.61-6.39,26.58,3.29,1.47,9.9-7.08,15.32-14.49,9.21-14.53,11.23-16.72,18.82-30.46,1.28-2.32,4.41-4,6.36-3.22C309.2,143,309.63,145.76,309,147.16Z"/><path class="cls-2" d="M388.64,133.88c-5.28,10-22.85,38.61-46,60.85-1.44,1.38-3.75,3-4.22,4.88-3.31,13.22-5.38,22.84-11.39,36-4.94,10.85-10.84,21.11-19.33,29.68-7.29,7.36-14.94,12-22.68,10.33-8.63-1.84-11.09-13-6.06-26.25,4.65-12.23,13-21.65,22-30.45,5.3-5.18,10.73-10.15,16.05-15.31a9.53,9.53,0,0,0,2.53-3.67c2-7.93,3.8-15.84,5.74-24.1-5.28,5.74-9.94,11.28-15,16.11a32.15,32.15,0,0,1-9.9,6.5c-6.54,2.57-11.15-.4-11-7.47.4-16.38,6.85-32.14,19.21-46.19,6.5-7.39,13.7-9.06,20.3-7.08a41.4,41.4,0,0,1,4.59,2c1.84-3.27,3.72-6.59,5.59-9.9,3.84-6.82,8-10,12.19-9.21,4.46.83,5.79,5.1,3.8,12.22-2.74,9.85-5.58,19.71-8.22,29.55-1.26,4.69-2.72,11.29-4,17.11,16.47-15.74,33.66-39,41.08-51.22,1.86-2.26,3.52-3.8,5.35-2.41S390.29,129.74,388.64,133.88Zm-86.24,113c5.57-8.27,13.37-29,13.1-29.33-6.78,7.86-13.15,14.51-19.5,23.79-2.07,3-4.82,7.44-5.4,10.83-.32,1.83-.45,4.65,1.15,5,3.28.71,8.87-7.64,10.65-10.28ZM329,147.77c-3.29-3.79-10.41-6.76-16,3.81-3.33,6.24-5.65,13-7.83,19.53-1.2,3.62-2.77,9.85-1.7,11,.91,1,2.45.32,3.05-.13C313.64,176.72,320.51,161.56,329,147.77Z"/><path class="cls-2" d="M458.94,120.49c-11.81,21-23.18,39.28-34.47,49.31-9.4,8.36-18.07,8-20.64-1.89-.91-3.55-.85-7.75-1.27-12-3.9,4.76-7.68,9.66-11.73,14.25a101.86,101.86,0,0,1-11,11.24c-6.4,5.28-12.35,3.79-12.35-3.6a62.82,62.82,0,0,1,3.06-19.56c4.17-12.43,7.68-24.28,12.51-36.68.83-2.13,5.84-5.25,7.55-4.48,2.8.87,2.13,4.11,1.62,5.62-3.55,10.66-6.13,21.36-10.21,34.23-3.11,9.77-1,12.2,3.9,5.37A316.85,316.85,0,0,0,415.29,114c1-2,2.06-4,3.24-5.89,2.4-3.88,5.58-5.81,8.46-5.27,3.11.57,4.52,3.32,3.51,7.51-.48,2-1.44,4.09-2.16,6.14-3.85,11-7.89,22-11.43,33.07-1.11,3.47-2,8.4-.38,10.67,3,4.41,8.92-2.89,10.94-5.19,13.44-18.12,16.33-22.07,26.21-37.68,4.37-6.89,4.88-8.26,7.31-7.61C463.87,110.5,460.23,117.62,458.94,120.49Z"/><path class="cls-2" d="M501,105.74c-7.65,20.68-26.74,58.92-44.16,70.21-6.8,4.42-13.31,5.14-16.52-.15-2.45-4-2-10-1.58-15.75,2.67-16.65,9.12-38.53,16.65-57.89,7.74-19.89,12-31.9,19-48.47,1.16-2.74,4.29-6.89,6-9.3a5.86,5.86,0,0,1,4.34-2.13c.82.13,1.48,2.69,1,3.81-8.63,18.25-12.93,36.7-17.47,55-4.67,18.78-9.81,40.11-11.49,56.16-.68,6.52,1.75,5.74,3.31,4.13,13.5-13.91,29.93-46.17,35.25-56.06,1.08-2.6,2.37-4.85,4.79-4.49C502.3,101.11,502,103.23,501,105.74Z"/><path class="cls-2" d="M540.66,97.3C533,118,513.92,156.22,496.51,167.51c-6.81,4.42-13.31,5.14-16.53-.15-2.44-4-2-10-1.57-15.75,2.67-16.66,9.12-38.54,16.64-57.89,7.74-19.89,12-31.9,19-48.47,1.16-2.74,4.3-6.89,6-9.3a5.85,5.85,0,0,1,4.34-2.13c.81.13,1.48,2.69,1,3.81-8.63,18.25-12.93,36.7-17.48,55-4.67,18.78-9.81,40.11-11.48,56.16-.68,6.52,1.74,5.74,3.31,4.13C513.2,139,529.63,106.73,535,96.84c1.08-2.6,2.36-4.85,4.79-4.49C541.94,92.67,541.65,94.79,540.66,97.3Z"/><path class="cls-2" d="M600.53,89.18c-2.33,3.57-6.62,6.95-9.61,9.5-2.16,1.84-14.68,8-21.2,8.64-3.32,17.39-9.26,29.6-22.18,43.59-5.1,5.51-10.7,9.61-16.75,10.58-8.19,1.32-13.06-4.62-12.67-15A111,111,0,0,1,528,105.75c4.07-9.2,9.68-18,19.27-20.82,9.34-2.73,16.2-.6,20.49,6.81.48.83,1.18,4,2.09,4.12C575.94,97,585.89,93.56,596,87a11.55,11.55,0,0,1,3.4-1.78C600.77,84.93,601.81,86.24,600.53,89.18Zm-46.78,21.53c-8.26,1.68-15.88,2.32-22-.37-3.76,12.19-6.35,23.53-4.69,33.88,1,6.41,4.94,6.78,10.48,1.14A57.22,57.22,0,0,0,551.36,122,114.49,114.49,0,0,0,553.75,110.71Z"/></g><g class="cls-3"><path class="cls-2" d="M333.14,381.77c1.66,2,3.28,3.93,4.85,5.92l.93-1.69c-1.32-1.11-2.67-2.19-4.06-3.22A8.72,8.72,0,0,0,333.14,381.77Z"/><path class="cls-2" d="M363,447.5a89.52,89.52,0,0,0-14.86-22.39,141.56,141.56,0,0,1,6.77,39.41,137.09,137.09,0,0,1-4.39,39.81C349,490,346.38,476,340.67,462.68c-.38,19.42-4.1,37.93-14,55.37-.11-.78-.19-1.13-.2-1.48a85.66,85.66,0,0,0-4.37-25.74,3.85,3.85,0,0,1,0-2.28,46.59,46.59,0,0,0,2.63-13.4,4.13,4.13,0,0,0-.92-2.63c-4.17-4.56-9.49-6.68-15.39-7.4l-.13.34-1.74-.36-.53-.11-.39-.08c-.29,0-.59,0-.88,0-4.7,0-9.24,1.2-13.75,2.46a68.06,68.06,0,0,1-18.33,2.77c-1,0-2.1,0-3.15-.1a75.11,75.11,0,0,1-39.46-14.08,86.88,86.88,0,0,1-23.94-25.81c-.26-.42-.48-.87-.77-1.28-.55-.77-.38-1.27.42-1.8,8.92-5.86,14.3-14.28,17.47-24.28.11-.38.19-.77.27-1.16,0-.08-.05-.18-.17-.53-.49.52-.92.93-1.31,1.38-6.82,7.78-14.89,13.84-25.23,15.64a54.8,54.8,0,0,1-9.25.81c-16.8,0-32.46-8.27-40.48-26.65-1.36-3.12-2.24-6.46-3.35-9.7-.11-.31-.25-.61-.47-1.12a7.32,7.32,0,0,0-.49,1.11,116.15,116.15,0,0,0-2.5,34.63c1.66,24.88,7.82,48.75,16.21,72.12a2.67,2.67,0,0,0,.93,1.31c.29-1.81.57-3.63.88-5.44a76.55,76.55,0,0,1,10.33-28.37A41.71,41.71,0,0,1,181,443.69a5.34,5.34,0,0,1,.63-.26,12.6,12.6,0,0,1,.14,1.87,194.07,194.07,0,0,0,.52,32,121.35,121.35,0,0,0,5.42,26.34c3.19,9.53,7.84,18.26,14.8,25.59A43,43,0,0,0,230.34,543c2,.19,4,.29,6,.29,10.25,0,20.07-2.49,29.7-6.18,7.78-3,15.48-6.21,23.28-9.16a58.85,58.85,0,0,1,20.89-4.23c1.24,0,2.49.05,3.75.16,4.32.35,8.65.93,12.36,3.4a17.11,17.11,0,0,1,4.13,4c1.63,2.2,1.56,4.74.55,7.24a9.71,9.71,0,0,0-.77,2.24c6.81-4,8.84-10.9,10.94-17.8a68,68,0,0,1-4.07,22.31l.34.2a14.85,14.85,0,0,0,1.33-1c5.83-5.51,10-12.18,13.37-19.38a106.37,106.37,0,0,0,9.55-36.25c.67-7.86.77-15.76,1.13-23.64a5.79,5.79,0,0,1,.19-1.67c4.92,7.08,7.06,15.3,9.4,23.42h.52l1.2-11.07v-17c-.47-3.69-.82-7.4-1.42-11.07a103.77,103.77,0,0,0-23.94-51.93,88,88,0,0,0-8.42-8.52l-2,.85C351.93,405.47,361.94,424.44,363,447.5ZM201.13,436.31A90.88,90.88,0,0,0,215,451.57a5.66,5.66,0,0,1,.81.07c2.93.5,6,3.24,7.37,6.2.75.51,1.49,1,2.26,1.51a10.75,10.75,0,0,0-1.5,1.31c0,.11,0,.22,0,.32v2.51a6.72,6.72,0,0,1,4-1.21,10.62,10.62,0,0,1,2.33.27,20.85,20.85,0,0,1,8.92,4.9,2.15,2.15,0,0,1,.66,1.39c.08,2.82.14,5.65.06,8.47a2.91,2.91,0,0,1-1,1.93,30.82,30.82,0,0,0-7.38,8.3c-.19.32-.44.61-.76,1.06-3.65-3.52-6.23-7.66-8.78-11.85a14,14,0,0,0,.27,1.93A1.94,1.94,0,0,1,222,480c-1.31,1.48-2.71,2.88-4.24,4.47a54.17,54.17,0,0,1-7.4-12.19,9.06,9.06,0,0,0,.08,1.75c0,.46.12,1.12-.13,1.37-1.16,1.14-2.42,2.16-3.74,3.32-.35-.43-.65-.74-.89-1.1a36,36,0,0,1-6.15-20.06c0-2.36,1.69-5.07,3.65-5.64a4.1,4.1,0,0,1,1.1-.17c1.76,0,2.86,1.4,4,2.71a10.53,10.53,0,0,1,.66.94c.17-.33.34-.66.54-1a10.38,10.38,0,0,0-3.48-5.16,4.13,4.13,0,0,0-2.33-.79,3.67,3.67,0,0,0-3,1.7c-.5.71-.9,1.48-1.34,2.22A37.15,37.15,0,0,1,201.13,436.31Zm121,79c-.23,2-.31,2.62-1.21,2.62a11.19,11.19,0,0,1-2.08-.39c-2.18-.51-4.5-.71-4.6-3.86a4.32,4.32,0,0,1-2.87,1.43,3,3,0,0,1-1.36-.34,24.22,24.22,0,0,1-2.7-1.67l-.11.24-.33.76,1.19,2.13-2.67.34a4.6,4.6,0,0,1-3.45,1.57,5.55,5.55,0,0,1-2.57-.66l-.17-.11c-1,.16-2,.33-3.06.52-9.54,1.87-18.54,5.5-27.63,8.85-9.6,3.54-19.21,7.07-29.5,8.1a56.63,56.63,0,0,1-5.66.3,37.19,37.19,0,0,1-13.14-2.21c-7.71-2.88-13.39-8.19-17.86-14.93-1-1.49-1.86-3.06-2.85-4.71,4.05-.47,7-1.44,8.84-2.84a12.75,12.75,0,0,1,.32-1.49c-.77.33-1.53.64-2.28.92a9.32,9.32,0,0,1-3.23.6c-3.18,0-5.7-1.9-5.82-5.44,0-.11-.16-.21-.27-.34l-.86.91a5.77,5.77,0,0,1-.4-.94c-1.12-5-2.24-10.06-3.28-15.11a3,3,0,0,1,.4-2c1.78-2.86,3.59-5.71,5.53-8.46a24.28,24.28,0,0,1,3-3c.87,1.63,1.56,3.06,2.38,4.4a2.19,2.19,0,0,1,.07,2.45c-.76,1.49-1.29,3.1-1.91,4.65,1.63-1.68,2.8-3.59,4.28-5.22a65.24,65.24,0,0,1,5-4.5c1.45,3.11,2.66,5.88,4,8.58a3.26,3.26,0,0,1,.25,2.93,35.22,35.22,0,0,0-1.09,4l.43.17a24.17,24.17,0,0,1,8.56-11c1.73,3,3.28,5.86,5,8.6a2.74,2.74,0,0,1,.41,2.6c-.38,1.11-.54,2.3-.87,3.76,1.91-3.07,3.45-5.89,5.33-8.48a24.52,24.52,0,0,1,7.11-6.58,11,11,0,0,1,.38,1.27,67.06,67.06,0,0,0,4.86,16.68,2.62,2.62,0,0,1,0,1.81c-1.11,2.82-2.3,5.6-3.49,8.39a2.74,2.74,0,0,1-.68,1.1,19.56,19.56,0,0,1-8.53,4.06,9.3,9.3,0,0,1-1.39.11c-2.42,0-4.65-1.08-5.5-3.48l-.74.75c-.25.26-.51.5-.76.74,0,.13,0,.27,0,.41,0,3.19,2,5.37,5,5.37a8,8,0,0,0,.84-.05,13.93,13.93,0,0,0,5.12-1.8,36.11,36.11,0,0,0,4.44-3.32l.05-1.21.59.7.51-.41c0,.31-.08.6-.11.88l.25.31c4.21-8.12,8.78-15.84,16.38-21.47.46.67.8,1.1,1.07,1.56a41.44,41.44,0,0,1,5.09,17.75c.19,2.67,1.82,3.71,3.69,4.74a3,3,0,0,0,1.45.38,3.14,3.14,0,0,0,1.93-.7,6.39,6.39,0,0,0,2.38-4,6.26,6.26,0,0,1-.12-1.06c-.18.26-.3.42-.4.58a4.57,4.57,0,0,1-3.85,2.52,5.08,5.08,0,0,1-2.95-1.07,2.68,2.68,0,0,1-1-1.9,51.9,51.9,0,0,0-1.07-9.69l-.09-.21-.09-.22-.39-1,.18-.3a51,51,0,0,0-3-8.84,7.57,7.57,0,0,1-.45-5.93,33,33,0,0,0,.87-5.58l-.49-.1a4.09,4.09,0,0,0-.5.82A31.19,31.19,0,0,1,252,493.41a60.24,60.24,0,0,0-4.76,5.84c-3.23-6.32-5.48-26.16-3.45-30,3.26,1.05,6.47,2.27,9.79,3.09a8.85,8.85,0,0,1,6,4.45,5.39,5.39,0,0,0,.83.76c-.2-1.48-.34-2.51-.49-3.67l5,.67-3.41,3,.23.39a13.73,13.73,0,0,1,6.22-2.08c1.9,0,3.68.86,5.26,3.14.1-.25.21-.49.33-.73l-1.7-3.27h.67a39.57,39.57,0,0,0,4.09-.23,6.9,6.9,0,0,1,3.74-1.13h.09a5.57,5.57,0,0,1,1.64.26c4.64-1,9.21-2.42,13.81-3.64a32.39,32.39,0,0,1,8.26-1.1,29.89,29.89,0,0,1,3.27.2l-.21-.95.69,1c.47.06.95.11,1.43.19a26.54,26.54,0,0,1,8.93,3.05,8.81,8.81,0,0,0-5.69,3.68l.53.79,0,0a7.63,7.63,0,0,1,5-2.25,6.23,6.23,0,0,1,.74,0c1,.12,1.52.47,1.53,1.58a46.18,46.18,0,0,1-1.56,13.85c-.56,1.9-1.3,3.74-2,5.6-1.14-3-1.78-6-3.74-8.48,1.62,3.12-.08,5.29-1.89,7.42-.34.41-.7.82-1,1.23a3.88,3.88,0,0,1,.31.77l4.05-3.65c.56,4.47,1.1,8.73,1.64,13,.87-4.24.55-8.83,4.12-12.32.19.61.43,1.19.57,1.8A57,57,0,0,1,322.08,515.32Z"/><path class="cls-2" d="M222.26,465.15a8.56,8.56,0,0,1,.72-.84l-.91-.68a12.44,12.44,0,0,0-.61,2.28A9.63,9.63,0,0,0,222.26,465.15Z"/><path class="cls-2" d="M250.24,580.61q-4.22-1.9-8.38-4.09c1.39,1.39,2.87,2.73,4.37,4.05Z"/><path class="cls-2" d="M312.54,533.46c-1.11-.1-2.21-.15-3.31-.15-6.7,0-13.06,1.86-19.38,4.05-8.26,2.86-16.47,5.87-24.82,8.38a114.7,114.7,0,0,1-30.49,4.92h-1.12c-12.41,0-22.7-4.79-31.57-13.33-11-10.63-17.54-23.68-20.71-38.49-.85-4-1.27-8-1.9-12.05a2.2,2.2,0,0,0-.38-1.06,96.86,96.86,0,0,0,2.89,32.92C187,538.31,198,554.16,214,566.59a100.82,100.82,0,0,0,23.89,13.92q4.18,1.69,8.58,3c-1.13-1-2.26-2-3.36-3a48.89,48.89,0,0,1-9.48-11.17,141.7,141.7,0,0,0,21.66,11.22c12.9,5.4,26.48,9.16,40.45,12.36-3.35-3.6-6.51-6.77-9.4-10.17-.4-.46-.78-.94-1.16-1.43A46.79,46.79,0,0,1,279.36,571c.44.28.66.35.77.5a45.23,45.23,0,0,0,11.17,10,66.41,66.41,0,0,0,10.25,5.35c5.9,2.49,12,4.57,17.95,6.83.23.09.45.22.67.33h.89c-1-1.87-2.13-3.7-3.09-5.6a46.7,46.7,0,0,1-2.54-5.89,33.53,33.53,0,0,1-1.75-16.11,11.83,11.83,0,0,1,.67-2.58c.49,5.29,1.9,10.16,5.41,14.18l.42-.11c-.09-.76-.18-1.51-.25-2.27-.48-5.29,1.2-10.19,2.63-15.15a91.06,91.06,0,0,0,2.76-11C326.74,540.61,321.6,534.33,312.54,533.46Z"/><path class="cls-2" d="M83.41,327c-3.59,2.15-6.17,5.27-8.89,8.25,4.84-14.66,15.19-23.93,29.06-30l-2.21,0-1.41,0c-1.22.05-2.44.18-3.66.27l-.12-.48c2.9-.89,5.76-2,8.71-2.65a52.48,52.48,0,0,1,12-1.4c9.46,0,18.55,2.61,27.34,7.18a75.36,75.36,0,0,1,16.93,12.06,1.82,1.82,0,0,0,1.2.63,1.85,1.85,0,0,0,1-.35,91.82,91.82,0,0,1,38.33-13.87,95.7,95.7,0,0,1,11.75-.75,77.3,77.3,0,0,1,37.19,9.19,67.42,67.42,0,0,1,14.18,10.29l1.08,1,.34-.27c-1.32-1.77-2.53-3.64-4-5.28-7.79-8.81-17.69-14.12-28.92-17.12a83.84,83.84,0,0,0-21.79-2.83,100.23,100.23,0,0,0-21.55,2.44,104.68,104.68,0,0,0-25.28,9.12,1.73,1.73,0,0,1-.79.22,2.12,2.12,0,0,1-1.29-.64,75.3,75.3,0,0,0-30.46-14.34c-2.56-.56-5.17-.91-7.76-1.35H112.73a3.62,3.62,0,0,1-.56.17c-11.9,1.29-22.34,6-31.71,13.33-1.15.9-2.2,1.93-3.3,2.9l.24.26,9.5-2.72c0,.39,0,.53-.15.6-8.4,5.11-13.19,12.86-15.9,22.05-.86,2.93-1.3,6-1.93,9v11.32A10.07,10.07,0,0,0,70,351.63c1.45-3.37,2.83-6.77,4.28-10.14a6.43,6.43,0,0,1,1.32-1.81C73,357,78.29,371.51,90.94,383.4A69.33,69.33,0,0,1,80.4,356.06,60.17,60.17,0,0,1,83.41,327Z"/><path class="cls-2" d="M79.19,426.22A157.26,157.26,0,0,0,77,456.62,171.29,171.29,0,0,0,83.69,501a5.78,5.78,0,0,0,.8,1.79,149.28,149.28,0,0,1,4.22-30.55c.74,4.94,1.35,9.62,2.17,14.25a133.78,133.78,0,0,0,7,25.05A107,107,0,0,0,115.76,542a94.25,94.25,0,0,0,28.47,22.7,2.08,2.08,0,0,0,1,.21h.05c-6.52-7.68-11.85-16-14.09-26.18a3,3,0,0,1,.64.28c6.92,6.67,15.05,11.56,23.71,15.5A251.57,251.57,0,0,0,179.14,564c10.52,3.55,21.27,6.41,31.93,9.56a3.39,3.39,0,0,0,.91.14,3,3,0,0,0,.76-.1,5.8,5.8,0,0,0-.75-.46c-16.19-6.65-28.45-17.9-37.79-32.49-7.43-11.6-12-24.36-14.68-37.82a3.32,3.32,0,0,0-.59-1.36,97,97,0,0,0,.72,22.72,79.88,79.88,0,0,0,6.36,21.9l-.3.25c-.48-.19-1-.34-1.44-.56-13-6.13-23.22-15.47-31.2-27.33a86.32,86.32,0,0,1-13.34-33.83c-.92-5.27-1.3-10.63-1.91-15.95a3.15,3.15,0,0,0-.46-1.54c-5.47,16.95-4.09,34.06-1.36,51.28-.66-1.48-1.34-2.94-2-4.43s-1.34-3.1-1.91-4.68a126.79,126.79,0,0,1-6.51-26.87,142.57,142.57,0,0,1-.39-32.84,155.72,155.72,0,0,1,8.33-37.41,1.53,1.53,0,0,0,0-1c-9.16,13.69-15.74,28.4-18.14,44.93-.36-2.81-.78-5.61-1.06-8.43a121.37,121.37,0,0,1,4.9-49.3c.35-1.1.72-2.19,1.1-3.28l-7.89-7.41A125.08,125.08,0,0,0,79.19,426.22Z"/><path class="cls-2" d="M124.3,354A131,131,0,0,1,144,335.26c.39-.31.79-.61,1.19-.89,2-1.38,2.06-1.43.57-3.26-4.17-5.11-8.61-10-15-12.36a35.55,35.55,0,0,0-12.39-2.34,31.76,31.76,0,0,0-15.25,4A18.23,18.23,0,0,0,99,323.75c3.91-1.6,7.83-2.88,12-2.88a19.48,19.48,0,0,1,2.73.19c-8,1-15.07,3.8-20,10.62a24.54,24.54,0,0,0-4.54,13.12,48.12,48.12,0,0,1,2.55-4.27A43,43,0,0,1,94.92,337l.28.23c-.34,2-.79,4-1,6-1.07,9.95,1.86,18.74,7.94,26.54a2.12,2.12,0,0,1,0,3.15,113.42,113.42,0,0,0-8,11.83l6.35,9.95A127.48,127.48,0,0,1,124.3,354Z"/><path class="cls-2" d="M100.38,395.06l.15-.43-6.35-9.95c-.2.33-.39.66-.58,1l2.6,4.07-3.19-3-.52.91Z"/><path class="cls-2" d="M93.6,385.67,93,386.74l3.19,3Z"/><path class="cls-2" d="M311.32,455.8a17.27,17.27,0,0,0,10.21-5.4,2.07,2.07,0,0,0,.23-3.08c-5.36-7.74-5.67-18.23-3.16-25,0,2.61-.13,5.78,0,8.92a21.34,21.34,0,0,0,3.1,10.16c1,1.67,2.22,2.51,3.48,2.51a4.8,4.8,0,0,0,3.4-1.92c.84-.93,1.59-2,2.58-3.2a60.35,60.35,0,0,1-2.67,33.53l.4.17c.32-.44.66-.87.94-1.33,7.14-11.5,11-24,10.8-37.54-.06-3.76-.68-7.51-1.05-11.26-.29-2.81-.57-5.62-.89-8.42-.71-6.13-2.83-11.59-7.85-15.51a30.27,30.27,0,0,0-12.29-5.52l-.8,2.55-2.27-1.56c-1-.66-1.94-1.32-2.95-2A67.19,67.19,0,0,0,279,396.47c-.59.23-1.14.53-1.71.8l.1.39c.57-.13,1.15-.24,1.71-.39a85.21,85.21,0,0,1,22.23-3q3.2,0,6.4.25c5.82.44,11.55,1.47,16.48,5a11,11,0,0,1,4,4.7c-1.86-.46-3.41-.91-5-1.23a69.89,69.89,0,0,0-13.88-1.39,77.23,77.23,0,0,0-20.77,2.94,17.6,17.6,0,0,1-4.75.71,12.68,12.68,0,0,1-9.88-4.78,1.88,1.88,0,0,0-.32-.31,4,4,0,0,0-.56-.28,39.57,39.57,0,0,0-2.07,3.79c-3.86,9.07-3.14,18.07.85,26.85a38.93,38.93,0,0,0,4.9,7.95,12.75,12.75,0,0,0,10.1,4.89,13.12,13.12,0,0,0,10.72-5.53c3.32-4.68,4.36-10,4.53-15.64,0-.69,0-1.37,0-2.06,1.58,7.36,1.67,14.51-3.22,20.84a14.64,14.64,0,0,1-10.91,5.64c-.63.05-1.26.14-2.28.25.8.76,1.31,1.34,1.91,1.8,5.08,3.77,10.48,6.82,16.91,7.61a2,2,0,0,1,1.37,1.23,28.92,28.92,0,0,1,.51,4c.06.48.08,1,.11,1.45l.6,0a34.25,34.25,0,0,0,1.58-4.6A2.76,2.76,0,0,1,311.32,455.8Z"/><path class="cls-2" d="M306.47,463l.54.11.06-.17-.6,0Z"/><path class="cls-2" d="M297,316a2.75,2.75,0,0,1-1.32.34,1.42,1.42,0,0,1-.65-.13A63.91,63.91,0,0,0,264.59,309c-1.58,0-3.17.05-4.77.14a59.7,59.7,0,0,0-7.07.84H254c25.86,0,46.6,9.9,61.63,32-1.36.24-2.27.36-3.16.55a11,11,0,0,1-2.55.43h-.19l3.2-2.83q-1.31-.12-2.55-.12c-3.89,0-7.33.94-10.2,3.81-3.38,3.38-4.46,7.62-4.4,12.27,1.85-5.12,3.56-10.29,9.8-12.12-.76,1.88-1.44,3.55-2.11,5.22l.37.3c3.78-2.2,7.72-3.72,11.95-3.72a17,17,0,0,1,3.37.33,27.11,27.11,0,0,1,5.6,1.95h-7.16l-.09.34a3.85,3.85,0,0,0,.74.5c6.67,2.51,10.3,7.65,12.31,14.18a43.3,43.3,0,0,1,1.78,12.49,5.4,5.4,0,0,0,.21,1.79,39.73,39.73,0,0,0,7.93-17.32c1.25-6.35.95-12.73.18-19.15,1.82,1.85,2.4,4.3,3.38,6.58a21.89,21.89,0,0,0-4.05-14.86c-3.28-4.45-7.79-7-13.1-8.41a33.09,33.09,0,0,1,5,.4c1.65.38,3.2,1.2,5,1.68a17.61,17.61,0,0,0-1.93-2,16.79,16.79,0,0,0-10.6-3.47,25.49,25.49,0,0,0-3.66.28,20,20,0,0,0-11,5.15L301.55,320c5.29-5.19,13.9-8.51,22.85-8.51a32.93,32.93,0,0,1,16.71,4.39l-6.52-.32-.25.38c12.22,5.88,19.18,15.74,22,28.72-2.29-3.38-4.52-6.8-7.85-9.4a64.55,64.55,0,0,1-6.28,48.94c3.08-1.29,8-8.86,10.2-15.43A55,55,0,0,0,355,350.44c2.66,4,3.84,8.67,5.57,13.09,1.58-15.85.25-30.82-12.5-42.72,1.2.42,2.41.8,3.6,1.27s2.35,1,3.83,1.64a5.13,5.13,0,0,0-.46-1c-6.32-6.77-13.62-12-22.73-14.33a39.53,39.53,0,0,0-9.89-1.27,41,41,0,0,0-17.93,4.28C301.84,312.68,299.5,314.51,297,316Z"/><path class="cls-2" d="M252.68,310h0Z"/><path class="cls-2" d="M313.87,380.61c-.54,2.13-.93,4.22-2.8,5.46-1.05-.34-.88-1-.43-1.71a7.28,7.28,0,0,0,.59-6.22l-.39,1.43a5.73,5.73,0,0,1-2.74,3.74,1.67,1.67,0,0,1-.76.18.71.71,0,0,1-.43-.11c-.25-.17-.29-.75-.28-1.15a5.09,5.09,0,0,1,.19-1.12,15.47,15.47,0,0,1-2.51-1,1.47,1.47,0,0,1,.05-1.32,11.75,11.75,0,0,1,2.38-.87,2.47,2.47,0,0,0-.27-1c-.76-1.15-.27-1.87.64-2.63a7.43,7.43,0,0,1,4.63-2.06c1.55,0,3.07.78,4.72,2.36,1,1,1.81,2.09,2.81,3.27a2.9,2.9,0,0,0,.07-.84,22.34,22.34,0,0,0-3.73-8.53,7.06,7.06,0,0,0-5.76-3.12,8.46,8.46,0,0,0-3,.57c-3.47,1.31-6.17,3.74-8.84,6.2-.76.69-1.49,1.39-2.24,2.09l-.47-.13v-8l-.53-.05a21.73,21.73,0,0,1-.63,2.23c-1,2.44-1.95,4.87-2.95,7.3a1.23,1.23,0,0,1-1.21.9,2.05,2.05,0,0,1-.57-.08,72.76,72.76,0,0,0-17.63-2.11,93.94,93.94,0,0,0-20,2.29c-.46.1-.92.17-1.69.32a48.23,48.23,0,0,0,2.76-12.64l-.37-.17c-.3.49-.64,1-.91,1.49-1.67,3.12-3.76,6-6.93,7.59a26.67,26.67,0,0,1-6.75,2h-.13a3.51,3.51,0,0,1-2-1.28,87.7,87.7,0,0,0-13.45-13.24,32.43,32.43,0,0,0-5.05-3.13,9.63,9.63,0,0,0-4.27-1.05A9.36,9.36,0,0,0,208,358c-4.07,2.61-6.61,6.5-8.74,10.7a3,3,0,0,0-.08.78c3.91-2.47,7.58-5.51,12.09-5.51a11.11,11.11,0,0,1,4.41,1A9.65,9.65,0,0,0,211,370.3a24.06,24.06,0,0,1,3.58,1.43c.39.24.56,1.16.53,1.76-.07,1.55-1.18,2.27-3.43,2.27l-.72,0q0,.5-.06,1l-.4.18c-.85-1.87-1.7-3.75-2.55-5.59-1.24,3.62,1,9.61,4.47,11.92a15.84,15.84,0,0,0,9,2.77,18.22,18.22,0,0,0,2.07-.12c2.2-.26,4.39-.61,6.78-1-.34.47-.66.93-1,1.41l.32,0-.88.9a19.32,19.32,0,0,0-2.77,6.95c8.71-8.78,18.38-12.52,28.8-12.52a55.52,55.52,0,0,1,16.35,2.7l.31-.33-7.48-4.26a112.29,112.29,0,0,1,11.39-.64,72.74,72.74,0,0,1,16,1.68l-3.55,2.58,0,.46a26.57,26.57,0,0,1,6-.7c7.19,0,13.48,3,19.52,6.89,1.19.14,2.37.32,3.56.53C316.72,387.48,315.34,382.39,313.87,380.61Zm-90.81,1.53,4.71-4.44,1.5,2.59Z"/><path class="cls-2" d="M316.83,390.52c-1.19-.21-2.37-.39-3.56-.53.67.42,1.34.86,2,1.31l1.53.25A8.41,8.41,0,0,0,316.83,390.52Z"/><path class="cls-2" d="M316.8,391.55l-1.53-.25,1.4.95A3.24,3.24,0,0,0,316.8,391.55Z"/><path class="cls-2" d="M214.77,337.18a58.77,58.77,0,0,1,7.94.57l.14-.42L217.71,334a50.77,50.77,0,0,1,22.22,12.31c-.75-3.41-2.41-6.35-4.47-9.59A31.66,31.66,0,0,1,246,344.1a30.74,30.74,0,0,1,6.53,10.75c.82-3-1.93-9.82-5.36-13.94-5.65-6.75-15.24-10.23-21.71-10.23h-.3l6,4.74-.22.4a36.72,36.72,0,0,0-19.47-5.28,53.48,53.48,0,0,0-9.5.91l9.23,2.13-.07.43c-12.92,1.1-23.56,8.26-24.94,17.18C193.78,340.94,203.61,337.18,214.77,337.18Z"/><path class="cls-2" d="M200.14,374.14h-.5a61,61,0,0,0-1.22,7.4,37.48,37.48,0,0,0,.33,9.3c.95,4.73,3.65,7.1,7.65,7.1a13.24,13.24,0,0,0,3.42-.49,33.06,33.06,0,0,0,12-6.48,27,27,0,0,0,2.54-2.27c-1.07.08-2.13.12-3.16.12C211.16,388.83,203.56,385,200.14,374.14Z"/><path class="cls-2" d="M307.87,499.09l-.71-.6a2.66,2.66,0,0,1,.4,1.4c.06,1.23.16,2.46.25,3.68l.49,0c.1-1.3.22-2.6.31-3.9l-.43-.36Z"/><path class="cls-2" d="M273.88,501.71l.21,0c-.1-.94-.17-1.88-.33-2.8-.23-1.24.22-2.13,1.48-2.17.88,0,1.77,0,2.65,0,1.74,0,3.48,0,5.22.08a1.43,1.43,0,0,1,1.56,1.45,2.73,2.73,0,0,0,.71,1.6,8.41,8.41,0,0,0,.3-1.39c.05-1.06.53-1.61,1.54-1.61h.14c2.92.14,5.84.25,8.75.49.37,0,.81.68,1,1.14a11.34,11.34,0,0,0,.4,1.64,2.83,2.83,0,0,0,.4-.82,2,2,0,0,1,2.16-2,2.42,2.42,0,0,1,.38,0c1.73.14,3.45.32,5.18.43a2.44,2.44,0,0,1,.94.24l.85-1.46a1.3,1.3,0,0,0,.08-.17,3,3,0,0,0-.51-.12c-.24,0-.52-.74-.56-1.15-.13-1.18-.15-2.36-.22-3.54l-.44-.05c-.11.92-.27,1.82-.34,2.74-.09,1.32-.65,2-1.89,2l-.39,0c-1.43-.15-2.87-.22-4.3-.3a1.15,1.15,0,0,1-1.24-1.32c0-1.16-.1-2.32-.17-3.48l-.39,0a29.78,29.78,0,0,0-.66,2.91,1.74,1.74,0,0,1-1.92,1.78h-.15c-2.13-.08-4.26-.12-6.38-.22-1,0-1.39-.58-1.34-1.57a5.1,5.1,0,0,0-.48-2.42c-.35.76-.76,1.51-1,2.3a1.92,1.92,0,0,1-1.95,1.47H283c-2.52-.12-5-.22-7.58-.32a1.55,1.55,0,0,1-1.62-1.57c-.22-1.55-.52-3.08-.78-4.6-2.52,4.16-5,8.2-7.41,12.23,0,.11.05.21.08.32l5.29-4.69C271.93,498.39,272.9,500.05,273.88,501.71Z"/><path class="cls-2" d="M306.57,498a1.63,1.63,0,0,1,.59.51l.71.6.31.26.43.36c0-.2,0-.4,0-.6s0-.45,0-.67l-.81-.68.43-.74.06-.11a1.57,1.57,0,0,0-.86-.56,1.3,1.3,0,0,1-.08.17Z"/><path class="cls-2" d="M265.49,501.24l.09.23.07-.06c0-.11,0-.21-.08-.32Z"/><path class="cls-2" d="M307.87,497.76l.81.68a2.41,2.41,0,0,0-.32-1.53l-.06.11Z"/><path class="cls-2" d="M251.26,528.68a9.94,9.94,0,0,0,2.21-.26c4.16-1,7.23-3.55,9.82-6.8a1.33,1.33,0,0,0,.21-.39,2.07,2.07,0,0,0,0-.49c-3.77,2-7.5,3.45-11.1,3.45s-7.25-1.51-10.62-5.52A9.5,9.5,0,0,0,251.26,528.68Z"/><path class="cls-2" d="M210.9,514.52a4.15,4.15,0,0,0,2.9,1.69l.86,0a11.89,11.89,0,0,0,7.89-3.27c0-.27.07-.54.11-.8a33.18,33.18,0,0,1-3.47,1.09,9.5,9.5,0,0,1-2.15.27c-2.62,0-4.39-1.41-5.3-4.13a7.24,7.24,0,0,1-1.51,2.06A5.32,5.32,0,0,0,210.9,514.52Z"/><path class="cls-2" d="M222.55,513c.41-.36.81-.73,1.2-1.13v0l-1.1.38C222.62,512.43,222.58,512.7,222.55,513Z"/><path class="cls-2" d="M211.45,508.43a1.56,1.56,0,0,0-.21-.41l-.33.78c-.08.17-.19.33-.28.5a9.86,9.86,0,0,0-.4,2.16,7.24,7.24,0,0,0,1.51-2.06A9.16,9.16,0,0,1,211.45,508.43Z"/><path class="cls-2" d="M223.82,511.77l-.06,0v0Z"/><path class="cls-2" d="M211.24,508l-.12-.22c-.18.51-.35,1-.49,1.5.09-.17.2-.33.28-.5Z"/><path class="cls-2" d="M305.43,477.84c-.24.63-.41,1.29-.68,2.17-.93-1.75-1.73-3.53-3.69-3.53a4.39,4.39,0,0,0-1,.13,4.22,4.22,0,0,0-2.74,2.46,8.76,8.76,0,0,1,.47,1.6l.26-.24a4.47,4.47,0,0,1,3-1.4,4.35,4.35,0,0,1,3,1.38,1.17,1.17,0,0,0,.72.42c.22,0,.43-.17.67-.52,1-1.51,2-2.27,3-2.27.11,0,.21,0,.32,0h0l1-.87c.08-.2.19-.38.28-.58a3,3,0,0,0-2-.84A2.94,2.94,0,0,0,305.43,477.84Z"/><polygon class="cls-2" points="311.51 478.43 311.51 478.43 311.53 478.46 311.51 478.43"/><path class="cls-2" d="M308.79,478.06h0a2.9,2.9,0,0,1,1.48.86l.11-.32-.25-.37.53-.44.15-.35c-.11-.15-.21-.3-.33-.44a5,5,0,0,0-.4-.4c-.09.2-.2.38-.28.58Z"/><path class="cls-2" d="M311.33,479.92l-.15.12a5.35,5.35,0,0,1,.29.47.77.77,0,0,0,.6.37l-.11-.5-.1.29Z"/><path class="cls-2" d="M310.15,478.24l.25.37-.11.32a7.07,7.07,0,0,1,.89,1.11l.15-.12.53.75.1-.29-.45-1.95c-.23-.32-.45-.66-.68-1l-.15.35Z"/><path class="cls-2" d="M311.51,478.43h0l0,0Z"/><path class="cls-2" d="M290.63,513c-1.47,0-2.92-1.18-4.92-3.54a9.61,9.61,0,0,1,0,1.61,16.43,16.43,0,0,0,1.63,3.31,3.93,3.93,0,0,0,3.24,1.76,4.34,4.34,0,0,0,3.17-1.47,7.49,7.49,0,0,0,1.57-2.72,9.52,9.52,0,0,1-.35-1.7C293.24,512.06,291.92,513,290.63,513Z"/><path class="cls-2" d="M279.3,516.21h.14c2.07-.09,3.8-2.23,4.18-4.85l0-.05a4.5,4.5,0,0,1-.31-1.21c-1.77,2.34-3.07,3.23-4.4,3.23a7.4,7.4,0,0,1-3.5-1.37c0,.34-.06.68-.11,1A4.43,4.43,0,0,0,279.3,516.21Z"/><path class="cls-2" d="M275.09,511.79a4.21,4.21,0,0,0,.19,1.17c.05-.32.08-.66.11-1Z"/><path class="cls-2" d="M283.68,509.59l-.39.51a4.5,4.5,0,0,0,.31,1.21l0,.05A7.44,7.44,0,0,0,283.68,509.59Z"/><path class="cls-2" d="M297.81,510a13,13,0,0,1-.37,1.93,8.13,8.13,0,0,0,2.2,3.33c1.47-.2,2.94-.38,4.39-.56l.21,0c.1-.16.19-.32.28-.49l-.27-.48-.52-.92a3.77,3.77,0,0,1-1.55.39C300.88,513.16,299.56,512.28,297.81,510Z"/><path class="cls-2" d="M299.64,515.25a3.46,3.46,0,0,0,.62.43,4.09,4.09,0,0,0,1.14.37l1.6-.21a2.91,2.91,0,0,0,1.18-1.07l.06-.11-.21,0C302.58,514.87,301.11,515.05,299.64,515.25Z"/><path class="cls-2" d="M304.52,514.17c.19-.36.37-.74.54-1.12l-.36-.64.95-.7a1.42,1.42,0,0,1,.08-.18,12.45,12.45,0,0,1-2,1.24l.52.92Z"/><path class="cls-2" d="M305.06,513.05c.2-.45.38-.9.59-1.34l-.95.7Z"/><path class="cls-2" d="M301.89,516.11a2.52,2.52,0,0,0,1.11-.27l-1.6.21A4.1,4.1,0,0,0,301.89,516.11Z"/><path class="cls-2" d="M297.44,511.92a13,13,0,0,0,.37-1.93q-.39-.51-.81-1.11A6.38,6.38,0,0,0,297.44,511.92Z"/><path class="cls-2" d="M284.9,481.12c-.32-2.65-1.44-4.43-3-5.13-1.49.3-3,.55-4.53.73a6.91,6.91,0,0,0-1.5,1.59l.05.1.62,1.18-.6.74c1.46-1.26,2.93-2.19,4.45-2.19S283.32,479,284.9,481.12Z"/><path class="cls-2" d="M280.39,475.66h-.06a5,5,0,0,0-3,1.06c1.53-.18,3-.43,4.53-.73A3.58,3.58,0,0,0,280.39,475.66Z"/><path class="cls-2" d="M275.91,478.41l-.05-.1a8.46,8.46,0,0,0-.6,1.07l.05.09-.18.22a8.81,8.81,0,0,0-.56,1.89c.46-.43.91-.86,1.36-1.25l.6-.74Z"/><path class="cls-2" d="M275.26,479.38c-.05.1-.08.21-.13.31l.18-.22Z"/><path class="cls-2" d="M291.86,476.77h-.19c-2.42.15-4.49,2.5-4.59,5.39v.1c1.6-1.51,3.22-2.76,5-2.76a4.39,4.39,0,0,1,2.72,1.06,11,11,0,0,1,.37-1.45A3.86,3.86,0,0,0,291.86,476.77Z"/><path class="cls-2" d="M295.77,480.84a7.12,7.12,0,0,0-.62-1.72,11,11,0,0,0-.37,1.45,8.61,8.61,0,0,1,.91.84C295.71,481.21,295.74,481,295.77,480.84Z"/><path class="cls-2" d="M295.93,481.66c0-.29-.1-.56-.16-.82,0,.18-.06.37-.08.57Z"/><path class="cls-2" d="M287.06,482.29l0,0v-.1A.5.5,0,0,0,287.06,482.29Z"/><path class="cls-2" d="M210,459.75a.76.76,0,0,1,.08-.11l-.5-.52-.13.31Z"/><path class="cls-2" d="M212,456.37l.12,1.12a4.29,4.29,0,0,1,2.56-.92,4.07,4.07,0,0,1,1.58.33c2,.81,3.58,2.42,5.16,3.68l.39-.52a5.87,5.87,0,0,0-.26-.85,85.5,85.5,0,0,1-7.32-5.62,3.72,3.72,0,0,0-2.5,1.26A11.84,11.84,0,0,1,212,456.37Z"/><path class="cls-2" d="M210.71,458.83l-.71-.74c-.14.35-.28.69-.43,1l.5.52C210.28,459.36,210.49,459.09,210.71,458.83Z"/><path class="cls-2" d="M220.38,457.15c-1.48-1.07-2.92-2.2-4.32-3.36a4.56,4.56,0,0,0-.59-.14,5.31,5.31,0,0,0-.87-.08l-.38,0a85.5,85.5,0,0,0,7.32,5.62A9.28,9.28,0,0,0,220.38,457.15Z"/><path class="cls-2" d="M221.92,461a3.69,3.69,0,0,0-.12-.92l-.39.52Z"/><path class="cls-2" d="M211.17,458.33a8.2,8.2,0,0,1,.94-.84l-.12-1.12a11.84,11.84,0,0,0-.27-1.52,5.34,5.34,0,0,0-.48.64c-.12.19-.22.39-.32.59s.05.27.06.4Z"/><path class="cls-2" d="M216.06,453.79c1.4,1.16,2.84,2.29,4.32,3.36A9.24,9.24,0,0,0,216.06,453.79Z"/><path class="cls-2" d="M211.17,458.33l-.19-1.85c0-.13,0-.27-.06-.4-.34.65-.64,1.33-.92,2l.71.74Z"/></g></g></g></svg>