<svg xmlns="http://www.w3.org/2000/svg" viewBox="0 0 15.47 15.47"><defs><style>.cls-1{fill:#302d5c;}</style></defs><title>instagram</title><g id="Capa_2" data-name="Capa 2"><g id="Capa_1-2" data-name="Capa 1"><path class="cls-1" d="M11.57,0H3.9A3.91,3.91,0,0,0,0,3.9v7.67a3.91,3.91,0,0,0,3.9,3.9h7.67a3.91,3.91,0,0,0,3.9-3.9V3.9A3.91,3.91,0,0,0,11.57,0Zm2.22,11.57a2.22,2.22,0,0,1-2.22,2.21H3.9a2.22,2.22,0,0,1-2.22-2.21V3.9A2.23,2.23,0,0,1,3.9,1.68h7.67A2.23,2.23,0,0,1,13.79,3.9Z"/><circle class="cls-1" cx="11.85" cy="3.63" r="0.94"/><path class="cls-1" d="M7.74,3.75a4,4,0,1,0,4,4A4,4,0,0,0,7.74,3.75Zm0,6.28A2.3,2.3,0,1,1,10,7.73,2.3,2.3,0,0,1,7.74,10Z"/></g></g></svg>