<svg xmlns="http://www.w3.org/2000/svg" viewBox="0 0 25.03 25.03"><defs><style>.cls-1{fill:#26006e;}</style></defs><g id="Capa_2" data-name="Capa 2"><g id="Capa_1-2" data-name="Capa 1"><path id="LinkedIn_alt_" data-name="LinkedIn (alt)" class="cls-1" d="M23.17,0H1.85A1.83,1.83,0,0,0,0,1.79V23.24A1.83,1.83,0,0,0,1.85,25H23.17A1.83,1.83,0,0,0,25,23.24V1.79A1.83,1.83,0,0,0,23.17,0ZM7.59,21H3.81V9.65H7.59V21ZM5.7,8.11h0A2,2,0,0,1,3.58,6.16a2,2,0,0,1,2.14-2,2,2,0,1,1,0,3.91ZM21.22,21H17.44v-6c0-1.52-.55-2.57-1.92-2.57a2.05,2.05,0,0,0-1.93,1.39,2.47,2.47,0,0,0-.13.91V21H9.68s.05-10.24,0-11.3h3.78v1.6a3.75,3.75,0,0,1,3.4-1.87c2.49,0,4.36,1.62,4.36,5.09V21Zm-7.78-9.66,0,0v0Z"/></g></g></svg>