<svg xmlns="http://www.w3.org/2000/svg" viewBox="0 0 363.27 354.4"><defs><style>.cls-1{opacity:0.06;}.cls-2{fill:#17173a;}</style></defs><title>ozesnos-face</title><g id="Capa_2" data-name="Capa 2"><g id="Capa_1-2" data-name="Capa 1"><g class="cls-1"><path class="cls-2" d="M314.5,101.69q3,3.5,5.77,7l1.12-2q-2.36-2-4.84-3.84A10.48,10.48,0,0,0,314.5,101.69Z"/><path class="cls-2" d="M350.06,179.93a106.52,106.52,0,0,0-17.69-26.65,168.5,168.5,0,0,1,8.06,46.91,163,163,0,0,1-5.23,47.39c-1.87-17-4.93-33.71-11.74-49.58-.45,23.12-4.87,45.15-16.61,65.92-.13-.94-.23-1.36-.24-1.77a101.65,101.65,0,0,0-5.2-30.64,4.59,4.59,0,0,1,0-2.72,54.72,54.72,0,0,0,3.12-15.94,4.76,4.76,0,0,0-1.09-3.13c-4.95-5.44-11.29-7.95-18.32-8.82l-.15.41-2.07-.43-.64-.13-.45-.1c-.35,0-.7,0-1.05,0-5.59,0-11,1.43-16.37,2.93a81.39,81.39,0,0,1-21.82,3.29c-1.24,0-2.49,0-3.75-.11a89.37,89.37,0,0,1-47-16.76,103.72,103.72,0,0,1-28.51-30.72c-.31-.51-.57-1.05-.91-1.53-.65-.92-.46-1.51.5-2.14,10.62-7,17-17,20.79-28.91a13,13,0,0,0,.33-1.37c0-.1-.06-.22-.2-.64-.59.62-1.1,1.11-1.57,1.65-8.12,9.25-17.71,16.47-30,18.61a64.53,64.53,0,0,1-11,1c-20,0-38.63-9.84-48.18-31.71-1.62-3.72-2.67-7.69-4-11.55-.13-.37-.3-.72-.56-1.34a7.52,7.52,0,0,0-.58,1.33,138.59,138.59,0,0,0-3,41.22c2,29.61,9.31,58,19.29,85.85a3.21,3.21,0,0,0,1.11,1.55c.35-2.16.69-4.32,1-6.47,2-12,5.79-23.41,12.29-33.77a49.76,49.76,0,0,1,14.74-15.59,5.74,5.74,0,0,1,.76-.3,16.24,16.24,0,0,1,.16,2.23,230.38,230.38,0,0,0,.62,38.06,143.87,143.87,0,0,0,6.45,31.35c3.8,11.35,9.33,21.74,17.62,30.46a51.1,51.1,0,0,0,33.09,16.36q3.6.34,7.12.34c12.2,0,23.89-3,35.34-7.35,9.27-3.56,18.43-7.4,27.72-10.91a70.19,70.19,0,0,1,24.87-5c1.48,0,3,.06,4.46.19,5.14.42,10.3,1.11,14.71,4a20.51,20.51,0,0,1,4.92,4.74c1.94,2.61,1.86,5.64.65,8.61a11.21,11.21,0,0,0-.91,2.67c8.1-4.74,10.52-13,13-21.19a80.88,80.88,0,0,1-4.84,26.56l.41.23c.53-.41,1.09-.77,1.58-1.23,6.94-6.56,11.91-14.5,15.92-23.07A126.79,126.79,0,0,0,348.46,229c.8-9.34.92-18.75,1.34-28.13a7.43,7.43,0,0,1,.23-2c5.86,8.43,8.4,18.21,11.2,27.88h.61q.72-6.59,1.43-13.17V193.34c-.55-4.39-1-8.8-1.69-13.16-3.8-23.23-13.12-44-28.5-61.83a105.4,105.4,0,0,0-10-10.14l-2.41,1C336.87,129.9,348.78,152.48,350.06,179.93ZM157.37,166.61a107.59,107.59,0,0,0,16.51,18.17,6.32,6.32,0,0,1,1,.08c3.49.59,7.12,3.86,8.77,7.39.89.6,1.78,1.21,2.69,1.79a12.94,12.94,0,0,0-1.78,1.55c0,.13,0,.26,0,.39v3a8,8,0,0,1,4.73-1.44,12.67,12.67,0,0,1,2.76.33,24.52,24.52,0,0,1,10.62,5.83,2.53,2.53,0,0,1,.79,1.65c.1,3.36.17,6.73.07,10.09a3.42,3.42,0,0,1-1.19,2.29,36.71,36.71,0,0,0-8.79,9.88c-.23.38-.52.73-.9,1.26-4.36-4.18-7.42-9.11-10.46-14.1a17.67,17.67,0,0,0,.33,2.3,2.29,2.29,0,0,1-.23,1.58c-1.56,1.76-3.23,3.42-5,5.32a64.74,64.74,0,0,1-8.81-14.51,10.21,10.21,0,0,0,.1,2.09c0,.55.14,1.32-.16,1.62-1.37,1.36-2.88,2.58-4.45,4-.41-.51-.77-.89-1.06-1.31a42.88,42.88,0,0,1-7.32-23.88c0-2.81,2-6,4.34-6.71a4.61,4.61,0,0,1,1.32-.2c2.09,0,3.41,1.66,4.73,3.22a11.24,11.24,0,0,1,.79,1.12c.2-.39.41-.78.64-1.17a12.37,12.37,0,0,0-4.14-6.15,4.93,4.93,0,0,0-2.78-.94,4.39,4.39,0,0,0-3.58,2c-.59.83-1.07,1.75-1.6,2.63A44.34,44.34,0,0,1,157.37,166.61Zm144,94.05c-.26,2.36-.36,3.12-1.43,3.12a13.09,13.09,0,0,1-2.48-.47c-2.6-.6-5.36-.84-5.47-4.59a5.15,5.15,0,0,1-3.42,1.71,3.54,3.54,0,0,1-1.62-.41,30.67,30.67,0,0,1-3.22-2l-.12.28c-.13.3-.26.61-.4.91.5.89,1,1.76,1.42,2.54l-3.17.4A5.51,5.51,0,0,1,277.3,264a6.66,6.66,0,0,1-3.05-.79l-.21-.12c-1.21.18-2.43.38-3.64.62-11.36,2.21-22.07,6.54-32.88,10.52-11.43,4.22-22.88,8.42-35.12,9.65a66.32,66.32,0,0,1-6.74.36A44.15,44.15,0,0,1,180,281.63c-9.17-3.42-15.93-9.75-21.26-17.77-1.18-1.77-2.21-3.64-3.39-5.6,4.82-.57,8.37-1.71,10.52-3.38a15.67,15.67,0,0,1,.38-1.78c-.92.39-1.81.77-2.71,1.1a11.3,11.3,0,0,1-3.85.72c-3.78,0-6.78-2.27-6.92-6.49,0-.12-.19-.24-.33-.4l-1,1.08A6.32,6.32,0,0,1,151,248c-1.32-6-2.66-12-3.9-18a3.55,3.55,0,0,1,.48-2.35c2.12-3.4,4.27-6.79,6.58-10.06a29.34,29.34,0,0,1,3.58-3.55c1,1.94,1.86,3.64,2.84,5.24a2.65,2.65,0,0,1,.08,2.92c-.9,1.77-1.53,3.68-2.28,5.53,1.94-2,3.34-4.28,5.11-6.21a74.62,74.62,0,0,1,6-5.37c1.71,3.71,3.16,7,4.77,10.22a3.85,3.85,0,0,1,.3,3.49,43.78,43.78,0,0,0-1.29,4.72l.51.2a28.69,28.69,0,0,1,10.18-13.07c2.07,3.61,3.91,7,5.92,10.23a3.3,3.3,0,0,1,.5,3.1,42.83,42.83,0,0,0-1,4.47c2.27-3.65,4.11-7,6.34-10.09a29.17,29.17,0,0,1,8.46-7.84,11.45,11.45,0,0,1,.46,1.51A79.53,79.53,0,0,0,210.3,243a3.09,3.09,0,0,1,0,2.16c-1.32,3.35-2.74,6.66-4.15,10a3.24,3.24,0,0,1-.81,1.31c-3.06,2.29-6.34,4.22-10.16,4.83a10.16,10.16,0,0,1-1.64.13c-2.89,0-5.54-1.28-6.55-4.14l-.88.9c-.3.31-.61.59-.92.87,0,.17,0,.33,0,.49,0,3.81,2.39,6.4,6,6.4a6.82,6.82,0,0,0,1-.07,16.3,16.3,0,0,0,6.1-2.14,42.92,42.92,0,0,0,5.28-3.95l.06-1.43.7.83.61-.5c-.05.38-.09.72-.14,1.06l.3.36c5-9.66,10.45-18.85,19.5-25.55.55.8.95,1.3,1.27,1.86a49.15,49.15,0,0,1,6.06,21.12c.23,3.18,2.17,4.42,4.4,5.64a3.59,3.59,0,0,0,1.72.45,3.66,3.66,0,0,0,2.3-.83,7.52,7.52,0,0,0,2.83-4.76,7.59,7.59,0,0,1-.14-1.26c-.22.31-.36.5-.47.69a5.44,5.44,0,0,1-4.59,3,6.11,6.11,0,0,1-3.51-1.27,3.24,3.24,0,0,1-1.22-2.26,60.51,60.51,0,0,0-1.27-11.54l-.1-.25-.11-.26-.47-1.14.22-.36a60.74,60.74,0,0,0-3.59-10.52,9,9,0,0,1-.54-7.06,39.26,39.26,0,0,0,1-6.64l-.58-.13a6.29,6.29,0,0,0-.6,1,37.16,37.16,0,0,1-9.33,14.63,69.81,69.81,0,0,0-5.66,6.94c-3.85-7.53-6.52-31.13-4.11-35.71,3.88,1.25,7.71,2.71,11.65,3.69a10.46,10.46,0,0,1,7.14,5.28c.12.21.37.35,1,.92-.23-1.77-.4-3-.58-4.38l6,.8-4.06,3.53.27.47c2.55-1.39,5-2.48,7.4-2.48s4.39,1,6.26,3.75q.18-.45.39-.87l-2-3.9h.81a46.26,46.26,0,0,0,4.86-.27,8.17,8.17,0,0,1,4.46-1.35h.1a7,7,0,0,1,2,.31c5.52-1.15,11-2.87,16.43-4.32A38.44,38.44,0,0,1,280,205.7a36.58,36.58,0,0,1,3.9.23l-.26-1.14.82,1.22c.57.07,1.14.12,1.71.22a31.64,31.64,0,0,1,10.63,3.62,10.49,10.49,0,0,0-6.78,4.39l.63.94,0,0a9.05,9.05,0,0,1,6-2.68,6.58,6.58,0,0,1,.88.05c1.18.14,1.81.55,1.82,1.87,0,5.58-.23,11.12-1.85,16.5-.68,2.25-1.55,4.44-2.34,6.66-1.35-3.57-2.12-7.08-4.44-10.09,1.92,3.71-.1,6.29-2.26,8.83l-1.24,1.46a5.48,5.48,0,0,1,.36.92l4.82-4.35,1.95,15.46c1-5,.66-10.51,4.9-14.66.24.73.51,1.42.68,2.14A67.43,67.43,0,0,1,301.33,260.66Z"/><path class="cls-2" d="M182.52,201a8.49,8.49,0,0,1,.86-1l-1.08-.81a13.41,13.41,0,0,0-.73,2.71A12.21,12.21,0,0,0,182.52,201Z"/><path class="cls-2" d="M215.82,338.37c-3.34-1.51-6.67-3.12-10-4.87,1.65,1.67,3.4,3.26,5.19,4.83Z"/><path class="cls-2" d="M290,282.26c-1.33-.13-2.64-.19-3.94-.19-8,0-15.55,2.22-23.08,4.83-9.82,3.4-19.6,7-29.55,10a136.39,136.39,0,0,1-36.28,5.85l-1.34,0c-14.77,0-27-5.7-37.58-15.87-13.12-12.65-20.87-28.18-24.65-45.82-1-4.72-1.51-9.56-2.25-14.34a2.8,2.8,0,0,0-.46-1.26,115.27,115.27,0,0,0,3.45,39.19c6.28,23.38,19.38,42.25,38.41,57a120,120,0,0,0,28.43,16.58q5,2,10.21,3.59-2-1.75-4-3.55A58.17,58.17,0,0,1,196.07,325a169.49,169.49,0,0,0,25.78,13.36c15.36,6.42,31.53,10.9,48.16,14.71-4-4.29-7.74-8.07-11.19-12.1-.48-.56-.93-1.13-1.38-1.71a55.53,55.53,0,0,1-6.95-12.3,4.56,4.56,0,0,1,.92.6,53.78,53.78,0,0,0,13.29,11.95,78.46,78.46,0,0,0,12.21,6.36c7,3,14.23,5.44,21.36,8.14.27.11.53.26.79.38h1.07c-1.24-2.21-2.54-4.39-3.69-6.65a57.19,57.19,0,0,1-3-7,40,40,0,0,1-2.08-19.18,14.69,14.69,0,0,1,.79-3.08c.59,6.3,2.27,12.1,6.45,16.88l.49-.13c-.1-.9-.21-1.8-.29-2.7-.58-6.29,1.42-12.13,3.13-18a107.53,107.53,0,0,0,3.28-13C306.89,290.76,300.77,283.29,290,282.26Z"/><path class="cls-2" d="M17.25,36.51C13,39.06,9.9,42.79,6.66,46.33c5.76-17.44,18.09-28.48,34.59-35.71l-2.62,0q-.84,0-1.68,0c-1.46.06-2.91.21-4.36.33l-.15-.58c3.45-1.06,6.86-2.33,10.37-3.15A62.53,62.53,0,0,1,57.08,5.56c11.27,0,22.09,3.11,32.55,8.56a89.64,89.64,0,0,1,20.15,14.35,2.17,2.17,0,0,0,1.42.75,2.29,2.29,0,0,0,1.17-.42A109,109,0,0,1,158,12.29a112.41,112.41,0,0,1,14-.89,92,92,0,0,1,44.27,10.94,80.72,80.72,0,0,1,16.89,12.24l1.28,1.19.4-.32c-1.57-2.1-3-4.33-4.74-6.29C220.79,18.68,209,12.36,195.64,8.79A99.82,99.82,0,0,0,169.7,5.42a120,120,0,0,0-25.65,2.9A124.82,124.82,0,0,0,114,19.18a2,2,0,0,1-.94.26,2.57,2.57,0,0,1-1.53-.76A89.53,89.53,0,0,0,75.22,1.61C72.17.94,69.07.53,66,0H52.15a3.5,3.5,0,0,1-.68.2C37.32,1.74,24.89,7.4,13.74,16.07c-1.38,1.07-2.63,2.3-3.93,3.45l.28.32L21.4,16.6c0,.46,0,.63-.18.71-10,6.08-15.7,15.31-18.92,26.24C1.27,47.05.75,50.7,0,54.28V67.76a13.41,13.41,0,0,0,1.3-1.94c1.72-4,3.36-8.06,5.09-12.07A7.62,7.62,0,0,1,8,51.59c-3.15,20.66,3.19,37.89,18.25,52A82.2,82.2,0,0,1,13.67,71.09,71.63,71.63,0,0,1,17.25,36.51Z"/><path class="cls-2" d="M12.22,154.6a187.64,187.64,0,0,0-2.59,36.19,203.46,203.46,0,0,0,7.95,52.79,7,7,0,0,0,1,2.13,178.37,178.37,0,0,1,5-36.37c.89,5.89,1.61,11.45,2.59,17a158.11,158.11,0,0,0,8.38,29.82,126.64,126.64,0,0,0,21.23,36.22,112,112,0,0,0,33.89,27,2.56,2.56,0,0,0,1.21.25h.07c-7.77-9.15-14.11-19-16.78-31.16a3.54,3.54,0,0,1,.76.33c8.23,7.95,17.92,13.76,28.22,18.45A296.35,296.35,0,0,0,131.2,318.6c12.52,4.23,25.32,7.64,38,11.38a3.6,3.6,0,0,0,1.09.17,3.72,3.72,0,0,0,.9-.12,6.92,6.92,0,0,0-.9-.54c-19.27-7.92-33.86-21.31-45-38.67-8.85-13.82-14.26-29-17.49-45a3.88,3.88,0,0,0-.69-1.62,115,115,0,0,0,.86,27.05,94.6,94.6,0,0,0,7.57,26.06l-.36.31c-.57-.23-1.16-.41-1.71-.67C98,289.63,85.85,278.5,76.35,264.38a103,103,0,0,1-15.88-40.26c-1.09-6.27-1.54-12.65-2.27-19a3.78,3.78,0,0,0-.54-1.84c-6.51,20.17-4.87,40.54-1.62,61-.79-1.76-1.6-3.51-2.36-5.27s-1.6-3.69-2.28-5.58a150.9,150.9,0,0,1-7.74-32,169.79,169.79,0,0,1-.47-39.09,185.2,185.2,0,0,1,9.92-44.53,1.8,1.8,0,0,0,0-1.24c-10.9,16.29-18.73,33.81-21.59,53.48-.42-3.34-.92-6.67-1.26-10a144.49,144.49,0,0,1,5.84-58.69c.41-1.31.85-2.61,1.3-3.9l-9.38-8.82A148.53,148.53,0,0,0,12.22,154.6Z"/><path class="cls-2" d="M65.91,68.68A156.35,156.35,0,0,1,89.35,46.33c.47-.36.94-.73,1.42-1.06,2.37-1.64,2.45-1.7.68-3.87-5-6.09-10.25-11.91-17.84-14.72a42.44,42.44,0,0,0-14.75-2.79,37.66,37.66,0,0,0-18.15,4.73,21.17,21.17,0,0,0-4.94,4c4.65-1.9,9.32-3.43,14.25-3.43a22.53,22.53,0,0,1,3.26.23c-9.54,1.19-18,4.52-23.76,12.64a29.22,29.22,0,0,0-5.41,15.62,58.85,58.85,0,0,1,3-5.09A54.54,54.54,0,0,1,31,48.35l.33.28c-.41,2.37-1,4.72-1.2,7.1C28.8,67.58,32.29,78,39.53,87.33c1.12,1.43,1.13,2.29,0,3.74a137.23,137.23,0,0,0-9.48,14.09L37.63,117A151.48,151.48,0,0,1,65.91,68.68Z"/><path class="cls-2" d="M37.44,117.52c.06-.17.13-.34.19-.52l-7.57-11.84-.68,1.18,3.09,4.84-3.8-3.57c-.21.36-.41.72-.61,1.09Z"/><path class="cls-2" d="M29.38,106.34l-.71,1.27,3.8,3.57Z"/><path class="cls-2" d="M288.54,189.82a20.59,20.59,0,0,0,12.14-6.44c1.13-1.21,1.32-2.16.28-3.66-6.39-9.21-6.75-21.7-3.76-29.72,0,3.11-.16,6.87,0,10.61a25.39,25.39,0,0,0,3.7,12.1c1.23,2,2.64,3,4.14,3,1.3,0,2.67-.76,4-2.29,1-1.11,1.89-2.33,3.07-3.81A71.88,71.88,0,0,1,309,209.51l.48.2c.37-.52.77-1,1.11-1.58,8.5-13.68,13.1-28.52,12.85-44.69-.06-4.47-.8-8.93-1.25-13.39q-.49-5-1.06-10c-.84-7.3-3.36-13.79-9.34-18.46A36.06,36.06,0,0,0,297.19,115l-1,3-2.7-1.86c-1.14-.79-2.31-1.58-3.52-2.36a80.59,80.59,0,0,0-9.53-.59,81.76,81.76,0,0,0-30.41,6c-.7.28-1.36.63-2,1,0,.16.08.32.13.47.68-.15,1.36-.28,2-.46a101.1,101.1,0,0,1,26.45-3.55c2.53,0,5.07.09,7.62.29,6.92.53,13.74,1.75,19.62,5.91a13,13,0,0,1,4.71,5.59c-2.22-.55-4.07-1.08-5.94-1.46a83,83,0,0,0-16.53-1.65,91.6,91.6,0,0,0-24.71,3.5,21.39,21.39,0,0,1-5.66.84c-4.5,0-8.35-1.82-11.76-5.69a2.67,2.67,0,0,0-.38-.37,4.65,4.65,0,0,0-.67-.33,50.19,50.19,0,0,0-2.46,4.5c-4.6,10.8-3.73,21.51,1,32a46.77,46.77,0,0,0,5.83,9.46,15.19,15.19,0,0,0,12,5.82,15.59,15.59,0,0,0,12.76-6.58c4-5.57,5.2-12,5.4-18.62,0-.81,0-1.63,0-2.45,1.88,8.76,2,17.28-3.84,24.8a17.37,17.37,0,0,1-13,6.72c-.76.06-1.51.16-2.73.3,1,.9,1.56,1.6,2.28,2.14,6.05,4.49,12.47,8.12,20.13,9.06a2.43,2.43,0,0,1,1.63,1.46,35.36,35.36,0,0,1,.61,4.73c.06.57.09,1.15.12,1.73.24,0,.49,0,.72,0a42.73,42.73,0,0,0,1.88-5.48A3.28,3.28,0,0,1,288.54,189.82Z"/><path class="cls-2" d="M282.76,198.37l.64.14.07-.21c-.23,0-.48,0-.72,0A.34.34,0,0,1,282.76,198.37Z"/><path class="cls-2" d="M271.46,23.39a3.35,3.35,0,0,1-1.57.4,1.7,1.7,0,0,1-.78-.16c-11.43-6-23.57-8.54-36.2-8.54-1.89,0-3.78.05-5.68.16a72.56,72.56,0,0,0-8.42,1h1.43C251,16.25,275.72,28,293.6,54.38c-1.62.28-2.7.42-3.76.66a13.32,13.32,0,0,1-3,.5h-.23l3.81-3.37c-1-.09-2.05-.14-3-.14-4.64,0-8.74,1.12-12.15,4.54-4,4-5.31,9.07-5.23,14.6,2.19-6.09,4.23-12.24,11.66-14.42-.9,2.24-1.71,4.22-2.52,6.21l.45.36c4.49-2.62,9.18-4.43,14.22-4.43a20.72,20.72,0,0,1,4,.39,32.63,32.63,0,0,1,6.66,2.32H296l-.11.41a4.57,4.57,0,0,0,.88.6c7.94,3,12.26,9.09,14.65,16.88a51.19,51.19,0,0,1,2.12,14.86,6.22,6.22,0,0,0,.26,2.13,47.37,47.37,0,0,0,9.43-20.62c1.48-7.56,1.13-15.15.21-22.79,2.17,2.21,2.86,5.12,4,7.83.41-6.44-.93-12.41-4.81-17.69s-9.27-8.28-15.59-10a39.17,39.17,0,0,1,6,.48c2,.45,3.81,1.43,6,2a20.93,20.93,0,0,0-2.3-2.4A19.93,19.93,0,0,0,304,29.15a30.89,30.89,0,0,0-4.36.32,23.83,23.83,0,0,0-13.06,6.14l-9.7-7.4c6.29-6.19,16.55-10.13,27.2-10.13A39.18,39.18,0,0,1,324,23.3l-7.76-.39-.3.46c14.55,7,22.84,18.73,26.21,34.19-2.72-4-5.37-8.1-9.34-11.19,5.19,20.4,2.77,39.75-7.47,58.25,3.66-1.54,9.5-10.54,12.14-18.37a65.59,65.59,0,0,0,3-21.85c3.16,4.81,4.56,10.32,6.62,15.58,1.88-18.86.31-36.69-14.87-50.85,1.43.5,2.87,1,4.28,1.51s2.8,1.19,4.56,2a5.64,5.64,0,0,0-.54-1.16c-7.52-8.06-16.22-14.28-27.06-17.06a47.24,47.24,0,0,0-11.77-1.52A48.85,48.85,0,0,0,280.36,18C277.24,19.45,274.46,21.64,271.46,23.39Z"/><path class="cls-2" d="M218.73,16.26h0Z"/><path class="cls-2" d="M291.57,100.31c-.64,2.54-1.11,5-3.33,6.5-1.26-.4-1.05-1.14-.52-2a8.66,8.66,0,0,0,.7-7.4c-.15.57-.31,1.14-.46,1.71a6.85,6.85,0,0,1-3.26,4.44,2,2,0,0,1-.9.22.89.89,0,0,1-.52-.13c-.3-.21-.35-.9-.34-1.37a6.16,6.16,0,0,1,.24-1.33,18.24,18.24,0,0,1-3-1.24,1.71,1.71,0,0,1,.06-1.57,14,14,0,0,1,2.83-1,3.19,3.19,0,0,0-.32-1.24c-.91-1.37-.33-2.22.76-3.12,2-1.63,3.76-2.46,5.5-2.46s3.67.93,5.63,2.82A50.11,50.11,0,0,1,298,97a3.8,3.8,0,0,0,.09-1,26.58,26.58,0,0,0-4.44-10.16,8.44,8.44,0,0,0-6.86-3.72,9.9,9.9,0,0,0-3.51.69c-4.14,1.55-7.34,4.45-10.53,7.37-.89.82-1.77,1.67-2.66,2.5l-.56-.16V82.88l-.63,0a26.7,26.7,0,0,1-.75,2.65c-1.14,2.91-2.32,5.8-3.51,8.69a1.49,1.49,0,0,1-1.44,1.08,3,3,0,0,1-.68-.1,86.52,86.52,0,0,0-21-2.51,112.18,112.18,0,0,0-23.8,2.72c-.55.12-1.1.21-2,.38a57.41,57.41,0,0,0,3.29-15l-.44-.21c-.37.59-.76,1.17-1.09,1.78-2,3.71-4.47,7.1-8.24,9a31.85,31.85,0,0,1-8,2.43l-.16,0a4.14,4.14,0,0,1-2.34-1.53c-4.92-5.69-10-11.23-16-15.76a38.4,38.4,0,0,0-6-3.72,11.34,11.34,0,0,0-5.07-1.26,11.07,11.07,0,0,0-6.06,1.9c-4.85,3.11-7.87,7.74-10.41,12.74-.1.18,0,.43-.09.92,4.65-2.93,9-6.56,14.39-6.56a13.22,13.22,0,0,1,5.25,1.14C172,83.26,169.9,85.32,169.1,88a28.09,28.09,0,0,1,4.25,1.71c.47.28.67,1.38.64,2.09-.09,1.84-1.41,2.7-4.08,2.7l-.87,0L169,95.65l-.48.21c-1-2.23-2-4.46-3-6.66-1.48,4.31,1.2,11.45,5.31,14.2a18.88,18.88,0,0,0,10.68,3.29,20.55,20.55,0,0,0,2.46-.15c2.62-.3,5.23-.72,8.07-1.12-.4.55-.79,1.11-1.16,1.67l.38,0-1.05,1.06a23,23,0,0,0-3.29,8.28c10.37-10.45,21.87-14.91,34.27-14.91a65.7,65.7,0,0,1,19.46,3.22l.37-.39-8.89-5.08a131.67,131.67,0,0,1,13.55-.75,86.53,86.53,0,0,1,19,2l-4.23,3.07,0,.55a31.17,31.17,0,0,1,7.16-.84c8.56,0,16.05,3.6,23.23,8.2,1.41.18,2.83.39,4.24.64C295,108.49,293.31,102.43,291.57,100.31Zm-108.09,1.83,5.6-5.3c.51.9,1,1.79,1.78,3.09Z"/><path class="cls-2" d="M295.09,112.11c-1.41-.25-2.83-.46-4.24-.64.8.51,1.59,1,2.38,1.56l1.82.3A9.37,9.37,0,0,0,295.09,112.11Z"/><path class="cls-2" d="M295.05,113.33l-1.82-.3,1.67,1.14A3.73,3.73,0,0,0,295.05,113.33Z"/><path class="cls-2" d="M173.6,48.62a71.85,71.85,0,0,1,9.46.67l.17-.49-6.12-4a60.42,60.42,0,0,1,26.44,14.64c-.89-4.06-2.87-7.55-5.32-11.41a37.67,37.67,0,0,1,12.53,8.83,36.82,36.82,0,0,1,7.77,12.8c1-3.61-2.3-11.69-6.39-16.59-6.72-8-18.13-12.18-25.83-12.18H186l7.12,5.64c-.09.16-.18.32-.26.48a43.66,43.66,0,0,0-23.19-6.28,63.59,63.59,0,0,0-11.3,1.07l11,2.54-.09.51c-15.38,1.31-28,9.84-29.69,20.46C148.62,53.09,160.32,48.62,173.6,48.62Z"/><path class="cls-2" d="M156.2,92.61l-.6,0a74.07,74.07,0,0,0-1.46,8.8,45,45,0,0,0,.39,11.08c1.14,5.62,4.35,8.45,9.11,8.45a15.87,15.87,0,0,0,4.07-.59c5.34-1.43,9.94-4.31,14.22-7.72a31.41,31.41,0,0,0,3-2.69c-1.29.09-2.54.14-3.77.14C169.31,110.1,160.26,105.48,156.2,92.61Z"/><path class="cls-2" d="M284.43,241.34l-.86-.71a3.11,3.11,0,0,1,.48,1.67c.08,1.46.2,2.92.3,4.38l.58,0c.13-1.55.27-3.1.37-4.65l-.51-.43Z"/><path class="cls-2" d="M244,244.46l.26,0c-.13-1.11-.2-2.23-.4-3.33-.27-1.47.26-2.53,1.76-2.58,1.06,0,2.11,0,3.16,0,2.07,0,4.14,0,6.21.09a1.71,1.71,0,0,1,1.85,1.73,3.3,3.3,0,0,0,.85,1.91,8.79,8.79,0,0,0,.36-1.66c.06-1.26.64-1.91,1.84-1.91H260c3.48.17,6.95.3,10.42.57.44,0,1,.82,1.18,1.36a13.08,13.08,0,0,0,.48,1.95,3.16,3.16,0,0,0,.47-1,2.34,2.34,0,0,1,2.58-2.4,3.39,3.39,0,0,1,.45,0c2.06.17,4.11.38,6.17.52a2.75,2.75,0,0,1,1.12.29l1-1.75.11-.2a3.34,3.34,0,0,0-.62-.14c-.28,0-.61-.88-.67-1.37-.15-1.4-.17-2.81-.25-4.22l-.52,0c-.14,1.09-.33,2.17-.41,3.26-.11,1.57-.77,2.41-2.26,2.41l-.45,0c-1.71-.17-3.42-.26-5.13-.35a1.36,1.36,0,0,1-1.46-1.58c0-1.38-.13-2.76-.21-4.15l-.47,0c-.26,1.16-.63,2.3-.78,3.47a2.07,2.07,0,0,1-2.28,2.12h-.18c-2.54-.09-5.07-.14-7.6-.26-1.15,0-1.65-.68-1.6-1.87a6.09,6.09,0,0,0-.57-2.88c-.42.91-.9,1.8-1.23,2.74A2.29,2.29,0,0,1,255,236.9h-.19c-3-.15-6-.27-9-.39-1.21,0-1.76-.69-1.93-1.87-.26-1.84-.61-3.67-.93-5.47l-8.81,14.56c0,.12.06.24.08.37l6.31-5.58Z"/><path class="cls-2" d="M282.88,240a1.75,1.75,0,0,1,.69.6l.86.71.36.31.51.43.06-.71c0-.27,0-.54,0-.8l-1-.81.51-.88.07-.13a1.89,1.89,0,0,0-1-.67l-.11.2Z"/><path class="cls-2" d="M234,243.9l.11.27.08-.07c0-.13-.06-.25-.08-.37Z"/><path class="cls-2" d="M284.43,239.76l1,.81a2.91,2.91,0,0,0-.38-1.82l-.07.13Z"/><path class="cls-2" d="M217,276.56a12,12,0,0,0,2.63-.3c5-1.16,8.61-4.23,11.69-8.1a1.58,1.58,0,0,0,.25-.46,2.28,2.28,0,0,0,0-.58c-4.49,2.37-8.92,4.1-13.22,4.1s-8.62-1.8-12.63-6.57A11.31,11.31,0,0,0,217,276.56Z"/><path class="cls-2" d="M169,259.71a5,5,0,0,0,3.46,2c.35,0,.69,0,1,0a14.1,14.1,0,0,0,9.38-3.9c0-.32.08-.64.14-.95a38.69,38.69,0,0,1-4.13,1.3,11,11,0,0,1-2.56.32c-3.12,0-5.23-1.67-6.32-4.92a8.21,8.21,0,0,1-1.79,2.45A6.42,6.42,0,0,0,169,259.71Z"/><path class="cls-2" d="M182.86,257.86c.49-.42,1-.87,1.43-1.34v-.06l-1.3.45C182.94,257.22,182.9,257.54,182.86,257.86Z"/><path class="cls-2" d="M169.65,252.45a1.67,1.67,0,0,0-.25-.48l-.39.93c-.09.2-.22.39-.33.59a12,12,0,0,0-.48,2.57,8.21,8.21,0,0,0,1.79-2.45C169.87,253.24,169.75,252.87,169.65,252.45Z"/><path class="cls-2" d="M184.38,256.43l-.08,0v.06Z"/><path class="cls-2" d="M169.4,252l-.14-.26c-.22.6-.41,1.2-.58,1.78.11-.2.24-.39.33-.59Z"/><path class="cls-2" d="M281.52,216.05c-.29.75-.49,1.54-.81,2.58-1.11-2.08-2.06-4.2-4.39-4.2a4.53,4.53,0,0,0-1.15.16,5,5,0,0,0-3.25,2.92,12.34,12.34,0,0,1,.56,1.9l.3-.28a5.31,5.31,0,0,1,3.6-1.67,5.22,5.22,0,0,1,3.54,1.64,1.38,1.38,0,0,0,.85.5c.26,0,.51-.19.8-.61,1.24-1.8,2.43-2.7,3.59-2.7a2.45,2.45,0,0,1,.38,0l0,0,1.23-1c.09-.24.22-.45.32-.69a3.55,3.55,0,0,0-2.37-1A3.49,3.49,0,0,0,281.52,216.05Z"/><polygon class="cls-2" points="288.76 216.75 288.76 216.75 288.78 216.78 288.76 216.75"/><path class="cls-2" d="M285.52,216.31l0,0a3.33,3.33,0,0,1,1.77,1l.13-.38-.3-.44.63-.53c.05-.15.12-.28.17-.42a5,5,0,0,0-.39-.52,4.35,4.35,0,0,0-.48-.48c-.1.24-.23.45-.32.69Z"/><path class="cls-2" d="M288.54,218.53l-.18.14c.12.18.24.36.35.55a.92.92,0,0,0,.72.45l-.14-.6-.12.34Z"/><path class="cls-2" d="M287.14,216.53l.3.44-.13.38a8.45,8.45,0,0,1,1.05,1.32l.18-.14.63.88.12-.34c-.18-.77-.35-1.54-.53-2.32l-.82-1.17c-.05.14-.12.27-.17.42Z"/><path class="cls-2" d="M288.76,216.75h0l0,0Z"/><path class="cls-2" d="M263.9,257.89c-1.74,0-3.47-1.41-5.86-4.21a11.08,11.08,0,0,1,0,1.91,18.75,18.75,0,0,0,1.94,3.94,4.69,4.69,0,0,0,3.85,2.1,5.14,5.14,0,0,0,3.77-1.76,8.81,8.81,0,0,0,1.87-3.23,11.6,11.6,0,0,1-.41-2C267,256.79,265.44,257.89,263.9,257.89Z"/><path class="cls-2" d="M250.41,261.72h.17c2.46-.11,4.52-2.65,5-5.77l0-.06a6,6,0,0,1-.38-1.44c-2.11,2.78-3.65,3.84-5.23,3.84a8.76,8.76,0,0,1-4.17-1.63c0,.41-.07.81-.13,1.19A5.28,5.28,0,0,0,250.41,261.72Z"/><path class="cls-2" d="M245.41,256.45a5.06,5.06,0,0,0,.22,1.4c.06-.38.1-.78.13-1.19Z"/><path class="cls-2" d="M255.63,253.84c-.16.22-.31.41-.47.61a6,6,0,0,0,.38,1.44l0,.06A9.24,9.24,0,0,0,255.63,253.84Z"/><path class="cls-2" d="M272.45,254.32a17.24,17.24,0,0,1-.44,2.29,9.65,9.65,0,0,0,2.62,4c1.75-.25,3.5-.46,5.22-.67l.25,0c.12-.19.23-.39.34-.58l-.33-.58-.61-1.1a4.3,4.3,0,0,1-1.85.47C276.11,258.09,274.53,257,272.45,254.32Z"/><path class="cls-2" d="M274.63,260.58a4.26,4.26,0,0,0,.74.51,4.32,4.32,0,0,0,1.35.43l1.91-.24A3.5,3.5,0,0,0,280,260a.83.83,0,0,0,.07-.13l-.25,0C278.13,260.12,276.38,260.33,274.63,260.58Z"/><path class="cls-2" d="M280.44,259.3c.23-.44.44-.88.64-1.34l-.43-.76,1.13-.84.09-.21a14.81,14.81,0,0,1-2.37,1.47l.61,1.1Z"/><path class="cls-2" d="M281.08,258c.23-.53.46-1.07.7-1.6l-1.13.84Z"/><path class="cls-2" d="M277.3,261.6a3,3,0,0,0,1.33-.32l-1.91.24A3,3,0,0,0,277.3,261.6Z"/><path class="cls-2" d="M272,256.61a17.24,17.24,0,0,0,.44-2.29c-.31-.41-.63-.85-1-1.33A7.72,7.72,0,0,0,272,256.61Z"/><path class="cls-2" d="M257.08,220c-.38-3.16-1.71-5.28-3.58-6.11-1.78.35-3.58.65-5.39.87a7.89,7.89,0,0,0-1.79,1.89l.06.12.73,1.41-.7.87c1.73-1.5,3.48-2.61,5.3-2.61S255.2,217.39,257.08,220Z"/><path class="cls-2" d="M251.72,213.45h-.07a5.83,5.83,0,0,0-3.54,1.27c1.81-.22,3.61-.52,5.39-.87A4.45,4.45,0,0,0,251.72,213.45Z"/><path class="cls-2" d="M246.38,216.73l-.06-.12a10.25,10.25,0,0,0-.71,1.26l.06.12-.21.26a9.77,9.77,0,0,0-.67,2.25c.54-.52,1.08-1,1.62-1.49l.7-.87Z"/><path class="cls-2" d="M245.61,217.87c-.06.13-.1.26-.15.38l.21-.26Z"/><path class="cls-2" d="M265.37,214.77h-.23c-2.88.18-5.35,3-5.47,6.42l0,.12c1.91-1.8,3.83-3.29,5.91-3.29a5.21,5.21,0,0,1,3.25,1.27,12.87,12.87,0,0,1,.43-1.73A4.58,4.58,0,0,0,265.37,214.77Z"/><path class="cls-2" d="M270,219.61a8.61,8.61,0,0,0-.74-2,12.87,12.87,0,0,0-.43,1.73,10.63,10.63,0,0,1,1.07,1C270,220.06,270,219.84,270,219.61Z"/><path class="cls-2" d="M270.21,220.59a7.72,7.72,0,0,0-.19-1c0,.23-.07.45-.1.68A4.11,4.11,0,0,1,270.21,220.59Z"/><path class="cls-2" d="M259.66,221.35l0,0,0-.12C259.67,221.25,259.66,221.3,259.66,221.35Z"/><path class="cls-2" d="M167.91,194.52l.1-.14-.59-.62c-.06.12-.1.25-.16.37Z"/><path class="cls-2" d="M170.3,190.49l.14,1.34a5.1,5.1,0,0,1,3.05-1.11,4.93,4.93,0,0,1,1.88.4c2.33,1,4.26,2.88,6.14,4.38.15-.21.31-.42.47-.62a8.3,8.3,0,0,0-.31-1,101.57,101.57,0,0,1-8.72-6.68,4.36,4.36,0,0,0-3,1.49A14.63,14.63,0,0,1,170.3,190.49Z"/><path class="cls-2" d="M168.77,193.42l-.84-.88-.51,1.22.59.62C168.26,194.05,168.51,193.73,168.77,193.42Z"/><path class="cls-2" d="M180.28,191.42c-1.76-1.27-3.47-2.62-5.14-4a6.09,6.09,0,0,0-.71-.17,6,6,0,0,0-1-.09,3.44,3.44,0,0,0-.46,0,101.57,101.57,0,0,0,8.72,6.68A11.06,11.06,0,0,0,180.28,191.42Z"/><path class="cls-2" d="M182.12,196a5.43,5.43,0,0,0-.14-1.1c-.16.2-.32.41-.47.62C181.71,195.66,181.91,195.83,182.12,196Z"/><path class="cls-2" d="M169.32,192.82a10.31,10.31,0,0,1,1.12-1l-.14-1.34a14.63,14.63,0,0,0-.32-1.81,6.34,6.34,0,0,0-.58.76c-.14.23-.26.47-.38.71s.06.31.07.47Z"/><path class="cls-2" d="M175.14,187.42c1.67,1.38,3.38,2.73,5.14,4A11,11,0,0,0,175.14,187.42Z"/><path class="cls-2" d="M169.32,192.82l-.23-2.2c0-.16-.05-.31-.07-.47a25.75,25.75,0,0,0-1.09,2.39l.84.88C169,193.21,169.14,193,169.32,192.82Z"/></g></g></g></svg>