<svg xmlns="http://www.w3.org/2000/svg" viewBox="0 0 162.11 93.7"><defs><style>.cls-1{fill:#34b3d1;}.cls-2{fill:#ff4d00;}.cls-3{fill:#aed610;}.cls-4{fill:#26006e;}</style></defs><title>partner-merkafy</title><g id="Capa_2" data-name="Capa 2"><g id="Capa_1-2" data-name="Capa 1"><polygon class="cls-1" points="62.85 32.97 61.36 31.48 69.22 23.62 61.36 15.76 62.85 14.27 72.2 23.62 62.85 32.97"/><polygon class="cls-2" points="69.96 40.13 67.72 37.9 82 23.62 67.72 9.34 69.96 7.11 86.47 23.62 69.96 40.13"/><polygon class="cls-3" points="77.01 47.36 74.03 44.38 94.78 23.62 74.14 2.98 77.12 0 100.74 23.62 77.01 47.36"/><polygon class="cls-2" points="123.34 65.17 123.34 67.76 128.53 67.76 128.53 85.92 131.12 85.92 131.12 67.76 136.31 67.76 136.31 65.17 123.34 65.17"/><path class="cls-2" d="M136.31,57.39V54.8q-7.78,0-7.78,7.78v.91h2.59v-.91Q131.12,57.39,136.31,57.39Z"/><polygon class="cls-2" points="144.08 65.17 141.36 65.17 149.47 81.37 150.82 78.65 144.08 65.17"/><polygon class="cls-2" points="159.38 65.17 145.12 93.69 147.84 93.69 162.11 65.17 159.38 65.17"/><rect class="cls-4" y="65.17" width="2.59" height="20.75"/><path class="cls-4" d="M26.24,67.45a7.48,7.48,0,0,0-5.49-2.28,7.49,7.49,0,0,0-5.5,2.28,7.88,7.88,0,0,0-1,1.2,7.26,7.26,0,0,0-1-1.2,7.51,7.51,0,0,0-5.5-2.28A7.64,7.64,0,0,0,4.26,66v3.15a5,5,0,0,1,3.52-1.38,5,5,0,0,1,3.67,1.52A5,5,0,0,1,13,73v13h2.59V73a5.19,5.19,0,0,1,5.19-5.19A5.19,5.19,0,0,1,25.93,73v13h2.59V73A7.51,7.51,0,0,0,26.24,67.45Z"/><rect class="cls-4" x="61.3" y="65.17" width="2.59" height="20.75"/><path class="cls-4" d="M70.37,65.17a10.64,10.64,0,0,0-1.29.08,8.45,8.45,0,0,0-3.53,1.29V69.9l.23-.24a6.17,6.17,0,0,1,3.3-1.77,6.72,6.72,0,0,1,1.29-.13,6.82,6.82,0,0,1,2,.31l.83-2.46A9.34,9.34,0,0,0,70.37,65.17Z"/><polygon class="cls-4" points="94.82 65.95 90.67 65.95 83.01 72.12 83.01 75.45 94.82 65.95"/><rect class="cls-4" x="78.75" y="54.8" width="2.59" height="31.12"/><polygon class="cls-4" points="95.6 85.92 83.01 75.64 83.01 79.03 91.45 85.92 95.6 85.92"/><polygon class="cls-4" points="83.01 75.64 83.01 75.45 82.89 75.54 83.01 75.64"/><path class="cls-4" d="M115,75.62v0Z"/><path class="cls-4" d="M112.69,81a7.79,7.79,0,1,1,0-11c.22.22.42.45.61.68V67.14A10.39,10.39,0,0,0,99.85,82.88a10.4,10.4,0,0,0,13.45,1.06V80.35A7.92,7.92,0,0,1,112.69,81Z"/><rect class="cls-4" x="114.97" y="65.17" width="2.59" height="20.75"/><path class="cls-4" d="M50.93,81a7.78,7.78,0,0,1-13.28-5.5A8.81,8.81,0,0,1,38.06,73a7.77,7.77,0,0,1,1.87-2.9,6.69,6.69,0,0,1,4.72-2.29A7.47,7.47,0,0,1,50,69.89l0,0c.18.18.37.37.57.59a8,8,0,0,1,.88,1.24l0,.06,0,0c.07.12.12.24.18.37s.11.24.17.37L52,73a8.21,8.21,0,0,1,.42,2.58H55A10.35,10.35,0,0,0,44.65,65.17a9.17,9.17,0,0,0-6.56,3,10.38,10.38,0,0,0,7.34,17.72,10,10,0,0,0,7.34-3,10.36,10.36,0,0,0,1.89-2.54l-2.51-.83A8.28,8.28,0,0,1,50.93,81Z"/><polygon class="cls-4" points="50.1 75.54 49.68 72.95 39.75 72.95 39.28 75.54 50.1 75.54"/></g></g></svg>