<svg xmlns="http://www.w3.org/2000/svg" viewBox="0 0 334.94 141"><defs><style>.cls-1{fill:#130b30;}</style></defs><title>parter-alianza</title><g id="Capa_2" data-name="Capa 2"><g id="Capa_1-2" data-name="Capa 1"><path class="cls-1" d="M52.84,131.51a8.84,8.84,0,0,1-.87,4.06,8.18,8.18,0,0,1-2.31,2.81A9.76,9.76,0,0,1,46.44,140a13,13,0,0,1-3.65.52H36.11V122.6h6.48a15.83,15.83,0,0,1,3.75.45,9.43,9.43,0,0,1,3.29,1.46A7.55,7.55,0,0,1,52,127.26,9.22,9.22,0,0,1,52.84,131.51Zm-4.51,0a5.69,5.69,0,0,0-.49-2.52,4.31,4.31,0,0,0-1.32-1.59,5.15,5.15,0,0,0-1.87-.85,9.12,9.12,0,0,0-2.16-.25H40.34v10.47h2a9.74,9.74,0,0,0,2.24-.26,5.37,5.37,0,0,0,1.89-.87A4.41,4.41,0,0,0,47.84,134,5.7,5.7,0,0,0,48.33,131.51Z"/><path class="cls-1" d="M65.82,140.52V122.6h12v3.65H70v3.39h7.44v3.46H70v3.72h8.33v3.7Z"/><path class="cls-1" d="M119.44,140.52,118.05,137h-6.94l-1.31,3.52h-4.71l7.52-17.92h4.2l7.44,17.92Zm-4.81-13.13-2.28,6.14h4.51Z"/><path class="cls-1" d="M148.25,140.54a16,16,0,0,1-3.84.43,11.05,11.05,0,0,1-4-.68,9.21,9.21,0,0,1-3.11-1.92,8.62,8.62,0,0,1-2-3,10.45,10.45,0,0,1,0-7.75,8.38,8.38,0,0,1,2.06-3,9.19,9.19,0,0,1,3.09-1.89,10.83,10.83,0,0,1,3.82-.66,11.77,11.77,0,0,1,4,.65,8.27,8.27,0,0,1,3,1.73l-2.74,3.11a4.69,4.69,0,0,0-1.67-1.2,5.67,5.67,0,0,0-2.35-.47,5.13,5.13,0,0,0-3.77,1.58,5.29,5.29,0,0,0-1.1,1.78,6.24,6.24,0,0,0-.39,2.24,6.88,6.88,0,0,0,.35,2.27,5,5,0,0,0,1.05,1.79,4.75,4.75,0,0,0,1.72,1.16,6.14,6.14,0,0,0,2.34.42,8.23,8.23,0,0,0,1.44-.12,5.06,5.06,0,0,0,1.27-.36v-3.27h-3.42v-3.49h7.39v9.49A13.11,13.11,0,0,1,148.25,140.54Z"/><path class="cls-1" d="M165,140.52V122.6h12v3.65h-7.87v3.39h7.44v3.46h-7.44v3.72h8.33v3.7Z"/><path class="cls-1" d="M201.86,140.52l-7.22-11.72h-.07l.1,11.72h-4.2V122.6h4.93l7.19,11.69h.08l-.11-11.69h4.2v17.92Z"/><path class="cls-1" d="M233.41,140.2a9.58,9.58,0,0,1-4,.8,10.65,10.65,0,0,1-3.84-.68,9,9,0,0,1-3.05-1.94,8.87,8.87,0,0,1-2-3,10.56,10.56,0,0,1,0-7.74,8.65,8.65,0,0,1,2.06-3,9.19,9.19,0,0,1,3.09-1.89,10.87,10.87,0,0,1,3.82-.66,11,11,0,0,1,3.74.67,7.19,7.19,0,0,1,3,2l-2.94,2.94a3.56,3.56,0,0,0-1.59-1.24,5.28,5.28,0,0,0-2-.4,5.08,5.08,0,0,0-2.08.41,4.91,4.91,0,0,0-1.64,1.15,5.28,5.28,0,0,0-1.06,1.74,6.14,6.14,0,0,0-.38,2.19,6.31,6.31,0,0,0,.38,2.22,5.16,5.16,0,0,0,1,1.74,4.71,4.71,0,0,0,1.61,1.12,5.1,5.1,0,0,0,2,.41,4.73,4.73,0,0,0,2.25-.51,4.3,4.3,0,0,0,1.54-1.31l3,2.83A8.64,8.64,0,0,1,233.41,140.2Z"/><path class="cls-1" d="M248.31,140.52V122.6h4.36v17.92Z"/><path class="cls-1" d="M278.63,140.52,277.24,137H270.3L269,140.52h-4.71l7.52-17.92H276l7.44,17.92Zm-4.81-13.13-2.28,6.14h4.51Z"/><path class="cls-1" d="M304.51,127.26a3.92,3.92,0,0,0-1.45-1.13,4.08,4.08,0,0,0-1.73-.41,5.3,5.3,0,0,0-.88.07,2.26,2.26,0,0,0-.79.29,2,2,0,0,0-.6.56,1.49,1.49,0,0,0-.24.87,1.36,1.36,0,0,0,.19.76,1.69,1.69,0,0,0,.56.53,5.05,5.05,0,0,0,.87.42q.51.19,1.14.39c.61.2,1.24.43,1.9.67a7.22,7.22,0,0,1,1.79,1,5,5,0,0,1,1.34,1.5,4.3,4.3,0,0,1,.54,2.24,5.84,5.84,0,0,1-.57,2.67,5.35,5.35,0,0,1-1.53,1.86,6.72,6.72,0,0,1-2.21,1.09,9,9,0,0,1-2.55.35,10.51,10.51,0,0,1-3.72-.67,7.73,7.73,0,0,1-3-1.91l2.84-2.88a5.16,5.16,0,0,0,1.73,1.35,4.42,4.42,0,0,0,3.07.45,2.41,2.41,0,0,0,.8-.33,1.79,1.79,0,0,0,.55-.61,2,2,0,0,0,.2-.91,1.42,1.42,0,0,0-.26-.86,2.31,2.31,0,0,0-.72-.65,6,6,0,0,0-1.16-.53l-1.58-.52a12.21,12.21,0,0,1-1.68-.66,5.44,5.44,0,0,1-1.47-1,4.59,4.59,0,0,1-1-1.44,4.92,4.92,0,0,1-.39-2.06,5,5,0,0,1,.61-2.56,5.24,5.24,0,0,1,1.59-1.75,7.18,7.18,0,0,1,2.23-1,10.07,10.07,0,0,1,2.5-.31,9.31,9.31,0,0,1,3.1.55,8,8,0,0,1,2.77,1.65Z"/><path class="cls-1" d="M13.08,68.52H24.94l12.94,33.2H25.74L24,96.84H13.46l-1.65,4.88H0ZM18.85,80.1l-2.72,8.21h5.39Z"/><path class="cls-1" d="M59,68.52H70.23V92.11h11v9.61H59Z"/><path class="cls-1" d="M103.47,68.52h11.25v33.2H103.47Z"/><path class="cls-1" d="M148.9,68.52h11.86l12.94,33.2H161.56l-1.73-4.88H149.28l-1.64,4.88H135.82Zm5.77,11.58L152,88.31h5.39Z"/><path class="cls-1" d="M194.8,68.52h11.11l9.47,16.84h.19l-.47-16.84h10.6v33.2H214.3l-9.18-15.85h-.19l.47,15.85H194.8Z"/><path class="cls-1" d="M249.61,92.39,262,77.76H250.12V68.52h26.49v8.07L263.39,92.2H277v9.52H249.61Z"/><path class="cls-1" d="M310.13,68.52H322l12.94,33.2H322.79l-1.73-4.88H310.51l-1.64,4.88H297.05ZM315.9,80.1l-2.72,8.21h5.39Z"/><path class="cls-1" d="M110.61,35A65.49,65.49,0,0,1,150,2.72,68.36,68.36,0,0,1,167.47,0a72.3,72.3,0,0,1,17.69,1.77,55.1,55.1,0,0,1,16.51,6.81c10.11,6.32,18.39,15.6,22.66,26.42l-.52.3a90,90,0,0,0-11.62-12.22,78.05,78.05,0,0,0-13.53-9.31,82.46,82.46,0,0,0-15-6.26,60,60,0,0,0-16.15-2.71,65,65,0,0,0-31.95,7.67,65.55,65.55,0,0,0-13.62,9.78,66.71,66.71,0,0,0-10.77,13.05Z"/></g></g></svg>