<svg xmlns="http://www.w3.org/2000/svg" viewBox="0 0 105.79 48.28"><defs><style>.cls-1{fill:#6a2e8c;}.cls-2{fill:#e0922f;}</style></defs><title>partner-aldea</title><g id="Capa_2" data-name="Capa 2"><g id="Capa_1-2" data-name="Capa 1"><path class="cls-1" d="M16.08,10.52V7.63h4.68V21.55c0,1.7.38,2.33,1.44,2.33a9.45,9.45,0,0,0,1-.08v3.84a6.93,6.93,0,0,1-2.3.31,5.1,5.1,0,0,1-2.72-.63,3.63,3.63,0,0,1-1.6-2.41C15.19,27,12.93,28,9.81,28a9.29,9.29,0,0,1-7-3A10.49,10.49,0,0,1,0,17.59,10.32,10.32,0,0,1,2.8,10.2a9.25,9.25,0,0,1,7-3C13,7.2,15.34,8.62,16.08,10.52Zm-1.4,11.42a5.84,5.84,0,0,0,1.75-4.35,5.86,5.86,0,0,0-1.75-4.35,5.79,5.79,0,0,0-4.24-1.74,5.62,5.62,0,0,0-4.17,1.74,6.09,6.09,0,0,0-1.64,4.35,6.08,6.08,0,0,0,1.64,4.35,5.58,5.58,0,0,0,4.17,1.74A5.76,5.76,0,0,0,14.68,21.94Z"/><path class="cls-1" d="M25.74,0h4.67V21c0,1.94.62,2.77,2.34,2.77a4.86,4.86,0,0,0,1.4-.16v4.23a8.23,8.23,0,0,1-2.22.24q-6.19,0-6.19-6.44Z"/><path class="cls-1" d="M51.67,10.52V0h4.67V21.55c0,1.7.39,2.33,1.44,2.33a9.41,9.41,0,0,0,1-.08v3.84a6.93,6.93,0,0,1-2.3.31,5.16,5.16,0,0,1-2.73-.63,3.65,3.65,0,0,1-1.59-2.41C50.77,27,48.52,28,45.4,28a9.29,9.29,0,0,1-7-3,10.49,10.49,0,0,1-2.8-7.44,10.32,10.32,0,0,1,2.8-7.39,9.25,9.25,0,0,1,7-3C48.56,7.2,50.93,8.62,51.67,10.52Zm-1.4,11.42A5.84,5.84,0,0,0,52,17.59a6,6,0,0,0-6-6.09,5.61,5.61,0,0,0-4.16,1.74,6.09,6.09,0,0,0-1.64,4.35,6.08,6.08,0,0,0,1.64,4.35A5.58,5.58,0,0,0,46,23.68,5.76,5.76,0,0,0,50.27,21.94Z"/><path class="cls-1" d="M60.39,17.59A10.4,10.4,0,0,1,63.27,10a10,10,0,0,1,7.4-2.88,9.08,9.08,0,0,1,7,2.88,10,10,0,0,1,2.73,7.16c0,.59,0,1.15-.08,1.66H65c.15,3.16,2.45,5.22,5.91,5.22a7.18,7.18,0,0,0,5.3-2.29L79,24.47A10.81,10.81,0,0,1,70.79,28a10.37,10.37,0,0,1-7.52-2.81,9.93,9.93,0,0,1-2.88-7.47Zm15.23-2.13a3.91,3.91,0,0,0-1.48-3.05,5,5,0,0,0-3.47-1.3,6,6,0,0,0-3.78,1.26,4.38,4.38,0,0,0-1.75,3.09Z"/><path class="cls-1" d="M98.71,10.52V7.63h4.67V21.55c0,1.7.39,2.33,1.44,2.33a9.45,9.45,0,0,0,1-.08v3.84a6.82,6.82,0,0,1-2.29.31,5.13,5.13,0,0,1-2.73-.63,3.67,3.67,0,0,1-1.6-2.41C97.81,27,95.55,28,92.44,28a9.27,9.27,0,0,1-7-3,10.5,10.5,0,0,1-2.81-7.44,10.33,10.33,0,0,1,2.81-7.39,9.24,9.24,0,0,1,7-3C95.59,7.2,98,8.62,98.71,10.52Zm-1.4,11.42a5.88,5.88,0,0,0,1.75-4.35,5.89,5.89,0,0,0-1.75-4.35,5.8,5.8,0,0,0-4.25-1.74,5.64,5.64,0,0,0-4.17,1.74,6.09,6.09,0,0,0-1.63,4.35,6.07,6.07,0,0,0,1.63,4.35,5.6,5.6,0,0,0,4.17,1.74A5.76,5.76,0,0,0,97.31,21.94Z"/><path class="cls-2" d="M52.59,48.28a16.09,16.09,0,0,1-13.41-7.17l3.52-2.36a11.88,11.88,0,0,0,19.77,0L66,41.11A16.09,16.09,0,0,1,52.59,48.28Z"/></g></g></svg>