<svg xmlns="http://www.w3.org/2000/svg" viewBox="0 0 139.57 53.08"><title>lyonn-partner</title><g id="Capa_2" data-name="Capa 2"><g id="Capa_1-2" data-name="Capa 1"><path d="M72.13,18.53h5.12v3.16h-8.4V7.35h3.28Z"/><path d="M84.21,11.45h3.28L84,21.38a7.16,7.16,0,0,1-2.27,3.46,5.33,5.33,0,0,1-3.57.95V22.92a3,3,0,0,0,1.64-.38,2.57,2.57,0,0,0,.92-1.32l-4.08-9.77H80l2.28,6.27Z"/><path d="M97,20.41a5.52,5.52,0,0,1-7.71,0,5.22,5.22,0,0,1-1.57-3.84,5.19,5.19,0,0,1,1.57-3.84,5.52,5.52,0,0,1,7.71,0,5.19,5.19,0,0,1,1.57,3.84A5.22,5.22,0,0,1,97,20.41Zm-5.54-2.1a2.45,2.45,0,0,0,3.37,0,2.35,2.35,0,0,0,.67-1.74,2.35,2.35,0,0,0-.67-1.74,2.43,2.43,0,0,0-3.37,0,2.35,2.35,0,0,0-.67,1.74A2.35,2.35,0,0,0,91.44,18.31Z"/><path d="M106.3,11.16A3.66,3.66,0,0,1,109,12.29a4.28,4.28,0,0,1,1.1,3.11v6.29h-3.07V15.85a1.8,1.8,0,0,0-.51-1.38,1.77,1.77,0,0,0-1.28-.48,1.82,1.82,0,0,0-1.39.53,2.21,2.21,0,0,0-.51,1.58v5.59H100.3V11.45h3.07v1A3.4,3.4,0,0,1,106.3,11.16Z"/><path d="M118.24,11.16A3.68,3.68,0,0,1,121,12.29a4.27,4.27,0,0,1,1.09,3.11v6.29H119V15.85a1.84,1.84,0,0,0-.5-1.38,1.78,1.78,0,0,0-1.28-.48,1.85,1.85,0,0,0-1.4.53,2.21,2.21,0,0,0-.51,1.58v5.59h-3.07V11.45h3.07v1A3.41,3.41,0,0,1,118.24,11.16Z"/><path d="M78.2,43.28,77.43,41H71.91l-.72,2.26H67.61l4.87-14.34h4.18l4.89,14.34ZM72.9,38h3.48l-1.8-5.26Z"/><path d="M89.89,33h3v9.73a4.36,4.36,0,0,1-1.58,3.66,6,6,0,0,1-3.83,1.24q-3.47,0-4.85-2.48l2.62-1.51A2.43,2.43,0,0,0,87.57,45a2.39,2.39,0,0,0,1.7-.57,2.1,2.1,0,0,0,.62-1.63v-.94a3.61,3.61,0,0,1-3,1.33,4.73,4.73,0,0,1-3.6-1.52,5.42,5.42,0,0,1,0-7.36,4.77,4.77,0,0,1,3.6-1.52,3.61,3.61,0,0,1,3,1.33Zm-4.26,6.64a2.73,2.73,0,0,0,3.56,0,2.46,2.46,0,0,0,0-3.44,2.73,2.73,0,0,0-3.56,0,2.46,2.46,0,0,0,0,3.44Z"/><path d="M97.88,39.38a2.31,2.31,0,0,0,2.46,1.44,2.53,2.53,0,0,0,2-.78l2.46,1.41a5.14,5.14,0,0,1-4.47,2.11A5.59,5.59,0,0,1,96.17,42a5.4,5.4,0,0,1,3.9-9.28,4.94,4.94,0,0,1,3.72,1.54,5.38,5.38,0,0,1,1.48,3.87,5.94,5.94,0,0,1-.12,1.22Zm-.06-2.29h4.4a2,2,0,0,0-2.17-1.62A2.07,2.07,0,0,0,97.82,37.09Z"/><path d="M113,32.75a3.65,3.65,0,0,1,2.73,1.12,4.29,4.29,0,0,1,1.1,3.12v6.29h-3.07V37.44a1.8,1.8,0,0,0-.51-1.38,1.73,1.73,0,0,0-1.28-.49,1.83,1.83,0,0,0-1.39.54,2.18,2.18,0,0,0-.51,1.57v5.6H107V33h3.08v1A3.37,3.37,0,0,1,113,32.75Z"/><path d="M123.88,43.56a5.41,5.41,0,1,1,0-10.81,5.4,5.4,0,0,1,2.71.71,5.18,5.18,0,0,1,1.92,1.91l-2.69,1.56a2,2,0,0,0-2-1.15,2.25,2.25,0,0,0-1.66.66,2.59,2.59,0,0,0,0,3.43,2.25,2.25,0,0,0,1.66.66,2,2,0,0,0,2-1.15l2.69,1.54a5.13,5.13,0,0,1-1.91,1.93A5.39,5.39,0,0,1,123.88,43.56Z"/><path d="M136.29,33h3.28L136.07,43a7.16,7.16,0,0,1-2.27,3.46,5.34,5.34,0,0,1-3.57.94V44.51a3,3,0,0,0,1.64-.38,2.72,2.72,0,0,0,.92-1.32L128.71,33h3.38l2.27,6.27Z"/><path d="M129.47,8.6A3.38,3.38,0,1,1,126.18,12,3.33,3.33,0,0,1,129.47,8.6Zm0,6A2.54,2.54,0,0,0,132,12a2.49,2.49,0,1,0-5,0A2.53,2.53,0,0,0,129.47,14.61Zm-1.15-4.34h1.4a1,1,0,0,1,1.11,1.07.88.88,0,0,1-.6.87v0a.92.92,0,0,1,.12.19l.64,1.22h-.87l-.57-1.24h-.45v1.24h-.78Zm1.22,1.57a.46.46,0,0,0,.49-.5.45.45,0,0,0-.48-.5h-.45v1Z"/><path d="M26.54,0A26.54,26.54,0,1,0,53.08,26.54,26.54,26.54,0,0,0,26.54,0ZM19.16,32c.21-.52.13-1.62-.79-1.62-2.21,0-4.2-2.52-4.2-5a2.26,2.26,0,0,1,.11-.69,1.65,1.65,0,0,1,2.63-1.06,4.22,4.22,0,0,0,4.06.67c1-.39,1.19,3.16,1.3,5.05.15,2.44,3.51,1.57,3.51,4.15,0,2.11-1.34,3.25-3.47,3.25S18.41,33.88,19.16,32Zm12.11,7.37a1.81,1.81,0,0,1-1.82,1.81H23.87a1.81,1.81,0,0,1-1.81-1.81h0A1.16,1.16,0,0,1,23,38.24l3.68-1.18,3.69,1.18a1.17,1.17,0,0,1,.92,1.14Zm3.69-9c-.92,0-1,1.1-.79,1.62.75,1.87-.89,4.73-3.15,4.73s-3.47-1.14-3.47-3.25c0-2.58,3.36-1.71,3.51-4.15.11-1.89.3-5.44,1.3-5.05a4.22,4.22,0,0,0,4.06-.67,1.66,1.66,0,0,1,2.63,1.06,2.26,2.26,0,0,1,.11.69C39.16,27.87,37.16,30.39,35,30.39Zm2.11-8.75c-6.41,0-7.33.69-7.39,7.14a.88.88,0,0,1-.88.87H24.53a.87.87,0,0,1-.88-.87c-.07-6.45-1-7.14-7.39-7.14-4.13,0-3.42-5.88,1.68-6.81a4,4,0,0,1,2.33.26l4.68,2a4.35,4.35,0,0,0,3.43,0l4.7-2a3.74,3.74,0,0,1,2-.31C40.46,15.54,41.28,21.64,37.07,21.64Z"/></g></g></svg>