<svg xmlns="http://www.w3.org/2000/svg" viewBox="0 0 156.42 91.22"><defs><style>.cls-1{fill:#349980;}.cls-2{fill:#1a9f7f;}.cls-3{fill:#333;}</style></defs><title>partner-valiente</title><g id="Capa_2" data-name="Capa 2"><g id="Capa_1-2" data-name="Capa 1"><path class="cls-1" d="M50.77,9.7h11.7L74,30,72,33,60.63,12.85H56.15L71.49,40.26,92.38,2.78,105.65,0,75.53,53.93Zm50.09-6.49L94.92,4.48l-21.62,39,2.23,4Z"/><path class="cls-2" d="M6.54,91a.12.12,0,0,1-.12-.12V84.05a.12.12,0,0,1,.12-.12H8.2a2,2,0,0,1,1.34.44,1.67,1.67,0,0,1,.54,1.31A1.55,1.55,0,0,1,9.52,87a1.94,1.94,0,0,1,1.41,1.94,1.94,1.94,0,0,1-.67,1.51A2.29,2.29,0,0,1,8.67,91Zm2.14-.64a1.63,1.63,0,0,0,1.14-.41,1.39,1.39,0,0,0,0-2.1,1.7,1.7,0,0,0-1.14-.39H7.05v2.9ZM8.29,86.8a1.12,1.12,0,0,0,.82-.31,1.06,1.06,0,0,0,.33-.81,1,1,0,0,0-.34-.8,1.27,1.27,0,0,0-.87-.31H7.05V86.8Z"/><path class="cls-2" d="M8.2,84.05a1.85,1.85,0,0,1,1.26.41A1.55,1.55,0,0,1,10,85.68,1.41,1.41,0,0,1,9.22,87a1.93,1.93,0,0,1,1.15.65,1.82,1.82,0,0,1,.43,1.24,1.79,1.79,0,0,1-.62,1.42,2.23,2.23,0,0,1-1.51.55H6.54V84.05H8.2M6.92,86.92H8.29a1.27,1.27,0,0,0,.91-.34,1.19,1.19,0,0,0,.36-.9,1.08,1.08,0,0,0-.38-.89,1.39,1.39,0,0,0-.95-.35H6.92v2.48m0,3.55H8.68A1.84,1.84,0,0,0,9.91,90a1.54,1.54,0,0,0,0-2.3,1.81,1.81,0,0,0-1.22-.42H6.92v3.16M8.2,83.8H6.54a.25.25,0,0,0-.25.25v6.81a.25.25,0,0,0,.25.25H8.67a2.44,2.44,0,0,0,1.68-.62,2.06,2.06,0,0,0,.7-1.6,2.11,2.11,0,0,0-.49-1.41,2.15,2.15,0,0,0-.81-.58,1.69,1.69,0,0,0,.45-1.22,1.76,1.76,0,0,0-.58-1.4A2,2,0,0,0,8.2,83.8Zm-1,.89H8.23A1.17,1.17,0,0,1,9,85a.86.86,0,0,1,.29.7A.94.94,0,0,1,9,86.4a1.05,1.05,0,0,1-.74.27H7.17v-2Zm0,2.87H8.68a1.54,1.54,0,0,1,1.05.36,1.28,1.28,0,0,1,0,1.92,1.57,1.57,0,0,1-1.06.38H7.17V87.56Z"/><path class="cls-2" d="M19,91a.16.16,0,0,1-.11,0l-2.12-3.35h-.54v3.28a.12.12,0,0,1-.13.12h-.38a.12.12,0,0,1-.12-.12V84.05a.12.12,0,0,1,.12-.12h1.57A2.76,2.76,0,0,1,18,84a1.93,1.93,0,0,1,.63.35,1.86,1.86,0,0,1,.43.57,1.94,1.94,0,0,1,.16.78,2.07,2.07,0,0,1-.15.82,1.4,1.4,0,0,1-.43.58,1.71,1.71,0,0,1-.64.34,2.43,2.43,0,0,1-.56.09l2.06,3.22a.12.12,0,0,1,0,.13.14.14,0,0,1-.11.06Zm-1.61-4a1.26,1.26,0,0,0,.9-.31,1.14,1.14,0,0,0,.34-.9,1.16,1.16,0,0,0-.11-.51.9.9,0,0,0-.27-.36,1.23,1.23,0,0,0-.43-.21,1.61,1.61,0,0,0-.54-.08h-1v2.37Z"/><path class="cls-2" d="M17.25,84.05a2.48,2.48,0,0,1,.73.11,1.7,1.7,0,0,1,.59.33A1.49,1.49,0,0,1,19,85a1.66,1.66,0,0,1,.15.72,1.8,1.8,0,0,1-.14.77,1.34,1.34,0,0,1-.39.54,1.66,1.66,0,0,1-.59.31,3,3,0,0,1-.76.1l2.19,3.4H19l-2.16-3.4h-.74v3.4h-.38V84.05h1.57m-1.19,3h1.29a1.38,1.38,0,0,0,1-.34,1.25,1.25,0,0,0,.38-1,1.48,1.48,0,0,0-.11-.57,1.13,1.13,0,0,0-.32-.4,1.42,1.42,0,0,0-.46-.23,1.81,1.81,0,0,0-.58-.09H16.06v2.62m1.19-3.26H15.68a.25.25,0,0,0-.25.25v6.81a.25.25,0,0,0,.25.25h.38a.25.25,0,0,0,.25-.25V87.71h.35L18.75,91a.24.24,0,0,0,.21.12h.46a.26.26,0,0,0,.22-.13.27.27,0,0,0,0-.26l-2-3,.39-.08a1.93,1.93,0,0,0,.68-.36,1.61,1.61,0,0,0,.46-.63,2.14,2.14,0,0,0,.16-.87,2,2,0,0,0-.17-.83,1.76,1.76,0,0,0-.46-.61,1.8,1.8,0,0,0-.68-.37,2.36,2.36,0,0,0-.8-.13Zm-.94.89h.93a2,2,0,0,1,.5.07,1.2,1.2,0,0,1,.39.2.83.83,0,0,1,.24.31,1.08,1.08,0,0,1,.09.46,1.07,1.07,0,0,1-.29.81,1.21,1.21,0,0,1-.82.27h-1V84.69Z"/><path class="cls-2" d="M28.73,91a.13.13,0,0,1-.12-.08l-.75-2H24.93l-.76,2a.12.12,0,0,1-.11.08h-.38a.16.16,0,0,1-.11,0,.17.17,0,0,1,0-.12l2.72-7a.11.11,0,0,1,.11-.08.13.13,0,0,1,.12.08l2.72,7a.13.13,0,0,1,0,.12.12.12,0,0,1-.1,0ZM27.6,88.3l-1.21-3.13L25.18,88.3Z"/><path class="cls-2" d="M26.39,83.83l2.73,7h-.39l-.78-2h-3.1l-.79,2h-.38l2.71-7M25,88.43h2.78l-1.39-3.6L25,88.43m1.39-4.85h0a.26.26,0,0,0-.23.16l-2.72,7a.24.24,0,0,0,0,.23.25.25,0,0,0,.21.11h.38a.26.26,0,0,0,.23-.16L25,89.07h2.75L28.49,91a.27.27,0,0,0,.24.16h.39a.23.23,0,0,0,.2-.11.24.24,0,0,0,0-.23l-2.72-7a.27.27,0,0,0-.24-.16Zm-1,4.6,1-2.66,1,2.66Z"/><path class="cls-2" d="M39,91.1a.12.12,0,0,1-.09,0L34,85.42v5.44a.12.12,0,0,1-.13.12h-.38a.12.12,0,0,1-.12-.12V84a.12.12,0,0,1,.08-.12h0a.14.14,0,0,1,.1.05l4.85,5.69V84.05a.12.12,0,0,1,.13-.12H39a.12.12,0,0,1,.13.12V91a.14.14,0,0,1-.09.12Z"/><path class="cls-2" d="M33.51,84,38.59,90V84.05H39V91l-5.09-5.89v5.78h-.38V84m0-.25h-.09a.27.27,0,0,0-.16.24v6.85a.25.25,0,0,0,.25.25h.38a.25.25,0,0,0,.25-.25V85.75l4.65,5.39a.27.27,0,0,0,.19.08h.09a.25.25,0,0,0,.16-.24V84.05A.25.25,0,0,0,39,83.8h-.39a.25.25,0,0,0-.25.25v5.23L33.7,83.84a.27.27,0,0,0-.19-.08Z"/><path class="cls-2" d="M43.63,91a.12.12,0,0,1-.12-.12V84.05a.12.12,0,0,1,.12-.12H45.9A2.92,2.92,0,0,1,48.23,85a4,4,0,0,1,0,4.91A2.92,2.92,0,0,1,45.9,91Zm2.27-.64a2.38,2.38,0,0,0,1.73-.74,2.92,2.92,0,0,0,.79-2.15,3.11,3.11,0,0,0-.66-2,2.29,2.29,0,0,0-1.86-.87H44.14v5.78Z"/><path class="cls-2" d="M45.9,84.05a2.78,2.78,0,0,1,2.23,1,3.55,3.55,0,0,1,.81,2.37,3.64,3.64,0,0,1-.8,2.38,2.79,2.79,0,0,1-2.24,1H43.63V84.05H45.9M44,90.47H45.9a2.47,2.47,0,0,0,1.82-.78,3.07,3.07,0,0,0,.83-2.24,3.17,3.17,0,0,0-.7-2.1,2.37,2.37,0,0,0-2-.91H44v6M45.9,83.8H43.63a.25.25,0,0,0-.25.25v6.81a.25.25,0,0,0,.25.25H45.9A3,3,0,0,0,48.33,90a3.88,3.88,0,0,0,.86-2.54,3.81,3.81,0,0,0-.87-2.53A3,3,0,0,0,45.9,83.8Zm-1.64.89H45.9a2.13,2.13,0,0,1,1.76.82,3,3,0,0,1,.64,1.94,2.77,2.77,0,0,1-.76,2.06,2.19,2.19,0,0,1-1.64.71H44.26V84.69Z"/><rect class="cls-2" x="53.36" y="83.93" width="0.63" height="7.05" rx="0.13"/><path class="cls-2" d="M53.87,84.05v6.81h-.39V84.05h.39m0-.25h-.39a.26.26,0,0,0-.25.25v6.81a.25.25,0,0,0,.25.25h.39a.25.25,0,0,0,.25-.25V84.05a.26.26,0,0,0-.25-.25Z"/><path class="cls-2" d="M64,91.1a.14.14,0,0,1-.1,0L59,85.42v5.44a.12.12,0,0,1-.12.12h-.38a.12.12,0,0,1-.13-.12V84a.12.12,0,0,1,.08-.12h.05a.12.12,0,0,1,.09.05l4.86,5.69V84.05a.12.12,0,0,1,.13-.12H64a.12.12,0,0,1,.12.12V91a.13.13,0,0,1-.08.12Z"/><path class="cls-2" d="M58.52,84,63.6,90V84.05H64V91L58.9,85.08v5.78h-.38V84m0-.25h-.09a.25.25,0,0,0-.16.24v6.85a.25.25,0,0,0,.25.25h.38a.25.25,0,0,0,.25-.25V85.75l4.65,5.39a.27.27,0,0,0,.19.08h.08a.26.26,0,0,0,.17-.24V84.05A.25.25,0,0,0,64,83.8H63.6a.25.25,0,0,0-.25.25v5.23l-4.64-5.44a.27.27,0,0,0-.19-.08Z"/><path class="cls-2" d="M72.38,91.08a3.63,3.63,0,1,1,3-5.8.14.14,0,0,1,0,.18L75,85.7l-.07,0h0a.11.11,0,0,1-.09,0,2.88,2.88,0,0,0-2.46-1.21,3,3,0,0,0-2.15,5.14,3,3,0,0,0,2.15.84,2.9,2.9,0,0,0,2.23-.92,2.73,2.73,0,0,0,.71-1.43H73.21a.12.12,0,0,1-.12-.13v-.39a.12.12,0,0,1,.12-.12h2.68a.12.12,0,0,1,.12.12A3.42,3.42,0,0,1,75.08,90,3.56,3.56,0,0,1,72.38,91.08Z"/><path class="cls-2" d="M72.38,84a3.41,3.41,0,0,1,2.88,1.4L75,85.6a3.13,3.13,0,0,0-5.68,1.86,3,3,0,0,0,.87,2.23,3.1,3.1,0,0,0,2.24.87,3,3,0,0,0,2.32-1A2.8,2.8,0,0,0,75.46,88H73.21v-.39h2.68A3.23,3.23,0,0,1,75,89.91a3.56,3.56,0,1,1-2.6-6m0-.25a3.75,3.75,0,1,0,2.79,6.38,3.56,3.56,0,0,0,1-2.52.25.25,0,0,0-.25-.25H73.21a.25.25,0,0,0-.25.25V88a.25.25,0,0,0,.25.25h2a2.53,2.53,0,0,1-.66,1.22,2.72,2.72,0,0,1-2.13.88,2.8,2.8,0,0,1-2.06-.8,3,3,0,0,1,0-4.11,2.79,2.79,0,0,1,2-.81,2.73,2.73,0,0,1,2.36,1.15.23.23,0,0,0,.17.1h0a.3.3,0,0,0,.15,0l.31-.24a.25.25,0,0,0,0-.35,3.63,3.63,0,0,0-3.08-1.5Z"/><path class="cls-2" d="M90.27,91.08a3.63,3.63,0,1,1,0-7.25,4.68,4.68,0,0,1,1.63.27,3.24,3.24,0,0,1,.84.48.14.14,0,0,1,.05.1v.49a.12.12,0,0,1-.07.11h-.06a.11.11,0,0,1-.08,0,3.43,3.43,0,0,0-.84-.51,3.89,3.89,0,0,0-1.47-.29,2.88,2.88,0,0,0-3,3,2.91,2.91,0,0,0,.83,2.14,3,3,0,0,0,2.15.84,3.3,3.3,0,0,0,1.42-.29,6.17,6.17,0,0,0,.9-.58l.07,0h.06a.15.15,0,0,1,.07.12v.44a.12.12,0,0,1-.05.1l-.46.34a3,3,0,0,1-1.51.5h-.5Z"/><path class="cls-2" d="M90.27,84a4.4,4.4,0,0,1,1.58.26,3,3,0,0,1,.81.46v.49a3.94,3.94,0,0,0-.87-.54,4.15,4.15,0,0,0-1.52-.29,3,3,0,0,0-2.23.88,3.1,3.1,0,0,0,2.23,5.34,3.4,3.4,0,0,0,1.48-.3,7.93,7.93,0,0,0,.91-.58v.44l-.46.34a2.76,2.76,0,0,1-1.44.47l-.23,0h-.26a3.34,3.34,0,0,1-3.5-3.49,3.34,3.34,0,0,1,3.5-3.5m0-.25a3.75,3.75,0,1,0,0,7.49h.27l.24,0a3.08,3.08,0,0,0,1.57-.52l.46-.33a.28.28,0,0,0,.1-.21v-.44a.26.26,0,0,0-.13-.23l-.12,0a.28.28,0,0,0-.15,0,6.29,6.29,0,0,1-.87.56,3,3,0,0,1-1.37.28,2.74,2.74,0,0,1-2.86-2.85,2.79,2.79,0,0,1,.81-2.07,2.75,2.75,0,0,1,2-.8,3.63,3.63,0,0,1,1.42.28,3.18,3.18,0,0,1,.81.49.25.25,0,0,0,.16.06l.11,0a.25.25,0,0,0,.14-.23v-.49a.23.23,0,0,0-.09-.19,3.59,3.59,0,0,0-.88-.51,4.92,4.92,0,0,0-1.67-.27Z"/><path class="cls-2" d="M100.31,91a.12.12,0,0,1-.1,0l-2.13-3.35h-.54v3.28a.12.12,0,0,1-.12.12H97a.12.12,0,0,1-.13-.12V84.05a.12.12,0,0,1,.13-.12h1.57a2.74,2.74,0,0,1,.76.11,1.88,1.88,0,0,1,.64.35,1.83,1.83,0,0,1,.42.57,1.78,1.78,0,0,1,.16.78,2.07,2.07,0,0,1-.15.82,1.47,1.47,0,0,1-.42.58,1.79,1.79,0,0,1-.64.34,2.61,2.61,0,0,1-.57.09l2.07,3.22a.15.15,0,0,1,0,.13.11.11,0,0,1-.11.06Zm-1.61-4a1.29,1.29,0,0,0,.91-.31,1.17,1.17,0,0,0,.33-.9,1.13,1.13,0,0,0-.1-.51.92.92,0,0,0-.28-.36,1.15,1.15,0,0,0-.43-.21,1.51,1.51,0,0,0-.53-.08H97.54v2.37Z"/><path class="cls-2" d="M98.61,84.05a2.46,2.46,0,0,1,.72.11,1.62,1.62,0,0,1,.59.33,1.52,1.52,0,0,1,.4.53,1.66,1.66,0,0,1,.15.72,2,2,0,0,1-.14.77,1.34,1.34,0,0,1-.39.54,1.71,1.71,0,0,1-.6.31,3,3,0,0,1-.75.1l2.18,3.4h-.46l-2.16-3.4h-.73v3.4H97V84.05h1.57m-1.19,3H98.7a1.4,1.4,0,0,0,1-.34,1.28,1.28,0,0,0,.38-1,1.32,1.32,0,0,0-.12-.57,1.11,1.11,0,0,0-.31-.4,1.47,1.47,0,0,0-.47-.23,1.79,1.79,0,0,0-.57-.09H97.42v2.62m1.19-3.26H97a.25.25,0,0,0-.25.25v6.81a.25.25,0,0,0,.25.25h.38a.25.25,0,0,0,.25-.25V87.71H98L100.1,91a.27.27,0,0,0,.21.12h.46A.25.25,0,0,0,101,91a.27.27,0,0,0,0-.26l-2-3,.38-.08a2.06,2.06,0,0,0,.69-.36,1.71,1.71,0,0,0,.46-.63,2.33,2.33,0,0,0,.16-.87,1.84,1.84,0,0,0-.18-.83,1.73,1.73,0,0,0-.45-.61,1.8,1.8,0,0,0-.68-.37,2.4,2.4,0,0,0-.8-.13Zm-.94.89h.93a2,2,0,0,1,.5.07,1.15,1.15,0,0,1,.38.2.76.76,0,0,1,.25.31,1.08,1.08,0,0,1,.09.46,1,1,0,0,1-.3.81,1.18,1.18,0,0,1-.82.27h-1V84.69Z"/><path class="cls-2" d="M105.41,91a.12.12,0,0,1-.12-.12V84.05a.12.12,0,0,1,.12-.12h3.27a.12.12,0,0,1,.13.12v.39a.13.13,0,0,1-.13.13h-2.75V86.8h2.75a.12.12,0,0,1,.13.12v.42a.13.13,0,0,1-.13.13h-2.75v2.87h2.75a.13.13,0,0,1,.13.13v.39a.12.12,0,0,1-.13.12Z"/><path class="cls-2" d="M108.68,84.05v.39H105.8v2.48h2.88v.42H105.8v3.13h2.88v.39h-3.27V84.05h3.27m0-.25h-3.27a.25.25,0,0,0-.25.25v6.81a.25.25,0,0,0,.25.25h3.27a.25.25,0,0,0,.25-.25v-.39a.25.25,0,0,0-.25-.25h-2.63V87.59h2.63a.25.25,0,0,0,.25-.25v-.42a.25.25,0,0,0-.25-.25h-2.63v-2h2.63a.25.25,0,0,0,.25-.25v-.39a.25.25,0,0,0-.25-.25Z"/><path class="cls-2" d="M118.1,91a.12.12,0,0,1-.12-.08l-.75-2H114.3l-.76,2a.12.12,0,0,1-.11.08h-.38a.14.14,0,0,1-.11,0,.13.13,0,0,1,0-.12l2.71-7a.13.13,0,0,1,.24,0l2.72,7a.13.13,0,0,1,0,.12.12.12,0,0,1-.1,0ZM117,88.3l-1.21-3.13-1.21,3.13Z"/><path class="cls-2" d="M115.76,83.83l2.73,7h-.39l-.79-2h-3.09l-.79,2h-.38l2.71-7m-1.39,4.6h2.78l-1.39-3.6-1.39,3.6m1.39-4.85h0a.26.26,0,0,0-.23.16l-2.72,7a.24.24,0,0,0,0,.23.25.25,0,0,0,.21.11h.38a.26.26,0,0,0,.23-.16l.73-1.88h2.75l.72,1.88a.27.27,0,0,0,.24.16h.39a.23.23,0,0,0,.2-.11.24.24,0,0,0,0-.23l-2.73-7a.25.25,0,0,0-.23-.16Zm-1,4.6,1-2.66,1,2.66Z"/><path class="cls-2" d="M123.32,91a.12.12,0,0,1-.13-.12V84.57h-1.38a.12.12,0,0,1-.12-.13v-.39a.12.12,0,0,1,.12-.12h3.41a.12.12,0,0,1,.12.12v.39a.13.13,0,0,1-.12.13h-1.39v6.29a.12.12,0,0,1-.12.12Z"/><path class="cls-2" d="M125.22,84.05v.39h-1.51v6.42h-.39V84.44h-1.51v-.39h3.41m0-.25h-3.41a.25.25,0,0,0-.25.25v.39a.25.25,0,0,0,.25.25h1.26v6.17a.25.25,0,0,0,.25.25h.39a.25.25,0,0,0,.25-.25V84.69h1.26a.25.25,0,0,0,.25-.25v-.39a.26.26,0,0,0-.25-.25Z"/><rect class="cls-2" x="129.46" y="83.93" width="0.63" height="7.05" rx="0.13"/><path class="cls-2" d="M130,84.05v6.81h-.38V84.05H130m0-.25h-.38a.25.25,0,0,0-.25.25v6.81a.25.25,0,0,0,.25.25H130a.25.25,0,0,0,.25-.25V84.05a.25.25,0,0,0-.25-.25Z"/><path class="cls-2" d="M136.6,91.1a.14.14,0,0,1-.12-.09l-2.18-6.92a.14.14,0,0,1,0-.11.12.12,0,0,1,.1,0h.4a.12.12,0,0,1,.12.08l1.66,5.25L138.28,84a.11.11,0,0,1,.11-.08h.41a.12.12,0,0,1,.1,0,.09.09,0,0,1,0,.11L136.72,91a.12.12,0,0,1-.12.09Z"/><path class="cls-2" d="M138.8,84.05,136.6,91l-2.18-6.92h.4l1.78,5.63,1.79-5.63h.41m0-.25h-.41a.24.24,0,0,0-.23.18l-1.56,4.87L135.06,84a.25.25,0,0,0-.24-.18h-.4a.26.26,0,0,0-.24.33l2.18,6.92a.26.26,0,0,0,.24.17h0a.25.25,0,0,0,.24-.17l2.2-6.92a.24.24,0,0,0,0-.22.26.26,0,0,0-.21-.11Zm0,.5h0Z"/><path class="cls-2" d="M146.37,91.08a3.63,3.63,0,1,1,0-7.25A3.48,3.48,0,0,1,150,87.46a3.48,3.48,0,0,1-3.63,3.62Zm0-6.62a2.88,2.88,0,0,0-3,3,2.91,2.91,0,0,0,.83,2.14,3,3,0,1,0,2.15-5.14Z"/><path class="cls-2" d="M146.37,84a3.34,3.34,0,0,1,3.51,3.5,3.57,3.57,0,1,1-3.51-3.5m0,6.6a3,3,0,0,0,3.12-3.1,3.16,3.16,0,0,0-5.35-2.24,3.1,3.1,0,0,0,2.23,5.34m0-6.85a3.6,3.6,0,1,0,2.7,1,3.67,3.67,0,0,0-2.7-1Zm0,6.6a2.74,2.74,0,0,1-2.86-2.85,2.79,2.79,0,0,1,.81-2.07,2.75,2.75,0,0,1,2.05-.8,2.86,2.86,0,1,1,0,5.72Z"/><path class="cls-3" d="M20.94,59.64,12,80.69H9l-9-21H2.87l7.72,18.22,7.52-18.22Z"/><path class="cls-3" d="M21.55,80.69l8.94-21h3l9,21H39.62l-2.8-6.62h-7l.75-2.21h5.26l-3.89-9.4L24.38,80.69Z"/><path class="cls-3" d="M50.44,59.64V78.48h11v2.21H47.71v-21Z"/><path class="cls-3" d="M69.9,59.64v21H67.17v-21Z"/><path class="cls-3" d="M90.75,59.64v2.2h-11v7.07H90.24v2.21H79.71v7.36H91v2.21H77v-21Z"/><path class="cls-3" d="M97,80.69v-21h2.72l12.89,16.81V59.64h2.57v21h-2.72L99.61,63.88V80.69Z"/><path class="cls-3" d="M136.25,59.64v2.2h-6.63V80.69H126.9V61.84h-6.63v-2.2Z"/><path class="cls-3" d="M142.65,80.54V78.33h11V71.26H143.17V69.05H153.7V61.69H142.43V59.48h14V80.54Z"/><path class="cls-3" d="M88.93,49.16v-.5a.23.23,0,0,0-.23-.23,3.19,3.19,0,0,1-2.36-.89.22.22,0,0,0-.32,0,3.21,3.21,0,0,1-2.36.89.23.23,0,0,0-.23.23v.5c0,1.65-.08,3.92,2.67,4.87h.15c2.76-1,2.72-3.22,2.68-4.87Zm-2.75,4.41c-2.36-.86-2.33-2.74-2.29-4.4v-.29A3.56,3.56,0,0,0,86.18,48a3.56,3.56,0,0,0,2.29.87v.29c0,1.66.07,3.54-2.29,4.4Z"/><path class="cls-3" d="M87,50l-1.11,1.11-.47-.48a.23.23,0,1,0-.33.33l.64.64a.24.24,0,0,0,.32,0l1.28-1.28a.22.22,0,0,0,0-.32A.24.24,0,0,0,87,50Z"/></g></g></svg>