<svg xmlns="http://www.w3.org/2000/svg" viewBox="0 0 148.86 39.15"><defs><style>.cls-1{fill:#172778;}.cls-2{fill:#505c98;}.cls-3{fill:#364489;}.cls-4{fill:#344288;}.cls-5{fill:#b6bbd4;}.cls-6{fill:#dfc434;}.cls-7{fill:#9e007b;}</style></defs><title>partner-humanitas</title><g id="Capa_2" data-name="Capa 2"><g id="Capa_1-2" data-name="Capa 1"><path class="cls-1" d="M117,25.81a.72.72,0,0,0-.79-.67c-.58,0-1.16,0-1.74,0a.65.65,0,0,0-.65.48l-.45,1.25c-.09-.12-.14-.2-.2-.27A4.84,4.84,0,0,0,108.72,25a7,7,0,0,0-5.55,10,6.56,6.56,0,0,0,5.25,4l.46,0-.21,0v.08h1.43c0-.14.17-.11.26-.12a5.11,5.11,0,0,0,2.2-1c.49-.37.49-.38.7.21.11.31.24.6.63.6h2.49a.59.59,0,0,0,.61-.56,5.32,5.32,0,0,0,.07-1V26.52A3.35,3.35,0,0,0,117,25.81ZM109.64,39a2.26,2.26,0,0,1-.37,0Zm1-3.83a3.12,3.12,0,0,1-3.47-.92,3.61,3.61,0,0,1,1.26-5.45,3.34,3.34,0,0,1,4.42,3.23A3.31,3.31,0,0,1,110.67,35.19Z"/><path class="cls-1" d="M123.24,39.15c-.24-.2-.54-.16-.81-.23a5.73,5.73,0,0,1-2.92-1.64c-.54-.58-.74-1.25.09-1.88.34-.26.61-.61.93-.91s.62-.38,1,0a4.49,4.49,0,0,0,1.79,1,2.65,2.65,0,0,0,1.67-.07.79.79,0,0,0,.6-.71.77.77,0,0,0-.55-.78c-.7-.27-1.41-.5-2.12-.75a7.09,7.09,0,0,1-1.68-.77,4,4,0,0,1-1.71-4A3.49,3.49,0,0,1,122,25.35a6,6,0,0,1,6.32.94,5.86,5.86,0,0,1,.62.6c.28.31.28.54,0,.82-.54.51-1.1,1-1.65,1.47a.49.49,0,0,1-.68,0c-.12-.09-.23-.19-.33-.28a2.26,2.26,0,0,0-2.24-.52.59.59,0,0,0-.51.54.6.6,0,0,0,.41.61,8.07,8.07,0,0,0,1.35.41,11.72,11.72,0,0,1,2.37,1,3.87,3.87,0,0,1,2.1,3.82,4,4,0,0,1-2.23,3.61,5.8,5.8,0,0,1-1.94.62c-.19,0-.39,0-.54.16Z"/><path class="cls-2" d="M0,23.08H.08a.67.67,0,0,1,.13.53V38.16a.66.66,0,0,1-.13.52H0Z"/><path class="cls-3" d="M62.78,39c0,.07-.18,0-.17.15h-.08a5.68,5.68,0,0,0-1.09,0,1,1,0,0,1-.42,0L60.77,39a.42.42,0,0,1,.31-.13c.46,0,.92,0,1.38,0A.44.44,0,0,1,62.78,39Z"/><path class="cls-1" d="M61,39.07a5.9,5.9,0,0,1,1.51.08H61A.22.22,0,0,0,61,39.07Z"/><path class="cls-1" d="M113.38,12.66a5.1,5.1,0,0,0-.46-1.09c-1-2.14-1.84-4.36-2.68-6.58a2.63,2.63,0,0,1-.14-.89,1.39,1.39,0,0,1,1-1.39,1.37,1.37,0,0,1,1.64.68,8.21,8.21,0,0,1,.49,1,19,19,0,0,0,1.59,3.43.79.79,0,0,0,0-.41,46.89,46.89,0,0,0-1.66-4.89,2.91,2.91,0,0,1-.21-1.43,1.22,1.22,0,0,1,.88-1,1.25,1.25,0,0,1,1.33.22,4.3,4.3,0,0,1,1,1.37,48.36,48.36,0,0,1,2.45,6.24.72.72,0,0,0,.21.45,15.08,15.08,0,0,0-.4-3.37,21.82,21.82,0,0,1-.7-3.4,1.41,1.41,0,0,1,.9-1.54,1.36,1.36,0,0,1,1.66.64,9.27,9.27,0,0,1,1,2.73,48.41,48.41,0,0,1,1.12,5.61,7.58,7.58,0,0,0,.88,2.48c.1.17.21.37.44.35s.26-.26.3-.45q.23-1,.42-2a5.41,5.41,0,0,1,1.47-2.79,2.79,2.79,0,0,1,2.55-.77.88.88,0,0,1,.66,1.35,22.11,22.11,0,0,0-1.21,4.44c-.23,1.1-.16,2.24-.46,3.33A45.78,45.78,0,0,1,126,19.67a5,5,0,0,1-3.28,3.07,13.22,13.22,0,0,1-3.4.67,4.38,4.38,0,0,1-4-2,22.91,22.91,0,0,1-1.83-3,18.23,18.23,0,0,0-3.55-4.81c-.83-.83-1.59-1.72-2.37-2.6a3.33,3.33,0,0,1-.8-1.56,1.15,1.15,0,0,1,.42-1.21,1.18,1.18,0,0,1,1.26-.14,6.19,6.19,0,0,1,1.82,1.56A28.31,28.31,0,0,0,113.38,12.66Z"/><path class="cls-1" d="M137.24,13.5a52.74,52.74,0,0,1,3.75-6,4.7,4.7,0,0,1,.95-.94,1.34,1.34,0,0,1,1.56,0,1.18,1.18,0,0,1,.58,1.28A2.94,2.94,0,0,1,143.63,9c-1,1.53-1.74,3.16-2.6,4.74,0,.08-.1.16,0,.27a1,1,0,0,0,.37-.42l2.15-3.28a1.9,1.9,0,0,1,1.11-.95,1.35,1.35,0,0,1,1.43.42,1.52,1.52,0,0,1,.18,1.75,19.62,19.62,0,0,1-1.55,2.7q-1.38,2-2.74,4.11a.71.71,0,0,0-.21.39.6.6,0,0,0,.43-.16A30.9,30.9,0,0,0,145.94,16a3.08,3.08,0,0,1,1.39-.71,1.22,1.22,0,0,1,1.29,1.91,4.73,4.73,0,0,1-1.07,1.21c-1.07.86-2.13,1.72-3.26,2.5a17.31,17.31,0,0,0-3.75,3.65c-.66.84-1.35,1.66-2.08,2.44a4.85,4.85,0,0,1-2.56,1.56,5.53,5.53,0,0,1-2.61-.23,10.91,10.91,0,0,1-3.38-1.59,4.75,4.75,0,0,1-2-3.34c-.24-1.62-.41-3.24-.58-4.87a4.1,4.1,0,0,1,.27-1.86,13.07,13.07,0,0,0,.74-3.82,11.81,11.81,0,0,1,.55-2.78c.06-.2.12-.26.32-.16A2.66,2.66,0,0,1,130.53,11a5.8,5.8,0,0,1,.8,3.33,13.2,13.2,0,0,0,0,1.54.42.42,0,0,0,.25.45c.22.07.36-.07.47-.21a8.24,8.24,0,0,0,1.44-2.61,43.06,43.06,0,0,1,2.83-6.72,3.22,3.22,0,0,1,.82-1,1.23,1.23,0,0,1,1.43-.19,1.27,1.27,0,0,1,.8,1.22,3.64,3.64,0,0,1-.31,1.3c-.47,1.14-.95,2.28-1.41,3.43a10.88,10.88,0,0,0-.54,1.85.2.2,0,0,0,0,.21S137.21,13.51,137.24,13.5Z"/><path class="cls-1" d="M35.88,26.83a3.93,3.93,0,0,1,2.54-1.7,4.47,4.47,0,0,1,4.87,1.62c.16.22.24.08.35,0a5.51,5.51,0,0,1,3-1.65c3-.42,5,.84,5.71,3.74a8.55,8.55,0,0,1,.26,2.2v6.56c0,1.17-.06,1.23-1.21,1.25H49.19c-.38,0-.6-.17-.61-.56,0-.19,0-.37,0-.55V31.18a3.36,3.36,0,0,0-.11-.9,1.8,1.8,0,0,0-2-1.42,2,2,0,0,0-1.81,1.65,3.81,3.81,0,0,0,0,.59c0,2,0,4.06,0,6.09a6.7,6.7,0,0,1-.09,1.18.5.5,0,0,1-.55.45H41.11c-.47,0-.6-.19-.6-.82q0-3.3,0-6.6a5.69,5.69,0,0,0-.05-.83,1.86,1.86,0,0,0-1.9-1.74,2.15,2.15,0,0,0-2.09,2c0,.83,0,1.66,0,2.49v4.51c0,.78-.2,1-1,1H33.12c-.59,0-.78-.18-.83-.77,0-.1,0-.21,0-.31V26.3a2.55,2.55,0,0,1,0-.39.68.68,0,0,1,.7-.67c.63,0,1.26,0,1.89,0a.73.73,0,0,1,.7.6C35.69,26.13,35.77,26.43,35.88,26.83Z"/><path class="cls-1" d="M.08,38.68V23.09a.8.8,0,0,1,.63-.2l2.84,0c.53,0,.65.13.66.66v4.24c0,.58,0,.61.58.61H9c.53,0,.55,0,.55-.56V23.62c0-.58.13-.71.72-.71H13c.67,0,.71.05.72.73V38.05c0,.72,0,.76-.75.77H10.15c-.55,0-.65-.11-.65-.65V32.83c0-.54,0-.55-.56-.55H4.78c-.54,0-.57,0-.57.58v5.19c0,.71-.06.78-.75.78-.9,0-1.8,0-2.69,0A1.47,1.47,0,0,1,.08,38.68Z"/><path class="cls-1" d="M69.34,26a.74.74,0,0,0-.81-.82c-.56,0-1.13,0-1.7,0a.67.67,0,0,0-.68.49l-.43,1.16c-.3-.29-.57-.58-.88-.83a5.15,5.15,0,0,0-4.73-.76,7.09,7.09,0,0,0-3.73,11.25A6.65,6.65,0,0,0,60.77,39h2a5.73,5.73,0,0,0,2.57-1.36l.19.49c.22.6.32.68.94.69s1.19,0,1.78,0c.91,0,1.09-.17,1.09-1.08V28.33C69.35,27.54,69.36,26.75,69.34,26Zm-9,9.07a3.49,3.49,0,0,1-1.57-3.65,3.16,3.16,0,0,1,4.28-2.53A3.59,3.59,0,0,1,65.22,32,3.34,3.34,0,0,1,60.38,35Z"/><path class="cls-1" d="M26.17,37.16c-.31.28-.58.55-.87.79a5.43,5.43,0,0,1-6.54.09,5.7,5.7,0,0,1-1.9-3.59,21.32,21.32,0,0,1-.14-3.39c0-1.62,0-3.24,0-4.87,0-.8.2-1,1-1s1.64,0,2.45.06c.48,0,.62.14.62.62,0,1.57,0,3.14,0,4.71,0,.8,0,1.61,0,2.41a2.27,2.27,0,0,0,2.23,2.26,2.41,2.41,0,0,0,2.52-2.35V26.23c0-.78.17-1,1-1.05a12.09,12.09,0,0,1,2.48,0c.53.07.71.28.71.82,0,4,0,7.94,0,11.91,0,.66-.22.86-.89.88s-1.06,0-1.58,0a.79.79,0,0,1-.83-.65Z"/><path class="cls-1" d="M75.46,26.73c.13,0,.17-.08.22-.13A5.32,5.32,0,0,1,80.21,25a5.24,5.24,0,0,1,4.63,5.16c0,2.62,0,5.24,0,7.87,0,.6-.16.77-.78.78H81.51c-.51,0-.69-.19-.7-.7,0-2.23,0-4.46,0-6.69a2.37,2.37,0,1,0-4.74-.22c0,2.09,0,4.19,0,6.29v.31c0,.82-.19,1-1,1s-1.58,0-2.38,0c-.54,0-.71-.19-.78-.74a3.59,3.59,0,0,1,0-.47V26.37c0-.92.23-1.15,1.14-1.15.44,0,.89,0,1.34,0a.74.74,0,0,1,.82.59C75.27,26.12,75.37,26.43,75.46,26.73Z"/><path class="cls-1" d="M95,33.69c0-1.41,0-2.82,0-4.23,0-.35-.1-.48-.44-.47a7.56,7.56,0,0,1-.83,0c-.47-.06-.67-.25-.68-.71q0-1.17,0-2.34c0-.45.19-.64.64-.69s.63-.05,1-.05S95,25,95,24.8c0-.5,0-1,0-1.51a.84.84,0,0,1,.67-1c.81-.29,1.61-.57,2.42-.84s1,0,1.07.75,0,1.66,0,2.49c0,.33.1.45.43.44a5.63,5.63,0,0,1,1.23,0,.6.6,0,0,1,.53.59,19.88,19.88,0,0,1,0,2.56.63.63,0,0,1-.57.61,7.58,7.58,0,0,1-1.26,0c-.28,0-.36.13-.36.39,0,.58,0,1.16,0,1.74V37.8c0,.84-.19,1-1,1H95.78c-.6,0-.79-.19-.8-.82,0-1.44,0-2.87,0-4.31Z"/><path class="cls-1" d="M87.42,32.12c0-2,0-4,0-6,0-.67.2-.83.88-.91a16.17,16.17,0,0,1,2.09,0c.86,0,1.19.37,1.19,1.18,0,3.81,0,7.62,0,11.43,0,.88-.21,1.08-1.1,1.06-.73,0-1.45,0-2.18,0s-.83-.19-.83-.86C87.42,36,87.39,34.07,87.42,32.12Z"/><path class="cls-1" d="M89.47,20.23c.45,0,.89,0,1.34,0a.62.62,0,0,1,.69.69q0,1.07,0,2.13a.8.8,0,0,1-.83.83,23,23,0,0,1-2.49,0c-.47,0-.62-.19-.65-.65a21.53,21.53,0,0,1,0-2.41.53.53,0,0,1,.6-.58C88.57,20.22,89,20.23,89.47,20.23Z"/><path class="cls-4" d="M108.42,39h1.26v.07h-1Z"/><path class="cls-5" d="M137.24,13.5c0,.09,0,.2-.18.23a.61.61,0,0,1,.09-.4C137.18,13.39,137.16,13.47,137.24,13.5Z"/><path class="cls-6" d="M116,17.73a2.1,2.1,0,0,1,2.27-2.29c.31,0,.67.24.92.08s.26-.51.4-.78A3.21,3.21,0,0,1,121,13.28a1.83,1.83,0,0,1,2.49.7,3.62,3.62,0,0,1,.53,2.14,8.12,8.12,0,0,1-.09,1.84,5.42,5.42,0,0,1-.85,1.76,2.58,2.58,0,0,1-2.42,1,6.24,6.24,0,0,1-3.34-1.17A2.64,2.64,0,0,1,116,17.73Z"/><path class="cls-7" d="M134.21,25.86a2.85,2.85,0,0,1-3-2.47,10.81,10.81,0,0,1-.26-2.26,3.17,3.17,0,0,1,.63-2,2.06,2.06,0,0,1,2.09-.82,1.85,1.85,0,0,1,1.55,1.35,2.08,2.08,0,0,0,.32.76c.19.2.51,0,.78,0a3.17,3.17,0,0,1,2.36.92,1.4,1.4,0,0,1,.38,1.3,2.87,2.87,0,0,1-1.38,2.06A6,6,0,0,1,134.21,25.86Z"/></g></g></svg>