<svg xmlns="http://www.w3.org/2000/svg" viewBox="0 0 507.5 108.37"><defs><style>.cls-1{fill:#fff;fill-rule:evenodd;opacity:0.8;}</style></defs><g id="Capa_2" data-name="Capa 2"><g id="Capa_1-2" data-name="Capa 1"><path class="cls-1" d="M0,0H51.56V51.56H0Z"/><path class="cls-1" d="M56.82,0h51.55q0,25.77,0,51.56-25.77,0-51.55,0V0Z"/><path class="cls-1" d="M464.91,19.64c4.75-3.09,10.89-3.38,16.25-1.9,0,3.18,0,6.37,0,9.55-2.55-1.12-5.54-1.85-8.22-.75a6.51,6.51,0,0,0-3.72,5.2,70.5,70.5,0,0,0-.2,8.35h16.31c0-3.53,0-7.07,0-10.6,3.69-1.05,7.35-2.23,11-3.34,0,4.65-.05,9.31,0,14,3.67,0,7.35,0,11,0v9c-3.69-.15-7.38,0-11.07,0,0,5.2,0,10.41,0,15.61.06,2.89-.15,5.79.18,8.66.21,1.69.82,3.57,2.41,4.45,2.66,1.49,6,.84,8.48-.8v9.14a21.66,21.66,0,0,1-10.19,1.56c-3.27-.24-6.66-1.43-8.79-4-2.47-2.94-3.1-6.91-3.15-10.64,0-8,0-16,0-24H469q0,18.79,0,37.61H457.88q0-18.81,0-37.6c-2.59-.05-5.17,0-7.76,0,0-3,0-6,0-8.93,2.58-.06,5.15,0,7.73,0,.19-4-.41-8,.77-11.88a15.23,15.23,0,0,1,6.29-8.59Zm-238.73.65a6.82,6.82,0,0,1,6.17,2.19,6.36,6.36,0,0,1,.78,7.24,6.93,6.93,0,0,1-7.42,3.11,6.3,6.3,0,0,1-5.18-6.21,6.47,6.47,0,0,1,5.65-6.33Zm-85.45,1.38H157c5,12.82,10.13,25.62,15.18,38.44,1.29,3.21,2.5,6.45,3.85,9.63,6.5-16,13.08-32,19.53-48,5.2-.08,10.4,0,15.6,0q0,32.51,0,65c-3.76,0-7.51,0-11.26,0,0-16,0-32,0-48,0-.72,0-1.44-.07-2.15a8.12,8.12,0,0,0-.58,1c-6.45,16.37-13,32.69-19.42,49.08-2.67.09-5.34,0-8,0C165.14,70.34,158.58,53.93,152,37.55a10.56,10.56,0,0,0-.56-1c-.14,7,0,14-.06,21q0,14.57,0,29.12H140.73v-65ZM256.87,40.05a30.54,30.54,0,0,1,16.56.05,13.22,13.22,0,0,1,3.18,1.33c-.06,3.55,0,7.1,0,10.66-3.6-2.75-8.16-4.49-12.73-3.91a13.06,13.06,0,0,0-9.26,5.14c-2.79,3.63-3.43,8.46-3,12.91a13.93,13.93,0,0,0,4.5,9.26,14.1,14.1,0,0,0,10.43,3.11,21.26,21.26,0,0,0,10-4.11c0,3.37,0,6.73,0,10.1-4.56,2.71-10,3.41-15.24,3.16a22.63,22.63,0,0,1-14.52-6.06,23.23,23.23,0,0,1-6.75-15.6c-.27-6,.95-12.28,4.41-17.3a22.48,22.48,0,0,1,12.37-8.74Zm121.79-.71A29.48,29.48,0,0,1,394.1,41V51.2a19.57,19.57,0,0,0-11.71-3.46c-2.08.08-4.38,1-5.33,2.94a4.84,4.84,0,0,0,1.62,5.71c3.16,2.11,6.93,3,10.21,4.91,2.58,1.45,5.08,3.34,6.39,6.07,2.45,5.12,1.41,11.88-2.91,15.69-4.12,3.85-10.05,4.92-15.51,4.71a33.06,33.06,0,0,1-11.34-2.6c0-3.59,0-7.18,0-10.78a24.36,24.36,0,0,0,10.12,4.37,13,13,0,0,0,7.69-.71c2.28-1.13,2.68-4.36,1.33-6.33a13.35,13.35,0,0,0-4.86-3.19c-3.29-1.47-6.74-2.71-9.63-4.92A11.57,11.57,0,0,1,366,57.28a14.19,14.19,0,0,1,1.54-11.12c2.46-3.78,6.74-6,11.09-6.82Zm-77.12,1.47a12.58,12.58,0,0,1,10.35-.87c0,3.72,0,7.43,0,11.15a11.89,11.89,0,0,0-7.53-1.77c-3.17.36-5.68,2.79-7,5.58a20.62,20.62,0,0,0-1.59,9.51q0,11.15,0,22.29h-11q0-23.29,0-46.58c3.67,0,7.34,0,11,0,0,2.67,0,5.33,0,8,1.19-2.9,3-5.72,5.76-7.3Zm-80-.7c3.7,0,7.4,0,11.09,0,0,15.52,0,31.05,0,46.57H221.55q0-23.29,0-46.59Zm110.87-.86c5.35-.68,11-.38,16,1.88A19.71,19.71,0,0,1,358.11,51a30.48,30.48,0,0,1,2.22,14.69,24.77,24.77,0,0,1-4.9,13.57,21.57,21.57,0,0,1-12.8,7.9,32.1,32.1,0,0,1-13.06,0,21.12,21.12,0,0,1-12.88-8.4c-3.53-5-4.53-11.4-4.08-17.41a24.86,24.86,0,0,1,5.14-14.24,22.26,22.26,0,0,1,14.66-7.83Zm3.33,8.85A11.71,11.71,0,0,0,328.4,51c-2.72,2.47-4,6.15-4.31,9.73a21.47,21.47,0,0,0,1.7,11.66,11.13,11.13,0,0,0,7,5.77,15.06,15.06,0,0,0,9.08-.4,10.17,10.17,0,0,0,5.48-5.38c1.61-3.56,1.77-7.56,1.57-11.39-.27-3.51-1.27-7.18-3.85-9.72a12,12,0,0,0-9.32-3.16Zm85.54-8.87c5.57-.69,11.47-.31,16.55,2.25a20,20,0,0,1,9.58,10.84,29.67,29.67,0,0,1,1.73,11.13,25.49,25.49,0,0,1-5,15.87,21.8,21.8,0,0,1-13.71,8A30.06,30.06,0,0,1,414.69,86a20.69,20.69,0,0,1-11.33-11c-2.21-5.07-2.44-10.77-1.75-16.19A22.8,22.8,0,0,1,409,44.52,23.07,23.07,0,0,1,421.28,39.23Zm3,8.88a11.42,11.42,0,0,0-8.14,3.9,16.22,16.22,0,0,0-3.38,9.28,22.11,22.11,0,0,0,1.33,10.16A11.28,11.28,0,0,0,420,77.6a14.76,14.76,0,0,0,8,.87A10.47,10.47,0,0,0,434.47,75a14.63,14.63,0,0,0,2.88-6.84,28.25,28.25,0,0,0-.09-10,12.81,12.81,0,0,0-4-7.42,12.25,12.25,0,0,0-8.93-2.63Z"/><path class="cls-1" d="M0,56.82H51.56v51.55H0Z"/><path class="cls-1" d="M56.82,56.82h51.55v51.55H56.82Z"/></g></g></svg>