<svg xmlns="http://www.w3.org/2000/svg" viewBox="0 0 146.43 37.5"><defs><style>.cls-1{fill:#26006e;}.cls-2{fill:#ff4d00;}.cls-3,.cls-4,.cls-5{fill:none;stroke-linecap:square;stroke-miterlimit:10;stroke-width:3px;}.cls-3{stroke:#aed610;}.cls-4{stroke:#ff4d00;}.cls-5{stroke:#34b3d1;}</style></defs><title>mercafy-partner</title><g id="Capa_2" data-name="Capa 2"><g id="Capa_1-2" data-name="Capa 1"><path class="cls-1" d="M60.7,11.68a5.8,5.8,0,0,0-5.13,2.8,4.88,4.88,0,0,0-4.63-2.8,5.19,5.19,0,0,0-4.63,2.44V12h-2.1v13.8h2.1V18.76c0-3.24,1.63-5.12,4.13-5.12a3.38,3.38,0,0,1,3.48,3.61v8.57H56V18.76c0-3.24,1.66-5.12,4.17-5.12a3.38,3.38,0,0,1,3.5,3.61v8.57h2.1V16.89A5,5,0,0,0,60.7,11.68Z"/><path class="cls-1" d="M69.28,21.8l12.36-3.34A6.79,6.79,0,0,0,75,11.68,7,7,0,0,0,68,19a6.93,6.93,0,0,0,6.89,7.22,6.54,6.54,0,0,0,6.51-4.39l-1.88-.45a4.67,4.67,0,0,1-4.63,3A5,5,0,0,1,70,19.38v0a8,8,0,0,1,.09-1.59h0a1.16,1.16,0,0,1,0-.18,4.88,4.88,0,0,1,4.87-4,4.48,4.48,0,0,1,4.55,3.79L69.68,20Z"/><path class="cls-1" d="M91.75,11.88a6.14,6.14,0,0,0-5.46,3.52V12H84.17v13.8h2.12V20.5c0-3.72,1.85-6.5,5.46-6.5a7.13,7.13,0,0,1,.8,0l.17-2A3.11,3.11,0,0,0,91.75,11.88Z"/><path class="cls-1" d="M99.09,18.71,106.81,12h-2.73l-6.54,5.6h-1v-12H94.43V25.82h2.09v-6.1h.91l7.34,6.1h2.92Z"/><path class="cls-1" d="M119.27,12v2.21a6.54,6.54,0,0,0-5.4-2.55,6.89,6.89,0,0,0-6.79,7.25,6.89,6.89,0,0,0,6.79,7.25,6.56,6.56,0,0,0,5.4-2.54v2.18h2.1V12ZM114.2,24.28a5,5,0,0,1-5.08-5.35,5,5,0,0,1,5.08-5.37,5.17,5.17,0,0,1,5.07,5.37A5.16,5.16,0,0,1,114.2,24.28Z"/><path class="cls-2" d="M127.71,12V10a2.58,2.58,0,0,1,2.7-2.85,4.39,4.39,0,0,1,1.54.3l.53-1.73a4.79,4.79,0,0,0-2.21-.51A4.42,4.42,0,0,0,125.61,10v2h-2.37v1.79h2.37v12h2.1v-12h4.93V12Z"/><path class="cls-2" d="M144.09,12l-5,11-4.85-11H131.9l.74,1.65,5.35,12-2.23,5h2.34L146.43,12Z"/><polyline class="cls-3" points="11.5 35.38 28.09 18.75 11.5 2.12"/><polyline class="cls-4" points="5.96 29.87 17.05 18.75 5.96 7.63"/><polyline class="cls-5" points="2.12 23.11 6.47 18.75 2.12 14.39"/></g></g></svg>