<svg xmlns="http://www.w3.org/2000/svg" viewBox="0 0 421.66 585.33"><defs><style>.cls-1{fill:#1c1c4c;opacity:0.08;}</style></defs><title>player-shape</title><g id="Capa_2" data-name="Capa 2"><g id="Capa_1-2" data-name="Capa 1"><path class="cls-1" d="M261.86,60.17c-.77.66-1.46,1.72-2.34,1.91-2.39.5-2.74,2-2.37,4a73.1,73.1,0,0,0,2,9.22c.29.88,2.07,1.66,3.23,1.77,2.55.23,5.15-.13,7.71,0s3.51-.75,3.33-3.22c-.13-1.88-.16-3.76-.15-5.64a20.25,20.25,0,0,1,.32-2.67h1q.51,5.63,1,11.27l1.11,0c1.55-4.68.24-9.7.89-14.49l1.05,0c.17,2.16.46,4.32.5,6.48.15,8.07.13,8.3,8.08,8,5.38-.23,9.3,1.62,13.05,5.46,5.91,6,12.43,11.5,18.63,17.26a63.4,63.4,0,0,1,5.73,6c1,1.23,1.44,2.92,2.34,4.27.67,1,1.56,2.45,2.51,2.59,4.79.71,9.63,1,14.44,1.55,2.46.27,3.79-.64,3.79-3.22,0-6.82.29-13.66-.09-20.46-.18-3.28-1.51-6.52-2.5-9.73q-2.85-9.17-5.92-18.28c-1.34-4-5.3-4.44-8.44-5.84-2.32-1-4.91-1.43-7.36-2.17a4.7,4.7,0,0,1-2.1-1c-3.93-4.33-9.13-6.31-14.45-8.23a4.71,4.71,0,0,1-2.66-3.22c-.2-2.09,1.92-2.49,3.44-2.17,3.92.83,7.76,2,11.64,3,1,.26,2,.44,3,.65.07-1.22.53-2.61.12-3.65C321,36,319.29,32.64,317.8,29.2c-2.32-5.32-4.74-10.62-6.74-16.06-.95-2.6-1.69-5.66,1.81-7.48.43-.22.67-1,.84-1.52.87-2.76,2.1-4.64,5.29-2.49a1.28,1.28,0,0,0,1.1.13c4.14-2.3,6.48.71,8.34,3.33,3.13,4.41,5.69,9.21,8.5,13.85.4.67.64,1.61,1.23,2A26.25,26.25,0,0,0,342,22.61a15.67,15.67,0,0,0,.4-3.93c-.59-4-1.55-7.95-2.08-12a3.45,3.45,0,0,1,1.36-2.91c.67-.34,2.33.3,2.93,1a11.52,11.52,0,0,1,2.28,4.42c1,3.83,1.43,7.77,2.41,11.59A28.43,28.43,0,0,0,352,27.93c4.11,7.13,6.47,14.54,5.17,22.91a7,7,0,0,0,1.45,4.59,88.23,88.23,0,0,1,11.47,22.3c2.67,7.31,5.3,14.64,7.59,22.07,1.76,5.73,3.07,11.62,4.4,17.47,1.07,4.71,1.85,9.49,2.82,14.22,1.18,5.77-.47,10.32-5.79,12.89a48.68,48.68,0,0,1-12.6,3.93,131.2,131.2,0,0,1-18.54,2c-8,.26-16,.16-24-.34-6.68-.43-13.31-1.75-20-2.44a4.59,4.59,0,0,0-3.59,1.54,188.83,188.83,0,0,0-10.74,16.22c-1.16,2.05-.78,5-1,7.55-.47,5.22-.68,10.47-1.37,15.66a56.61,56.61,0,0,1-2.34,9.15c-2.16,7-2,14.21-1.62,21.45a138.16,138.16,0,0,1-.09,18.65c-.35,3.94-2.06,7.76-3.25,11.61-.72,2.33-1.24,4.85-2.52,6.86a32.31,32.31,0,0,1-6.09,7c-2.71,2.31-3.73,6.46-1.25,9.08,3.7,3.92,7.76,7.5,11.52,11.36a48.58,48.58,0,0,1,3.65,4.92c.62.82,1.31,2.22,2,2.25,5.55.24,8.59,4.32,11.76,7.8,9.57,10.52,18.84,21.3,26.16,33.59a11.25,11.25,0,0,1,1.49,7.91,7.14,7.14,0,0,0,1.11,4.82c3.87,5.28,7.56,10.58,8.91,17.16a4.43,4.43,0,0,0,1.07,1.7c2.66,3.26,5.43,6.43,8,9.76,2.93,3.83,6.08,7.56,8.41,11.74,4.75,8.5,5.51,17.79,4,27.29a4.23,4.23,0,0,1-1.55,2.24c-.91.75-2.84,1.14-2.93,1.86a15.44,15.44,0,0,0,.33,6.91c.6,1.7,1.22,2.82.08,4.54-.55.82-.31,2.29-.19,3.43,1.17,10.4,2.69,20.77,3.51,31.2,1.25,15.87,2,31.78,3,47.67a16.66,16.66,0,0,0,2.8,8.52c2,3,2.7,6.86,4.17,10.26,2,4.56,4.76,5.34,9.21,2.82a7.92,7.92,0,0,1,7.76-.38l-2,2.49c.9.36,1.65.7,2.42,1a4.3,4.3,0,0,1,2.2,1.26,22.22,22.22,0,0,1-2.88.49c-2.57.11-5.16,0-7.71.22-2.94.29-3.66,2.1-1.92,4.53a13.57,13.57,0,0,0,2.31,2.69c5,4.13,9.31,9.21,15.57,11.64.09,0,.21.07.26.14,4.89,6.38,12.46,5.88,19.2,7.7,3,.8,5.64,3,8.27,4.76a3.58,3.58,0,0,1,.87,5.07c-1.19,1.88-1.1,5.08-4.74,4.85-1.05-.06-2.47,1-3.2,1.92-1.18,1.5-2.22,1.72-4.05,1.19-3.77-1.09-7.5-1.29-10.67,1.87a3.34,3.34,0,0,1-2.9.65c-4.29-1.64-8.31-1.94-12.22,1-.53.4-2.44.09-2.66-.37-1.8-3.95-5.79-4.56-9.08-6.16a26.14,26.14,0,0,0-5.92-1.86c-5.3-1.13-10.59-2.43-16-3-2.32-.26-4.91.83-7.21,1.72-2.51,1-4.72,1.51-6.74-.8a3.38,3.38,0,0,0-4.47-1c-3.52,1.72-7,.26-7.45-3.66a63.25,63.25,0,0,1-.27-14.74c.74-6,2.49-12,3.83-17.92.12-.56.31-1.33.71-1.55,3.27-1.81,3.26-5,3.42-8a29.6,29.6,0,0,0-1.76-13.09c-1.28-3.12-1.1-6.83-2.25-10-2.23-6.2-5.13-12.16-7.39-18.36-2-5.44-3.62-11-5.14-16.63a82,82,0,0,1-2.07-29.73c.55-5.66,1.25-11.31,2-17,.56-4.1-1.16-7.59-2.93-11-2-3.81-4.14-7.45-8-10-2.63-1.72-4.18-5-6.61-7.16a159.5,159.5,0,0,0-13.06-10.57C274,376.92,263.52,370,253.39,362.7c-9.57-6.93-17.54-15.56-25-24.67-2.8-3.43-3.57-3.25-6.3.12-4.65,5.76-9.65,11.27-13.92,17.29-4.14,5.85-7.37,12.34-11.35,18.31a61.27,61.27,0,0,1-9.08,11.17,26.19,26.19,0,0,0-5.2,7.36c-2.05,3.8-4.22,7.56-6,11.5s-3,8.37-4.7,12.44a46.19,46.19,0,0,1-4.26,7.65c-2.19,3.27-4.61,6.38-7,9.49A41.19,41.19,0,0,1,141.72,447a7.59,7.59,0,0,1-5.23,0c-3.7-1.74-6.49-.08-9.32,1.72-20.09,12.69-37.54,28.49-53.81,45.68-4.68,4.95-9.21,10.06-13.72,15.17-2.55,2.89-4.18,6-3.41,10.25.27,1.5-.7,3.62-1.77,4.9-2.85,3.39-6.18,6.37-9.12,9.69-4.61,5.24-7.54,11.23-8,18.36-.27,4.8-1.27,9.41-4.81,13.06a3.07,3.07,0,0,0-.87,1.5c-1,7.23-6.34,9.57-12.45,10.7-6.85,1.27-12.74-.79-16.24-7a25.66,25.66,0,0,1-2.85-10c-.84-9.07,1.51-17.5,5.49-25.7,3.56-7.33,6.41-15,9.49-22.58,1.74-4.28,3.2-8.69,5-13a10.31,10.31,0,0,1,7-5.93,56.43,56.43,0,0,1,10.74-1.79c2.39-.18,3.88-.79,5.28-2.91,3.41-5.15,7.38-9.92,10.82-15.05,3.13-4.67,5.7-9.7,8.77-14.4,8.63-13.19,18.14-25.65,31-35.14,2.21-1.63,4.67-2.93,7-4.39,5.71-3.56,11.62-6.84,17-10.81,2.76-2,4.49-5.39,6.91-7.94a9.78,9.78,0,0,0,2.93-8,3.58,3.58,0,0,1,.7-2.46c6.07-6.79,8.25-15.4,11-23.68,3.11-9.44,5.5-19.12,8.46-28.61,1.34-4.27,3.51-8.27,4.91-12.52.62-1.86.26-4,.38-6.06.15-2.4.3-4.8.53-7.19s.94-4.9.78-7.31a21.6,21.6,0,0,1,2.48-12.29,5,5,0,0,0,.58-1.37c1-5,2.09-10,3-15,.58-3.15,1-6.34,1.44-9.51a.77.77,0,0,1,.27-.51c5.32-2.65,4-10.17,9.37-12.88.49-.25.46-2.64-.08-3.62-2.11-3.83-1.91-7.12.3-11.05,2.11-3.75,3.85-7.61,3.05-12.74-.85-5.5-1.42-10.76-4-15.84-1.23-2.43-.8-5.65-1.67-8.35-1-3-2.67-5.86-3.83-8.86-.67-1.72-.81-3.62-1.35-5.39a65,65,0,0,0-2.9-8.21c-.44-1-1.92-1.61-3.07-2-6.75-2.58-13.14-1.22-19.11,2.33-9.41,5.61-19.66,8-30.47,8.61-2.58.15-5,.51-7.3,2.52-1.81,1.57-4.91,1.8-7.5,2.3a126.67,126.67,0,0,1-15.16,2.48,14.65,14.65,0,0,1-15.13-10.35c-3-9.6-6.17-19.25-5.1-29.55A81,81,0,0,1,60,146.19,9.93,9.93,0,0,0,58.35,138q-5.85-8.67-11.93-17.19a8.34,8.34,0,0,0-3-2.72A42.22,42.22,0,0,1,24.26,99.83c-3.53-6.43-2-12.55,4.78-18.73,10-9.2,21.92-12,35.11-10.8,13.93,1.26,25,7.38,32.76,19.12a25.31,25.31,0,0,1,3.85,9.5c.35,2.11-.77,4.92-2.12,6.78a69.78,69.78,0,0,0-8.16,15c-1.4,3.48-3.89,6.64-6.33,9.58-3.92,4.71-3.47,9.77-2,15.08.74,2.75,1.31,5.56,2.23,8.24A58.32,58.32,0,0,0,87.88,162c.88,1.69,2.42,1.92,4.27.74,4.32-2.75,8.73-5.36,13.19-7.87a5.9,5.9,0,0,0,3.5-5.56c.29-8.8,1.12-17.53,4.75-25.75,1.17-2.65,1.44-5.72,2.71-8.3a9.73,9.73,0,0,1,6.92-5.56,1.79,1.79,0,0,0,1.06-.5c3.84-5,9.86-3.78,14.91-5.23,9.08-2.61,18.22-5,27.39-7.28a17.65,17.65,0,0,1,6.28-.14c3,.37,6,1.31,9,1.65a10.32,10.32,0,0,0,9.93-4.77c1.16-1.74.91-4.73.53-7-.12-.73-2.72-1.22-4.24-1.48s-3.37,0-5-.27c-3.21-.51-5.95-2.41-6.22-5.53-.44-5.17-3.71-8.81-5.75-13.11-4.69-9.84-8.17-20.1-6.43-31.08,2-12.27,9-21.5,19.62-27.9A49.66,49.66,0,0,1,214.41.17c10.52.79,18.51,6.26,25.22,13.88,1.91,2.18,3.13,5,4.73,7.42a7.38,7.38,0,0,0,2,2.42c2.21,1.32,4.56,2.41,6.87,3.56,2,1,1.51,2.49.36,3.57a65.56,65.56,0,0,1-5.61,4.3c-2.59,1.92-2.78,4-.23,6a92.44,92.44,0,0,0,8.44,6c2.5,1.58,3.26,3.29,1.09,5.85l.38.75a26.25,26.25,0,0,0,4.09-.68c2.88-1,5.67-2.17,8.54-3.17,2.15-.76,3.56.19,4.52,2.18,1.28,2.67,3.13,5.18,1.79,9-.89-1.77-1.52-3-2.23-4.43-3.14,1.91-.35,4.85-2,7.46-.47-1.32-.85-2.2-1.09-3.11-.54-2-1.78-2.64-3.78-2.15s-3.83.77-5.74,1.15a22,22,0,0,0,3.59-2,16.42,16.42,0,0,0,2.28-3c-1-.47-2.06-1.48-2.88-1.3a35.06,35.06,0,0,0-6.86,2.45c-.54.24-.91,1.5-.82,2.24.06.53.92,1.24,1.54,1.39A15.86,15.86,0,0,0,261.86,60.17Zm1.21,19.22v.86h5.84v-.86Zm9-23.62.9-.53c-.21-.87-.16-2.14-.71-2.5s-1.84-.1-2.79-.1l-.27.74ZM244.93,32.35c3.69,2.22,4.07-.28,4.68-2.41Z"/></g></g></svg>