<svg xmlns="http://www.w3.org/2000/svg" viewBox="0 0 175.87 31.94"><defs><style>.cls-1{fill:#dd8524;}</style></defs><g id="Capa_2" data-name="Capa 2"><g id="Capa_1-2" data-name="Capa 1"><g id="_4aacb9ff-6f60-49aa-8494-09fb5c3e053e" data-name="4aacb9ff-6f60-49aa-8494-09fb5c3e053e"><g id="_436664e4-1ed4-4ef5-8fcb-bef6e40e4226" data-name="436664e4-1ed4-4ef5-8fcb-bef6e40e4226"><path class="cls-1" d="M175.87,24.73H152.1v-.8h23.77ZM164,20.22l2.25-2.17.89.88-2.42,2c-.16.24-.32.64-.48.88H162.5A3,3,0,0,1,164,20.22ZM156.45,6.53c-.08,0-1.85.48-1.85.48a11,11,0,0,0-1.21.56c-.4.24-.8.65-.8.89l1.61.4a6.12,6.12,0,0,1,.72-.72l.41-.16,1.28-1.37c.09-.08.09-.16-.2-.08Zm10.88,4.35a36.91,36.91,0,0,1-2.74-3.39,9.63,9.63,0,0,0,.64-4.75,11.78,11.78,0,0,0-1.12-1.69c-.16-.24-.89-1-1.21-1-.08,0-.16,0-.16.08l.08.89c-1,.64-2.26,1.45-3.31,2.25a3.17,3.17,0,0,0,.09,1,1.74,1.74,0,0,0,.56.32,20.18,20.18,0,0,1,2.17-.4l-1.37,2-1.61,1.13-1.93-.64c-.16,0-.24,0-.32.08l-1.45,1.53a.4.4,0,0,0-.16.32l-.08,1.69v.57a2.93,2.93,0,0,0,.56,1.85l.89-1.37a3.45,3.45,0,0,1-.41-1V8.86l.89-.64,2.42,1.69a11.81,11.81,0,0,0,1.29,1.93,22.38,22.38,0,0,0,3.46,2.5,9.87,9.87,0,0,0,.48,1.85l2.9,3-1.69,2.18a2.13,2.13,0,0,0-1.13,1.77h2l.24-1.13,2.42-2.65c.16-.17.16-.25.08-.41l-.65-2.25a4.31,4.31,0,0,0,1-2.5c0-2.18-2.18-2.74-2.9-3.34ZM171,14.42a9.35,9.35,0,0,0-.56-1.53s.08-.08.32,0a15,15,0,0,1,1.45,1c.65.88,1.05,4.75,1.05,6.12a6.9,6.9,0,0,1-1.93-1.21Z"/><path class="cls-1" d="M109.24,13.53c0-1.45-.48-2.57-1.69-2.57s-1.77,1.12-1.77,2.57v9.59h1.45v1.53H99.09V23.12h1.53V9.91H99.09V8.42h6.37v2.5h.08a4.64,4.64,0,0,1,4.27-2.82,4.09,4.09,0,0,1,4.27,3.38,17,17,0,0,1,.24,2.66v9h1.93v1.53h-7.09l.08-11.2m-32.95,0c0-1.45-.48-2.57-1.69-2.57S72.83,12,72.83,13.49v9.59h1.45v1.53H66.14V23.08h1.53V9.91H66.14V8.42h6.37v2.5h.08A4.64,4.64,0,0,1,76.86,8.1a4.09,4.09,0,0,1,4.27,3.38,17,17,0,0,1,.24,2.66v9H83.3v1.53H76.21Zm47-3.62v12a1,1,0,0,0,.88,1.05h.17a3.58,3.58,0,0,0,1-.16v1.45a6,6,0,0,1-3.15.64c-2.49,0-4-1.2-4-3.86V9.91h-1.7V8.86c1.94-1.53,4.19-3.3,6-4.75h1V8.42h2.46V9.87ZM21.67,0s3.95,4,5.72,6V7.49A12.61,12.61,0,0,0,19,4.19C11.68,4.19,7.09,9.75,7.09,16.6S11.44,28.92,19,28.92a11.53,11.53,0,0,0,8.46-3.58v1.45c-2.25,3.14-6.44,5.15-11.68,5.15C6.45,32,0,25.26,0,16.64A15.58,15.58,0,0,1,15.69,1.17h.1a18.62,18.62,0,0,1,5.88,1Zm75,20.38a4.32,4.32,0,0,1-3.55,1.53c-1.45,0-3.79-.8-3.87-4.59H98c0-.32.09-.89.09-1.21,0-4.59-1.86-8-6.77-8s-7.41,3.78-7.41,8.46S86.36,25,91.28,25a6.65,6.65,0,0,0,6.36-3.78Zm-7.5-4.67c0-4.27.33-5.88,1.78-5.88s1.77,1.53,1.85,5.88Zm-71.78.81c0-5,.48-7.17,2.18-7.17s2.17,2.17,2.17,7.17-.48,7.17-2.17,7.17-2.18-2.18-2.18-7.17m-6,.08c0,4.91,3,8.94,8.22,8.94s8.21-4,8.21-8.94-3-9-8.21-9-8.22,4-8.22,9m27.87-3.07c0-1.45-.48-2.57-1.69-2.57S35.77,12,35.77,13.49v9.59h1.41v1.53h-8.1V23.08h1.53V9.91H29.08V8.42h6.37v2.5h.08A4.64,4.64,0,0,1,39.8,8.1a4.08,4.08,0,0,1,4.27,3.38,15.85,15.85,0,0,1,.24,2.66v9h1.93v1.53H39.15V13.53ZM57.68,4.07c0,1.45,1.29,2.42,3.15,2.42S64,5.52,64,4.07s-1.29-2.42-3.14-2.42S57.68,2.7,57.68,4.07m-4.43,5.8v12a1,1,0,0,0,.88,1.05h.17a3.58,3.58,0,0,0,1-.16v1.45a6,6,0,0,1-3.15.64c-2.49,0-4-1.2-4-3.86V9.91H46.4V8.86c1.94-1.53,4.19-3.3,6-4.75h.92V8.42h2V9.87Zm95.07,13.29h2v1.53h-7.17V4h-1.77V2.42h7V23.2Zm-13.78-6.52a1.53,1.53,0,0,0-1.13-.33c-1.53,0-1.85,1.53-1.85,3.07s.48,2.73,1.77,2.73a1.39,1.39,0,0,0,1.21-.48Zm.16,6.12h0A5,5,0,0,1,130.43,25c-2.66,0-4.27-2.25-4.27-5,0-3.22,2.34-5.32,6-5.32a6.6,6.6,0,0,1,2.34.33V14A2.75,2.75,0,0,0,132,11a1.85,1.85,0,0,0-.47,0,4.53,4.53,0,0,0-3.71,1.93L127,11.8a7.71,7.71,0,0,1,6.44-3.7c4,0,6.29,2.33,6.29,5.88v9.18h1.69v1.53h-6.61l-.08-1.93ZM56.8,24.69V23.16h1.45V9.91H56.8V8.42h6.6V23.16h1.53v1.53Z"/></g></g></g></g></svg>