<svg xmlns="http://www.w3.org/2000/svg" viewBox="0 0 181.29 28.39"><defs><style>.cls-1{fill:#2a2a29;fill-rule:evenodd;}</style></defs><g id="Capa_2" data-name="Capa 2"><g id="Capa_1-2" data-name="Capa 1"><polygon class="cls-1" points="18 0 0 0 0 5.4 6.09 5.4 6.09 23.26 12.19 23.26 12.19 5.4 18 5.4 18 0 18 0"/><path class="cls-1" d="M35,5.4H29.36V15c0,3.18-1.8,4-3.05,4-1.8,0-2.77-.83-2.77-3.18V5.4H18V16.06c0,4.71,1.39,7.62,6.37,7.62a6.06,6.06,0,0,0,5.13-2.91h.13v2.49H35V5.4Z"/><path class="cls-1" d="M45.84,9.28c2.49,0,3.32,2.63,3.32,4.85s-.83,5.12-3.32,5.12-3.33-2.08-3.33-5.12c0-3.74,1.8-4.85,3.33-4.85ZM37.11,28.39h5.54V21.33h0a6,6,0,0,0,5,2.35c4.84,0,7.2-4.29,7.2-9,0-5-2.36-9.83-7.62-9.83a5.24,5.24,0,0,0-4.71,2.63h-.14V5.4H37.11v23Z"/><path class="cls-1" d="M64.81,9.28c2.49,0,3.32,2.63,3.32,4.85s-.83,5.12-3.32,5.12-3.46-2.08-3.46-5.12c0-3.74,1.94-4.85,3.46-4.85ZM56,28.39h5.67V21.33h0a5.74,5.74,0,0,0,4.85,2.35c4.85,0,7.2-4.29,7.2-9,0-5-2.21-9.83-7.62-9.83a5.56,5.56,0,0,0-4.7,2.63h0V5.4H56v23Z"/><path class="cls-1" d="M80.32,12.46c.28-2.21,1.66-3.6,3.6-3.6a3.43,3.43,0,0,1,3.32,3.6Zm12.6,3.33c.28-6.1-2.91-10.94-9-10.94a9.19,9.19,0,0,0-9.14,9.41c0,6,3.74,9.42,9.28,9.42,3.87,0,7.48-1.8,8.58-5.82H87.38A3.51,3.51,0,0,1,84.2,19.8c-2.36,0-3.74-1.66-3.88-4Z"/><path class="cls-1" d="M94.17,23.26h5.54V14.68a3.92,3.92,0,0,1,4.15-4.16h1.66V5.26a1.72,1.72,0,0,0-.83-.14,5.07,5.07,0,0,0-5.12,3.47h0V5.4h-5.4V23.26Z"/><polygon class="cls-1" points="133.77 5.4 127.96 5.4 125.19 16.89 125.19 16.89 122.69 5.4 117.29 5.4 114.94 16.89 114.8 16.89 112.03 5.4 106.35 5.4 111.61 23.26 117.29 23.26 119.92 11.36 120.06 11.36 122.69 23.26 128.37 23.26 133.77 5.4 133.77 5.4"/><path class="cls-1" d="M138.34,18.14c0-1.52,1.11-2.08,2.36-2.35a11.63,11.63,0,0,0,3.46-1c.14,3.74-.83,5.26-3.46,5.26-1.25,0-2.36-.55-2.36-1.94Zm.42-7.2a2.5,2.5,0,0,1,2.77-2.22c1.1,0,2.63.42,2.63,1.8,0,1.11-.42,1.39-1.39,1.67-3.87.83-10,.27-10,6.09,0,3.74,2.5,5.4,5.82,5.4a7.39,7.39,0,0,0,5.68-2.22v1.8h5.26V10.8c0-5-3.88-6-8-6a11.49,11.49,0,0,0-5.4,1.24,5.73,5.73,0,0,0-2.64,4.85Z"/><path class="cls-1" d="M168.67,12.46c.41-2.21,1.66-3.6,3.74-3.6a3.62,3.62,0,0,1,3.32,3.6Zm12.6,3.33c.28-6.1-2.77-10.94-8.86-10.94a9.22,9.22,0,0,0-9.28,9.41c0,6,3.74,9.42,9.42,9.42,3.74,0,7.47-1.8,8.44-5.82h-5.26a3.37,3.37,0,0,1-3.18,1.94c-2.36,0-3.74-1.66-3.88-4Z"/><path class="cls-1" d="M154.33,23.26h4.24V14.82c0-2.22,1.06-4.3,3.18-4.3h1.38V5.26a1.59,1.59,0,0,0-.74-.14c-1.81,0-3.29,1.11-3.93,3.47h0V5.4h-4.13V23.26Z"/></g></g></svg>