<svg xmlns="http://www.w3.org/2000/svg" viewBox="0 0 124.46 51.22"><defs><style>.cls-1{fill:#f25900;}</style></defs><g id="Capa_2" data-name="Capa 2"><g id="Capa_1-2" data-name="Capa 1"><g id="layer1"><g id="Layer_1"><g id="_107438880" data-name=" 107438880"><path id="_107415760" data-name=" 107415760" class="cls-1" d="M122,21.3a4.43,4.43,0,0,1-1.85-.47,59.75,59.75,0,0,0-27.15-7,27.88,27.88,0,0,0-3.09.16,101.25,101.25,0,0,0,6.8,9.27A2.25,2.25,0,0,1,97.36,25,2.36,2.36,0,0,1,95,27.07c-.8,0-1.28-.32-2-1.19a105.55,105.55,0,0,1-8-11.11c-8.77,1.55-18.55,6.73-24.33,11.31a2.63,2.63,0,0,1-1.79.75,2.34,2.34,0,0,1-2.29-2.27c0-.7.26-1.22,1.16-2C66.51,15.24,80.21,9.44,91.84,9.44a56.22,56.22,0,0,1,13.37,1.69A66.65,66.65,0,0,1,115,14.51c-8.65-5.23-19.49-10-26.35-10-1.74,0-2.81.58-2.81,1.76a5.48,5.48,0,0,0,1,2.56,31.38,31.38,0,0,0-4.55.78A8.84,8.84,0,0,1,81,5.4C81,2.06,83.21,0,87.59,0c9.94,0,26.64,9.26,35,16,1,.77,1.89,1.74,1.89,2.86A2.49,2.49,0,0,1,122,21.3Z"/><path id="_107412376" data-name=" 107412376" d="M14,41a.88.88,0,0,1,.92-1,.87.87,0,0,1,.9,1v1a3.35,3.35,0,0,1,2.52-2,.82.82,0,0,1,.92.85c0,.47-.26.82-1.06,1a2.86,2.86,0,0,0-2.38,3.16v5.15a.87.87,0,0,1-.9,1,.88.88,0,0,1-.92-1Zm40.76,0a.88.88,0,0,1,.92-1,.87.87,0,0,1,.9,1v1a3.35,3.35,0,0,1,2.52-2,.82.82,0,0,1,.92.85c0,.47-.26.82-1.06,1a2.86,2.86,0,0,0-2.38,3.16v5.15a.87.87,0,0,1-.9,1,.88.88,0,0,1-.92-1ZM24.4,40c1.77,0,2.92.71,2.92,1.35a.75.75,0,0,1-.72.77c-.66,0-1-.53-2.2-.53-2.06,0-3.12,1.84-3.12,4,0,2.34,1.19,4,3.12,4,1.34,0,1.64-.55,2.27-.55a.63.63,0,0,1,.66.7c0,.41-.34.75-.95,1a4.85,4.85,0,0,1-2,.41c-3.09,0-4.95-2.33-4.95-5.59S21.32,40,24.4,40ZM30,46.33a3.15,3.15,0,0,0,3.22,3.3c2.14,0,2.65-1.19,3.42-1.19a.71.71,0,0,1,.74.75c0,.88-2,2-4.14,2a4.69,4.69,0,0,1-3.55-1.35,6,6,0,0,1-1.52-4.24c0-3,1.85-5.59,4.91-5.59,2.85,0,4.69,2.51,4.69,5.32,0,.64-.25,1-1,1Zm6-1.36c0-1.56-.89-3.34-2.89-3.34S30.05,43.16,30,45Zm5.54,5.28a.91.91,0,1,1-1.82,0V37.31a.91.91,0,1,1,1.82,0Zm6.62,1c-2.9,0-4.82-2.3-4.82-5.59S45.2,40,48.1,40s4.81,2.3,4.81,5.59S51,51.22,48.1,51.22Zm0-1.59c1.77,0,3-1.54,3-4s-1.21-4-3-4-3,1.54-3,4S46.32,49.63,48.1,49.63Zm24.5-8.84c-1,3.49-2.68,9.22-2.82,9.69a.91.91,0,0,1-1,.74.89.89,0,0,1-1-.74C67.71,50,66,44,65,40.54c-.16-.57-.32-1.24-.43-1.81-.07.55-.16,1.21-.26,1.81-.52,3.26-1.32,8.34-1.55,9.77-.1.64-.42.91-.95.91a.79.79,0,0,1-.81-.87,5.39,5.39,0,0,1,.1-.82l2-11.81c.16-.9.62-1.38,1.38-1.38a1.44,1.44,0,0,1,1.42,1.15c.13.46,1.6,5.61,2.54,8.87.17.6.34,1.31.47,2,.13-.63.29-1.3.46-1.89l2.56-8.93a1.38,1.38,0,0,1,1.36-1.15c.72,0,1.24.47,1.38,1.38l2,11.81a5.39,5.39,0,0,1,.1.82.78.78,0,0,1-.81.87c-.53,0-.85-.27-1-.91-.21-1.39-1-6.22-1.5-9.48-.11-.67-.2-1.42-.28-2.12C73,39.32,72.81,40.06,72.6,40.79Zm7.27-3.95a1.11,1.11,0,1,1,0,2.22,1.11,1.11,0,1,1,0-2.22ZM80.78,41A.91.91,0,1,0,79,41v9.24a.91.91,0,1,0,1.82,0Zm3.16-3.21a.91.91,0,1,1,1.82,0v2.37h.74c.6,0,.91.29.91.78s-.31.79-.91.79h-.74v8.51a.91.91,0,1,1-1.82,0V41.74h-.65c-.6,0-.91-.3-.91-.79s.31-.78.91-.78h.65Zm5.74,0a.91.91,0,1,1,1.82,0v2.37h.74c.59,0,.9.29.9.78s-.31.79-.9.79H91.5v8.51a.91.91,0,1,1-1.82,0V41.74H89c-.6,0-.91-.3-.91-.79s.31-.78.91-.78h.66ZM12,49.55l-4.49-12c-.28-.74-.7-1.17-1.4-1.17s-1.1.43-1.38,1.17-4.12,11-4.51,12a2.94,2.94,0,0,0-.23.88.82.82,0,0,0,.86.79.91.91,0,0,0,.92-.68c.1-.26.6-1.67,1.24-3.46h6.2l1.23,3.46a.9.9,0,0,0,.89.68.83.83,0,0,0,.91-.76A2.68,2.68,0,0,0,12,49.55ZM3.59,45.47c.76-2.11,1.58-4.42,2.13-6,.16-.43.29-.84.4-1.18.11.37.25.79.39,1.18.55,1.54,1.38,3.85,2.13,6ZM108,50.25a.91.91,0,1,1-1.82,0V37.31a.91.91,0,1,1,1.82,0ZM102.69,40a.88.88,0,0,0-.91,1v.81A3.55,3.55,0,0,0,98.67,40C95.9,40,94,42.34,94,45.63s1.9,5.59,4.67,5.59a3.54,3.54,0,0,0,3.11-1.79v.82a.91.91,0,1,0,1.82,0V41A.87.87,0,0,0,102.69,40Zm-3.88,9.6c-1.77,0-3-1.55-3-4s1.21-4,3-4,3,1.55,3,4S100.59,49.64,98.81,49.64Z"/></g></g></g></g></g></svg>