<svg xmlns="http://www.w3.org/2000/svg" viewBox="0 0 202.52 48.02"><defs><style>.cls-1{fill:#1d1d1b;}.cls-2{fill:#ee7d00;}</style></defs><g id="Capa_2" data-name="Capa 2"><g id="Capa_1-2" data-name="Capa 1"><path class="cls-1" d="M30.16,33.62H18.5V48h3.67V43.15h8.21a1.91,1.91,0,0,0,2-2V35.75A2.15,2.15,0,0,0,30.16,33.62ZM29,40.19H22.17V36.47H29Z"/><path class="cls-1" d="M166.71,33.62h-4.88L155.76,48h3.56l1.31-3.13h7.12L169.07,48h3.77Zm-4.93,8.49,2.36-5.59,2.35,5.59Z"/><polygon class="cls-1" points="117.55 48.02 120.23 48.02 124.01 39.91 124.01 48.02 127.35 48.02 127.35 33.62 123.35 33.62 118.91 44.08 114.48 33.62 110.37 33.62 110.37 48.02 113.77 48.02 113.77 39.91 117.55 48.02"/><polygon class="cls-1" points="42.05 48.02 44.73 48.02 48.51 39.91 48.51 48.02 51.9 48.02 51.9 33.62 47.9 33.62 43.41 44.08 38.98 33.62 34.87 33.62 34.87 48.02 38.27 48.02 38.27 39.91 42.05 48.02"/><polygon class="cls-1" points="91.05 33.62 91.05 36.58 81.3 36.58 81.3 39.53 89.46 39.53 89.46 42.38 81.36 42.38 81.36 45.06 91.05 45.06 91.05 48.02 77.74 48.02 77.74 33.62 91.05 33.62"/><path class="cls-1" d="M11,33.62H6.13L0,48H3.55l1.32-3.13H12L13.3,48h3.78ZM6.08,42.11l2.35-5.59,2.35,5.59Z"/><polygon class="cls-1" points="178.26 33.62 174.6 33.62 174.6 48.02 187.46 48.02 187.46 45.01 178.26 45.01 178.26 33.62"/><polygon class="cls-1" points="138.57 33.62 138.57 48.02 142.18 48.02 142.18 38.05 149.9 48.02 153.9 48.02 153.9 33.62 150.23 33.62 150.23 43.53 142.68 33.62 138.57 33.62"/><rect class="cls-1" x="131.18" y="33.62" width="3.56" height="14.4"/><polygon class="cls-1" points="60.99 33.62 60.99 36.69 66.63 36.69 66.63 48.02 70.41 48.02 70.41 36.69 76.05 36.69 76.05 33.62 60.99 33.62"/><path class="cls-1" d="M190.8,33.62a2.07,2.07,0,0,0-2,1.92v4.7a2,2,0,0,0,2,2.08h8.1v2.8h-6.41V44h-3.77v2a2.14,2.14,0,0,0,2,2.08h9.86a2,2,0,0,0,2-2.14V41.39a2.08,2.08,0,0,0-2-2.13h-7.94V36.58h6.25v.93h3.55V35.59a2,2,0,0,0-2-2Z"/><path class="cls-1" d="M104.84,42.76h.33a2.06,2.06,0,0,0,1.92-2.13V35.75a2.15,2.15,0,0,0-2.19-2.13H93.45V48H97V42.76h4L103.86,48h3.83Zm-1-2.9H97V36.57h6.84Z"/><path class="cls-2" d="M126.64,14.51v7.72h1.25V14.51Zm-47.8,2v5.75h1.25V16.53Zm0-2.08v1.37h1.25V14.45ZM45.49,16.32v1.52L73.85,3.89V0Zm23-7.45v2.19L85,4.54V.65ZM39.8,22.94v1.21l18.4-8V13.85Zm116.62-1.59a1.1,1.1,0,0,1-1-.55,2.11,2.11,0,0,1-.33-1.31h3.89c.05-1.65-.71-3.12-2.58-3.12a2.7,2.7,0,0,0-2.68,3,2.68,2.68,0,0,0,2.63,3,2.44,2.44,0,0,0,2.51-1.76l-1.15-.16A1.17,1.17,0,0,1,156.42,21.35Zm-1.15-3.45a1.18,1.18,0,0,1,1-.54,1.1,1.1,0,0,1,1,.48,1.53,1.53,0,0,1,.28.88H155A1.59,1.59,0,0,1,155.27,17.9Zm-4.05-3.45v2.8a1.54,1.54,0,0,0-1.53-1c-1.76,0-2.25,1.92-2.25,3,0,.6.16,3.07,2.13,3.07a1.77,1.77,0,0,0,1.7-1.26v1.15l1.2-.05V14.45Zm0,5.37A1.34,1.34,0,0,1,150,21.3c-1.2,0-1.2-1.54-1.2-1.92s.06-2,1.2-2a1.15,1.15,0,0,1,.88.43,1.38,1.38,0,0,1,.33,1Zm-4.93,1.26h.11V18.5a1.82,1.82,0,0,0-.6-1.7,2.73,2.73,0,0,0-1.75-.43c-1.15,0-2.36.33-2.58,1.65l1.1.16c.06-.28.16-.88,1.31-.88.54,0,1.21.16,1.21.88v.43c-1.26,0-3.84.06-3.84,2a1.73,1.73,0,0,0,1.86,1.76A1.88,1.88,0,0,0,145,21.08a4.67,4.67,0,0,0,.22,1.15h1.2A4.25,4.25,0,0,1,146.29,21.08ZM145,19.82a1.44,1.44,0,0,1-1.49,1.53.88.88,0,0,1-1-.87,1,1,0,0,1,.93-1,7.93,7.93,0,0,1,1.54-.16Zm-6.35-1.92V16.53h-1.15v5.65h1.26V19.87a2.71,2.71,0,0,1,.43-1.69,1.56,1.56,0,0,1,1.2-.44V16.37C139.17,16.32,138.79,17.46,138.63,17.9Zm-7.17-3.45v1.21h2v6.57H135V15.66h2V14.45Zm-6.58,6.63L125,18.5a1.82,1.82,0,0,0-.6-1.7,2.73,2.73,0,0,0-1.75-.43c-1.15,0-2.35.33-2.58,1.65l1.09.16c.07-.28.18-.88,1.32-.88.55,0,1.21.16,1.21.88v.43c-1.26,0-3.84.06-3.84,2a1.73,1.73,0,0,0,1.87,1.76,1.87,1.87,0,0,0,1.91-1.26,4.67,4.67,0,0,0,.22,1.15H125A4.25,4.25,0,0,1,124.88,21.08Zm-1.31-1.26a1.44,1.44,0,0,1-1.48,1.53.88.88,0,0,1-1-.87,1,1,0,0,1,.93-1,7.93,7.93,0,0,1,1.54-.16Zm-6.85-3.56a1.66,1.66,0,0,0-1.58,1V14.51h-1.27v7.72h.61l.33-.93a1.83,1.83,0,0,0,1.75,1,1.93,1.93,0,0,0,1.7-.82,3.63,3.63,0,0,0,.65-2.25C118.91,17.14,117.82,16.26,116.72,16.26Zm-.38,5c-.66,0-1.2-.39-1.2-1.48v-.88c0-1.2.65-1.58,1.2-1.58,1.1,0,1.21,1.25,1.21,1.86S117.55,21.3,116.34,21.3Zm-6.29-4.93a2.72,2.72,0,0,0-2.69,3,2.74,2.74,0,0,0,2.63,3,2.71,2.71,0,0,0,2.68-3A2.71,2.71,0,0,0,110.05,16.37ZM110,21.3c-1.26,0-1.26-1.65-1.26-1.92,0-.88.28-1.92,1.32-1.92s1.26.88,1.26,1.87C111.31,19.92,111.2,21.3,110,21.3Zm-5.15-6.79v7.72h1.27V14.51Zm-4.6,3.72v1.15h1.6a1.66,1.66,0,0,1-1.65,1.81c-1.54,0-1.86-1.59-1.86-3a3,3,0,0,1,.55-2.08,1.53,1.53,0,0,1,1.31-.66,1.63,1.63,0,0,1,1.65,1.42l1.2-.21a3.68,3.68,0,0,0-.66-1.37,2.63,2.63,0,0,0-2.19-1c-2.46,0-3.28,2.3-3.28,4,0,.88.27,4,3.12,4a2.26,2.26,0,0,0,2.08-1.15l.43,1h.61v-4Zm-8.81,2.52H90c-.77,0-.93-.33-.93-.55s.22-.44.38-.55a3.48,3.48,0,0,0,1,.17c1.38,0,2.31-.71,2.31-1.75a1.52,1.52,0,0,0-.66-1.21.76.76,0,0,1,.82-.44h.38l.11-1H93a1.83,1.83,0,0,0-.93.22,1.12,1.12,0,0,0-.55.82,6.17,6.17,0,0,0-1.1-.1c-2,0-2.35,1.14-2.35,1.75a1.51,1.51,0,0,0,.82,1.31,1.4,1.4,0,0,0-.93,1.2,1.26,1.26,0,0,0,.54.94,1.19,1.19,0,0,0-.81,1.14c0,1.21,1.26,1.54,2.73,1.54,2.42,0,3-1.16,3-1.86S92.86,20.75,91.43,20.75Zm-1-3.56c.82,0,1,.6,1,.88a.78.78,0,0,1-.32.76,1.06,1.06,0,0,1-.72.23.94.94,0,0,1-1-.94A1,1,0,0,1,90.39,17.19Zm.22,6.19a3.55,3.55,0,0,1-1.1-.11.89.89,0,0,1-.76-.93.58.58,0,0,1,.27-.5,3.72,3.72,0,0,0,1.37.16h.87c.39,0,.83.23.83.61C92.09,23.27,91.16,23.38,90.61,23.38Zm-6-7c-1,0-1.48.94-1.7,1.42V16.53H81.79l.06,5.75h1.26V19.6c0-2,1-2,1.25-2s.88.06.88,1.37v3.34h1.2v-3.4C86.44,18.12,86.5,16.42,84.64,16.42Zm-7.39,4.82c-.66,0-.94-.16-.94-.93V17.52h1.16v-1H76.31V14.94l-1,.12-.1,1.47h-.76v1h.7v3a1.9,1.9,0,0,0,.39,1.42,1.67,1.67,0,0,0,1.2.44,6.21,6.21,0,0,0,.88-.11v-1Zm-3.83-5.86h.33v-1a2.79,2.79,0,0,0-1.81.27,1.91,1.91,0,0,0-.72,1.86h-.81v1h.81v4.71h1.27V17.52h1.26v-1H72.49C72.49,15.71,72.49,15.38,73.42,15.38Zm-5.59,1.15v5.75h1.26V16.53Zm0-2.08v1.37h1.26V14.45ZM63.34,21V14.51H61.86v7.72h4.77V21Zm98.88.28-.33,1.37-.33-1.37h-.48v2.3h.27V21.73l.43,1.81H162l.44-1.81v1.81h.32v-2.3Zm-2.52.06v.38h.44v1.86h.38V21.68H161V21.3Z"/></g></g></svg>