<svg xmlns="http://www.w3.org/2000/svg" xmlns:xlink="http://www.w3.org/1999/xlink" viewBox="0 0 94.71 81.07"><defs><style>.cls-1{fill:url(#Degradado_sin_nombre_3);}.cls-2{fill:url(#Degradado_sin_nombre_2);}.cls-3{fill:url(#Degradado_sin_nombre_5);}.cls-4{fill:url(#Degradado_sin_nombre_5-2);}.cls-5{fill:#fff;}.cls-6{fill:url(#Degradado_sin_nombre_5-3);}.cls-7{fill:url(#Degradado_sin_nombre_6);}.cls-8{fill:#8c8c8c;}.cls-9{fill:#4d4d4d;}.cls-10{fill:#252525;}.cls-11{fill:url(#Degradado_sin_nombre_7);}</style><linearGradient id="Degradado_sin_nombre_3" x1="5781.56" y1="-2364.39" x2="5781.56" y2="-2430.41" gradientTransform="matrix(1, 0, 0, -1, -5734.21, -2363.21)" gradientUnits="userSpaceOnUse"><stop offset="0.19" stop-color="#fff"/><stop offset="0.21" stop-color="#f8f8f8"/><stop offset="0.37" stop-color="#aeaeae"/><stop offset="0.51" stop-color="#707070"/><stop offset="0.65" stop-color="#404040"/><stop offset="0.76" stop-color="#1d1d1d"/><stop offset="0.86" stop-color="#080808"/><stop offset="0.92"/></linearGradient><radialGradient id="Degradado_sin_nombre_2" cx="5754.98" cy="-2346.89" r="66.04" gradientTransform="matrix(1, 0, 0, -1, -5734.21, -2363.21)" gradientUnits="userSpaceOnUse"><stop offset="0.2" stop-color="#fff"/><stop offset="0.38" stop-color="#fdfdfd"/><stop offset="0.49" stop-color="#f4f4f4"/><stop offset="0.57" stop-color="#e6e6e6"/><stop offset="0.65" stop-color="#d2d2d2"/><stop offset="0.69" stop-color="#c4c4c4"/><stop offset="1" stop-color="#333"/></radialGradient><radialGradient id="Degradado_sin_nombre_5" cx="5914.8" cy="-2452.67" r="137.54" gradientTransform="matrix(1, 0, 0, -1, -5734.21, -2363.21)" gradientUnits="userSpaceOnUse"><stop offset="0.2" stop-color="#fff"/><stop offset="0.37" stop-color="#e4e4e4"/><stop offset="0.59" stop-color="#c4c4c4"/><stop offset="1" stop-color="#333"/></radialGradient><radialGradient id="Degradado_sin_nombre_5-2" cx="5770.84" cy="-2422.32" r="42.23" xlink:href="#Degradado_sin_nombre_5"/><radialGradient id="Degradado_sin_nombre_5-3" cx="5804.91" cy="-2465.5" r="80.12" xlink:href="#Degradado_sin_nombre_5"/><radialGradient id="Degradado_sin_nombre_6" cx="5780.93" cy="-2371.55" r="63.67" gradientTransform="matrix(1, 0, 0, -1, -5734.21, -2363.21)" gradientUnits="userSpaceOnUse"><stop offset="0.2" stop-color="#fff"/><stop offset="0.4" stop-color="#fdfdfd"/><stop offset="0.51" stop-color="#f4f4f4"/><stop offset="0.6" stop-color="#e6e6e6"/><stop offset="0.68" stop-color="#d2d2d2"/><stop offset="0.73" stop-color="#c4c4c4"/><stop offset="1" stop-color="#4d4d4d"/></radialGradient><radialGradient id="Degradado_sin_nombre_7" cx="5782.4" cy="-2377.93" r="42.88" gradientTransform="matrix(1, 0, 0, -1, -5734.21, -2363.21)" gradientUnits="userSpaceOnUse"><stop offset="0.11" stop-color="#4d4d4d"/><stop offset="0.25" stop-color="#494949"/><stop offset="0.35" stop-color="#404040"/><stop offset="0.45" stop-color="#2f2f2f"/><stop offset="0.54" stop-color="#181818"/><stop offset="0.61"/></radialGradient></defs><g id="Capa_2" data-name="Capa 2"><g id="Capa_1-2" data-name="Capa 1"><path class="cls-1" d="M91.44,30.73a26.71,26.71,0,0,0-3.88-.61c-8.53-.38-29.5-1.19-40.21-1.19s-31.68.81-40.2,1.19a26.46,26.46,0,0,0-3.88.61C.57,31.35,0,32.3,0,34.24V47.35c0,1.9,2,3.22,3.46,3.46a33.55,33.55,0,0,0,3.79.52c7.57.48,25.23,1.47,40.1,1.47s32.49-1,40.11-1.47a33.55,33.55,0,0,0,3.79-.52c1.42-.24,3.46-1.56,3.46-3.46V34.24C94.71,32.3,94.14,31.35,91.44,30.73Z"/><path class="cls-2" d="M13.26,31.25C17.43,16.72,31.16,6.06,47.5,6.06a35.42,35.42,0,0,1,34.19,25.1.19.19,0,0,0,0,.14,49.21,49.21,0,0,0,6.11-1.09.26.26,0,0,1,0-.19C83,12.69,66.77,0,47.5,0S11.89,12.79,7.15,30.12A44.59,44.59,0,0,0,13.26,31.25Z"/><path class="cls-3" d="M81.59,50.29a1.52,1.52,0,0,0-.09.33,35.46,35.46,0,0,1-34,24.44A35.4,35.4,0,0,1,13.4,50.29c-2.65.47-3.55.66-6.15,1,4.87,17.19,21,29.79,40.25,29.79S82.92,68.43,87.75,51.24C85.43,51,84.1,50.76,81.59,50.29Z"/><path class="cls-4" d="M14.16,31.21a23.26,23.26,0,0,1,3.5-1.52,32.24,32.24,0,0,1,59.72-.09.19.19,0,0,0,0,.09c.81.29,3.08,1.18,3.79,1.52h.52c0-.05,0-.1,0-.15C77.47,16.57,63.74,6,47.5,6A35.45,35.45,0,0,0,13.26,31.16,3.19,3.19,0,0,0,14.16,31.21Z"/><path class="cls-5" d="M47.26,7a35.24,35.24,0,0,1,33.9,24.1c0,.05,0,.1,0,.14h.52s0-.09,0-.14A35.42,35.42,0,0,0,47.5,6a35.45,35.45,0,0,0-34.24,25.2,5.14,5.14,0,0,0,.85-.05A35,35,0,0,1,47.26,7Z"/><path class="cls-6" d="M80.74,50.34a23.83,23.83,0,0,1-3.55,1.56c0,.05-.1.19-.1.24A32.27,32.27,0,0,1,17.81,52,21.76,21.76,0,0,1,14,50.38a2.13,2.13,0,0,1-.57,0A35.46,35.46,0,0,0,47.5,75.1c16,0,29.64-10.32,34-24.53a1.49,1.49,0,0,1,0-.19A2.4,2.4,0,0,0,80.74,50.34Z"/><path class="cls-7" d="M90.68,31.68c-2.27-.28-3.79-.24-9.28-.43a4.84,4.84,0,0,1-.76,0c-9.94-.34-24.86-.81-33.29-.81s-23.39.47-33.29.81a4.71,4.71,0,0,0-.75,0c-5.5.19-7,.15-9.28.43s-4,1.23-4,2.94V46.79c0,1.65,2.13,3,4,3,0,0,24,1.46,43.32,1.51s43.33-1.51,43.33-1.51c1.9,0,4-1.38,4-3V34.62C94.71,32.91,93,32,90.68,31.68Z"/><path class="cls-5" d="M80.74,50.34a35.32,35.32,0,0,1-66.72,0,2.2,2.2,0,0,1-.57-.05A35.46,35.46,0,0,0,47.54,75.06a35.47,35.47,0,0,0,34.1-24.77C81.31,50.29,81,50.34,80.74,50.34Z"/><path class="cls-8" d="M80.74,50.34h0a26.86,26.86,0,0,1-3.6,1.56c0,.05-.1.19-.1.24A31.31,31.31,0,0,1,70.7,61.8,34.19,34.19,0,0,0,80.74,50.34Z"/><path class="cls-9" d="M25.19,62.65A31.15,31.15,0,0,1,17.85,51.9,21.68,21.68,0,0,1,14,50.34a29.21,29.21,0,0,0,2.65,4.5A35.73,35.73,0,0,0,24.15,62Z"/><path class="cls-10" d="M13.4,50.29h0c-2.65.47-3.55.66-6.15,1A17.44,17.44,0,0,0,8,53.51Z"/><path id="NISSAN" class="cls-11" d="M66.58,37c-.81-1.75-.52-1.56-2.23-1.61a4.92,4.92,0,0,0-1-.05,6.64,6.64,0,0,0-1,.05c-1.61,0-1.33-.09-1.89,1.09,0,0-2.8,6.25-4,8.86l0,.09c-.24.47-.09.47.29.47h2.51a.34.34,0,0,0,.33-.19s.38-.8.85-1.89h6.11c.47,1.09.8,1.85.8,1.89a.31.31,0,0,0,.33.19h2.61c.38,0,.47,0,.33-.28C70,44.51,67,38,66.58,37Zm-5.3,4.59c.8-1.84,1.56-3.64,1.56-3.69a.29.29,0,0,1,.28-.14c.05,0,.19,0,.33,0s.24,0,.29,0A.25.25,0,0,1,64,38c.18.52.89,2.08,1.51,3.64ZM27.8,35.28c.23,0,.28.09.28.28v9.95c0,.23,0,.33-.33.33H25.33c-.28,0-.33-.05-.33-.33V35.56c0-.19.05-.28.24-.28Zm-5.16.09c.28,0,.33.1.33.33v9.9c0,.29,0,.33-.33.33H19.79c-1.65,0-1.8,0-2.36-.94-1.14-1.8-4.64-7.15-4.64-7.15V45.6c0,.29,0,.33-.34.33H10.37c-.28,0-.33,0-.33-.33V35.7c0-.23.05-.33.33-.33h2.42c1.8,0,2,0,2.69.9s4.74,7.34,4.74,7.34V35.7c0-.23.05-.33.33-.33Zm62,0c.28,0,.33.1.33.33v9.9c0,.29,0,.33-.33.33H81.83c-1.66,0-1.8,0-2.37-.94-1.18-1.8-4.64-7.15-4.64-7.15V45.6c0,.29,0,.33-.33.33H72.4c-.28,0-.33,0-.33-.33V35.7c0-.23.05-.33.33-.33h2.42c1.8,0,2,0,2.7.9s4.73,7.34,4.73,7.34V35.7c0-.23,0-.33.34-.33Zm-46.22,4c1.85.19,3.22.52,3.6,2.27,0,.14.05.62.05,1.14a4.48,4.48,0,0,1-.1,1.13c-.33,1.66-1.56,2-3.55,2H30.64c-.29,0-.33,0-.33-.33V43.94c0-.28,0-.33.33-.33h7.91c.33,0,.42-.09.47-.33v-.71c-.05-.19-.1-.47-.52-.52-.9,0-3.51-.28-5.26-.47-2.27-.24-2.84-1.19-2.93-2a6.25,6.25,0,0,1,0-1,7.74,7.74,0,0,1,0-1c.33-1.46,1.42-2.17,3.41-2.17h7.57c.29,0,.38,0,.38.28v1.7c0,.24-.09.34-.38.29H33.86a.46.46,0,0,0-.52.47v.43c0,.24.14.42.47.47.85.14,3.6.33,4.64.43Zm13.4,0c1.85.19,3.22.52,3.6,2.27,0,.14,0,.62,0,1.14a4.48,4.48,0,0,1-.1,1.13c-.33,1.66-1.56,2-3.55,2H44.09c-.29,0-.33,0-.33-.33V43.94c0-.28,0-.33.33-.33H52c.34,0,.43-.09.48-.33v-.71a.6.6,0,0,0-.52-.52c-.9,0-3.51-.28-5.26-.47-2.27-.24-2.79-1.19-2.93-2a6.25,6.25,0,0,1,0-1,7.74,7.74,0,0,1,0-1c.33-1.46,1.42-2.17,3.4-2.17h7.58c.29,0,.38,0,.38.28v1.7c0,.24-.09.34-.38.29H47.31a.46.46,0,0,0-.52.47v.43c0,.24.09.42.47.47.85.14,3.6.33,4.59.43Z"/></g></g></svg>