<svg xmlns="http://www.w3.org/2000/svg" viewBox="0 0 209.8 37.05"><defs><style>.cls-1{fill:#fdfefe;}.cls-2{fill:#022c67;}.cls-3{fill:#2b93dc;}</style></defs><g id="Capa_2" data-name="Capa 2"><g id="Capa_1-2" data-name="Capa 1"><path class="cls-1" d="M114.34,11.58a7.25,7.25,0,0,1,1-.07h0A7.25,7.25,0,0,0,114.34,11.58Z"/><path class="cls-2" d="M28.12,37q-13.83,0-27.65,0c-.42,0-.47-.13-.47-.5C0,34,0,31.42,0,28.86l28.1-16.47v24C28.11,36.62,28.12,36.83,28.12,37Z"/><path class="cls-3" d="M28.12.61c0,1.27,0,2.55,0,3.82a.7.7,0,0,1-.4.7L3.59,19.26C2.41,20,1.25,20.71,0,21.3V0Q13.76,0,27.53,0C28,0,28.13.14,28.12.61Z"/><path class="cls-2" d="M128.55,11.5a6.91,6.91,0,0,0-7.15,7.14c0,4.34,2.9,7.21,7.16,7.18a6.92,6.92,0,0,0,7.05-7.24A6.81,6.81,0,0,0,128.55,11.5Zm2.89,9.82a3.46,3.46,0,0,1-5.87.05,5.37,5.37,0,0,1-.74-3,4.72,4.72,0,0,1,.41-1.78,3.37,3.37,0,0,1,3.26-2.19,3.3,3.3,0,0,1,3.25,2.21A5,5,0,0,1,131.44,21.32Z"/><path class="cls-2" d="M149.79,25.82c-.21.06-.32-.09-.45-.21l-7.52-6.76-.55-.47c0,2.33,0,4.53,0,6.73,0,.39-.08.52-.49.5-.78,0-1.57,0-2.36,0-.27,0-.39,0-.39-.36,0-4.46,0-8.91,0-13.37,0-.14,0-.3.18-.37a.45.45,0,0,1,.5.17l4.51,4.08,3.15,2.84c.09.08.15.2.35.21V16.94c0-1.55,0-3.11,0-4.66,0-.49.14-.58.58-.56.75,0,1.5,0,2.25,0,.3,0,.39.08.39.38q0,6.65,0,13.31C149.93,25.56,150,25.75,149.79,25.82Z"/><path class="cls-2" d="M100.91,25.13c0,.35-.06.5-.45.48-.78,0-1.57,0-2.36,0-.34,0-.44-.09-.44-.43,0-1.56,0-3.12,0-4.67,0-.34-.05-.49-.44-.48-1.48,0-3,0-4.46,0-.39,0-.45.13-.45.48,0,1.56,0,3.11,0,4.67,0,.35-.1.44-.44.43q-1.12,0-2.25,0c-.4,0-.53-.08-.53-.51,0-2.15,0-4.3,0-6.45s0-4.26,0-6.4c0-.38.06-.55.5-.53.76,0,1.53,0,2.3,0,.33,0,.41.09.41.41,0,1.48,0,3,0,4.46,0,.48.14.57.59.56q2.17,0,4.35,0c.32,0,.41-.08.41-.41,0-1.52,0-3,0-4.56,0-.37.1-.48.47-.46.77,0,1.54,0,2.31,0,.42,0,.47.14.47.51Q100.9,18.68,100.91,25.13Z"/><path class="cls-2" d="M46,25.08c0,.44-.13.55-.56.53-.73,0-1.46,0-2.2,0-.36,0-.47-.08-.46-.46,0-1.55,0-3.11,0-4.66,0-.38-.11-.46-.47-.46-1.49,0-3,0-4.46,0-.35,0-.43.1-.43.43,0,1.56,0,3.12,0,4.67,0,.41-.12.49-.5.48-.78,0-1.57,0-2.35,0-.29,0-.39-.07-.39-.38,0-4.37,0-8.74,0-13.1,0-.35.13-.41.43-.4.8,0,1.61,0,2.41,0,.33,0,.41.08.41.41,0,1.52,0,3,0,4.56,0,.36.09.47.46.46,1.48,0,3,0,4.45,0,.35,0,.45-.1.44-.44,0-1.52,0-3,0-4.56,0-.35.1-.44.44-.43.75,0,1.5,0,2.25,0,.4,0,.53.07.53.5,0,2.13,0,4.27,0,6.4S46,22.93,46,25.08Z"/><path class="cls-2" d="M60.4,20.43A5.18,5.18,0,0,1,55,25.81a8,8,0,0,1-3-.36,4.69,4.69,0,0,1-3.21-4.14c-.22-1.66,0-3.32-.1-4.68,0-1.7,0-3.09,0-4.49,0-.32.06-.43.4-.42.8,0,1.61,0,2.41,0,.37,0,.43.14.43.46,0,2.46,0,4.93,0,7.39a4.63,4.63,0,0,0,.32,1.95,2.3,2.3,0,0,0,2.33,1.36,2.27,2.27,0,0,0,2.32-1.37,4.36,4.36,0,0,0,.32-1.89c0-2.45,0-4.9,0-7.34,0-.43.1-.58.54-.56.77,0,1.54,0,2.31,0,.27,0,.4,0,.4.36C60.41,14.87,60.46,17.65,60.4,20.43Z"/><path class="cls-2" d="M86.41,24.68c-3.61,2.17-9.57,1.36-11.36-3.4a7.12,7.12,0,0,1,6.31-9.74l.79,0a8.5,8.5,0,0,1,4,1c.27.13.34.27.22.56-.25.62-.48,1.24-.67,1.87-.12.38-.24.47-.63.27a6.22,6.22,0,0,0-3.7-.65,3.72,3.72,0,0,0-3.33,3.48,5.58,5.58,0,0,0,.16,2,3.89,3.89,0,0,0,4.24,2.74A6.48,6.48,0,0,0,85.34,22c.26-.14.37-.15.47.16.22.69.47,1.38.72,2.07C86.6,24.41,86.64,24.54,86.41,24.68Z"/><path class="cls-2" d="M119.53,22a4.09,4.09,0,0,1-3.2,3.64,8.28,8.28,0,0,1-6.14-1.05c-.15-.08-.24-.16-.17-.37.26-.81.51-1.62.74-2.45.1-.34.24-.12.37-.05a6.89,6.89,0,0,0,3.28,1.13,7.77,7.77,0,0,0,.83,0,1.05,1.05,0,0,0,1-.76,1.2,1.2,0,0,0-.34-1.34,5.77,5.77,0,0,0-1.67-.95A9.55,9.55,0,0,1,112,18.57a3.78,3.78,0,0,1,.51-6.39,5.12,5.12,0,0,1,1.79-.6,7.25,7.25,0,0,1,1-.07h.47a9.24,9.24,0,0,1,.92.11,8.72,8.72,0,0,1,2.2.72c.26.14.39.26.28.6-.24.71-.44,1.43-.62,2.16-.08.31-.16.31-.41.16a6.37,6.37,0,0,0-2.42-.92,3,3,0,0,0-1,0,1.11,1.11,0,0,0-.47,2,9.56,9.56,0,0,0,1,.56c.69.34,1.41.62,2.07,1A3.74,3.74,0,0,1,119.53,22Z"/><path class="cls-2" d="M73.28,14.69c-1.08,0-2.17,0-3.25,0-.37,0-.46.1-.46.46,0,3.31,0,6.61,0,9.91,0,.48-.13.58-.58.56-.71,0-1.43,0-2.15,0-.38,0-.49-.09-.49-.49,0-3.3,0-6.6,0-9.9,0-.44-.11-.56-.54-.54-1.07,0-2.14,0-3.2,0-.32,0-.46,0-.45-.42,0-.71,0-1.43,0-2.15,0-.34.12-.39.42-.39H73.31c.33,0,.46.06.44.42,0,.7,0,1.4,0,2.1C73.77,14.64,73.63,14.7,73.28,14.69Z"/><path class="cls-2" d="M177.62,16.82a6.82,6.82,0,0,0-5.82-5.27A7,7,0,0,0,164,18.77c0,.1,0,.31,0,.52A6.85,6.85,0,0,0,174.12,25,7.28,7.28,0,0,0,177.62,16.82Zm-2.23,5a5.1,5.1,0,0,1-8.44.73,6.41,6.41,0,0,1,.84-8.65A4.91,4.91,0,0,1,171,12.87a5.26,5.26,0,0,1,5.16,4.77A6.75,6.75,0,0,1,175.39,21.85Z"/><path class="cls-2" d="M189.35,25.11c-1.12-1.61-2.23-3.22-3.36-4.81-.25-.35-.34-.51.18-.7a3.69,3.69,0,0,0,2.23-2.22,4,4,0,0,0-2.93-5.5,14.06,14.06,0,0,0-4.8-.09c-.4,0-.52.18-.52.61,0,4,0,8.1,0,12.15,0,1.06,0,1,1.06,1.06.38,0,.47-.1.46-.46,0-1.54,0-3.08,0-4.61,0-.33.07-.42.4-.4a16.64,16.64,0,0,0,1.73,0,.59.59,0,0,1,.59.31c.84,1.27,1.76,2.48,2.52,3.79.63,1.09,1.36,1.72,2.7,1.27Zm-7.43-6.31c-.21,0-.25-.1-.25-.29,0-1.71,0-3.41,0-5.12,0-.21.09-.25.27-.29a7.66,7.66,0,0,1,1.35-.09,5.16,5.16,0,0,1,1.66.17,2.75,2.75,0,0,1,2.09,3,2.71,2.71,0,0,1-2.41,2.56A9.46,9.46,0,0,1,181.92,18.8Z"/><path class="cls-2" d="M107.51,25.23c0,.31-.1.38-.39.38-.82,0-1.64,0-2.46,0-.36,0-.39-.13-.39-.43,0-2.16,0-4.33,0-6.5s0-4.33,0-6.49c0-.38.11-.48.47-.46.79,0,1.57,0,2.36,0,.31,0,.42.06.42.4Q107.5,18.68,107.51,25.23Z"/><path class="cls-2" d="M158.54,11.74a16.39,16.39,0,0,0-4,.06c-.41,0-.46.2-.45.55,0,2.12,0,4.23,0,6.35v5.86c0,1.06,0,1,1.07,1.05.34,0,.45-.09.44-.43,0-1.36,0-2.73,0-4.09,0-.32.07-.42.41-.37a9.19,9.19,0,0,0,2.4,0,4.58,4.58,0,0,0,4.2-4.57C162.6,13.83,161.05,12.14,158.54,11.74Zm2.37,4.93a3.11,3.11,0,0,1-3,2.74,11.31,11.31,0,0,1-1.93,0c-.32,0-.45-.12-.44-.47,0-.89,0-1.78,0-2.67s0-1.82,0-2.73c0-.28.08-.4.36-.43a7.32,7.32,0,0,1,2.76.08A3.05,3.05,0,0,1,160.91,16.67Z"/><path class="cls-2" d="M207.72,25.29a1.42,1.42,0,0,1-.25.12,4.44,4.44,0,0,1-1.87.41h-.22a5.55,5.55,0,0,1-.82-.06l-.11,0-.17,0h-.11l-.25-.06h0l-.2-.06a8.1,8.1,0,0,1-1.78-.8c-.26-.15-.37-.28-.17-.56s.29-.74.55-.86.58.27.89.42a4.77,4.77,0,0,0,3.22.59,2.16,2.16,0,0,0,1.78-1.77,2.28,2.28,0,0,0-.79-2.44,11.43,11.43,0,0,0-2.25-1.23,8.64,8.64,0,0,1-1.45-.83,3.47,3.47,0,0,1-.2-5.52,5.06,5.06,0,0,1,5.83-.26c.16.1.23.21.1.37l0,.05c-.16.31-.26.73-.52.88s-.55-.24-.85-.36a3.81,3.81,0,0,0-2.85-.14,2.13,2.13,0,0,0-.58,3.73,9.55,9.55,0,0,0,1.94,1.11c.52.25,1,.53,1.52.82C210.74,20.31,210.09,24.07,207.72,25.29Z"/><path class="cls-2" d="M200.79,12.25c0,.85,0,.85-.86.85-1.06,0-2.13,0-3.19,0-.45,0-.59.08-.59.56,0,3.79,0,7.58,0,11.38,0,.49-.15.6-.61.58-.9,0-.9,0-.9-.9v-5.4c0-1.89,0-3.77,0-5.66,0-.49-.15-.57-.59-.56-1.18,0-2.37,0-3.56,0-.38,0-.52-.08-.5-.49,0-.88,0-.88.86-.88,3.13,0,6.26,0,9.39,0C200.7,11.72,200.8,11.84,200.79,12.25Z"/></g></g></svg>