<svg xmlns="http://www.w3.org/2000/svg" viewBox="0 0 131.24 52.69"><defs><style>.cls-1{fill:#053d4c;}</style></defs><g id="Capa_2" data-name="Capa 2"><g id="Capa_1-2" data-name="Capa 1"><path class="cls-1" d="M14.36,32.83c0,.36-.11.47-.48.47H.44c-.32,0-.44-.08-.44-.42s.08-.45.42-.44c.75,0,1.49,0,2.23,0,.52,0,.67-.12.66-.65,0-2.5,0-5,0-7.52V16.63c0-5,0-10.07,0-15.11,0-.54-.12-.73-.68-.69C1.89.88,1.15.82.41.85,0,.87,0,.7,0,.4S.08,0,.39,0c.72,0,1.44,0,2.16,0C9.4,0,16.25,0,23.09,0c.57,0,.73.15.77.72.15,2.2.37,4.39.56,6.59,0,.17.23.48-.2.52s-.57,0-.67-.4a9.93,9.93,0,0,0-1.09-2.76A6.9,6.9,0,0,0,16.33,1C14.5.94,12.67.9,10.83.84c-.46,0-.63.07-.63.59q0,7.07,0,14.13c0,.45.11.61.58.59,1.18-.06,2.37.05,3.55-.07,2.19-.23,3.1-1.12,3.37-3.31.07-.6.11-1.2.13-1.81,0-.3.09-.39.39-.39s.33.14.33.38V22.23c0,.25,0,.37-.34.38s-.38-.12-.38-.41a9.27,9.27,0,0,0-.41-2.95,2.85,2.85,0,0,0-2.69-2.13c-1.34-.1-2.69,0-4-.09-.42,0-.49.16-.49.53q0,7.19,0,14.35c0,.49.18.57.61.55,1,0,2,0,3.06,0C14.13,32.46,14.36,32.42,14.36,32.83Z"/><path class="cls-1" d="M24.57,50.62a.94.94,0,0,1-.66,1.3c-2.34,1-4.63,1.19-6.81-.34a6.36,6.36,0,0,1-1.88-7.91,6.06,6.06,0,0,1,7.42-3.06,8.54,8.54,0,0,1,1.11.38c.82.32.82.32.71,1.28-2.82-1.27-5.61-2-7.89.94a5.81,5.81,0,0,0,0,6.59,4.73,4.73,0,0,0,3.79,2A8.33,8.33,0,0,0,24.57,50.62Z"/><path class="cls-1" d="M25.18,11.23a2.67,2.67,0,0,1,2.68,2.62,2.68,2.68,0,1,1-2.68-2.62Z"/><path class="cls-1" d="M29.22,33.3H21.08c-.22,0-.42,0-.41-.3s.18-.33.41-.33c.44,0,.89,0,1.32,0s.54-.14.53-.55q0-6,0-12c0-.44-.14-.56-.55-.52s-.84,0-1.25,0c-.24,0-.47,0-.47-.33s.23-.32.46-.32a31.26,31.26,0,0,0,3.75-.12,7.16,7.16,0,0,0,2.49-.61v1c0,4.24,0,8.48,0,12.73,0,.51.12.72.65.66a11.62,11.62,0,0,1,1.18,0c.22,0,.42,0,.43.31S29.46,33.3,29.22,33.3Z"/><path class="cls-1" d="M32.36,51.22c-.12.08-.22.17-.34.24s-.41.43-.65.33-.15-.5-.15-.75c0-1.51,0-3,0-4.53a1.89,1.89,0,0,0-1.58-2,3.81,3.81,0,0,0-2.5.36c-.52.25-.81.57-.6,1.19.36-.21.7-.45,1.07-.63,1.72-.8,2.8-.08,2.8,1.8,0,.47-.16.55-.58.59a5,5,0,0,0-2.91,1,2.26,2.26,0,0,0-.62,2.76,2.07,2.07,0,0,0,2.57,1,6.21,6.21,0,0,0,1.47-.76c.19.27.05.73.43.83.56.15.94-.28,1.37-.54A.58.58,0,0,0,32.36,51.22Zm-2-1.46c0,1.36-.6,2.08-1.86,2.2A1.43,1.43,0,0,1,27,51.28a1.39,1.39,0,0,1,.17-1.62,3.54,3.54,0,0,1,2.92-1.18c.23,0,.27.12.26.31Z"/><path class="cls-1" d="M38.34,50.21a2.33,2.33,0,0,1-2.93,2.43,7.92,7.92,0,0,1-1-.32.8.8,0,0,1-.6-1.15,5.6,5.6,0,0,0,2.14.66,1.49,1.49,0,0,0,1.66-1.07c.15-.62-.14-1.11-.93-1.52-.45-.23-.92-.42-1.38-.64-1.32-.65-1.8-1.61-1.38-2.72a2.45,2.45,0,0,1,3-1.34,3.2,3.2,0,0,1,.52.18c.76.32.76.32.73,1.2-.32,0-.52-.26-.78-.37a2.52,2.52,0,0,0-1.68-.28,1.31,1.31,0,0,0-1.13,1.07,1.16,1.16,0,0,0,.72,1.3c.66.33,1.34.63,2,1A1.94,1.94,0,0,1,38.34,50.21Z"/><path class="cls-1" d="M46.24,51.25l-.24.14c-.25.15-.48.52-.76.38s-.14-.54-.14-.82c0-1.51,0-3,0-4.53a1.82,1.82,0,0,0-1.53-1.89,3.71,3.71,0,0,0-2.55.35c-.51.24-.79.55-.57,1.15.38-.21.74-.45,1.14-.63,1.67-.74,2.72,0,2.73,1.78,0,.5-.16.6-.62.64a4.77,4.77,0,0,0-3,1.17,2.3,2.3,0,0,0-.42,2.69,2.1,2.1,0,0,0,2.48.89,5.46,5.46,0,0,0,1.57-.81c.1.34,0,.76.43.9C45.28,52.85,46.33,51.92,46.24,51.25Zm-2-1.44a1.86,1.86,0,0,1-1.72,2.13,1.46,1.46,0,0,1-1.63-.64,1.4,1.4,0,0,1,.23-1.74A3.53,3.53,0,0,1,44,48.48c.26,0,.3.14.29.35S44.29,49.48,44.29,49.81Z"/><path class="cls-1" d="M49.48,33c0,.27-.14.3-.35.3H41.47c-.24,0-.4,0-.39-.33s.21-.29.42-.31c1.34-.08,1.35-.08,1.36-1.47q.06-3.82.09-7.66a8.76,8.76,0,0,0-.19-2.28A1.74,1.74,0,0,0,40.09,20a4.2,4.2,0,0,0-2.35,3.69c0,2.78,0,5.57,0,8.35,0,.47.09.69.6.63a7.75,7.75,0,0,1,1.18,0c.22,0,.48-.07.48.31s-.25.31-.47.31H31.43c-.23,0-.41,0-.4-.32s.2-.32.42-.31h.21c1.62,0,1.62,0,1.62-1.61,0-3.6,0-7.2,0-10.8,0-.53-.15-.69-.66-.64s-.79,0-1.18,0-.44-.05-.43-.38.23-.28.43-.28a26.32,26.32,0,0,0,4.86-.27,5.55,5.55,0,0,0,1.41-.47v3.09a9.54,9.54,0,0,1,.65-.8,6.19,6.19,0,0,1,6-1.76,3.75,3.75,0,0,1,2.81,3.71,81.88,81.88,0,0,1,0,9.4c0,.64.12.88.77.79.35,0,.7,0,1.05,0S49.48,32.71,49.48,33Z"/><path class="cls-1" d="M59.39,52q0-5.5,0-11c0-.25.11-.56-.37-.58s-.42.3-.42.6v4c-.37-.14-.63-.27-.91-.36a3.58,3.58,0,0,0-3.91.87,4.52,4.52,0,0,0-.4,5.52c1.15,1.65,2.81,2,4.9,1.07.12,0,.31-.25.31.09s.31.31.54.31C59.54,52.52,59.39,52.2,59.39,52ZM58,51.52a2.93,2.93,0,0,1-3.15-.28,3.34,3.34,0,0,1-1.23-3.48,3,3,0,0,1,4.73-1.95.61.61,0,0,1,.31.62c0,.72,0,1.44,0,2.16s0,1.26,0,1.88A.93.93,0,0,1,58,51.52Z"/><path class="cls-1" d="M64.54,31.67c-.24.23-.49.46-.86.3a.82.82,0,0,1-.42-.82c0-.58,0-1.16,0-1.74a70,70,0,0,0-.06-7.1,3.68,3.68,0,0,0-3-3.36,11.92,11.92,0,0,0-5.11-.23,5.4,5.4,0,0,0-3.32,1.74A2.26,2.26,0,0,0,52.44,24a2,2,0,0,0,2.32-.61,2,2,0,0,0,0-2.45c-.2-.28-.47-.55-.13-.91a2.67,2.67,0,0,1,2.55-.77A2,2,0,0,1,59,20.86a14.8,14.8,0,0,1,.22,3.32c0,.68-.13,1-.89,1a9.15,9.15,0,0,0-1.38.1,14,14,0,0,0-4.75,1A3.57,3.57,0,0,0,50,29.86a3.43,3.43,0,0,0,2.31,3.31,6.86,6.86,0,0,0,4,.33,4.32,4.32,0,0,0,2.74-1.77,3.26,3.26,0,0,0,3.62,1.87,2.9,2.9,0,0,0,2.72-2.19C65.06,31.21,64.8,31.43,64.54,31.67ZM59.13,28.1a15.55,15.55,0,0,1-.19,2.35,2.52,2.52,0,0,1-2.74,2.21,1.76,1.76,0,0,1-1.56-1.38,8.17,8.17,0,0,1-.09-3.93,1.58,1.58,0,0,1,1.18-1.24,13.5,13.5,0,0,1,3.11-.37c.34,0,.29.21.29.41C59.14,26.75,59.13,27.36,59.13,28.1Z"/><path class="cls-1" d="M63,48.23c1.42.05,2.83,0,4.25,0,1.09,0,1.09,0,.88-1.1a3.33,3.33,0,0,0-2.59-2.68,3.23,3.23,0,0,0-3.45,1.7,4.78,4.78,0,0,0-.53,2.68,3.82,3.82,0,0,0,5.9,3.25c.55-.32.84-.68.59-1.37a7,7,0,0,1-1.29.81,3,3,0,0,1-4.38-2.63C62.36,48.42,62.45,48.22,63,48.23Zm-.39-1.12A2.44,2.44,0,0,1,65,45.28a2.2,2.2,0,0,1,2.19,1.84c.1.35,0,.46-.31.44-.67,0-1.34,0-2,0s-1.3,0-1.94,0C62.56,47.58,62.52,47.44,62.62,47.11Z"/><path class="cls-1" d="M80.87,46.47l-.58-.22c1.38-1.09,1.8-2.22,1.39-3.63a3,3,0,0,0-3-2.1c-.81-.06-1.63,0-2.44-.07-.47,0-.62.1-.62.6q0,5.43,0,10.86c0,.47.09.65.6.63.81,0,1.62,0,2.43,0A5.39,5.39,0,0,0,81,52.16a2.9,2.9,0,0,0,1.83-2.92A2.76,2.76,0,0,0,80.87,46.47Zm-3.79-5.22a9.58,9.58,0,0,1,2,.15,2.32,2.32,0,0,1,.09,4.48,6.86,6.86,0,0,1-1.36.16c-1.22,0-1.22,0-1.22-1.1s0-2.13,0-3.19C76.57,41.35,76.69,41.23,77.08,41.25Zm2.63,10.42c-.92.1-1.85,0-2.78.06-.29,0-.35-.12-.34-.37,0-.7,0-1.39,0-2.09s0-1.35,0-2c0-.26,0-.44.36-.42A17,17,0,0,1,79.8,47a2.22,2.22,0,0,1,2,2.39A2.26,2.26,0,0,1,79.71,51.67Z"/><path class="cls-1" d="M88.12,44.44a3.87,3.87,0,0,0-3.8,4.11,3.8,3.8,0,1,0,7.58,0A3.86,3.86,0,0,0,88.12,44.44Zm-.86,7.27a3.38,3.38,0,0,1-1.92-4.3,2.87,2.87,0,0,1,3.66-2,3.18,3.18,0,0,1,2,3.16C91,50.82,89.23,52.32,87.26,51.71Z"/><path class="cls-1" d="M92.89,33c0,.26-.13.31-.35.31H85c-.23,0-.34-.07-.34-.32s.13-.33.35-.31H85c.39,0,.94.11,1.13-.09s.08-.84.08-1.28c0-2.92,0-5.85,0-8.77a7.07,7.07,0,0,0-.13-1.59,1.3,1.3,0,0,0-1.8-1.09,4.14,4.14,0,0,0-2.8,3.71c0,2.87,0,5.75,0,8.63,0,.42.14.52.51.48s.65,0,1,0,.33.07.33.32-.07.32-.32.32H75.69c-.21,0-.35,0-.35-.3s.08-.35.33-.33h.14c1.24-.06,1.24-.06,1.24-1.34V23a9,9,0,0,0-.18-2.07,1.22,1.22,0,0,0-1.75-1,4,4,0,0,0-2.65,3.05,4.13,4.13,0,0,0-.15,1.17c0,2.64,0,5.29,0,7.94,0,.5.09.74.64.65a4.28,4.28,0,0,1,.62,0c.21,0,.42,0,.43.29s-.21.33-.45.33H66.18c-.19,0-.42.08-.44-.27s.18-.36.44-.36a10.47,10.47,0,0,1,1.12,0c.51.06.59-.16.59-.63,0-3.94,0-7.89,0-11.83,0-.51-.15-.64-.62-.59s-.74,0-1.11,0-.43-.06-.42-.38S66,19,66.18,19A25.47,25.47,0,0,0,71,18.71a8.2,8.2,0,0,0,1.36-.43v3.17a6.09,6.09,0,0,1,4.75-2.85c2-.17,3.41.7,4.44,2.92.16-.23.29-.43.44-.62a5.52,5.52,0,0,1,5.57-2.21,3.78,3.78,0,0,1,3,3.29,16.84,16.84,0,0,1,.14,2.84c0,2.42,0,4.83,0,7.24,0,.48.11.67.6.62a10.59,10.59,0,0,1,1.26,0C92.79,32.66,92.89,32.75,92.89,33Z"/><path class="cls-1" d="M95,52c0,.24.15.56-.35.57s-.46-.22-.46-.56c0-1.83,0-3.66,0-5.5s0-3.62,0-5.43c0-.28-.1-.6.4-.61s.41.32.41.6C95,44.68,95,48.33,95,52Z"/><path class="cls-1" d="M101.91,51.17a2.51,2.51,0,0,1-3,1.45,5.5,5.5,0,0,1-.92-.3c-.69-.3-.69-.31-.62-1.14a11.1,11.1,0,0,0,1.61.58,2.39,2.39,0,0,0,1.3,0,1.29,1.29,0,0,0,.93-1.1,1.14,1.14,0,0,0-.65-1.21c-.55-.3-1.12-.55-1.68-.82C97.64,48,97.16,47.08,97.49,46a2.4,2.4,0,0,1,2.78-1.54,4.55,4.55,0,0,1,1.23.45c.47.22.26.63.32,1.07a5.26,5.26,0,0,0-1.73-.74,1.86,1.86,0,0,0-1.21.18,1.18,1.18,0,0,0-.07,2.13c.52.31,1.08.53,1.62.79C101.77,49,102.31,50,101.91,51.17Z"/><path class="cls-1" d="M107.57,28c-.23-.08-.47-.05-.54.27a5.34,5.34,0,0,1-.18.52A6.9,6.9,0,0,1,104.67,32a4.18,4.18,0,0,1-6.82-2.32,18.05,18.05,0,0,1-.34-4.22c0-.43.26-.34.5-.34,1.51,0,3,0,4.52,0s3,0,4.46,0c.58,0,.64-.19.57-.67a6.13,6.13,0,0,0-3.7-5.17,7.6,7.6,0,0,0-10.56,8.5,7.19,7.19,0,0,0,7,5.95c3.75.21,6.42-1.71,7.32-5.24C107.63,28.32,107.86,28.11,107.57,28ZM97.8,21.21a2.43,2.43,0,0,1,2.76-2c1.29,0,2,.62,2.3,2a11.69,11.69,0,0,1,.21,2.77c0,.34-.14.43-.46.42h-2.36c-.77,0-1.53,0-2.3,0-.31,0-.44-.05-.44-.41A11.73,11.73,0,0,1,97.8,21.21Z"/><path class="cls-1" d="M109.85,51.27l-.18.11c-.24.16-.49.52-.75.4s-.17-.58-.17-.89c0-1.46,0-2.92,0-4.39a1.94,1.94,0,0,0-2-2,4.12,4.12,0,0,0-2.15.46.81.81,0,0,0-.51,1.14c.36-.21.66-.43,1-.59,1.75-.86,2.93-.09,2.89,1.84,0,.42-.17.48-.53.51a5.1,5.1,0,0,0-3,1.07,2.3,2.3,0,0,0-.55,2.78,2.11,2.11,0,0,0,2.54.9,8.77,8.77,0,0,0,1.53-.77c.15.81.28,1,.74.86C109.45,52.5,110,51.84,109.85,51.27Zm-1.9-1.5a2,2,0,0,1-2,2.2,1.44,1.44,0,0,1-1.42-.7,1.34,1.34,0,0,1,.15-1.57,3.46,3.46,0,0,1,3-1.22c.22,0,.27.12.26.31Z"/><path class="cls-1" d="M124.69,33c0,.56-.59.26-.89.27-2.39,0-4.78,0-7.17,0-.21,0-.56.19-.59-.25s.37-.27.6-.32.64.14.77-.09-.18-.48-.32-.7c-.93-1.42-1.87-2.82-2.87-4.32l-3.45,5.11h2c.18,0,.38,0,.39.26s-.16.33-.4.33h-4.8c-.24,0-.4,0-.39-.33s.21-.29.38-.25c1.47.34,2.21-.49,2.88-1.63s1.65-2.47,2.52-3.67a.78.78,0,0,0,0-1.07c-1.43-2.06-2.83-4.14-4.22-6.22a.85.85,0,0,0-.88-.49c-.22,0-.52.12-.54-.32s.25-.36.5-.36h7.45c.2,0,.47-.1.48.3s-.18.4-.47.39h-1.38l3,4.5,3.06-4.5h-2.17c-.28,0-.48,0-.47-.39s.26-.3.47-.3H123c.2,0,.47-.12.48.3s-.17.45-.46.38c-1.26-.29-1.92.39-2.52,1.38-.71,1.19-1.54,2.31-2.37,3.43a.67.67,0,0,0,0,.91c1.53,2.24,3,4.48,4.54,6.75a1.2,1.2,0,0,0,1.18.62C124.12,32.72,124.71,32.44,124.69,33Z"/><path class="cls-1" d="M128.38,13.83a2.79,2.79,0,0,0-2.9,2.87,2.78,2.78,0,0,0,2.85,2.92,2.82,2.82,0,0,0,2.91-2.88A2.78,2.78,0,0,0,128.38,13.83Zm-.06,5.45a2.44,2.44,0,0,1-2.49-2.59,2.52,2.52,0,1,1,5,.08A2.39,2.39,0,0,1,128.32,19.28Zm1.15-1.6a2.08,2.08,0,0,0-.24-.34c-.25-.3-.36-.51.06-.84s.23-1-.37-1.15a5.11,5.11,0,0,0-1.76,0c.73.39.38.94.42,1.4s.16,1-.29,1.36h1.22c-.53-.34-.37-.76-.35-1.36l.52.71c.14.18.26.38.41.56s.37.26.55.1S129.55,17.81,129.47,17.68Zm-1.11-1.1c-.4,0-.17-.34-.24-.51s-.12-.51.28-.49.51.18.5.52A.46.46,0,0,1,128.36,16.58Z"/><path class="cls-1" d="M24.22,7.83c-.31,0-.57,0-.67-.4a9.93,9.93,0,0,0-1.09-2.76A6.9,6.9,0,0,0,16.33,1C14.5.94,12.67.9,10.83.84c-.46,0-.63.07-.63.59q0,7.07,0,14.13c0,.45.11.61.58.59,1.18-.06,2.37.05,3.55-.07,2.19-.23,3.1-1.12,3.37-3.31.07-.6.11-1.2.13-1.81,0-.3.09-.39.39-.39s.33.14.33.38V22.23c0,.25,0,.37-.34.38s-.38-.12-.38-.41a9.27,9.27,0,0,0-.41-2.95,2.85,2.85,0,0,0-2.69-2.13c-1.34-.1-2.69,0-4-.09-.42,0-.49.16-.49.53q0,7.19,0,14.35c0,.49.18.57.61.55,1,0,2,0,3.06,0,.26,0,.49,0,.49.37s-.11.47-.48.47H.44c-.32,0-.44-.08-.44-.42s.08-.45.42-.44c.75,0,1.49,0,2.23,0,.52,0,.67-.12.66-.65,0-2.5,0-5,0-7.52V16.63c0-5,0-10.07,0-15.11,0-.54-.12-.73-.68-.69C1.89.88,1.15.82.41.85,0,.87,0,.7,0,.4S.08,0,.39,0c.72,0,1.44,0,2.16,0C9.4,0,16.25,0,23.09,0c.57,0,.73.15.77.72.15,2.2.37,4.39.56,6.59C24.43,7.48,24.65,7.79,24.22,7.83Z"/><path class="cls-1" d="M92.89,33c0,.26-.13.31-.35.31H85c-.23,0-.34-.07-.34-.32s.13-.33.35-.31H85c.39,0,.94.11,1.13-.09s.08-.84.08-1.28c0-2.92,0-5.85,0-8.77a7.07,7.07,0,0,0-.13-1.59,1.3,1.3,0,0,0-1.8-1.09,4.14,4.14,0,0,0-2.8,3.71c0,2.87,0,5.75,0,8.63,0,.42.14.52.51.48s.65,0,1,0,.33.07.33.32-.07.32-.32.32H75.69c-.21,0-.35,0-.35-.3s.08-.35.33-.33h.14c1.24-.06,1.24-.06,1.24-1.34V23a9,9,0,0,0-.18-2.07,1.22,1.22,0,0,0-1.75-1,4,4,0,0,0-2.65,3.05,4.13,4.13,0,0,0-.15,1.17c0,2.64,0,5.29,0,7.94,0,.5.09.74.64.65a4.28,4.28,0,0,1,.62,0c.21,0,.42,0,.43.29s-.21.33-.45.33H66.18c-.19,0-.42.08-.44-.27s.18-.36.44-.36a10.47,10.47,0,0,1,1.12,0c.51.06.59-.16.59-.63,0-3.94,0-7.89,0-11.83,0-.51-.15-.64-.62-.59s-.74,0-1.11,0-.43-.06-.42-.38S66,19,66.18,19A25.47,25.47,0,0,0,71,18.71a8.2,8.2,0,0,0,1.36-.43v3.17a6.09,6.09,0,0,1,4.75-2.85c2-.17,3.41.7,4.44,2.92.16-.23.29-.43.44-.62a5.52,5.52,0,0,1,5.57-2.21,3.78,3.78,0,0,1,3,3.29,16.84,16.84,0,0,1,.14,2.84c0,2.42,0,4.83,0,7.24,0,.48.11.67.6.62a10.59,10.59,0,0,1,1.26,0C92.79,32.66,92.89,32.75,92.89,33Z"/><path class="cls-1" d="M49.48,33c0,.27-.14.3-.35.3H41.47c-.24,0-.4,0-.39-.33s.21-.29.42-.31c1.34-.08,1.35-.08,1.36-1.47q.06-3.82.09-7.66a8.76,8.76,0,0,0-.19-2.28A1.74,1.74,0,0,0,40.09,20a4.2,4.2,0,0,0-2.35,3.69c0,2.78,0,5.57,0,8.35,0,.47.09.69.6.63a7.75,7.75,0,0,1,1.18,0c.22,0,.48-.07.48.31s-.25.31-.47.31H31.43c-.23,0-.41,0-.4-.32s.2-.32.42-.31h.21c1.62,0,1.62,0,1.62-1.61,0-3.6,0-7.2,0-10.8,0-.53-.15-.69-.66-.64s-.79,0-1.18,0-.44-.05-.43-.38.23-.28.43-.28a26.32,26.32,0,0,0,4.86-.27,5.55,5.55,0,0,0,1.41-.47v3.09a9.54,9.54,0,0,1,.65-.8,6.19,6.19,0,0,1,6-1.76,3.75,3.75,0,0,1,2.81,3.71,81.88,81.88,0,0,1,0,9.4c0,.64.12.88.77.79.35,0,.7,0,1.05,0S49.48,32.71,49.48,33Z"/><path class="cls-1" d="M64.54,31.67c-.24.23-.49.46-.86.3a.82.82,0,0,1-.42-.82c0-.58,0-1.16,0-1.74a70,70,0,0,0-.06-7.1,3.68,3.68,0,0,0-3-3.36,11.92,11.92,0,0,0-5.11-.23,5.4,5.4,0,0,0-3.32,1.74A2.26,2.26,0,0,0,52.44,24a2,2,0,0,0,2.32-.61,2,2,0,0,0,0-2.45c-.2-.28-.47-.55-.13-.91a2.67,2.67,0,0,1,2.55-.77A2,2,0,0,1,59,20.86a14.8,14.8,0,0,1,.22,3.32c0,.68-.13,1-.89,1a9.15,9.15,0,0,0-1.38.1,14,14,0,0,0-4.75,1A3.57,3.57,0,0,0,50,29.86a3.43,3.43,0,0,0,2.31,3.31,6.86,6.86,0,0,0,4,.33,4.32,4.32,0,0,0,2.74-1.77,3.26,3.26,0,0,0,3.62,1.87,2.9,2.9,0,0,0,2.72-2.19C65.06,31.21,64.8,31.43,64.54,31.67ZM59.13,28.1a15.55,15.55,0,0,1-.19,2.35,2.52,2.52,0,0,1-2.74,2.21,1.76,1.76,0,0,1-1.56-1.38,8.17,8.17,0,0,1-.09-3.93,1.58,1.58,0,0,1,1.18-1.24,13.5,13.5,0,0,1,3.11-.37c.34,0,.29.21.29.41C59.14,26.75,59.13,27.36,59.13,28.1Z"/><path class="cls-1" d="M124.69,33c0,.56-.59.26-.89.27-2.39,0-4.78,0-7.17,0-.21,0-.56.19-.59-.25s.37-.27.6-.32.64.14.77-.09-.18-.48-.32-.7c-.93-1.42-1.87-2.82-2.87-4.32l-3.45,5.11h2c.18,0,.38,0,.39.26s-.16.33-.4.33h-4.8c-.24,0-.4,0-.39-.33s.21-.29.38-.25c1.47.34,2.21-.49,2.88-1.63s1.65-2.47,2.52-3.67a.78.78,0,0,0,0-1.07c-1.43-2.06-2.83-4.14-4.22-6.22a.85.85,0,0,0-.88-.49c-.22,0-.52.12-.54-.32s.25-.36.5-.36h7.45c.2,0,.47-.1.48.3s-.18.4-.47.39h-1.38l3,4.5,3.06-4.5h-2.17c-.28,0-.48,0-.47-.39s.26-.3.47-.3H123c.2,0,.47-.12.48.3s-.17.45-.46.38c-1.26-.29-1.92.39-2.52,1.38-.71,1.19-1.54,2.31-2.37,3.43a.67.67,0,0,0,0,.91c1.53,2.24,3,4.48,4.54,6.75a1.2,1.2,0,0,0,1.18.62C124.12,32.72,124.71,32.44,124.69,33Z"/><path class="cls-1" d="M107.57,28c-.23-.08-.47-.05-.54.27a5.34,5.34,0,0,1-.18.52A6.9,6.9,0,0,1,104.67,32a4.18,4.18,0,0,1-6.82-2.32,18.05,18.05,0,0,1-.34-4.22c0-.43.26-.34.5-.34,1.51,0,3,0,4.52,0s3,0,4.46,0c.58,0,.64-.19.57-.67a6.13,6.13,0,0,0-3.7-5.17,7.6,7.6,0,0,0-10.56,8.5,7.19,7.19,0,0,0,7,5.95c3.75.21,6.42-1.71,7.32-5.24C107.63,28.32,107.86,28.11,107.57,28ZM97.8,21.21a2.43,2.43,0,0,1,2.76-2c1.29,0,2,.62,2.3,2a11.69,11.69,0,0,1,.21,2.77c0,.34-.14.43-.46.42h-2.36c-.77,0-1.53,0-2.3,0-.31,0-.44-.05-.44-.41A11.73,11.73,0,0,1,97.8,21.21Z"/><path class="cls-1" d="M29.62,33c0,.3-.16.33-.4.33H21.08c-.22,0-.42,0-.41-.3s.18-.33.41-.33c.44,0,.89,0,1.32,0s.54-.14.53-.55q0-6,0-12c0-.44-.14-.56-.55-.52s-.84,0-1.25,0c-.24,0-.47,0-.47-.33s.23-.32.46-.32a31.26,31.26,0,0,0,3.75-.12,7.16,7.16,0,0,0,2.49-.61v1c0,4.24,0,8.48,0,12.73,0,.51.12.72.65.66a11.62,11.62,0,0,1,1.18,0C29.41,32.66,29.61,32.66,29.62,33Z"/><path class="cls-1" d="M80.87,46.47l-.58-.22c1.38-1.09,1.8-2.22,1.39-3.63a3,3,0,0,0-3-2.1c-.81-.06-1.63,0-2.44-.07-.47,0-.62.1-.62.6q0,5.43,0,10.86c0,.47.09.65.6.63.81,0,1.62,0,2.43,0A5.39,5.39,0,0,0,81,52.16a2.9,2.9,0,0,0,1.83-2.92A2.76,2.76,0,0,0,80.87,46.47Zm-3.79-5.22a9.58,9.58,0,0,1,2,.15,2.32,2.32,0,0,1,.09,4.48,6.86,6.86,0,0,1-1.36.16c-1.22,0-1.22,0-1.22-1.1s0-2.13,0-3.19C76.57,41.35,76.69,41.23,77.08,41.25Zm2.63,10.42c-.92.1-1.85,0-2.78.06-.29,0-.35-.12-.34-.37,0-.7,0-1.39,0-2.09s0-1.35,0-2c0-.26,0-.44.36-.42A17,17,0,0,1,79.8,47a2.22,2.22,0,0,1,2,2.39A2.26,2.26,0,0,1,79.71,51.67Z"/><path class="cls-1" d="M23.91,51.92c-2.34,1-4.63,1.19-6.81-.34a6.36,6.36,0,0,1-1.88-7.91,6.06,6.06,0,0,1,7.42-3.06,8.54,8.54,0,0,1,1.11.38c.82.32.82.32.71,1.28-2.82-1.27-5.61-2-7.89.94a5.81,5.81,0,0,0,0,6.59,4.73,4.73,0,0,0,3.79,2,8.33,8.33,0,0,0,4.23-1.18A.94.94,0,0,1,23.91,51.92Z"/><path class="cls-1" d="M27.86,13.85a2.68,2.68,0,1,1-2.68-2.62A2.67,2.67,0,0,1,27.86,13.85Z"/><path class="cls-1" d="M59.39,52q0-5.5,0-11c0-.25.11-.56-.37-.58s-.42.3-.42.6v4c-.37-.14-.63-.27-.91-.36a3.58,3.58,0,0,0-3.91.87,4.52,4.52,0,0,0-.4,5.52c1.15,1.65,2.81,2,4.9,1.07.12,0,.31-.25.31.09s.31.31.54.31C59.54,52.52,59.39,52.2,59.39,52ZM58,51.52a2.93,2.93,0,0,1-3.15-.28,3.34,3.34,0,0,1-1.23-3.48,3,3,0,0,1,4.73-1.95.61.61,0,0,1,.31.62c0,.72,0,1.44,0,2.16s0,1.26,0,1.88A.93.93,0,0,1,58,51.52Z"/><path class="cls-1" d="M63,48.23c1.42.05,2.83,0,4.25,0,1.09,0,1.09,0,.88-1.1a3.33,3.33,0,0,0-2.59-2.68,3.23,3.23,0,0,0-3.45,1.7,4.78,4.78,0,0,0-.53,2.68,3.82,3.82,0,0,0,5.9,3.25c.55-.32.84-.68.59-1.37a7,7,0,0,1-1.29.81,3,3,0,0,1-4.38-2.63C62.36,48.42,62.45,48.22,63,48.23Zm-.39-1.12A2.44,2.44,0,0,1,65,45.28a2.2,2.2,0,0,1,2.19,1.84c.1.35,0,.46-.31.44-.67,0-1.34,0-2,0s-1.3,0-1.94,0C62.56,47.58,62.52,47.44,62.62,47.11Z"/><path class="cls-1" d="M88.12,44.44a3.87,3.87,0,0,0-3.8,4.11,3.8,3.8,0,1,0,7.58,0A3.86,3.86,0,0,0,88.12,44.44Zm-.86,7.27a3.38,3.38,0,0,1-1.92-4.3,2.87,2.87,0,0,1,3.66-2,3.18,3.18,0,0,1,2,3.16C91,50.82,89.23,52.32,87.26,51.71Z"/><path class="cls-1" d="M46.24,51.25l-.24.14c-.25.15-.48.52-.76.38s-.14-.54-.14-.82c0-1.51,0-3,0-4.53a1.82,1.82,0,0,0-1.53-1.89,3.71,3.71,0,0,0-2.55.35c-.51.24-.79.55-.57,1.15.38-.21.74-.45,1.14-.63,1.67-.74,2.72,0,2.73,1.78,0,.5-.16.6-.62.64a4.77,4.77,0,0,0-3,1.17,2.3,2.3,0,0,0-.42,2.69,2.1,2.1,0,0,0,2.48.89,5.46,5.46,0,0,0,1.57-.81c.1.34,0,.76.43.9C45.28,52.85,46.33,51.92,46.24,51.25Zm-2-1.44a1.86,1.86,0,0,1-1.72,2.13,1.46,1.46,0,0,1-1.63-.64,1.4,1.4,0,0,1,.23-1.74A3.53,3.53,0,0,1,44,48.48c.26,0,.3.14.29.35S44.29,49.48,44.29,49.81Z"/><path class="cls-1" d="M109.85,51.27l-.18.11c-.24.16-.49.52-.75.4s-.17-.58-.17-.89c0-1.46,0-2.92,0-4.39a1.94,1.94,0,0,0-2-2,4.12,4.12,0,0,0-2.15.46.81.81,0,0,0-.51,1.14c.36-.21.66-.43,1-.59,1.75-.86,2.93-.09,2.89,1.84,0,.42-.17.48-.53.51a5.1,5.1,0,0,0-3,1.07,2.3,2.3,0,0,0-.55,2.78,2.11,2.11,0,0,0,2.54.9,8.77,8.77,0,0,0,1.53-.77c.15.81.28,1,.74.86C109.45,52.5,110,51.84,109.85,51.27Zm-1.9-1.5a2,2,0,0,1-2,2.2,1.44,1.44,0,0,1-1.42-.7,1.34,1.34,0,0,1,.15-1.57,3.46,3.46,0,0,1,3-1.22c.22,0,.27.12.26.31Z"/><path class="cls-1" d="M32.36,51.22c-.12.08-.22.17-.34.24s-.41.43-.65.33-.15-.5-.15-.75c0-1.51,0-3,0-4.53a1.89,1.89,0,0,0-1.58-2,3.81,3.81,0,0,0-2.5.36c-.52.25-.81.57-.6,1.19.36-.21.7-.45,1.07-.63,1.72-.8,2.8-.08,2.8,1.8,0,.47-.16.55-.58.59a5,5,0,0,0-2.91,1,2.26,2.26,0,0,0-.62,2.76,2.07,2.07,0,0,0,2.57,1,6.21,6.21,0,0,0,1.47-.76c.19.27.05.73.43.83.56.15.94-.28,1.37-.54A.58.58,0,0,0,32.36,51.22Zm-2-1.46c0,1.36-.6,2.08-1.86,2.2A1.43,1.43,0,0,1,27,51.28a1.39,1.39,0,0,1,.17-1.62,3.54,3.54,0,0,1,2.92-1.18c.23,0,.27.12.26.31Z"/><path class="cls-1" d="M35.41,52.64a7.92,7.92,0,0,1-1-.32.8.8,0,0,1-.6-1.15,5.6,5.6,0,0,0,2.14.66,1.49,1.49,0,0,0,1.66-1.07c.15-.62-.14-1.11-.93-1.52-.45-.23-.92-.42-1.38-.64-1.32-.65-1.8-1.61-1.38-2.72a2.45,2.45,0,0,1,3-1.34,3.2,3.2,0,0,1,.52.18c.76.32.76.32.73,1.2-.32,0-.52-.26-.78-.37a2.52,2.52,0,0,0-1.68-.28,1.31,1.31,0,0,0-1.13,1.07,1.16,1.16,0,0,0,.72,1.3c.66.33,1.34.63,2,1a1.94,1.94,0,0,1,1.09,1.6A2.33,2.33,0,0,1,35.41,52.64Z"/><path class="cls-1" d="M101.91,51.17a2.51,2.51,0,0,1-3,1.45,5.5,5.5,0,0,1-.92-.3c-.69-.3-.69-.31-.62-1.14a11.1,11.1,0,0,0,1.61.58,2.39,2.39,0,0,0,1.3,0,1.29,1.29,0,0,0,.93-1.1,1.14,1.14,0,0,0-.65-1.21c-.55-.3-1.12-.55-1.68-.82C97.64,48,97.16,47.08,97.49,46a2.4,2.4,0,0,1,2.78-1.54,4.55,4.55,0,0,1,1.23.45c.47.22.26.63.32,1.07a5.26,5.26,0,0,0-1.73-.74,1.86,1.86,0,0,0-1.21.18,1.18,1.18,0,0,0-.07,2.13c.52.31,1.08.53,1.62.79C101.77,49,102.31,50,101.91,51.17Z"/><path class="cls-1" d="M94.68,52.54c-.45,0-.46-.22-.46-.56,0-1.83,0-3.66,0-5.5s0-3.62,0-5.43c0-.28-.1-.6.4-.61s.41.32.41.6c0,3.64,0,7.29,0,10.93C95,52.21,95.18,52.53,94.68,52.54Z"/><path class="cls-1" d="M128.38,13.83a2.79,2.79,0,0,0-2.9,2.87,2.78,2.78,0,0,0,2.85,2.92,2.82,2.82,0,0,0,2.91-2.88A2.78,2.78,0,0,0,128.38,13.83Zm-.06,5.45a2.44,2.44,0,0,1-2.49-2.59,2.52,2.52,0,1,1,5,.08A2.39,2.39,0,0,1,128.32,19.28Zm1.15-1.6a2.08,2.08,0,0,0-.24-.34c-.25-.3-.36-.51.06-.84s.23-1-.37-1.15a5.11,5.11,0,0,0-1.76,0c.73.39.38.94.42,1.4s.16,1-.29,1.36h1.22c-.53-.34-.37-.76-.35-1.36l.52.71c.14.18.26.38.41.56s.37.26.55.1S129.55,17.81,129.47,17.68Zm-1.11-1.1c-.4,0-.17-.34-.24-.51s-.12-.51.28-.49.51.18.5.52A.46.46,0,0,1,128.36,16.58Z"/><path class="cls-1" d="M129.47,17.68a2.08,2.08,0,0,0-.24-.34c-.25-.3-.36-.51.06-.84s.23-1-.37-1.15a5.11,5.11,0,0,0-1.76,0c.73.39.38.94.42,1.4s.16,1-.29,1.36h1.22c-.53-.34-.37-.76-.35-1.36l.52.71c.14.18.26.38.41.56s.37.26.55.1S129.55,17.81,129.47,17.68Zm-1.11-1.1c-.4,0-.17-.34-.24-.51s-.12-.51.28-.49.51.18.5.52A.46.46,0,0,1,128.36,16.58Z"/><path class="cls-1" d="M129.47,17.68a2.08,2.08,0,0,0-.24-.34c-.25-.3-.36-.51.06-.84s.23-1-.37-1.15a5.11,5.11,0,0,0-1.76,0c.73.39.38.94.42,1.4s.16,1-.29,1.36h1.22c-.53-.34-.37-.76-.35-1.36l.52.71c.14.18.26.38.41.56s.37.26.55.1S129.55,17.81,129.47,17.68Zm-1.11-1.1c-.4,0-.17-.34-.24-.51s-.12-.51.28-.49.51.18.5.52A.46.46,0,0,1,128.36,16.58Z"/></g></g></svg>