<svg xmlns="http://www.w3.org/2000/svg" viewBox="0 0 57.12 47.01"><defs><style>.cls-1{fill:#d1d6ff;}.cls-2{fill:#e8eaff;}.cls-3,.cls-4{fill:none;stroke:#4637ff;stroke-linecap:round;}.cls-3{stroke-linejoin:round;stroke-width:1.7px;}.cls-4{stroke-miterlimit:10;stroke-width:1.7px;}.cls-5{fill:#4637ff;}</style></defs><g id="Capa_2" data-name="Capa 2"><g id="Capa_1-2" data-name="Capa 1"><rect class="cls-1" x="0.85" y="0.85" width="25.15" height="25.15" rx="5.38"/><rect class="cls-1" x="1.31" y="33.91" width="54.93" height="12.25" rx="3.94"/><rect class="cls-2" x="0.85" y="0.85" width="19.1" height="6.16" rx="2.68"/><polyline class="cls-3" points="5.06 11.56 7.18 15.84 9.34 11.48"/><polyline class="cls-3" points="11.93 15.84 13.88 11.48 16.86 15.84 20.14 11.48 21.8 15.84"/><path class="cls-4" d="M23.63,1.77A5.36,5.36,0,0,1,26,6.23v14.4A5.36,5.36,0,0,1,20.63,26H6.23A5.37,5.37,0,0,1,.85,20.63V6.23A5.38,5.38,0,0,1,6.23.85H16.86"/><rect class="cls-1" x="31.11" y="0.85" width="25.15" height="25.15" rx="5.38"/><rect class="cls-2" x="31.11" y="0.85" width="19.66" height="6.16" rx="2.72"/><polyline class="cls-3" points="35.32 11.56 37.44 15.84 39.6 11.48"/><polyline class="cls-3" points="42.2 15.84 44.14 11.48 47.13 15.84 50.4 11.48 52.06 15.84"/><path class="cls-4" d="M53.9,1.77a5.36,5.36,0,0,1,2.37,4.46v14.4A5.37,5.37,0,0,1,50.89,26H36.49a5.37,5.37,0,0,1-5.38-5.37V6.23A5.38,5.38,0,0,1,36.49.85H47.13"/><rect class="cls-2" x="1.31" y="40.04" width="34.01" height="6.12" rx="3.06"/><rect class="cls-4" x="1.31" y="33.91" width="54.93" height="12.25" rx="3.94"/><circle class="cls-4" cx="48.57" cy="40.04" r="2.2"/><circle class="cls-4" cx="41.49" cy="40.04" r="2.2"/><line class="cls-4" x1="5.87" y1="40.04" x2="19.95" y2="40.04"/><line class="cls-4" x1="24.39" y1="40.04" x2="27.08" y2="40.04"/><circle class="cls-5" cx="43.66" cy="29.91" r="1.3"/><circle class="cls-5" cx="13.43" cy="29.91" r="1.3"/></g></g></svg>