<svg xmlns="http://www.w3.org/2000/svg" viewBox="0 0 53.57 53.57"><defs><style>.cls-1{fill:#b9c1ff;}.cls-2{fill:#d1d6ff;}.cls-3{fill:#e8eaff;}.cls-4{fill:#a2acff;}.cls-5{fill:none;stroke:#4637ff;stroke-linecap:round;stroke-miterlimit:10;stroke-width:1.5px;}.cls-6{fill:#4637ff;}</style></defs><g id="Capa_2" data-name="Capa 2"><g id="Capa_1-2" data-name="Capa 1"><path class="cls-1" d="M26.78.77A3.77,3.77,0,1,1,23,4.54,3.77,3.77,0,0,1,26.78.77Z"/><path class="cls-2" d="M27.21,3a4,4,0,0,0-1.94,1.93A1.17,1.17,0,0,1,23,4.47,3.78,3.78,0,0,1,26.67.77,1.18,1.18,0,0,1,27.21,3Z"/><path class="cls-1" d="M49,23a3.77,3.77,0,1,1-3.76,3.77A3.77,3.77,0,0,1,49,23Z"/><path class="cls-2" d="M49.46,25.26a3.88,3.88,0,0,0-1.94,1.93,1.17,1.17,0,0,1-2.25-.47A3.77,3.77,0,0,1,48.91,23a1.18,1.18,0,0,1,.55,2.24Z"/><path class="cls-1" d="M4.54,23A3.77,3.77,0,1,1,.77,26.79,3.77,3.77,0,0,1,4.54,23Z"/><path class="cls-2" d="M5,25.26A4,4,0,0,0,3,27.19a1.17,1.17,0,0,1-2.25-.47A3.78,3.78,0,0,1,4.42,23,1.18,1.18,0,0,1,5,25.26Z"/><path class="cls-1" d="M26.71,45.27A3.76,3.76,0,1,1,23,49,3.76,3.76,0,0,1,26.71,45.27Z"/><path class="cls-2" d="M27.14,47.51a3.9,3.9,0,0,0-1.94,1.92A1.17,1.17,0,0,1,23,49a3.78,3.78,0,0,1,3.65-3.7,1.18,1.18,0,0,1,.54,2.24Z"/><path class="cls-3" d="M37.37,21.58a4.69,4.69,0,0,1-.11,1,5.47,5.47,0,0,1-1.6,2.63,7.87,7.87,0,0,1-1.12.9,14,14,0,0,1-7.76,2.12A14.07,14.07,0,0,1,19,26.1a9.18,9.18,0,0,1-1.12-.9,5.52,5.52,0,0,1-1.59-2.63,4.13,4.13,0,0,1-.12-1c.44-6.86,13-8.27,18.59-4.35a0,0,0,0,1,0,0l.15.1.27.21.26.23.16.15a2.5,2.5,0,0,1,.23.23,4.81,4.81,0,0,1,.42.48l.12.16A5.19,5.19,0,0,1,37.37,21.58Z"/><path class="cls-1" d="M37.37,23.26V26.8a4.43,4.43,0,0,1-.09.9,5.35,5.35,0,0,1-1.52,2.62,7.52,7.52,0,0,1-1.13.94,13.9,13.9,0,0,1-7.85,2.19,14,14,0,0,1-7.85-2.19,7.52,7.52,0,0,1-1.13-.94,5.33,5.33,0,0,1-1.51-2.62,4.43,4.43,0,0,1-.1-.9V23.24s.12-.53.35,0a4.52,4.52,0,0,0,.51.94,6.94,6.94,0,0,0,.75.89,10.85,10.85,0,0,0,4.95,2.63,16.29,16.29,0,0,0,4,.5,16.17,16.17,0,0,0,4-.5,10.75,10.75,0,0,0,4.95-2.63,6.29,6.29,0,0,0,.76-.89,5.52,5.52,0,0,0,.5-.92C37.25,22.71,37.37,23.26,37.37,23.26Z"/><path class="cls-4" d="M37.37,28.57v3.48a5.27,5.27,0,0,1-.1.89,5.45,5.45,0,0,1-1.54,2.61c-1.88,1.86-5.19,3.09-8.95,3.09s-7.06-1.23-8.94-3.09a5.36,5.36,0,0,1-1.54-2.62,4.22,4.22,0,0,1-.11-.93V28.57s.14-.58.4,0a5.88,5.88,0,0,0,.46.8,6.91,6.91,0,0,0,.79.94,10.93,10.93,0,0,0,5.05,2.62h0a16.64,16.64,0,0,0,7.77,0h0a11,11,0,0,0,5-2.62,6.91,6.91,0,0,0,.79-.94,7.07,7.07,0,0,0,.45-.8C37.23,28,37.37,28.57,37.37,28.57Z"/><path class="cls-5" d="M37.26,22.58a5.56,5.56,0,0,1-1.6,2.62,8.48,8.48,0,0,1-1.12.9,14,14,0,0,1-7.76,2.12A14.07,14.07,0,0,1,19,26.1a8.37,8.37,0,0,1-1.11-.9,5.48,5.48,0,0,1-1.6-2.62,4.21,4.21,0,0,1-.12-1c0-3.67,4.75-6.65,10.59-6.65a13.15,13.15,0,0,1,8.78,2.93"/><path class="cls-5" d="M37.37,23.26V26.8a4.43,4.43,0,0,1-.09.9,5.46,5.46,0,0,1-1.52,2.63,8.12,8.12,0,0,1-1.13.93,14,14,0,0,1-7.85,2.19,14,14,0,0,1-7.85-2.19,8.75,8.75,0,0,1-1.13-.93,5.44,5.44,0,0,1-1.51-2.63,4.43,4.43,0,0,1-.1-.9V23.24s.12-.54.35,0a4.79,4.79,0,0,0,.51.94,7.78,7.78,0,0,0,.75.9,10.83,10.83,0,0,0,5,2.62,16.45,16.45,0,0,0,8,0,10.74,10.74,0,0,0,4.95-2.62,6.17,6.17,0,0,0,.75-.9,4.94,4.94,0,0,0,.51-.92C37.25,22.71,37.37,23.26,37.37,23.26Z"/><path class="cls-5" d="M26.78,38.64c-3.76,0-7.06-1.23-8.94-3.09a5.36,5.36,0,0,1-1.54-2.62,4.24,4.24,0,0,1-.11-.94V28.57s.14-.58.41,0a4.92,4.92,0,0,0,.45.8,6.25,6.25,0,0,0,.79.94,10.93,10.93,0,0,0,5.05,2.62h0a16.64,16.64,0,0,0,7.77,0h0a11,11,0,0,0,5.06-2.62,6.17,6.17,0,0,0,.78-.94,5.33,5.33,0,0,0,.46-.8c.26-.58.4,0,.4,0v3.48a4.24,4.24,0,0,1-.1.88,5.42,5.42,0,0,1-1.54,2.62,10.54,10.54,0,0,1-4,2.32"/><path class="cls-5" d="M29.77,38.37l-.18,0-.52.08"/><line class="cls-5" x1="36.89" y1="19.63" x2="37.05" y2="20.02"/><path class="cls-5" d="M19,20.79A7.46,7.46,0,0,1,24.34,18"/><path class="cls-6" d="M30,45.82A4.54,4.54,0,0,0,22.38,48,21.61,21.61,0,0,1,5.62,31.19a4.54,4.54,0,0,0,2.12-7.61,4.44,4.44,0,0,0-2.12-1.2A21.59,21.59,0,0,1,19.14,6.56a.78.78,0,0,0,.45-1,.77.77,0,0,0-1-.45A23.15,23.15,0,0,0,4.06,22.28a4.44,4.44,0,0,0-2.73,1.3,4.53,4.53,0,0,0,2.73,7.71A23.14,23.14,0,0,0,22.27,49.5,4.54,4.54,0,1,0,30,45.82ZM2.42,28.9a3,3,0,1,1,4.23,0A3,3,0,0,1,2.42,28.9ZM28.9,51.15a3,3,0,1,1,0-4.23A3,3,0,0,1,28.9,51.15Z"/><path class="cls-6" d="M52.24,23.58a4.49,4.49,0,0,0-2.74-1.3A23.16,23.16,0,0,0,31.29,4.06a4.52,4.52,0,1,0-.1,1.56A21.61,21.61,0,0,1,48,22.38a4.54,4.54,0,0,0,0,8.81A21.63,21.63,0,0,1,34.13,47.12a.78.78,0,0,0-.46,1,.77.77,0,0,0,1,.46A23.15,23.15,0,0,0,49.5,31.29,4.54,4.54,0,0,0,52.24,23.58ZM28.9,6.65a3,3,0,1,1,0-4.23A3,3,0,0,1,28.9,6.65ZM51.15,28.9a3,3,0,1,1,0-4.23A3,3,0,0,1,51.15,28.9Z"/></g></g></svg>