<svg xmlns="http://www.w3.org/2000/svg" viewBox="0 0 42.31 45.9"><defs><style>.cls-1,.cls-3{fill:none;}.cls-1,.cls-3,.cls-4{stroke:#4637ff;stroke-linecap:round;stroke-miterlimit:10;}.cls-1,.cls-4{stroke-width:1.7px;}.cls-2{fill:#d1d6ff;}.cls-3{stroke-width:1.5px;}.cls-4{fill:#fff;}</style></defs><g id="Capa_2" data-name="Capa 2"><g id="Capa_1-2" data-name="Capa 1"><path class="cls-1" d="M.85,21.16a20.31,20.31,0,1,1,40.61,0"/><circle class="cls-2" cx="21.16" cy="21.16" r="13.58"/><path class="cls-1" d="M15.12,27.08a8.45,8.45,0,0,1,0-11.85"/><path class="cls-1" d="M27.19,15.23a8.46,8.46,0,0,1,0,11.85"/><path class="cls-3" d="M16.21,31.11a13.5,13.5,0,0,0,9.9,0"/><path class="cls-1" d="M13.08,37.43a22.35,22.35,0,0,0,16.15,0"/><path class="cls-1" d="M31.18,12a13.56,13.56,0,0,1,0,18.32"/><path class="cls-1" d="M11.13,30.32a13.59,13.59,0,0,1,0-18.32h0"/><polyline class="cls-1" points="9.28 45.05 16.21 31.11 18.5 26.49 19.55 24.39 21.16 21.16 22.76 24.39 23.81 26.49 26.11 31.11 33.03 45.05"/><path class="cls-4" d="M23.85,21.16a2.7,2.7,0,1,1-2.69-2.7A2.7,2.7,0,0,1,23.85,21.16Z"/></g></g></svg>