<svg xmlns="http://www.w3.org/2000/svg" viewBox="0 0 57.72 51.16"><defs><style>.cls-1{fill:#d1d6ff;}.cls-2{fill:#b9c1ff;}.cls-3{fill:#e8eaff;}.cls-4{fill:#4637ff;}</style></defs><g id="Capa_2" data-name="Capa 2"><g id="Capa_1-2" data-name="Capa 1"><path class="cls-1" d="M32.78,8.11A3.51,3.51,0,0,0,29.27,4.6h-9a3.51,3.51,0,0,0-3.51,3.51V46.77a3.51,3.51,0,0,0,3.51,3.51h9a3.51,3.51,0,0,0,3.51-3.51,3.52,3.52,0,0,0,3.52,3.51h9a3.52,3.52,0,0,0,3.52-3.51V8.11A3.52,3.52,0,0,0,45.3,4.6h-9A3.52,3.52,0,0,0,32.78,8.11Z"/><path class="cls-1" d="M16.91,46.77a3.51,3.51,0,0,1-3.51,3.51h-9A3.51,3.51,0,0,1,.88,46.77V8.11A3.51,3.51,0,0,1,4.39,4.6h9a3.51,3.51,0,0,1,3.51,3.51Z"/><circle class="cls-2" cx="24.77" cy="41.06" r="2.09"/><circle class="cls-2" cx="40.8" cy="41.06" r="2.09"/><path class="cls-3" d="M44.43,8.1V42.16a2.64,2.64,0,0,1-2.64,2.63h-7a2,2,0,0,0-2,2,3.52,3.52,0,0,0,3.52,3.51h9a3.51,3.51,0,0,0,3.52-3.51V8.11a2.2,2.2,0,1,0-4.39,0Z"/><path class="cls-3" d="M28.39,8.1V42.16a2.63,2.63,0,0,1-2.63,2.63h-7a2,2,0,0,0-2,2,3.51,3.51,0,0,0,3.51,3.51h9a3.51,3.51,0,0,0,3.51-3.51V8.11A2.2,2.2,0,1,0,28.39,8.1Z"/><path class="cls-3" d="M12.52,8.1V42.16a2.64,2.64,0,0,1-2.64,2.63h-7a2,2,0,0,0-2,2,3.51,3.51,0,0,0,3.51,3.51h9a3.51,3.51,0,0,0,3.51-3.51V8.11A2.2,2.2,0,1,0,12.52,8.1Z"/><path class="cls-4" d="M51.33,9.16A1.65,1.65,0,1,0,50.16,12a1.65,1.65,0,0,0,1.17-2.81ZM54.2,6.29A.88.88,0,0,1,53,7.53a4,4,0,0,0-5.6,0,.88.88,0,1,1-1.24-1.24A5.72,5.72,0,0,1,54.2,6.29ZM43.48,4.53A.88.88,0,0,1,42.86,3a10.31,10.31,0,0,1,14.6,0,.88.88,0,1,1-1.24,1.24,8.58,8.58,0,0,0-12.12,0,.87.87,0,0,1-.62.26Zm-2.79.07a.88.88,0,0,1-.88.88H36.3a2.64,2.64,0,0,0-2.64,2.63V46.77a2.65,2.65,0,0,0,2.64,2.64h9a2.64,2.64,0,0,0,2.64-2.64V16.86a.88.88,0,0,1,1.76,0V46.77a4.4,4.4,0,0,1-4.4,4.39h-9a4.4,4.4,0,0,1-3.52-1.76,4.37,4.37,0,0,1-3.51,1.76h-9a4.4,4.4,0,0,1-4.39-4.39V8.11a4.4,4.4,0,0,1,4.39-4.39h6.59a.88.88,0,1,1,0,1.76H20.26a2.63,2.63,0,0,0-2.63,2.63V46.77a2.64,2.64,0,0,0,2.63,2.64h9a2.65,2.65,0,0,0,2.64-2.64V8.11A4.4,4.4,0,0,1,36.3,3.72h3.51A.87.87,0,0,1,40.69,4.6Zm3.08,36.46a3,3,0,1,0-3,3A3,3,0,0,0,43.77,41.06Zm-1.76,0a1.21,1.21,0,1,1-1.21-1.21A1.21,1.21,0,0,1,42,41.06Zm-.33-7.91a.88.88,0,1,1-1.76,0v-3.4a.88.88,0,0,1,1.76,0Zm-.88-6.7a.88.88,0,0,1-.88-.88V11.74a.88.88,0,0,1,1.76,0V25.57A.87.87,0,0,1,40.8,26.45ZM27.73,41.06a3,3,0,1,0-3,3A3,3,0,0,0,27.73,41.06Zm-1.75,0a1.21,1.21,0,1,1-1.21-1.21A1.21,1.21,0,0,1,26,41.06Zm-.33-7.91a.88.88,0,1,1-1.76,0V18.76a.88.88,0,0,1,1.76,0Zm0-18.56a.88.88,0,0,1-1.76,0V11.74a.88.88,0,1,1,1.76,0Z"/><path class="cls-4" d="M17.55,7.24V47.42a3.35,3.35,0,0,1-.64,2,4.38,4.38,0,0,1-3.51,1.76h-9A4.4,4.4,0,0,1,0,46.77V8.11A4.4,4.4,0,0,1,4.39,3.72H11a.88.88,0,0,1,0,1.76H4.39A2.63,2.63,0,0,0,1.76,8.11V46.77a2.64,2.64,0,0,0,2.63,2.64h9A2.64,2.64,0,0,0,16,46.77V7.24M11.86,41.06a3,3,0,1,0-3,3A3,3,0,0,0,11.86,41.06Zm-1.76,0a1.21,1.21,0,1,1-1.2-1.21A1.21,1.21,0,0,1,10.1,41.06Zm-.33-7.91a.88.88,0,1,1-1.75,0V18.76a.88.88,0,0,1,1.75,0Zm0-18.56a.88.88,0,1,1-1.75,0V11.74a.88.88,0,1,1,1.75,0Z"/></g></g></svg>