<svg xmlns="http://www.w3.org/2000/svg" viewBox="0 0 53.17 42.24"><defs><style>.cls-1{fill:#d1d6ff;}.cls-2{fill:#b9c1ff;}.cls-3,.cls-5{fill:#e8eaff;}.cls-4{fill:#4637ff;}.cls-5,.cls-6{stroke:#4637ff;stroke-miterlimit:10;stroke-width:1.5px;}.cls-6{fill:none;stroke-linecap:round;}</style></defs><g id="Capa_2" data-name="Capa 2"><g id="Capa_1-2" data-name="Capa 1"><path class="cls-1" d="M43.05,25.33a3.52,3.52,0,0,1,3.52,3.51v9a3.52,3.52,0,0,1-3.52,3.51H4.39A3.51,3.51,0,0,1,.88,37.85v-9a3.51,3.51,0,0,1,3.51-3.51A3.51,3.51,0,0,1,.88,21.82v-9A3.51,3.51,0,0,1,4.39,9.3H43.05a3.52,3.52,0,0,1,3.52,3.51v9A3.52,3.52,0,0,1,43.05,25.33Z"/><circle class="cls-2" cx="10.1" cy="33.35" r="2.09"/><circle class="cls-2" cx="10.1" cy="17.31" r="2.09"/><path class="cls-3" d="M43.06,13.69H9a2.64,2.64,0,0,0-2.64,2.63v7a2,2,0,0,1-2,2A3.51,3.51,0,0,1,.88,21.82v-9A3.51,3.51,0,0,1,4.39,9.3H43.05a2.2,2.2,0,1,1,0,4.39Z"/><path class="cls-3" d="M43.06,29.72H9a2.64,2.64,0,0,0-2.64,2.64v7a2,2,0,0,1-2,2A3.51,3.51,0,0,1,.88,37.85v-9a3.51,3.51,0,0,1,3.51-3.51H43.05A2.2,2.2,0,1,1,43.06,29.72Z"/><path class="cls-4" d="M47.44,14.09v7.73a4.4,4.4,0,0,1-4.39,4.39H4.39a2.63,2.63,0,0,0-2.63,2.63v9a2.64,2.64,0,0,0,2.63,2.64H43.05a2.65,2.65,0,0,0,2.64-2.64V31.26a.88.88,0,1,1,1.75,0v6.59a4.4,4.4,0,0,1-4.39,4.39H4.39A4.4,4.4,0,0,1,0,37.85v-9a4.38,4.38,0,0,1,1.76-3.51A4.38,4.38,0,0,1,0,21.82v-9A4.4,4.4,0,0,1,4.39,8.42H40.51a.88.88,0,1,1,0,1.75H4.39a2.64,2.64,0,0,0-2.63,2.64v9a2.63,2.63,0,0,0,2.63,2.63H43.05a2.64,2.64,0,0,0,2.64-2.63V14.09a.88.88,0,1,1,1.75,0ZM7.14,17.31a3,3,0,1,0,3-3A3,3,0,0,0,7.14,17.31Zm4.17,0A1.21,1.21,0,1,1,10.1,16.1,1.21,1.21,0,0,1,11.31,17.31Zm10.11-.88a.88.88,0,0,1,0,1.76H18a.88.88,0,0,1,0-1.76Zm4.17,0H31a.88.88,0,0,1,0,1.76H25.59a.88.88,0,0,1,0-1.76ZM7.14,33.35a3,3,0,1,0,3-3A3,3,0,0,0,7.14,33.35Zm4.17,0a1.21,1.21,0,1,1-1.21-1.21A1.21,1.21,0,0,1,11.31,33.35Zm21.09-.88a.88.88,0,1,1,0,1.76H18a.88.88,0,0,1,0-1.76Zm7,0a.88.88,0,1,1,0,1.76H36.57a.88.88,0,1,1,0-1.76Z"/><circle class="cls-5" cx="43.38" cy="9.79" r="9.04"/><polyline class="cls-6" points="39.78 11.36 42.36 13.61 48.52 7.45"/></g></g></svg>