<svg xmlns="http://www.w3.org/2000/svg" viewBox="0 0 51.56 49.66"><defs><style>.cls-1{fill:#d1d6ff;}.cls-2{fill:#b9c1ff;}.cls-3{fill:#e8eaff;}.cls-4{fill:#4637ff;}.cls-5{fill:#a2acff;}.cls-6,.cls-7{fill:none;stroke:#4637ff;stroke-linejoin:round;stroke-width:1.7px;}.cls-7{stroke-linecap:round;}</style></defs><g id="Capa_2" data-name="Capa 2"><g id="Capa_1-2" data-name="Capa 1"><path class="cls-1" d="M43.05,32.75a3.52,3.52,0,0,1,3.52,3.51v9a3.52,3.52,0,0,1-3.52,3.51H4.39A3.51,3.51,0,0,1,.88,45.27v-9a3.51,3.51,0,0,1,3.51-3.51A3.52,3.52,0,0,1,.88,29.23v-9a3.52,3.52,0,0,1,3.51-3.52H43.05a3.53,3.53,0,0,1,3.52,3.52v9A3.53,3.53,0,0,1,43.05,32.75Z"/><circle class="cls-2" cx="10.1" cy="40.76" r="2.09"/><circle class="cls-2" cx="10.1" cy="24.73" r="2.09"/><path class="cls-3" d="M43.06,21.1H9a2.64,2.64,0,0,0-2.64,2.64v7a2,2,0,0,1-2,2A3.52,3.52,0,0,1,.88,29.23v-9a3.51,3.51,0,0,1,3.51-3.52H43.05a2.2,2.2,0,1,1,0,4.39Z"/><path class="cls-3" d="M43.06,37.14H9a2.64,2.64,0,0,0-2.64,2.63v7a2,2,0,0,1-2,2A3.51,3.51,0,0,1,.88,45.27v-9a3.51,3.51,0,0,1,3.51-3.51H43.05A2.2,2.2,0,1,1,43.06,37.14Z"/><path class="cls-4" d="M47.44,28.13v1.1a4.4,4.4,0,0,1-4.39,4.39H4.39a2.64,2.64,0,0,0-2.63,2.64v9A2.63,2.63,0,0,0,4.39,47.9H43.05a2.64,2.64,0,0,0,2.64-2.63V38.68a.88.88,0,1,1,1.75,0v6.59a4.4,4.4,0,0,1-4.39,4.39H4.39A4.4,4.4,0,0,1,0,45.27v-9a4.37,4.37,0,0,1,1.76-3.51A4.4,4.4,0,0,1,0,29.23v-9a4.4,4.4,0,0,1,4.39-4.4H25.2a.88.88,0,0,1,0,1.76H4.39a2.64,2.64,0,0,0-2.63,2.64v9a2.64,2.64,0,0,0,2.63,2.64H43.05a2.65,2.65,0,0,0,2.64-2.64v-1.1a.88.88,0,1,1,1.75,0Zm-40.3-3.4a3,3,0,1,0,3-3A3,3,0,0,0,7.14,24.73Zm4.17,0a1.21,1.21,0,1,1-1.21-1.21A1.21,1.21,0,0,1,11.31,24.73Zm10.11-.88a.88.88,0,0,1,0,1.76H18a.88.88,0,1,1,0-1.76Zm4.17,0H31a.88.88,0,0,1,0,1.76H25.59a.88.88,0,0,1,0-1.76ZM7.14,40.76a3,3,0,1,0,3-3A3,3,0,0,0,7.14,40.76Zm4.17,0a1.21,1.21,0,1,1-1.21-1.21A1.21,1.21,0,0,1,11.31,40.76Zm21.09-.88a.88.88,0,0,1,0,1.76H18a.88.88,0,0,1,0-1.76Zm7,0a.88.88,0,0,1,0,1.76H36.57a.88.88,0,1,1,0-1.76Z"/><path class="cls-5" d="M32.7,22.64a27.54,27.54,0,0,0,7.66,5.84h0c3.43-1.84,11.44-4.63,10.35-16.65-4.46-1.72-10.09-4.31-10.09-4.31C46.35,13.6,40,21.78,32.7,22.64Z"/><path class="cls-4" d="M43,14.88a2.66,2.66,0,1,0-4,2.32v1.87a1.29,1.29,0,1,0,2.58,0V17.2A2.67,2.67,0,0,0,43,14.88Z"/><path class="cls-6" d="M50.71,11.83v6.34s-.35,5.12-10.39,10.31h0c-10-5.19-10.4-10.31-10.4-10.31V11.83C29.87,11.58,38.3,8.2,40,7.52a.88.88,0,0,1,.6,0c1.71.68,10.14,4.06,10.09,4.31"/><path class="cls-7" d="M47.44,10.11V8A7.11,7.11,0,0,0,40.33.85h0A7.12,7.12,0,0,0,33.21,8v2.14"/></g></g></svg>