<svg xmlns="http://www.w3.org/2000/svg" viewBox="0 0 49.4 49.4"><defs><style>.cls-1{fill:#d1d6ff;}.cls-2{fill:#e8eaff;}.cls-3{fill:#4637ff;}.cls-4,.cls-5{fill:none;stroke:#4637ff;stroke-linecap:round;stroke-miterlimit:10;}.cls-4{stroke-width:1.7px;}.cls-5{stroke-width:1.5px;}</style></defs><g id="Capa_2" data-name="Capa 2"><g id="Capa_1-2" data-name="Capa 1"><path class="cls-1" d="M40.13,12.55V36.84a3.29,3.29,0,0,1-3.29,3.29H12.55a3.29,3.29,0,0,1-3.29-3.29V12.55a3.3,3.3,0,0,1,3.29-3.29H36.84A3.29,3.29,0,0,1,40.13,12.55Z"/><path class="cls-2" d="M40.13,12.55v6.73a1.66,1.66,0,0,1-2,1.61A22.64,22.64,0,0,0,12.33,32.72a1.65,1.65,0,0,1-3.11-.78l0-19.38a3.3,3.3,0,0,1,3.29-3.3H36.84a3.29,3.29,0,0,1,3.29,3.29Z"/><path class="cls-3" d="M41,12.55v19a.83.83,0,0,1-1.65,0v-19a2.47,2.47,0,0,0-2.47-2.46H12.55a2.46,2.46,0,0,0-2.46,2.46V36.84a2.47,2.47,0,0,0,2.46,2.47H36.84a2.48,2.48,0,0,0,2.47-2.47.83.83,0,0,1,1.65,0A4.13,4.13,0,0,1,36.84,41H12.55a4.12,4.12,0,0,1-4.11-4.12V12.55a4.12,4.12,0,0,1,4.11-4.11H36.84A4.12,4.12,0,0,1,41,12.55ZM24.7,6a.82.82,0,0,0,.82-.82V.82a.83.83,0,0,0-1.65,0V5.15A.83.83,0,0,0,24.7,6ZM16.47,6a.82.82,0,0,0,.82-.82V.82a.83.83,0,0,0-1.65,0V5.15A.83.83,0,0,0,16.47,6ZM32.93,6a.82.82,0,0,0,.82-.82V.82a.82.82,0,0,0-1.64,0V5.15A.82.82,0,0,0,32.93,6ZM24.7,43.43a.83.83,0,0,0-.83.82v4.32a.83.83,0,1,0,1.65,0V44.25A.82.82,0,0,0,24.7,43.43Zm8.23,0a.82.82,0,0,0-.82.82v4.32a.82.82,0,1,0,1.64,0V44.25A.82.82,0,0,0,32.93,43.43Zm-16.46,0a.83.83,0,0,0-.83.82v4.32a.83.83,0,1,0,1.65,0V44.25A.82.82,0,0,0,16.47,43.43Zm32.1-19.56H44.25a.83.83,0,0,0,0,1.65h4.32a.83.83,0,1,0,0-1.65Zm-4.32-6.58h4.32a.83.83,0,1,0,0-1.65H44.25a.83.83,0,0,0,0,1.65Zm4.32,14.82H44.25a.82.82,0,0,0,0,1.64h4.32a.82.82,0,1,0,0-1.64ZM5.15,23.87H.82a.83.83,0,0,0,0,1.65H5.15a.83.83,0,0,0,0-1.65Zm0,8.24H.82a.82.82,0,0,0,0,1.64H5.15a.82.82,0,0,0,0-1.64Zm0-16.47H.82a.83.83,0,0,0,0,1.65H5.15a.83.83,0,0,0,0-1.65Z"/><path class="cls-4" d="M35.92,32.11v1a2.79,2.79,0,0,1-2.79,2.79H16.27a2.8,2.8,0,0,1-2.8-2.79V16.27a2.81,2.81,0,0,1,2.8-2.8H33.13a2.8,2.8,0,0,1,2.79,2.8v8.82"/><line class="cls-5" x1="35.92" y1="27.52" x2="35.92" y2="29.19"/><line class="cls-4" x1="24.7" y1="21.97" x2="24.7" y2="27.42"/><line class="cls-4" x1="21.97" y1="24.7" x2="27.42" y2="24.7"/></g></g></svg>