<svg xmlns="http://www.w3.org/2000/svg" viewBox="0 0 52.6 55.8"><defs><style>.cls-1{fill:#d1d6ff;}.cls-2{fill:#e8eaff;}.cls-3,.cls-4{fill:none;stroke:#4637ff;stroke-linecap:round;stroke-width:1.7px;}.cls-3{stroke-miterlimit:10;}.cls-4{stroke-linejoin:round;}</style></defs><g id="Capa_2" data-name="Capa 2"><g id="Capa_1-2" data-name="Capa 1"><rect class="cls-1" x="16.5" y="9.28" width="19.61" height="45.67" rx="3.06"/><path class="cls-2" d="M29,11.54V46.59A2.71,2.71,0,0,1,26.3,49.3H21.4c-2.54,0-4.9.91-4.9,2,0,2,1.06,3.62,3.06,3.62H32.25a3.62,3.62,0,0,0,3.62-3.62V11.56C35.87,8.45,29,8.6,29,11.54Z"/><path class="cls-3" d="M32.13,9.28h1a2.93,2.93,0,0,1,2.93,2.92V52A2.93,2.93,0,0,1,33.18,55H19.42A2.92,2.92,0,0,1,16.5,52V12.2a2.92,2.92,0,0,1,2.92-2.92h8.71"/><line class="cls-3" x1="22.46" y1="36.16" x2="30.14" y2="36.16"/><line class="cls-3" x1="22.46" y1="28.07" x2="30.14" y2="28.07"/><line class="cls-3" x1="22.46" y1="19.98" x2="30.14" y2="19.98"/><line class="cls-3" x1="22.46" y1="44.25" x2="30.14" y2="44.25"/><rect class="cls-1" x="0.85" y="13.9" width="15.65" height="36.44" rx="2.44"/><path class="cls-2" d="M10.84,15.7v28a2.16,2.16,0,0,1-2.17,2.16H4.77c-2,0-3.92.73-3.92,1.63,0,1.59.85,2.88,2.44,2.88H13.42a2.89,2.89,0,0,0,2.89-2.88V15.71C16.31,13.23,10.84,13.35,10.84,15.7Z"/><path class="cls-3" d="M13.32,13.9h.84a2.33,2.33,0,0,1,2.34,2.33V48a2.33,2.33,0,0,1-2.34,2.33h-11A2.33,2.33,0,0,1,.85,48V16.23A2.33,2.33,0,0,1,3.18,13.9h7"/><line class="cls-3" x1="5.61" y1="35.34" x2="11.74" y2="35.34"/><line class="cls-3" x1="5.61" y1="28.89" x2="11.74" y2="28.89"/><line class="cls-3" x1="5.61" y1="22.43" x2="11.74" y2="22.43"/><line class="cls-3" x1="5.61" y1="41.8" x2="11.74" y2="41.8"/><rect class="cls-1" x="36.11" y="13.9" width="15.65" height="36.44" rx="2.44"/><path class="cls-2" d="M46.09,15.7v28a2.16,2.16,0,0,1-2.16,2.16H40c-2,0-3.91.73-3.91,1.63,0,1.59.84,2.88,2.44,2.88H48.68a2.88,2.88,0,0,0,2.88-2.88V15.71C51.56,13.23,46.09,13.35,46.09,15.7Z"/><path class="cls-3" d="M48.58,13.9h.84a2.33,2.33,0,0,1,2.33,2.33V48a2.33,2.33,0,0,1-2.33,2.33h-11A2.33,2.33,0,0,1,36.11,48V16.23a2.33,2.33,0,0,1,2.33-2.33h7"/><line class="cls-3" x1="40.86" y1="35.34" x2="46.99" y2="35.34"/><line class="cls-3" x1="40.86" y1="28.89" x2="46.99" y2="28.89"/><line class="cls-3" x1="40.86" y1="22.43" x2="46.99" y2="22.43"/><line class="cls-3" x1="40.86" y1="41.8" x2="46.99" y2="41.8"/><polyline class="cls-4" points="17.6 0.93 19.72 5.21 21.89 0.85"/><polyline class="cls-4" points="24.48 5.21 26.42 0.85 29.41 5.21 32.68 0.85 34.34 5.21"/><polyline class="cls-4" points="12.84 3.39 8.63 3.39 8.63 7.3"/><polyline class="cls-4" points="43.98 7.45 43.98 3.23 40.06 3.23"/></g></g></svg>