<svg xmlns="http://www.w3.org/2000/svg" viewBox="0 0 127.04 127.04"><defs><style>.cls-1{fill:#fff;}.cls-2{fill:#fe5000;}</style></defs><g id="Capa_2" data-name="Capa 2"><g id="Capa_1-2" data-name="Capa 1"><circle class="cls-1" cx="63.52" cy="63.52" r="63.52"/><path class="cls-2" d="M82.89,63.52A19.37,19.37,0,1,0,49.23,76.58L45.11,80.7A1,1,0,0,0,46.46,82l4.12-4.12a19.36,19.36,0,0,0,32.31-14.4Zm-10-1h-8.4V46.94C67.12,49,72.48,54.27,72.87,62.57ZM62.57,46.08V62.57h-8.4A20.71,20.71,0,0,1,59.42,50,.95.95,0,1,0,58,48.71a22.46,22.46,0,0,0-5.72,13.86H46.08A17.49,17.49,0,0,1,62.57,46.08ZM46.08,64.47h6.19A23.16,23.16,0,0,0,60.34,80.7,17.51,17.51,0,0,1,46.08,64.47Zm8.09,0h8.4V80.08A21.29,21.29,0,0,1,54.17,64.47ZM64.47,81V64.47h8.39a20.67,20.67,0,0,1-5.57,13,1,1,0,0,0,1.41,1.28,22.56,22.56,0,0,0,6.07-14.25h3a1,1,0,1,0,0-1.9h-3A23.2,23.2,0,0,0,66.7,46.34,17.47,17.47,0,0,1,64.47,81ZM84.9,83.67l-4.61-4.6a.93.93,0,0,0-1.34,0,1,1,0,0,0,0,1.34L83.58,85a4.58,4.58,0,1,0,1.32-1.37Zm2.56,6.46a2.67,2.67,0,1,1,2.67-2.67A2.67,2.67,0,0,1,87.46,90.13ZM42,43.46l4.64,4.63A.95.95,0,0,0,48,46.75l-4.61-4.61A4.57,4.57,0,1,0,42,43.46ZM39.58,36.9a2.68,2.68,0,1,1-2.68,2.68A2.68,2.68,0,0,1,39.58,36.9Zm0,46a4.58,4.58,0,1,0,4.57,4.57A4.58,4.58,0,0,0,39.58,82.89Zm0,7.24a2.67,2.67,0,1,1,2.67-2.67A2.67,2.67,0,0,1,39.58,90.13ZM80.29,48l4.61-4.61A4.57,4.57,0,1,0,83.58,42L79,46.63A.95.95,0,0,0,80.29,48ZM87.46,36.9a2.68,2.68,0,1,1-2.67,2.68A2.67,2.67,0,0,1,87.46,36.9Z"/></g></g></svg>