<svg xmlns="http://www.w3.org/2000/svg" viewBox="0 0 127.04 127.04"><defs><style>.cls-1{fill:#fff;}.cls-2{fill:#fe5000;}</style></defs><g id="Capa_2" data-name="Capa 2"><g id="Capa_1-2" data-name="Capa 1"><circle class="cls-1" cx="63.52" cy="63.52" r="63.52"/><path class="cls-2" d="M63.52,79.75a12.61,12.61,0,0,1-12.6-12.6V56.47h-.84a1,1,0,1,1,0-1.92h5v-10a1,1,0,0,1,1.92,0v10H70v-10a1,1,0,1,1,1.92,0v10h5a1,1,0,1,1,0,1.92H52.84V67.15a10.68,10.68,0,1,0,21.36,0V59.71a1,1,0,0,1,1.92,0v7.44a12.61,12.61,0,0,1-12.6,12.6Zm0-6.36a1,1,0,0,0,.86-.53l2.88-5.76a1,1,0,0,0-.86-1.39H62.19l2.19-4.37a1,1,0,1,0-1.72-.86l-2.88,5.76a1,1,0,0,0,.86,1.39h4.21L62.66,72a1,1,0,0,0,.86,1.39Zm26.38-.74a1,1,0,0,0-1.24.56,26.92,26.92,0,0,1-20.84,17,2.88,2.88,0,0,1-3.34-2.85V84h1.08a1,1,0,0,0,0-1.92H61.48a1,1,0,0,0,0,1.92h1.08v3.41a4.8,4.8,0,0,0,5.57,4.74A28.82,28.82,0,0,0,90.45,73.89,1,1,0,0,0,89.9,72.65Zm1-4a1,1,0,0,0-1.14.74c0,.16-.07.32-.11.48a1,1,0,0,0,1.87.43c0-.17.08-.33.11-.51a1,1,0,0,0-.73-1.14ZM63.52,34.87A28.82,28.82,0,0,0,45.93,86.48a1,1,0,0,0,.59.2A1,1,0,0,0,47.11,85,26.88,26.88,0,1,1,90.4,63.67a1,1,0,0,0,1.92,0A28.78,28.78,0,0,0,63.52,34.87Z"/></g></g></svg>