<svg xmlns="http://www.w3.org/2000/svg" viewBox="0 0 127.04 127.04"><defs><style>.cls-1{fill:#fff;}.cls-2{fill:#fe5000;}</style></defs><g id="Capa_2" data-name="Capa 2"><g id="Capa_1-2" data-name="Capa 1"><circle class="cls-1" cx="63.52" cy="63.52" r="63.52"/><path class="cls-2" d="M61.93,68.45a1.59,1.59,0,1,0,1.59-1.6A1.59,1.59,0,0,0,61.93,68.45Zm4.5-2.91a4.13,4.13,0,0,0-5.82,0,.9.9,0,0,1-1.27-1.27,5.91,5.91,0,0,1,8.36,0,.9.9,0,0,1-1.27,1.27Zm3.38-3.38a8.88,8.88,0,0,0-12.58,0,.9.9,0,0,1-1.27,0,.91.91,0,0,1,0-1.28,10.7,10.7,0,0,1,15.12,0,.9.9,0,0,1-.64,1.54.89.89,0,0,1-.63-.26ZM63.52,50.48a13,13,0,1,0,12.2,17.65.9.9,0,0,1,1.69.63,14.85,14.85,0,1,1,1-5.24.9.9,0,0,1-1.8,0,13.06,13.06,0,0,0-13-13ZM42.45,77.33a25.2,25.2,0,0,1,0-27.62,5.29,5.29,0,0,0,8-4.52,5.23,5.23,0,0,0-.77-2.74,25.21,25.21,0,0,1,24.18-1.89.9.9,0,0,0,.74-1.64,27,27,0,0,0-26.11,2.17,5.28,5.28,0,0,0-7.43,7.43,27,27,0,0,0,0,30,5.28,5.28,0,1,0,1.36-1.19Zm2.74-35.62a3.49,3.49,0,1,1-3.48,3.48A3.49,3.49,0,0,1,45.19,41.71Zm0,43.62a3.49,3.49,0,1,1,3.49-3.49A3.48,3.48,0,0,1,45.19,85.33ZM86,48.52a5.29,5.29,0,1,0-1.37,1.19,25.18,25.18,0,0,1,0,27.62,5.28,5.28,0,0,0-8,4.51,5.21,5.21,0,0,0,.77,2.74,25.22,25.22,0,0,1-24.51,1.75A.89.89,0,1,0,52.06,88a27,27,0,0,0,26.46-2A5.28,5.28,0,0,0,86,78.52a27,27,0,0,0,0-30Zm-7.59-3.33a3.49,3.49,0,1,1,3.48,3.49A3.48,3.48,0,0,1,78.36,45.19Zm3.48,40.14a3.49,3.49,0,1,1,3.49-3.49A3.48,3.48,0,0,1,81.84,85.33Z"/></g></g></svg>