<svg xmlns="http://www.w3.org/2000/svg" xmlns:xlink="http://www.w3.org/1999/xlink" viewBox="0 0 75.29 64.45"><defs><style>.cls-1{fill:url(#Degradado_sin_nombre_3);}.cls-2{fill:url(#Degradado_sin_nombre_2);}.cls-3{fill:url(#Degradado_sin_nombre_5);}.cls-4{fill:url(#Degradado_sin_nombre_5-2);}.cls-5{fill:#fff;}.cls-6{fill:url(#Degradado_sin_nombre_5-3);}.cls-7{fill:url(#Degradado_sin_nombre_6);}.cls-8{fill:#8c8c8c;}.cls-9{fill:#4d4d4d;}.cls-10{fill:#252525;}.cls-11{fill:url(#Degradado_sin_nombre_7);}</style><linearGradient id="Degradado_sin_nombre_3" x1="5771.85" y1="-678.16" x2="5771.85" y2="-730.64" gradientTransform="matrix(1, 0, 0, -1, -5734.21, -677.22)" gradientUnits="userSpaceOnUse"><stop offset="0.19" stop-color="#fff"/><stop offset="0.21" stop-color="#f8f8f8"/><stop offset="0.37" stop-color="#aeaeae"/><stop offset="0.51" stop-color="#707070"/><stop offset="0.65" stop-color="#404040"/><stop offset="0.76" stop-color="#1d1d1d"/><stop offset="0.86" stop-color="#080808"/><stop offset="0.92"/></linearGradient><radialGradient id="Degradado_sin_nombre_2" cx="5750.72" cy="-664.24" r="52.5" gradientTransform="matrix(1, 0, 0, -1, -5734.21, -677.22)" gradientUnits="userSpaceOnUse"><stop offset="0.2" stop-color="#fff"/><stop offset="0.38" stop-color="#fdfdfd"/><stop offset="0.49" stop-color="#f4f4f4"/><stop offset="0.57" stop-color="#e6e6e6"/><stop offset="0.65" stop-color="#d2d2d2"/><stop offset="0.69" stop-color="#c4c4c4"/><stop offset="1" stop-color="#333"/></radialGradient><radialGradient id="Degradado_sin_nombre_5" cx="5877.78" cy="-748.34" r="109.34" gradientTransform="matrix(1, 0, 0, -1, -5734.21, -677.22)" gradientUnits="userSpaceOnUse"><stop offset="0.2" stop-color="#fff"/><stop offset="0.37" stop-color="#e4e4e4"/><stop offset="0.59" stop-color="#c4c4c4"/><stop offset="1" stop-color="#333"/></radialGradient><radialGradient id="Degradado_sin_nombre_5-2" cx="5763.33" cy="-724.21" r="33.57" xlink:href="#Degradado_sin_nombre_5"/><radialGradient id="Degradado_sin_nombre_5-3" cx="5790.42" cy="-758.53" r="63.7" xlink:href="#Degradado_sin_nombre_5"/><radialGradient id="Degradado_sin_nombre_6" cx="5771.35" cy="-683.85" r="50.62" gradientTransform="matrix(1, 0, 0, -1, -5734.21, -677.22)" gradientUnits="userSpaceOnUse"><stop offset="0.2" stop-color="#fff"/><stop offset="0.4" stop-color="#fdfdfd"/><stop offset="0.51" stop-color="#f4f4f4"/><stop offset="0.6" stop-color="#e6e6e6"/><stop offset="0.68" stop-color="#d2d2d2"/><stop offset="0.73" stop-color="#c4c4c4"/><stop offset="1" stop-color="#4d4d4d"/></radialGradient><radialGradient id="Degradado_sin_nombre_7" cx="5772.52" cy="-688.92" r="34.09" gradientTransform="matrix(1, 0, 0, -1, -5734.21, -677.22)" gradientUnits="userSpaceOnUse"><stop offset="0.11" stop-color="#4d4d4d"/><stop offset="0.25" stop-color="#494949"/><stop offset="0.35" stop-color="#404040"/><stop offset="0.45" stop-color="#2f2f2f"/><stop offset="0.54" stop-color="#181818"/><stop offset="0.61"/></radialGradient></defs><g id="Capa_2" data-name="Capa 2"><g id="Capa_1-2" data-name="Capa 1"><path class="cls-1" d="M72.7,24.43a21.09,21.09,0,0,0-3.09-.49c-6.78-.3-23.46-.94-32-.94s-25.19.64-32,.94a21.14,21.14,0,0,0-3.08.49C.45,24.92,0,25.67,0,27.22V37.65c0,1.5,1.62,2.56,2.75,2.74a24.78,24.78,0,0,0,3,.42c6,.38,20.07,1.17,31.89,1.17s25.82-.79,31.88-1.17a24.5,24.5,0,0,0,3-.42c1.13-.18,2.75-1.24,2.75-2.74V27.22C75.29,25.67,74.84,24.92,72.7,24.43Z"/><path class="cls-2" d="M10.54,24.85a28.11,28.11,0,0,1,27.22-20,28.15,28.15,0,0,1,27.18,20,.12.12,0,0,0,0,.11A39.15,39.15,0,0,0,69.83,24a.29.29,0,0,1,0-.15A33,33,0,0,0,37.76,0,33.07,33.07,0,0,0,5.68,23.94,37.49,37.49,0,0,0,10.54,24.85Z"/><path class="cls-3" d="M64.86,40c0,.11-.07.23-.07.26a28.18,28.18,0,0,1-27,19.43A28.15,28.15,0,0,1,10.65,40c-2.1.38-2.82.53-4.89.79a33,33,0,0,0,32,23.68,33,33,0,0,0,32-23.72A46.8,46.8,0,0,1,64.86,40Z"/><path class="cls-4" d="M11.26,24.81A18.6,18.6,0,0,1,14,23.6a25.63,25.63,0,0,1,47.47-.07.1.1,0,0,0,0,.07c.64.23,2.45.95,3,1.21H65s0-.08,0-.11a28.16,28.16,0,0,0-27.18-20,28.18,28.18,0,0,0-27.22,20A2.29,2.29,0,0,0,11.26,24.81Z"/><path class="cls-5" d="M37.57,5.57a28,28,0,0,1,27,19.16s0,.08,0,.12H65s0-.08,0-.12A28.15,28.15,0,0,0,37.76,4.78a28.18,28.18,0,0,0-27.22,20,4.11,4.11,0,0,0,.68,0A27.82,27.82,0,0,1,37.57,5.57Z"/><path class="cls-6" d="M64.19,40a18.31,18.31,0,0,1-2.83,1.24s-.07.15-.07.19a25.66,25.66,0,0,1-47.13-.15,17.85,17.85,0,0,1-3.05-1.24,1.41,1.41,0,0,1-.46,0A28.2,28.2,0,0,0,37.76,59.71a28.1,28.1,0,0,0,27-19.5.75.75,0,0,1,0-.15A1.73,1.73,0,0,0,64.19,40Z"/><path class="cls-7" d="M72.09,25.19c-1.8-.23-3-.19-7.38-.34a3.08,3.08,0,0,1-.6,0c-7.9-.26-19.76-.64-26.46-.64s-18.6.38-26.47.64a3,3,0,0,0-.6,0C6.21,25,5,25,3.2,25.19S0,26.16,0,27.52v9.67c0,1.32,1.69,2.41,3.2,2.41,0,0,19.09,1.17,34.45,1.21S72.09,39.6,72.09,39.6c1.51,0,3.2-1.09,3.2-2.41V27.52C75.29,26.16,73.9,25.41,72.09,25.19Z"/><path class="cls-5" d="M64.19,40a28.08,28.08,0,0,1-53,0,1.71,1.71,0,0,1-.45,0A28.2,28.2,0,0,0,37.8,59.67,28.18,28.18,0,0,0,64.9,40C64.64,40,64.41,40,64.19,40Z"/><path class="cls-8" d="M64.19,40h0a21,21,0,0,1-2.86,1.24s-.08.15-.08.19a25,25,0,0,1-5,7.68A27.31,27.31,0,0,0,64.19,40Z"/><path class="cls-9" d="M20,49.81a24.77,24.77,0,0,1-5.84-8.55,17.72,17.72,0,0,1-3-1.24,24.29,24.29,0,0,0,2.11,3.57,28.65,28.65,0,0,0,5.95,5.73Z"/><path class="cls-10" d="M10.65,40h0c-2.1.38-2.82.53-4.89.79a17.22,17.22,0,0,0,.56,1.77Z"/><path id="NISSAN" class="cls-11" d="M52.93,29.44c-.64-1.39-.41-1.24-1.77-1.28a3.88,3.88,0,0,0-.83,0,5.11,5.11,0,0,0-.82,0c-1.28,0-1.06-.08-1.51.87,0,0-2.22,5-3.16,7l0,.07c-.19.38-.08.38.23.38h2a.27.27,0,0,0,.26-.15s.31-.64.68-1.51h4.86c.37.87.64,1.47.64,1.51a.25.25,0,0,0,.26.15h2.07c.3,0,.38,0,.27-.23-.38-.9-2.79-6.06-3.13-6.85Zm-4.22,3.65c.64-1.47,1.25-2.9,1.25-2.94a.22.22,0,0,1,.22-.11s.15,0,.27,0,.18,0,.22,0a.19.19,0,0,1,.19.15c.15.42.72,1.66,1.21,2.9Zm-26.61-5c.19,0,.22.07.22.22v7.91c0,.19,0,.26-.26.26H20.14c-.23,0-.26,0-.26-.26V28.27c0-.15,0-.22.19-.22ZM18,28.12c.23,0,.27.08.27.27v7.86c0,.23,0,.27-.27.27H15.74c-1.32,0-1.43,0-1.89-.76-.9-1.43-3.69-5.68-3.69-5.68v6.17c0,.23,0,.27-.26.27H8.24c-.22,0-.26,0-.26-.27V28.39c0-.19,0-.27.26-.27h1.92c1.44,0,1.62,0,2.15.72s3.77,5.83,3.77,5.83V28.39c0-.19,0-.27.26-.27Zm49.32,0c.23,0,.27.08.27.27v7.86c0,.23,0,.27-.27.27H65.05c-1.31,0-1.43,0-1.88-.76-.94-1.43-3.69-5.68-3.69-5.68v6.17c0,.23,0,.27-.26.27H57.56c-.22,0-.26,0-.26-.27V28.39c0-.19,0-.27.26-.27h1.92c1.43,0,1.62,0,2.15.72s3.76,5.83,3.76,5.83V28.39c0-.19,0-.27.27-.27Zm-36.74,3.2c1.47.15,2.56.42,2.86,1.81,0,.11,0,.49,0,.9a3.66,3.66,0,0,1-.08.91c-.26,1.31-1.24,1.58-2.82,1.58H24.36c-.23,0-.27,0-.27-.27V34.94c0-.23,0-.27.27-.27h6.28c.27,0,.34-.07.38-.26v-.57c0-.15-.07-.37-.41-.41-.72,0-2.79-.23-4.18-.38-1.81-.18-2.26-.94-2.34-1.62a6.53,6.53,0,0,1,0-.79,7.86,7.86,0,0,1,0-.82c.27-1.17,1.13-1.74,2.71-1.74h6c.22,0,.3,0,.3.23v1.36c0,.18-.08.26-.3.22H26.92c-.27,0-.38.11-.42.38v.34a.38.38,0,0,0,.38.37c.68.12,2.86.27,3.69.34Zm10.65,0c1.47.15,2.56.42,2.86,1.81,0,.11,0,.49,0,.9a4.17,4.17,0,0,1-.07.91c-.27,1.31-1.25,1.58-2.83,1.58H35.05c-.23,0-.26,0-.26-.27V34.94c0-.23,0-.27.26-.27h6.29c.26,0,.33-.07.37-.26v-.57a.47.47,0,0,0-.41-.41c-.72,0-2.79-.23-4.18-.38-1.81-.18-2.22-.94-2.33-1.62a4.91,4.91,0,0,1,0-.79,5.91,5.91,0,0,1,0-.82c.26-1.17,1.12-1.74,2.71-1.74h6c.23,0,.3,0,.3.23v1.36c0,.18-.07.26-.3.22H37.61c-.26,0-.38.11-.42.38v.34c0,.18.08.34.38.37.68.12,2.86.27,3.65.34Z"/></g></g></svg>