<svg xmlns="http://www.w3.org/2000/svg" viewBox="0 0 158.2 28.62"><defs><style>.cls-1{opacity:0.8;}.cls-2{fill:#fff;}</style></defs><g id="Capa_2" data-name="Capa 2"><g id="Capa_1-2" data-name="Capa 1"><g class="cls-1"><path id="Fill-1" class="cls-2" d="M16.88,28.62h-7a4.06,4.06,0,0,1-3.5-2L.53,16.33a4.15,4.15,0,0,1,0-4.07L6.4,2A4.09,4.09,0,0,1,9.9,0H21.65a4.06,4.06,0,0,1,3.49,2L31,12.26a4.06,4.06,0,0,1,0,4.07L29.5,18.76a4,4,0,0,1-3.5,2H19l3.82-6.5L19.29,8.12H12.22L8.68,14.29Z"/><path id="Fill-4" class="cls-2" d="M43,14.35C44.2,14.35,45,14,45,12.64S44.33,11,43.14,11h-.92v3.36Zm-.73,6.74H39V8.42h4.6c3,0,4.77,1.38,4.77,4,0,3-2.14,4.44-5.17,4.44h-1Z"/><path id="Fill-6" class="cls-2" d="M53.43,8.42v8.15c0,1.43.73,1.84,1.76,1.84a1.58,1.58,0,0,0,1.68-1.76V8.42h3.22V17c0,2.52-2,4.06-5,4.06-3.25,0-4.91-1.3-4.91-4.33V8.42Z"/><polygon id="Fill-8" class="cls-2" points="74.17 8.42 82.48 8.42 82.48 11.29 77.44 11.29 77.44 13.21 81.78 13.21 81.78 16.05 77.44 16.05 77.44 18.25 82.61 18.25 82.61 21.09 74.17 21.09 74.17 8.42"/><path id="Fill-10" class="cls-2" d="M85.59,18.68a6.59,6.59,0,0,0,3.47,1.08c1.27,0,2.68-.4,2.68-2.35,0-1.52-1.36-2-2.87-2.44-1.84-.49-3.66-1.19-3.66-3.52,0-2.11,1.66-3.52,4-3.52a6,6,0,0,1,4.14,1.71l-.84,1a5.07,5.07,0,0,0-3.3-1.41c-1.09,0-2.47.46-2.47,2.06s1.3,2,3,2.44,3.57,1.21,3.57,3.62-1.6,3.71-4.31,3.71a7.5,7.5,0,0,1-4.06-1.16Z"/><polygon id="Fill-12" class="cls-2" points="103.73 8.42 103.73 9.72 99.97 9.72 99.97 21.09 98.51 21.09 98.51 9.72 94.83 9.72 94.83 8.42 103.73 8.42"/><path id="Fill-14" class="cls-2" d="M110,19.82c2.71,0,3.55-2.63,3.55-5.2,0-2.25-.74-5.36-3.58-5.36s-3.73,2.65-3.73,5.25.67,5.31,3.76,5.31m-.16,1.27c-3.2,0-5.12-2.19-5.12-6.55,0-4.9,2.76-6.61,5.31-6.61s5,1.74,5,6.61c0,4.38-2,6.55-5.22,6.55"/><path id="Fill-16" class="cls-2" d="M130.89,16h4.27L133,9.77Zm-3.2,5.12,4.47-12.67H134l4.54,12.67h-1.57l-1.38-3.9h-5l-1.35,3.9Z"/><path id="Fill-18" class="cls-2" d="M148.3,19.93a7.42,7.42,0,0,1-4.09,1.16C141,21.09,139,19,139,14.54c0-5,2.79-6.61,5.26-6.61A5,5,0,0,1,148.35,10l-1.06.87a3.82,3.82,0,0,0-3.08-1.63c-2.33,0-3.74,2-3.74,5.17,0,3.44,1.19,5.44,3.87,5.44a5.13,5.13,0,0,0,2.52-.67V15.4H144V14.11h4.28v5.82Z"/><polygon id="Fill-20" class="cls-2" points="151.16 8.42 158.07 8.42 158.07 9.72 152.63 9.72 152.63 14 157.31 14 157.31 15.27 152.63 15.27 152.63 19.79 158.2 19.79 158.2 21.09 151.16 21.09 151.16 8.42"/><path id="Fill-22" class="cls-2" d="M120.82,15.22h-1.93V9.67h1.68c2.19,0,3.74.24,3.74,2.76C124.31,14.46,122.87,15.22,120.82,15.22Zm3.62,1.89c-.29-.65-.48-.95-.89-1.16a3.83,3.83,0,0,0,2.3-3.77c0-2.49-1.62-3.76-4.33-3.76h-4.17V21.09h1.52V16.41h2.19a2.37,2.37,0,0,0,.46,0h0c.79,0,1.17.51,1.49,1.19L124.61,21h1.62Z"/><path id="Fill-24" class="cls-2" d="M65.64,14.35V11h.89c1.17,0,1.84.35,1.84,1.65s-.78,1.71-2,1.71Zm5,2.73a1.82,1.82,0,0,0-.81-1,4.07,4.07,0,0,0,1.9-3.66c0-2.62-1.76-4-4.69-4H62.45V21.09h3.19V16.87h.81a1,1,0,0,1,.9.73l1.51,3.49H72.3Z"/></g></g></g></svg>