<svg xmlns="http://www.w3.org/2000/svg" viewBox="0 0 104.15 53.18"><defs><style>.cls-1{opacity:0.8;}.cls-2{fill:#fff;}</style></defs><g id="Capa_2" data-name="Capa 2"><g id="Capa_1-2" data-name="Capa 1"><g class="cls-1"><path class="cls-2" d="M103.58,27.32H7.78a.57.57,0,0,1,0-1.13h95.8a.55.55,0,0,1,.57.57A.58.58,0,0,1,103.58,27.32Z"/><path class="cls-2" d="M20.81,39.15v-.24a3.09,3.09,0,0,1,3.3-3.42c1.84,0,3.26,1,3.26,3.38v.23a3.11,3.11,0,0,1-3.31,3.43A3,3,0,0,1,20.81,39.15Zm4.62.09v-.33c0-1.4-.38-2-1.32-2s-1.27.61-1.27,1.88v.33c0,1.45.42,2,1.32,2S25.43,40.51,25.43,39.24Z"/><path class="cls-2" d="M10.61,35.63H7.92a.13.13,0,0,0-.14.14v6.48a.13.13,0,0,0,.14.14h.24a1.49,1.49,0,0,0,1.51-1.5v-.57h0v-1.5h0V37.08a.13.13,0,0,1,.14-.14h.57c.61,0,.89.24.89,1s-.18.84-.7,1a.43.43,0,0,0-.38.47V40a.15.15,0,0,0,.14.14h.28c1.7,0,2.65-.8,2.65-2.35C13.35,36.43,12.45,35.63,10.61,35.63Z"/><path class="cls-2" d="M20.1,42.2l-1.42-2.68v-.09a1.66,1.66,0,0,0,1.14-1.69c0-1.45-.85-2.11-2.6-2.11H14.48a.13.13,0,0,0-.14.14v6.48a.13.13,0,0,0,.14.14h1.61a.13.13,0,0,0,.14-.14V37a.12.12,0,0,1,.14-.14h.52c.71,0,1,.28,1,.89s-.09.84-.42,1h0c-.33.14-.76.14-.62.8.05.28,1.32,2.68,1.32,2.68s.1.09.15.09H20C20.1,42.39,20.15,42.29,20.1,42.2Z"/><path class="cls-2" d="M31.09,35.63H28.88a.12.12,0,0,0-.14.14v6.52c0,.1,0,.14.14.14h.94c.1,0,.14,0,.14-.14V40.23h0v-1.5h0v-2a.12.12,0,0,1,.14-.14h.95c.89,0,1.27.33,1.27,1.22S31.94,39,31.05,39h-.43a.13.13,0,0,0-.14.14v.61a.12.12,0,0,0,.14.14h.62a2,2,0,0,0,2.31-2.16C33.5,36.38,32.7,35.63,31.09,35.63Z"/><path class="cls-2" d="M37.47,35.72s0-.09-.15-.09h-1s-.1,0-.15.09l-2.36,6.53c0,.09,0,.18.15.18h.8c.05,0,.09,0,.14-.09l.57-1.55s0-.09.14-.09h2.36a.25.25,0,0,1,.14.09l.57,1.55s0,.09.14.09h.94c.1,0,.14-.09.14-.18Zm0,4H36c-.1,0-.15-.09-.15-.19l.9-2.58h0l.89,2.58C37.65,39.67,37.61,39.76,37.51,39.76Z"/><path class="cls-2" d="M51.76,35.63H46.9a.13.13,0,0,0-.14.14v.66a.13.13,0,0,0,.14.14h1.7c.1,0,.14,0,.14.14v5.58c0,.1,0,.14.15.14h.94a.12.12,0,0,0,.14-.14V36.71a.12.12,0,0,1,.14-.14h1.7a.12.12,0,0,0,.14-.14v-.66C51.86,35.68,51.81,35.63,51.76,35.63Z"/><path class="cls-2" d="M58.28,35.63h-.81a.13.13,0,0,0-.14.14v4.69h0l-2.84-4.78s0,0-.09,0H53.23a.12.12,0,0,0-.14.14v6.52c0,.1,0,.14.14.14H54a.12.12,0,0,0,.14-.14v-5h0l3,5.12s.05,0,.1,0h1a.12.12,0,0,0,.14-.14V35.77A.13.13,0,0,0,58.28,35.63Z"/><path class="cls-2" d="M64.36,41.45H61.53a.13.13,0,0,1-.14-.14V39.48a.12.12,0,0,1,.14-.14h2.13a.13.13,0,0,0,.14-.14v-.66a.12.12,0,0,0-.14-.14H61.53a.13.13,0,0,1-.14-.14V36.61a.13.13,0,0,1,.14-.14h2.79a.12.12,0,0,0,.14-.14v-.65c0-.1,0-.15-.14-.15h-4a.13.13,0,0,0-.15.15V42.2c0,.09.05.14.15.14h4c.1,0,.15-.05.15-.14v-.66A.18.18,0,0,0,64.36,41.45Z"/><path class="cls-2" d="M70.88,42.2l-1.61-2.82v0A1.71,1.71,0,0,0,70.5,37.6c0-1.31-.8-2-2.36-2H66c-.1,0-.15,0-.15.14v6.52c0,.1,0,.14.15.14H67a.12.12,0,0,0,.14-.14V36.66a.13.13,0,0,1,.14-.14h.81c.89,0,1.27.33,1.27,1.13s-.38,1.17-1.27,1.17h-.33c-.1,0-.15,0-.15.14v.56a.13.13,0,0,0,.15.15h.37a.19.19,0,0,1,.1,0l1.46,2.63s0,0,.09,0h1C70.88,42.39,70.92,42.29,70.88,42.2Z"/><path class="cls-2" d="M46.05,42.2l-1.6-2.82v0a1.72,1.72,0,0,0,1.23-1.74c0-1.31-.81-2-2.36-2H41.19a.13.13,0,0,0-.14.14v6.52a.12.12,0,0,0,.14.14h1a.12.12,0,0,0,.14-.14V36.66a.13.13,0,0,1,.14-.14h.8c.9,0,1.28.33,1.28,1.13s-.38,1.17-1.28,1.17h-.33a.13.13,0,0,0-.14.14v.56c0,.1,0,.15.14.15h.38a.14.14,0,0,1,.09,0l1.47,2.63s0,0,.09,0h1A.14.14,0,0,0,46.05,42.2Z"/><path class="cls-2" d="M38.32,50.51v-.14a2.43,2.43,0,0,1,2.59-2.63c1.75,0,2.41,1,2.41,2.67v.29a.13.13,0,0,1-.14.14H40.25c-.09,0-.19.09-.14.18.14.66.61.85,1.41.85a4,4,0,0,0,1.37-.23.14.14,0,0,1,.19.14v.75s0,.09-.09.14a3.87,3.87,0,0,1-1.94.42A2.3,2.3,0,0,1,38.32,50.51ZM40.25,50h1.27a.16.16,0,0,0,.15-.15c-.05-.65-.29-.89-.76-.89s-.71.19-.8.85C40.06,49.85,40.16,50,40.25,50Z"/><path class="cls-2" d="M44.17,52.71v-.84c0-.09.09-.19.19-.14a3.55,3.55,0,0,0,1.36.23c.62,0,.9-.14.9-.42s-.14-.33-.61-.42l-.47,0a1.48,1.48,0,0,1-1.42-1.64c0-1,.71-1.69,2.12-1.69A4.38,4.38,0,0,1,47.8,48c.05,0,.09.1.09.14V49c0,.09-.09.19-.18.14a4.67,4.67,0,0,0-1.23-.19c-.52,0-.76.14-.76.43s.19.32.62.42l.47,0a1.42,1.42,0,0,1,1.42,1.6c0,1.13-.71,1.74-2.27,1.74a6,6,0,0,1-1.75-.28S44.17,52.81,44.17,52.71Z"/><path class="cls-2" d="M49,50.51v-.14a2.43,2.43,0,0,1,2.6-2.63c1.74,0,2.4,1,2.4,2.67v.29a.12.12,0,0,1-.14.14H50.92c-.1,0-.19.09-.15.18.15.66.62.85,1.42.85a4,4,0,0,0,1.37-.23c.09,0,.19,0,.19.14v.75s0,.09-.1.14a3.86,3.86,0,0,1-1.93.42A2.31,2.31,0,0,1,49,50.51ZM50.87,50h1.27a.15.15,0,0,0,.14-.15c0-.65-.28-.89-.75-.89s-.71.19-.8.85C50.73,49.85,50.77,50,50.87,50Z"/><path class="cls-2" d="M55.12,45.81h1.41c.1,0,.14,0,.14.15V52.9c0,.1,0,.14-.14.14H55.12C55,53,55,53,55,52.9V46A.22.22,0,0,1,55.12,45.81Z"/><path class="cls-2" d="M58.09,45.81H59.5a.13.13,0,0,1,.15.15V52.9c0,.1,0,.14-.15.14H58.09C58,53,58,53,58,52.9V46C57.9,45.91,58,45.81,58.09,45.81Z"/><path class="cls-2" d="M60.64,50.51v-.14a2.43,2.43,0,0,1,2.59-2.63c1.75,0,2.41,1,2.41,2.67v.29a.13.13,0,0,1-.14.14H62.57c-.09,0-.19.09-.14.18.14.66.61.85,1.42.85a3.94,3.94,0,0,0,1.36-.23.14.14,0,0,1,.19.14v.75a.25.25,0,0,1-.09.14,3.87,3.87,0,0,1-1.94.42A2.3,2.3,0,0,1,60.64,50.51ZM62.57,50h1.28A.16.16,0,0,0,64,49.8c-.05-.65-.29-.89-.76-.89s-.71.19-.8.85C62.38,49.85,62.48,50,62.57,50Z"/><path class="cls-2" d="M66.77,47.88h1.37a.13.13,0,0,1,.14.14v.47h0a1.56,1.56,0,0,1,1.32-.7h.19a.15.15,0,0,1,.14.14v1.22c0,.09-.09.14-.19.14h-.28a3,3,0,0,0-1,.19.2.2,0,0,0-.09.14V52.9c0,.1,0,.14-.15.14H66.82c-.1,0-.14,0-.14-.14V48C66.63,47.93,66.72,47.88,66.77,47.88Z"/><path class="cls-2" d="M37.75,52.86l-1.42-2.68v0a1.67,1.67,0,0,0,1.14-1.73c0-1.46-.85-2.12-2.6-2.12H32.13a.13.13,0,0,0-.14.14V52.9a.12.12,0,0,0,.14.14h1.61a.12.12,0,0,0,.14-.14V47.69a.13.13,0,0,1,.14-.14h.52c.71,0,1,.28,1,.89s-.09.85-.42,1h0c-.33.14-.76.14-.62.8,0,.28,1.32,2.67,1.32,2.67s.1.1.15.1h1.65C37.75,53.09,37.84,53,37.75,52.86Z"/><path class="cls-2" d="M14.53,50.56v-.15a2.47,2.47,0,0,1,2.69-2.67,2.37,2.37,0,0,1,2.69,2.63v.14a2.47,2.47,0,0,1-2.69,2.67A2.39,2.39,0,0,1,14.53,50.56Zm3.59,0v-.19c0-1.22-.38-1.46-.9-1.46s-.9.33-.9,1.41v.19c0,1.22.38,1.45.9,1.45S18.12,51.64,18.12,50.56Z"/><path class="cls-2" d="M21.09,45.81h1.46c.1,0,.14,0,.14.15V52.9c0,.1,0,.14-.14.14H21.09A.12.12,0,0,1,21,52.9V46C21,45.86,21,45.81,21.09,45.81Z"/><path class="cls-2" d="M23.78,50.6v-.09c0-2,1-2.72,2.41-2.72a2,2,0,0,1,.89.14.14.14,0,0,0,.19-.14V46c0-.1.05-.15.14-.15h1.47c.09,0,.14,0,.14.15V52.9a.12.12,0,0,1-.14.14H27.65s-.09,0-.14-.09l-.1-.28h0a2.13,2.13,0,0,1-1.47.51C24.72,53.18,23.78,52.43,23.78,50.6Zm3.45,1v-2.4s-.05-.09-.1-.14a1.3,1.3,0,0,0-.66-.14c-.61,0-1,.33-1,1.41v.19c0,1.08.38,1.36.94,1.36a1.15,1.15,0,0,0,.66-.19C27.23,51.68,27.23,51.64,27.23,51.59Z"/><path class="cls-2" d="M7.5,49.8v-.23C7.5,47,9.15,46.14,11,46.14a5,5,0,0,1,2,.33c.05,0,.1.1.1.14V47a.73.73,0,0,1-.85.7,6.26,6.26,0,0,0-.95-.09c-1.46,0-1.84.75-1.84,1.88v.28c0,1.26.28,2,1.46,2a2,2,0,0,0,.62-.1s.09-.09.09-.14V50.7c0-.1,0-.14-.14-.14h-.66c-.09,0-.14-.05-.14-.15v-1a.13.13,0,0,1,.14-.14h2a.64.64,0,0,1,.66.66v2.58a.25.25,0,0,1-.09.14,7.51,7.51,0,0,1-2.36.42C8.87,53.18,7.5,52.29,7.5,49.8Z"/><path class="cls-2" d="M19,.38a1.68,1.68,0,0,0-2.31.75L10.57,14.36h0c-.14.29-.29.47-.62.47s-.47-.18-.61-.47h0L3.21,1.13A1.65,1.65,0,0,0,.94.38,1.83,1.83,0,0,0,.18,2.77L6.23,15l.66,1.41a3.45,3.45,0,0,0,3.06,2,3.37,3.37,0,0,0,3.07-2L13.68,15l6-12.2A1.76,1.76,0,0,0,19,.38Z"/><path class="cls-2" d="M100.8.19a3,3,0,0,0-2.65,1.69C96.6,5.07,92,14.5,92,14.55s-.14.28-.33.28-.28-.18-.33-.28h0C89.8,11.41,86.78,5.21,85.18,2A3,3,0,0,0,82.44.19h0a3.17,3.17,0,0,0-3.07,3.38v13a1.83,1.83,0,0,0,1.13,1.74,1.7,1.7,0,0,0,2.13-1.79L82.39,3.85c0-.14.14-.19.24-.05L88.9,16.48a3.07,3.07,0,0,0,2.74,1.92,3.12,3.12,0,0,0,2.74-1.92L100.65,3.8c0-.14.24,0,.24.05l-.24,12.72a1.71,1.71,0,0,0,1.7,1.78A1.81,1.81,0,0,0,104,16.48v-13A3.3,3.3,0,0,0,100.8.19Z"/><path class="cls-2" d="M77.29,15.73,70.36,2.11a3.48,3.48,0,0,0-3.07-2,3.25,3.25,0,0,0-2.17.8,3.74,3.74,0,0,0-.9,1.17L57.33,15.63v0h0a1.89,1.89,0,0,0,.14,1.92,663442882554.73,663442882554.73,0,0,1,.1.1,4,4,0,0,0,.47.42,1.74,1.74,0,0,0,1.79-.05h0c.05,0,.1,0,.1-.09l.09-.1s0,0,0,0a2.42,2.42,0,0,0,.33-.42l.24-.52,1.46-3c0-.09.09-.14.19-.14h6.37a1.6,1.6,0,0,0,0-3.19H63.89c-.09,0-.19-.09-.14-.19l.38-.75,2.59-5.21h0v0h0c0-.1.19-.47.43-.52a.5.5,0,0,1,.38,0c.28.09.37.42.52.66h0l6.32,13.05a1.7,1.7,0,0,0,1.51.93,2.26,2.26,0,0,0,.57-.09h0c.05,0,.1,0,.14,0s.05,0,.05,0h.1l0,0a0,0,0,0,0,.05-.05s0,0,.09,0,.05-.05.1-.1h0A2.45,2.45,0,0,0,77.29,15.73Z"/><path class="cls-2" d="M23.69,11.22H35.34a2,2,0,0,0,2-2.16A8.87,8.87,0,0,0,28.74,0a8.88,8.88,0,0,0-8.69,9.06v.47c0,5.73,3.68,8.78,8.54,9.06h.71A9.27,9.27,0,0,0,34.49,17a5.81,5.81,0,0,0,1.56-1.46,1.77,1.77,0,0,0,0-2.34c-.9-.8-1.79-.38-2.6.33a6.14,6.14,0,0,1-4.76,1.92,5,5,0,0,1-5.15-4C23.54,11.31,23.59,11.22,23.69,11.22Zm-.15-3.33C23.87,5.26,25.67,3,28.69,3a5.26,5.26,0,0,1,5.24,4.93.16.16,0,0,1-.15.18H23.69A.16.16,0,0,1,23.54,7.89Z"/><path class="cls-2" d="M42.85,11.22H54.5a2,2,0,0,0,2-2.16,8.64,8.64,0,1,0-17.27,0v.47c0,5.73,3.68,8.78,8.54,9.06h.71A9.29,9.29,0,0,0,53.7,17a5.81,5.81,0,0,0,1.56-1.46,1.78,1.78,0,0,0,0-2.34c-.9-.8-1.8-.38-2.6.33a6.16,6.16,0,0,1-4.77,1.92,5,5,0,0,1-5.14-4C42.7,11.31,42.75,11.22,42.85,11.22Zm-.1-3.33C43.08,5.26,44.87,3,47.89,3a5.25,5.25,0,0,1,5.24,4.93c0,.09,0,.18-.14.18H42.89C42.8,8.07,42.7,8,42.75,7.89Z"/></g></g></g></svg>