<svg xmlns="http://www.w3.org/2000/svg" viewBox="0 0 127.35 53.18"><defs><style>.cls-1{opacity:0.8;}.cls-2{fill:#fff;}</style></defs><g id="Capa_2" data-name="Capa 2"><g id="Capa_1-2" data-name="Capa 1"><g class="cls-1"><g id="layer1"><g id="g3646"><path id="path3346" class="cls-2" d="M40.85,9.79H2.72V2.72H40.85V9.79ZM43.58,0H0V12.51H43.58Z"/><g id="g3348"><path id="path3350" class="cls-2" d="M2.72,33.2H0V20.68H2.72v4.95H7.59V20.68h2.72V33.2H7.59V28H2.72V33.2"/></g><g id="g3352"><path id="path3354" class="cls-2" d="M14.44,27.71h3.24c-.06-.92-.44-1.56-1.5-1.56A1.64,1.64,0,0,0,14.44,27.71ZM16.5,33.4a4.33,4.33,0,0,1-4.64-4.61c0-2.78,1.84-4.7,4.28-4.7,2.67,0,4,1.78,4,4.44v1H14.44a2.24,2.24,0,0,0,2.48,1.74,4.2,4.2,0,0,0,2.47-.73h.1v2.07a5.1,5.1,0,0,1-3,.78"/></g><g id="g3356"><path id="path3358" class="cls-2" d="M27.24,28,25.83,33.2H23.45l-2.72-8.81v-.1h2.6l1.48,5.26,1.41-5.26h2.12l1.42,5.26,1.5-5.26h2.51v.1L31,33.2H28.66L27.24,28"/></g><g id="g3360"><path id="path3362" class="cls-2" d="M38.19,33.4c-2.16,0-3-.86-3-2.88V20.68h2.64v9.66c0,.62.24.84.76.84a2,2,0,0,0,.6-.12h0v2.18a3.16,3.16,0,0,1-1,.16"/></g><g id="g3364"><path id="path3366" class="cls-2" d="M42.52,27.71h3.24c-.06-.92-.44-1.56-1.5-1.56A1.64,1.64,0,0,0,42.52,27.71Zm2.06,5.69a4.34,4.34,0,0,1-4.65-4.61c0-2.78,1.85-4.7,4.29-4.7,2.66,0,4,1.78,4,4.44v1H42.52A2.24,2.24,0,0,0,45,31.28a4.24,4.24,0,0,0,2.47-.73h.1v2.07a5.12,5.12,0,0,1-3,.78"/></g><g id="g3368"><path id="path3370" class="cls-2" d="M59.06,24.29h2v2.12h-2V30c0,.79.3,1.15,1.1,1.15a2.5,2.5,0,0,0,.8-.12H61v2.08a4.73,4.73,0,0,1-1.62.26c-2.14,0-3-1-3-3.25V26.41H53V30c0,.79.3,1.15,1.1,1.15a2.6,2.6,0,0,0,.81-.12H55v2.08a4.73,4.73,0,0,1-1.62.26c-2.14,0-3-1-3-3.25V26.41H49V24.29h1.36V21.85H53v2.44h3.39V21.85h2.64v2.44"/></g><g id="g3372"><path id="path3374" class="cls-2" d="M69.93,26.83a1.8,1.8,0,0,0,2-1.9,1.81,1.81,0,0,0-2-1.94H68.21v3.84Zm4.81-1.9c0,2.72-1.82,4.2-4.59,4.2H68.21V33.2H65.49V20.68h4.66c2.77,0,4.59,1.49,4.59,4.25"/></g><g id="g3376"><path id="path3378" class="cls-2" d="M80.54,30.4v-.77a3.2,3.2,0,0,0-1.46-.29c-.86,0-1.38.31-1.38,1s.52,1.06,1.3,1.06A1.55,1.55,0,0,0,80.54,30.4Zm.09,1.92a3,3,0,0,1-2.37,1,2.9,2.9,0,0,1-3.16-2.94c0-1.75,1.42-2.91,3.46-2.91a7,7,0,0,1,2,.3v-.16c0-1-.54-1.38-2-1.38a5.09,5.09,0,0,0-2.5.68H76V24.83A6.56,6.56,0,0,1,79,24.09c2.69,0,4.15,1.28,4.15,3.52V33.2H80.63v-.88"/></g><g id="g3380"><path id="path3382" class="cls-2" d="M84.53,28.75a4.45,4.45,0,0,1,4.67-4.66,4.2,4.2,0,0,1,2.48.68V27h-.1a3.31,3.31,0,0,0-2-.7,2.25,2.25,0,0,0-2.33,2.42,2.24,2.24,0,0,0,2.33,2.41,3.26,3.26,0,0,0,2-.71h.1v2.27a4.2,4.2,0,0,1-2.48.68,4.44,4.44,0,0,1-4.67-4.65"/></g><g id="g3384"><path id="path3386" class="cls-2" d="M96,29.15V33.2H93.34V20.68H96v7.13l2.66-3.52h3v.1l-3.2,4,3.2,4.67v.1h-3L96,29.15"/></g><g id="g3388"><path id="path3390" class="cls-2" d="M107.58,30.4v-.77a3.2,3.2,0,0,0-1.46-.29c-.86,0-1.38.31-1.38,1s.52,1.06,1.3,1.06A1.55,1.55,0,0,0,107.58,30.4Zm.08,1.92a3,3,0,0,1-2.36,1,2.91,2.91,0,0,1-3.17-2.94c0-1.75,1.43-2.91,3.47-2.91a7,7,0,0,1,2,.3v-.16c0-1-.54-1.38-2-1.38a5.09,5.09,0,0,0-2.5.68H103V24.83a6.56,6.56,0,0,1,3.06-.74c2.68,0,4.15,1.28,4.15,3.52V33.2h-2.57v-.88"/></g><g id="g3392"><path id="path3394" class="cls-2" d="M114.67,25.73a2.36,2.36,0,0,1,2.17-1.54,2,2,0,0,1,.85.16v2.52h-.1a3,3,0,0,0-1.16-.2,1.66,1.66,0,0,0-1.68,1.4V33.2h-2.64V24.29h2.56v1.44"/></g><g id="g3396"><path id="path3398" class="cls-2" d="M124.7,30.18V27.31a2,2,0,0,0-1.68-.92c-1.16,0-1.94.84-1.94,2.36s.78,2.35,1.94,2.35A2,2,0,0,0,124.7,30.18Zm.08,2.1a3.16,3.16,0,0,1-2.64,1.12c-2.28,0-3.74-2.08-3.74-4.65s1.46-4.66,3.74-4.66a3.17,3.17,0,0,1,2.56,1V20.68h2.65V33.2h-2.57v-.92"/></g><g id="g3400"><path id="path3402" class="cls-2" d="M0,37.29H7.73v1.52h-6v3.82H7.17v1.48H1.74v4.17h6V49.8H0V37.29"/></g><g id="g3404"><path id="path3406" class="cls-2" d="M14.12,40.81c2,0,3.08,1.3,3.08,3.44V49.8H15.54V44.29a1.74,1.74,0,0,0-1.84-2,2.31,2.31,0,0,0-2.22,1.6V49.8H9.81V41h1.67v1.28a3,3,0,0,1,2.64-1.46"/></g><g id="g3408"><path id="path3410" class="cls-2" d="M21.67,41h2.26v1.42H21.67v4.75c0,1,.52,1.34,1.46,1.34a2.13,2.13,0,0,0,.74-.12h.06V49.8a2.7,2.7,0,0,1-1,.18C20.83,50,20,49,20,47.32V42.41H18.49V41H20V38.65h1.66V41"/></g><g id="g3412"><path id="path3414" class="cls-2" d="M26.72,44.53H31.1c-.06-1.3-.7-2.3-2.06-2.3A2.42,2.42,0,0,0,26.72,44.53ZM29.34,50A4.15,4.15,0,0,1,25,45.49c0-2.76,1.65-4.68,4-4.68s3.68,1.74,3.68,4.32v.77h-6a2.69,2.69,0,0,0,2.9,2.64,3.75,3.75,0,0,0,2.46-.8h.06V49.2a4.35,4.35,0,0,1-2.74.78"/></g><g id="g3416"><path id="path3418" class="cls-2" d="M36.33,42.35a2.32,2.32,0,0,1,2.18-1.5,2.1,2.1,0,0,1,.86.14v1.64h-.06a2.56,2.56,0,0,0-1-.18,2,2,0,0,0-1.94,1.6V49.8H34.67V41h1.66v1.36"/></g><g id="g3420"><path id="path3422" class="cls-2" d="M44.74,48.48c1.64,0,2.6-1.3,2.6-3.09s-1-3.08-2.6-3.08a2.48,2.48,0,0,0-2.18,1.4V47.1A2.46,2.46,0,0,0,44.74,48.48ZM45,40.81c2.62,0,4,2.14,4,4.58S47.64,50,45,50a3.19,3.19,0,0,1-2.46-1.16v4.36H40.89V41h1.67v1A3.14,3.14,0,0,1,45,40.81"/></g><g id="g3424"><path id="path3426" class="cls-2" d="M52.67,42.35a2.32,2.32,0,0,1,2.18-1.5,2.1,2.1,0,0,1,.86.14v1.64h-.05a2.61,2.61,0,0,0-1-.18,2,2,0,0,0-1.94,1.6V49.8H51V41h1.66v1.36"/></g><g id="g3428"><path id="path3430" class="cls-2" d="M58.12,37.43a1,1,0,1,1,0,2.08,1,1,0,1,1,0-2.08"/></g><path id="path3432" class="cls-2" d="M57.3,49.8H59V41H57.3Z"/><g id="g3434"><path id="path3436" class="cls-2" d="M64.89,44.65c1.26.4,2.66.92,2.66,2.61S66.07,50,64.17,50a5.14,5.14,0,0,1-3-.8V47.6h.08a4.33,4.33,0,0,0,2.89,1c.94,0,1.78-.36,1.78-1.12s-.7-1-2.08-1.42-2.63-.87-2.63-2.53,1.4-2.7,3.19-2.7a4.74,4.74,0,0,1,2.7.72v1.6h-.06a4,4,0,0,0-2.6-.92c-1,0-1.63.46-1.63,1.08s.65.9,2.07,1.36"/></g><g id="g3438"><path id="path3440" class="cls-2" d="M70.72,44.53H75.1c-.06-1.3-.7-2.3-2.06-2.3A2.42,2.42,0,0,0,70.72,44.53ZM73.34,50A4.15,4.15,0,0,1,69,45.49c0-2.76,1.65-4.68,4-4.68s3.68,1.74,3.68,4.32v.77h-6a2.69,2.69,0,0,0,2.9,2.64,3.75,3.75,0,0,0,2.46-.8h.06V49.2a4.35,4.35,0,0,1-2.74.78"/></g></g></g></g></g></g></svg>