<svg xmlns="http://www.w3.org/2000/svg" viewBox="0 0 118.63 18.07"><defs><style>.cls-1{opacity:0.8;}.cls-2{fill:#fff;}</style></defs><g id="Capa_2" data-name="Capa 2"><g id="Capa_1-2" data-name="Capa 1"><g id="g166" class="cls-1"><g id="g172"><path id="path174" class="cls-2" d="M51,16.75,45.77,2.28a2.25,2.25,0,0,1-.17-.69A1.26,1.26,0,0,1,46.89.36a1.33,1.33,0,0,1,1.29,1.06l4.31,12.46L56.82,1.39a1.31,1.31,0,0,1,1.26-1h.13a1.33,1.33,0,0,1,1.32,1l4.3,12.49L68.2,1.36a1.25,1.25,0,0,1,1.23-1,1.22,1.22,0,0,1,1.26,1.19,2.32,2.32,0,0,1-.17.7l-5.23,14.5A1.51,1.51,0,0,1,63.9,17.9h-.1a1.43,1.43,0,0,1-1.39-1.15L58.14,4.45l-4.3,12.3a1.43,1.43,0,0,1-1.39,1.15h-.07A1.53,1.53,0,0,1,51,16.75"/></g><g id="g176"><path id="path178" class="cls-2" d="M88.82,1.63A1.3,1.3,0,0,1,90.08.33a1.27,1.27,0,0,1,1.29,1.3V4.56a7,7,0,0,1,5.9-4.2,1.24,1.24,0,0,1,1.27,1.3A1.27,1.27,0,0,1,97.41,3c-3.32.4-6,2.88-6,7.82v5.81a1.27,1.27,0,0,1-1.26,1.3,1.28,1.28,0,0,1-1.3-1.3V1.63Z"/></g><g id="g180"><path id="path182" class="cls-2" d="M106.73,18c-4.62,0-8.38-3.58-8.38-8.83V9.14c0-4.88,3.41-8.82,8.05-8.82,5,0,7.8,4.1,7.8,8.59A1.18,1.18,0,0,1,113,10.1H100.88c.36,3.67,2.92,5.74,5.91,5.74a6.83,6.83,0,0,0,4.84-2,1.12,1.12,0,0,1,.72-.3,1.08,1.08,0,0,1,.71,1.91A8.5,8.5,0,0,1,106.73,18m5-9.81c-.27-3.09-2-5.78-5.37-5.78-2.92,0-5.13,2.46-5.45,5.78Z"/></g><g id="g184"><path id="path186" class="cls-2" d="M70.73,12.73v-.07c0-3.6,3-5.52,7.3-5.52a18.11,18.11,0,0,1,5.26.73v-.6c0-3.07-1.89-4.66-5.09-4.66a8.68,8.68,0,0,0-4,.78,1.2,1.2,0,0,1-.46.1A1.13,1.13,0,0,1,72.64,2.4a1.06,1.06,0,0,1,.69-1.06,11.36,11.36,0,0,1,5.13-1A7.46,7.46,0,0,1,84,2.25a6.74,6.74,0,0,1,1.75,5v9.43a1.2,1.2,0,0,1-1.22,1.25,1.16,1.16,0,0,1-1.22-1.18V15.11a7.49,7.49,0,0,1-6.18,2.94c-3.17,0-6.38-1.82-6.38-5.32M83.32,11.4V9.75a17.89,17.89,0,0,0-5-.73c-3.2,0-5,1.39-5,3.54v.06c0,2.15,2,3.41,4.3,3.41,3.13,0,5.71-1.92,5.71-4.63"/></g><g id="g188"><path id="path190" class="cls-2" d="M4.67,1.44A2.41,2.41,0,0,0,1.43.23,2.35,2.35,0,0,0,.25,3.46L5.67,15.25c.85,1.85,1.75,2.82,3.44,2.82S11.7,17,12.55,15.25l4.78-10.4A.67.67,0,0,1,18,4.41a.75.75,0,0,1,.75.76V15.24a2.55,2.55,0,1,0,5.06,0V7a2.54,2.54,0,0,1,2.7-2.62A2.47,2.47,0,0,1,29.1,7v8.24a2.53,2.53,0,0,0,2.52,2.83,2.56,2.56,0,0,0,2.55-2.83V7a2.53,2.53,0,0,1,2.69-2.62A2.47,2.47,0,0,1,39.45,7v8.24A2.53,2.53,0,0,0,42,18.07a2.56,2.56,0,0,0,2.55-2.83V5.86A5.88,5.88,0,0,0,38.41,0,7.86,7.86,0,0,0,33,2.3,6,6,0,0,0,27.77,0C25,0,22.65,2.3,22.65,2.3A6.15,6.15,0,0,0,18.08,0a5.61,5.61,0,0,0-5.51,3.75L9.11,11.91Z"/></g><g id="g192"><path id="path194" class="cls-2" d="M114.4,2.46v0a2.12,2.12,0,1,1,4.23,0h0a2.12,2.12,0,1,1-4.23,0m3.82,0h0A1.7,1.7,0,0,0,116.51.71a1.72,1.72,0,0,0-1.71,1.73v0a1.71,1.71,0,1,0,3.42,0"/></g><g id="g196"><path id="path198" class="cls-2" d="M115.71,1.61a.22.22,0,0,1,.22-.23h.71a.84.84,0,0,1,.6.21.67.67,0,0,1,.18.47h0a.65.65,0,0,1-.41.63l.31.38a.26.26,0,0,1,.07.17.22.22,0,0,1-.21.21.29.29,0,0,1-.22-.12l-.44-.55h-.36v.44a.23.23,0,1,1-.45,0V1.61Zm.9.77c.22,0,.34-.12.34-.29h0c0-.19-.13-.29-.34-.29h-.45v.59Z"/></g></g></g></g></svg>