<svg xmlns="http://www.w3.org/2000/svg" viewBox="0 0 222.49 39.05"><defs><style>.cls-1{fill:#fe5000;}.cls-2{fill:#222;}</style></defs><g id="Capa_2" data-name="Capa 2"><g id="Capa_1-2" data-name="Capa 1"><path class="cls-1" d="M23.21,39.05H13.62a5.57,5.57,0,0,1-4.81-2.77l-8.07-14a5.58,5.58,0,0,1,0-5.56l8.07-14A5.54,5.54,0,0,1,13.62,0H29.75a5.56,5.56,0,0,1,4.81,2.78l8.07,14a5.58,5.58,0,0,1,0,5.56l-2.09,3.32a5.56,5.56,0,0,1-4.79,2.75h-9.6l5.24-8.86-4.85-8.41H16.83L12,19.53,23.21,39.05Z"/><path class="cls-2" d="M57.67,28.51H53.2V11.22h6.34c4.09,0,6.56,1.9,6.56,5.49,0,4-2.94,6.05-7.1,6.05H57.67Zm1-9.2c1.71,0,2.8-.52,2.8-2.32s-.93-2.26-2.57-2.26H57.67v4.58Z"/><path class="cls-2" d="M73.19,11.22V22.53c0,2,1,2.57,2.44,2.57a2.18,2.18,0,0,0,2.31-2.44V11.22h4.48v12c0,3.51-2.81,5.64-6.89,5.64-4.5,0-6.81-1.82-6.81-6V11.22Z"/><path class="cls-2" d="M101.52,11.22h11.31v3.9H106v2.63h5.88v3.9H106v3h7v3.9H101.52Z"/><path class="cls-2" d="M117.33,25.55A9.08,9.08,0,0,0,122,27c1.74,0,3.64-.55,3.64-3.2,0-2.08-1.82-2.75-3.9-3.33-2.5-.67-4.94-1.61-4.94-4.81,0-2.88,2.23-4.78,5.48-4.78a8.19,8.19,0,0,1,5.62,2.31l-1.15,1.38a6.92,6.92,0,0,0-4.49-1.92c-1.46,0-3.33.62-3.33,2.81s1.77,2.65,4,3.32c2.39.76,4.84,1.67,4.84,4.94s-2.19,5.07-5.83,5.07a10.32,10.32,0,0,1-5.51-1.58Z"/><path class="cls-2" d="M142.37,11.22V13h-5.26V28.51h-2.05V13h-5.15V11.22Z"/><path class="cls-2" d="M150.64,28.82c-4.44,0-7.12-3-7.12-8.92,0-6.68,3.85-9,7.38-9,3.75,0,7,2.37,7,9C157.9,25.86,155.09,28.82,150.64,28.82Zm.21-1.74c3.77,0,4.94-3.56,4.94-7.1,0-3.06-1-7.3-5-7.3-3.79,0-5.2,3.61-5.2,7.15S146.56,27.08,150.85,27.08Z"/><path class="cls-2" d="M174.67,28.51l6.08-17.29h2.44l6.22,17.29h-2.16l-1.9-5.33h-6.81l-1.85,5.33Zm4.36-7h5.83l-2.94-8.45Z"/><path class="cls-2" d="M203.29,27.24a10.48,10.48,0,0,1-5.74,1.58c-4.55,0-7.36-2.88-7.36-8.92,0-6.73,3.9-9,7.36-9a7.09,7.09,0,0,1,5.79,2.81l-1.48,1.17a5.47,5.47,0,0,0-4.34-2.21c-3.27,0-5.22,2.67-5.22,7,0,4.68,1.66,7.41,5.43,7.41a7.24,7.24,0,0,0,3.51-.91V21.08h-3.93V19.31h6Z"/><path class="cls-2" d="M206.81,11.22h9.67V13h-7.62v5.82h6.55v1.77h-6.55v6.16h7.8v1.77h-9.85Z"/><path class="cls-2" d="M170.56,23.09c-.39-.87-.64-1.31-1.18-1.59a5.2,5.2,0,0,0,3.09-5.13c0-3.38-2.19-5.15-5.83-5.15H161V28.51h2.05V22.14h3l.62,0h0c1.06,0,1.56.7,2,1.63l2.2,4.74H173Zm-4.88-2.61h-2.6V12.91h2.27c2.93,0,5,.34,5,3.77C170.36,19.46,168.44,20.48,165.68,20.48Z"/><path class="cls-2" d="M96.93,23a2.6,2.6,0,0,0-1.13-1.34,5.47,5.47,0,0,0,2.63-5c0-3.59-2.47-5.49-6.55-5.49H85.54V28.5H90V22.75h1.15a1.42,1.42,0,0,1,1.25,1l2.1,4.75h4.78ZM90,19.3V14.72h1.25c1.64,0,2.57.49,2.57,2.26S92.74,19.3,91,19.3Z"/><path class="cls-2" d="M220.21,15.37A2.24,2.24,0,0,1,217.92,13a2.29,2.29,0,1,1,4.57,0A2.26,2.26,0,0,1,220.21,15.37Zm0-4.26A1.81,1.81,0,0,0,218.42,13,1.78,1.78,0,0,0,220.21,15,1.8,1.8,0,0,0,222,13,1.81,1.81,0,0,0,220.21,11.11Zm-.46,3.26h-.42V11.79h1c.62,0,.94.22.94.74a.67.67,0,0,1-.67.71l.72,1.13h-.48l-.67-1.1h-.4Zm.48-1.46c.31,0,.59,0,.59-.41s-.3-.35-.56-.35h-.51v.76Z"/></g></g></svg>