<svg xmlns="http://www.w3.org/2000/svg" viewBox="0 0 154.05 32.9"><defs><style>.cls-1{opacity:0.8;}.cls-2{fill:#fff;}</style></defs><g id="Capa_2" data-name="Capa 2"><g id="Capa_1-2" data-name="Capa 1"><g class="cls-1"><path class="cls-2" d="M0,0H15.65V15.65H0Z"/><path class="cls-2" d="M17.25,0H32.9V15.65H17.25V0Z"/><path class="cls-2" d="M141.12,6a6.16,6.16,0,0,1,4.93-.58c0,1,0,1.94,0,2.9a3.19,3.19,0,0,0-2.49-.22,2,2,0,0,0-1.13,1.57,21.49,21.49,0,0,0-.07,2.54h5c0-1.07,0-2.14,0-3.21,1.12-.32,2.23-.68,3.35-1,0,1.41,0,2.83,0,4.24,1.12,0,2.23,0,3.35,0v2.75c-1.12-.05-2.24,0-3.36,0v4.74a25.59,25.59,0,0,0,.06,2.63,1.67,1.67,0,0,0,.73,1.35,2.51,2.51,0,0,0,2.57-.24v2.77a6.68,6.68,0,0,1-3.09.48,3.79,3.79,0,0,1-2.67-1.23,5.07,5.07,0,0,1-1-3.23c0-2.42,0-4.84,0-7.27h-5V26.32H139c0-3.81,0-7.61,0-11.42-.78,0-1.57,0-2.35,0,0-.9,0-1.81,0-2.71.78,0,1.57,0,2.35,0a14.5,14.5,0,0,1,.23-3.61A4.66,4.66,0,0,1,141.12,6Zm-72.46.2a2.08,2.08,0,0,1,1.87.66A1.94,1.94,0,0,1,70.77,9a2.13,2.13,0,0,1-2.26,1,1.92,1.92,0,0,1-1.57-1.89,2,2,0,0,1,1.72-1.92Zm-25.94.42h4.92c1.53,3.89,3.08,7.78,4.61,11.67.39,1,.76,1.95,1.17,2.92,2-4.86,4-9.71,5.93-14.58,1.57,0,3.15,0,4.73,0V26.32c-1.14,0-2.28,0-3.42,0,0-4.85,0-9.71,0-14.56,0-.22,0-.44,0-.66a2,2,0,0,0-.18.32c-1.95,5-3.95,9.92-5.89,14.89-.81,0-1.62,0-2.43,0-2-5-4-9.95-6-14.92-.06-.11-.11-.21-.17-.3,0,2.12,0,4.25,0,6.38v8.84H42.72V6.58ZM78,12.16a9.24,9.24,0,0,1,5,0,4.09,4.09,0,0,1,1,.41c0,1.07,0,2.15,0,3.23a5.41,5.41,0,0,0-3.86-1.19,4,4,0,0,0-2.81,1.57,5.45,5.45,0,0,0-.9,3.91,4.27,4.27,0,0,0,1.37,2.82,4.34,4.34,0,0,0,3.17.94,6.49,6.49,0,0,0,3-1.25c0,1,0,2.05,0,3.07a8.31,8.31,0,0,1-4.62,1,6.86,6.86,0,0,1-4.41-1.84,7,7,0,0,1-2.05-4.74,8.59,8.59,0,0,1,1.34-5.25A6.78,6.78,0,0,1,78,12.16Zm37-.22a9,9,0,0,1,4.69.49v3.11a6,6,0,0,0-3.56-1,1.81,1.81,0,0,0-1.61.9,1.46,1.46,0,0,0,.49,1.73c1,.64,2.1.91,3.1,1.49A4.48,4.48,0,0,1,120,20.45a4.13,4.13,0,0,1-.89,4.76,6.43,6.43,0,0,1-4.71,1.43,9.8,9.8,0,0,1-3.44-.79c0-1.09,0-2.18,0-3.27A7.4,7.4,0,0,0,114,23.91a4,4,0,0,0,2.34-.22,1.35,1.35,0,0,0,.4-1.92,4.1,4.1,0,0,0-1.48-1,14.35,14.35,0,0,1-2.92-1.49,3.52,3.52,0,0,1-1.26-1.92,4.34,4.34,0,0,1,.46-3.38,5.09,5.09,0,0,1,3.37-2.07Zm-23.41.45a3.83,3.83,0,0,1,3.14-.27v3.39A3.62,3.62,0,0,0,92.38,15a2.8,2.8,0,0,0-2.11,1.69,6.35,6.35,0,0,0-.49,2.89c0,2.26,0,4.51,0,6.77H86.45c0-4.72,0-9.43,0-14.14,1.12,0,2.23,0,3.35,0,0,.8,0,1.61,0,2.42a4.36,4.36,0,0,1,1.75-2.21Zm-24.28-.21c1.12,0,2.24,0,3.37,0,0,4.71,0,9.43,0,14.14H67.25V12.18Zm33.65-.27a9,9,0,0,1,4.85.58,6,6,0,0,1,3,3,9.35,9.35,0,0,1,.68,4.47,7.54,7.54,0,0,1-1.49,4.11,6.51,6.51,0,0,1-3.89,2.4,9.78,9.78,0,0,1-4,0,6.4,6.4,0,0,1-3.91-2.55,8.11,8.11,0,0,1-1.24-5.29,7.54,7.54,0,0,1,1.56-4.32,6.81,6.81,0,0,1,4.45-2.38Zm1,2.69a3.58,3.58,0,0,0-2.23.88,4.5,4.5,0,0,0-1.3,2.95A6.51,6.51,0,0,0,98.89,22,3.37,3.37,0,0,0,101,23.72a4.49,4.49,0,0,0,2.76-.12A3.08,3.08,0,0,0,105.43,22a7.42,7.42,0,0,0,.48-3.46,4.57,4.57,0,0,0-1.17-3,3.62,3.62,0,0,0-2.83-1Zm26-2.69a8.73,8.73,0,0,1,5,.68,6,6,0,0,1,2.91,3.29,9.07,9.07,0,0,1,.53,3.38,7.73,7.73,0,0,1-1.54,4.82,6.62,6.62,0,0,1-4.16,2.43,9.07,9.07,0,0,1-4.76-.4,6.26,6.26,0,0,1-3.44-3.34,9.35,9.35,0,0,1-.53-4.91,6.89,6.89,0,0,1,2.23-4.35A7,7,0,0,1,127.88,11.91Zm.91,2.69a3.51,3.51,0,0,0-2.47,1.19,4.85,4.85,0,0,0-1,2.82,6.74,6.74,0,0,0,.4,3.08,3.41,3.41,0,0,0,1.78,1.86,4.45,4.45,0,0,0,2.42.27,3.12,3.12,0,0,0,2-1.07,4.4,4.4,0,0,0,.88-2.07,8.75,8.75,0,0,0,0-3,3.9,3.9,0,0,0-1.23-2.26,3.75,3.75,0,0,0-2.71-.8Z"/><path class="cls-2" d="M0,17.25H15.65V32.9H0Z"/><path class="cls-2" d="M17.25,17.25H32.9V32.9H17.25Z"/></g></g></g></svg>