<svg xmlns="http://www.w3.org/2000/svg" viewBox="0 0 88.56 187.09"><defs><style>.cls-1{fill:#26006e;}</style></defs><g id="Capa_2" data-name="Capa 2"><g id="Capa_1-2" data-name="Capa 1"><circle class="cls-1" cx="1.27" cy="1.27" r="1.27"/><circle class="cls-1" cx="35.59" cy="1.27" r="1.27"/><circle class="cls-1" cx="69.91" cy="1.27" r="1.27"/><circle class="cls-1" cx="1.27" cy="18.05" r="1.27"/><circle class="cls-1" cx="35.59" cy="18.05" r="1.27"/><circle class="cls-1" cx="69.91" cy="18.05" r="1.27"/><circle class="cls-1" cx="1.27" cy="34.82" r="1.27"/><circle class="cls-1" cx="35.59" cy="34.82" r="1.27"/><circle class="cls-1" cx="69.91" cy="34.82" r="1.27"/><circle class="cls-1" cx="1.27" cy="51.6" r="1.27"/><circle class="cls-1" cx="35.59" cy="51.6" r="1.27"/><circle class="cls-1" cx="69.91" cy="51.6" r="1.27"/><circle class="cls-1" cx="1.27" cy="68.38" r="1.27"/><circle class="cls-1" cx="35.59" cy="68.38" r="1.27"/><circle class="cls-1" cx="69.91" cy="68.38" r="1.27"/><circle class="cls-1" cx="1.27" cy="85.16" r="1.27"/><circle class="cls-1" cx="35.59" cy="85.16" r="1.27"/><circle class="cls-1" cx="69.91" cy="85.16" r="1.27"/><circle class="cls-1" cx="1.27" cy="101.94" r="1.27"/><circle class="cls-1" cx="35.59" cy="101.94" r="1.27"/><circle class="cls-1" cx="69.91" cy="101.94" r="1.27"/><circle class="cls-1" cx="1.27" cy="118.71" r="1.27"/><circle class="cls-1" cx="35.59" cy="118.71" r="1.27"/><circle class="cls-1" cx="69.91" cy="118.71" r="1.27"/><circle class="cls-1" cx="1.27" cy="135.49" r="1.27"/><circle class="cls-1" cx="35.59" cy="135.49" r="1.27"/><circle class="cls-1" cx="69.91" cy="135.49" r="1.27"/><circle class="cls-1" cx="1.27" cy="152.27" r="1.27"/><circle class="cls-1" cx="35.59" cy="152.27" r="1.27"/><circle class="cls-1" cx="69.91" cy="152.27" r="1.27"/><circle class="cls-1" cx="1.27" cy="169.05" r="1.27"/><circle class="cls-1" cx="35.59" cy="169.05" r="1.27"/><circle class="cls-1" cx="69.91" cy="169.05" r="1.27"/><circle class="cls-1" cx="1.27" cy="185.83" r="1.27"/><circle class="cls-1" cx="35.59" cy="185.83" r="1.27"/><circle class="cls-1" cx="69.91" cy="185.83" r="1.27"/><circle class="cls-1" cx="18.65" cy="1.27" r="1.27"/><circle class="cls-1" cx="52.97" cy="1.27" r="1.27"/><circle class="cls-1" cx="87.29" cy="1.27" r="1.27"/><circle class="cls-1" cx="18.65" cy="18.05" r="1.27"/><circle class="cls-1" cx="52.97" cy="18.05" r="1.27"/><circle class="cls-1" cx="87.29" cy="18.05" r="1.27"/><circle class="cls-1" cx="18.65" cy="34.82" r="1.27"/><circle class="cls-1" cx="52.97" cy="34.82" r="1.27"/><circle class="cls-1" cx="87.29" cy="34.82" r="1.27"/><circle class="cls-1" cx="18.65" cy="51.6" r="1.27"/><circle class="cls-1" cx="52.97" cy="51.6" r="1.27"/><circle class="cls-1" cx="87.29" cy="51.6" r="1.27"/><circle class="cls-1" cx="18.65" cy="68.38" r="1.27"/><circle class="cls-1" cx="52.97" cy="68.38" r="1.27"/><circle class="cls-1" cx="87.29" cy="68.38" r="1.27"/><circle class="cls-1" cx="18.65" cy="85.16" r="1.27"/><circle class="cls-1" cx="52.97" cy="85.16" r="1.27"/><circle class="cls-1" cx="87.29" cy="85.16" r="1.27"/><circle class="cls-1" cx="18.65" cy="101.94" r="1.27"/><circle class="cls-1" cx="52.97" cy="101.94" r="1.27"/><circle class="cls-1" cx="87.29" cy="101.94" r="1.27"/><circle class="cls-1" cx="18.65" cy="118.71" r="1.27"/><circle class="cls-1" cx="52.97" cy="118.71" r="1.27"/><circle class="cls-1" cx="87.29" cy="118.71" r="1.27"/><circle class="cls-1" cx="18.65" cy="135.49" r="1.27"/><circle class="cls-1" cx="52.97" cy="135.49" r="1.27"/><circle class="cls-1" cx="87.29" cy="135.49" r="1.27"/><circle class="cls-1" cx="18.65" cy="152.27" r="1.27"/><circle class="cls-1" cx="52.97" cy="152.27" r="1.27"/><circle class="cls-1" cx="87.29" cy="152.27" r="1.27"/><circle class="cls-1" cx="18.65" cy="169.05" r="1.27"/><circle class="cls-1" cx="52.97" cy="169.05" r="1.27"/><circle class="cls-1" cx="87.29" cy="169.05" r="1.27"/><circle class="cls-1" cx="18.65" cy="185.83" r="1.27"/><circle class="cls-1" cx="52.97" cy="185.83" r="1.27"/><circle class="cls-1" cx="87.29" cy="185.83" r="1.27"/></g></g></svg>