<svg xmlns="http://www.w3.org/2000/svg" viewBox="0 0 108.51 73.86"><defs><style>.cls-1{fill:#26006e;}</style></defs><g id="Capa_2" data-name="Capa 2"><g id="Capa_1-2" data-name="Capa 1"><polygon class="cls-1" points="59.95 9.83 59.95 15.89 56.5 13.06 56.5 32.94 55.28 34.31 55.28 12.29 54.38 11.58 54.38 35.32 53.39 36.43 53.39 10.88 52.49 10.16 52.49 35.89 47.23 30.63 47.23 15.17 40.74 15.17 41.19 9.83 59.95 9.83"/><path class="cls-1" d="M52.5,0S61,2.62,73.56,6.38c0,0,.13,12.94-1.72,19.34S62.52,41.39,53,49.17V44.41s8.79-6.74,13.55-15S69.93,9,69.93,9L52.5,3.67Z"/><path class="cls-1" d="M64.91,60.25c-4,0-6.74,2.73-6.75,6.88s2.53,6.71,6.58,6.72,6.77-2.68,6.79-6.82A6.4,6.4,0,0,0,64.91,60.25Zm3.9,7.47a6.82,6.82,0,0,1-.48,2.3,3.61,3.61,0,0,1-6.16,1,7,7,0,0,1-.29-7.81,3.62,3.62,0,0,1,5.73,0A6.61,6.61,0,0,1,68.81,67.72Z"/><path class="cls-1" d="M53.71,61.37l-2.37,8a1.28,1.28,0,0,1-.43.81c-.09-.3-.17-.55-.24-.81-.7-2.66-1.39-5.32-2.09-8-.09-.34-.15-.71-.53-.87a1.86,1.86,0,0,0-2.08,1c-.58,2.38-1.15,4.75-1.73,7.12a4.41,4.41,0,0,1-.49,1.45c-.13-.47-.2-.74-.28-1-.65-2.37-1.29-4.75-1.95-7.13-.47-1.68-.62-1.74-2.33-1.33-.58.14-.7.37-.48.94.7,1.81,1.27,3.68,1.84,5.54s1.19,4,1.77,5.94c.16.56.44.71,1,.65a1.61,1.61,0,0,0,1.55-1.36c.62-2.31,1.3-4.61,2-6.91.08-.25.05-.57.35-.73a1.32,1.32,0,0,1,.28.72c.66,2.52,1.31,5,2,7.56.07.29.08.62.45.74a1.84,1.84,0,0,0,2.06-1c.48-1.3,1-2.61,1.4-3.92.8-2.35,1.59-4.72,2.37-7.08.11-.33.26-.69-.06-1A1.23,1.23,0,0,0,53.71,61.37Z"/><path class="cls-1" d="M22.36,72c-1.22,0-2.44,0-3.66,0-.91,0-1-.16-1-1.06,0-.73,0-1.46,0-2.19,0-1.06,0-1.1,1.11-1.11.82,0,1.65,0,2.47,0a1,1,0,0,0,.88-1.1c-.08-.56-.55-.4-.89-.41-.94,0-1.88,0-2.82,0-.53,0-.77-.23-.75-.76,0-.78,0-1.55,0-2.33,0-.52.19-.78.74-.75s1,0,1.55,0a12.5,12.5,0,0,0,1.62-.14c.6-.1.69-.64.78-1.12.05-.27-.17-.37-.4-.37a56.82,56.82,0,0,0-6.12.11c-.55.06-.67.36-.67.86,0,1.88,0,3.76,0,5.63h0c0,1.91,0,3.81,0,5.71,0,.42.07.75.6.75,1.85,0,3.71,0,5.56,0a1.49,1.49,0,0,0,1.43-.86c.1-.2.3-.41.15-.65S22.57,72,22.36,72Z"/><path class="cls-1" d="M10.65,60.58a2.19,2.19,0,0,0-1.45.09c-.4.15-.34.52-.34.85,0,1.78,0,3.56,0,5.35V70c-.39-.15-.44-.42-.57-.63C6.64,66.75,5,64.09,3.16,61.56a2.36,2.36,0,0,0-2.3-1c-.51,0-.76.26-.77.79,0,3.92.05,7.84-.09,11.76a.52.52,0,0,0,.29.58A1.27,1.27,0,0,0,2,72.55c0-2.79.1-5.59-.09-8.38,0-.17-.09-.37.12-.5.24.07.29.3.38.48a99.22,99.22,0,0,0,5.44,8.72,2,2,0,0,0,2.23.89.67.67,0,0,0,.68-.78c0-4,0-7.94,0-11.9C10.82,60.89,10.86,60.64,10.65,60.58Z"/><path class="cls-1" d="M35.47,60.51c-2.88,0-5.77,0-8.66,0a1.38,1.38,0,0,0-1.44,1c-.24.57-.11.8.5.82.78,0,1.55,0,2.33,0,1,0,1.06,0,1.07,1.07V72c0,1.88-.15,1.68,1.71,1.71.63,0,.82-.24.81-.84,0-1.62,0-3.24,0-4.86h0c0-1.66,0-3.33,0-5,0-.55.2-.76.75-.74.7,0,1.41,0,2.11,0A1.36,1.36,0,0,0,36,61.38C36.33,60.66,36.26,60.52,35.47,60.51Z"/><path class="cls-1" d="M107.07,67.06c-.6-.41-1.23-.78-1.85-1.16a8.23,8.23,0,0,1-1.73-1.2,1.48,1.48,0,0,1,.7-2.61,2.52,2.52,0,0,1,1.25,0c.46.12.9.27,1.35.39s.87-.19,1.1-.64a.48.48,0,0,0-.23-.75,5.76,5.76,0,0,0-4.62-.51,3.59,3.59,0,0,0-1.4,6,7.84,7.84,0,0,0,2,1.38,8.72,8.72,0,0,1,1.7,1.11,1.7,1.7,0,0,1,.61,1.83A1.67,1.67,0,0,1,104.43,72a3.67,3.67,0,0,1-1.4,0,7.14,7.14,0,0,1-1.9-.71c-.36-.19-.55-.1-.68.29a1.21,1.21,0,0,0,.66,1.7,5.14,5.14,0,0,0,2.68.58,5.42,5.42,0,0,0,2.5-.48A3.7,3.7,0,0,0,107.07,67.06Z"/><path class="cls-1" d="M97.79,72.93c-1.44-1.89-2.88-3.77-4.34-5.64a.72.72,0,0,1,0-1.09c1-1.14,2-2.29,3-3.44.4-.46.8-.93,1.17-1.42.22-.28.22-.56-.17-.74a1.88,1.88,0,0,0-2.15.48L91,66.27c-.13.16-.25.43-.48.36s-.15-.37-.15-.56c0-1.32,0-2.63,0-3.95,0-1.73,0-1.7-1.72-1.54-.68.07-.9.3-.9,1,0,3.42,0,6.85,0,10.28,0,2-.23,1.83,1.89,1.82.56,0,.73-.24.72-.77,0-1.53,0-3,0-4.58a1.07,1.07,0,0,1,.13-.77c.28.13.37.35.51.54,1.09,1.38,2.22,2.74,3.24,4.17a3,3,0,0,0,3.18,1.42c.22,0,.53.1.65-.13S97.94,73.12,97.79,72.93Z"/><path class="cls-1" d="M84.65,73.16c-1-1.59-2-3.2-3-4.78-.53-.85-.56-.83.25-1.39a3.38,3.38,0,0,0,1.5-3.67,3.16,3.16,0,0,0-2.74-2.65,12.65,12.65,0,0,0-2.88-.18H76.47c-1.43,0-1.4,0-1.39,1.46q0,5.42,0,10.85c0,.84,0,.9.8.9a4.31,4.31,0,0,0,.71,0c.85-.12,1-.33,1-1.19,0-1.17,0-2.35,0-3.52,0-.66.26-.82.89-.62a2.13,2.13,0,0,1,1.17,1.15c.47.85.95,1.69,1.36,2.55a2.93,2.93,0,0,0,3.3,1.7C84.7,73.66,84.91,73.6,84.65,73.16ZM80.49,65.9a2.38,2.38,0,0,1-2.42.93c-.36,0-.48-.24-.48-.56v-1.9c0-.61,0-1.22,0-1.83,0-.41.2-.59.59-.61a2.32,2.32,0,0,1,2.36,1A2.7,2.7,0,0,1,80.49,65.9Z"/></g></g></svg>