<svg xmlns="http://www.w3.org/2000/svg" viewBox="0 0 2040.02 371.11"><defs><style>.cls-1{fill:#0d0d3a;opacity:0.05;}</style></defs><title>Recurso 5</title><g id="Capa_2" data-name="Capa 2"><g id="Capa_1-2" data-name="Capa 1"><path class="cls-1" d="M2040,311.88V363a64.09,64.09,0,0,1-11-2.73c-9.35-3.73-13.34-.66-19.81-4.31-1.73-1-3.16-1-10.22-1.31-5.37-.3-10.31.66-15.34,1.4a12.91,12.91,0,0,1-3.07.23c-5.62-.56-7.47,1.47-12.13.9a6.55,6.55,0,0,0-.8,0c-2.94,1-6.41.67-9.65,1-21.47,2.06-9.29-1.19-60.11-2.55-6.38-.17-10-1.56-21.23.91-4.43,1-12.74.06-17.38-.58-3.35-.47-4.91-3.43-13.44-3.6-2,0-20.49-1.66-25.74.42-3.92,1.54-6.61-.18-13.59.69-3.74.46-9.2-.9-15.59-.35-4.79.41-13.16-.5-13.16-.5-7.84,1.13-11.18-2.08-16.54-.78-4.56,1.1-7.14.34-8.35-2-30.5-7.41-10.82-1.14-30.45-3.7-5.16-.68-9.51.55-17.46-.38-1.89-.23-21.26-1.2-22-1.22-5.32-.2-9.64,2.18-17.22,1-2-.32-8.1.47-11.48-.43a10.85,10.85,0,0,0-3.6,0c-15.29,2.29-47.43-3.6-55-2.25a7.76,7.76,0,0,1-3.11-.27,72.93,72.93,0,0,0-12.8-2.11c-5.49-.58-9-3.29-31-.64-12.53,1.51-10.09.4-18.1.71-43.81,1.65-11.45.23-36.52,3.3-15.75,1.93-18,3.92-26.53,1.4-49.25,9.55-45.3,5.63-76.54,9-2.76.29-5.54-.47-7.91,1.3-1.36,1-2.61,1.34-15.74,1.22-5.93-.05-13-3-14.85-3.62-4.43-1.51-5.8-1.49-20.07-.31-7.54.63-7.48,2.2-13.23,2-19.68-.71-1.48,1.11-31.18,2.51-2.76.12-2.51,1.52-12.14.72-.54-.05-13.21.58-19.77.07-14.22-1.1-33.93,1.47-38,1.48-14.95.05-15.88-.31-19.21.4-5.31,1.13-15.17-.5-28.77-1.14-35.94-1.67-16.08,1.77-59.37.12-6.16-.24-9.32-1.61-9.32-1.61-5.57,0-9.86-1.53-14.52-2.56-5.79-1.27-11.9-1.52-18.1-1.74-17.2-.58-17.24-2.66-22-1.31-2.2.62-7.2.41-9.37.87-1,.21-12.07,2.27-23.71,4.28-4.78.85-16.16-1.18-19.87-1.52a6.88,6.88,0,0,0-2.73.19c-6.44,2.68-8.58-1.42-13,2-5.69,4.42-8.92.17-14,1.13-26.3,5.07-15.63.49-24.94.79s-15.95-7.55-20.7-6.2c-7.64,2.19-9.9,2.86-14.16,1.82-4.93-1.18-4.07,1.16-11.22-.48-15.29-3.5-10.21-.19-21.88-3.59-13.81-4-6.89-5.13-17.89-2l-.23-.28a40.07,40.07,0,0,1-4,2.71,14.2,14.2,0,0,1-4.72,1c-1.93,1.1-4.58,1.07-9.7,1.19-2.42.06-4.34-1.66-6.84-1s-4.52.09-6.76-.06c-4.06-.27-5.26-5.39-14.35-3.08a5.94,5.94,0,0,1-2.31.37c-4.89-1.27-15.08,6.07-17.82.41-7.21.6-9.48,1.4-12-.34-.66-.46-9.94-1.24-13.71.12-1.1.39-4.45.14-5.46.67-5,2.67-7.84.61-15.36.45-1.22,4-12.85,4-15.76,1.44-10.35,2.59-11.44,3.22-13.67,2.1-1.88-1-10.7,1-12.77,1.84-10,4.09-10.87-.15-17.45,1.82-1.93.59-3.69,1.36-6,.53-.54-.18-1.57.22-2.36.19-7.75-.54-9.28-7.62-37.08-6.06-18.5,1-6.71-1.41-18.41-1.36-3,4.39-19.32,4.08-27.48,7.75a19,19,0,0,1-6.48,2.28c-3.22.39-6.18,1.59-9.31,2.25-10,2-9.2-1.76-15.13-.36-3.31.78-7.62-.75-9.64,1-3.39,2.91-8.86.32-14.93,3.51-9.17,4.84-39.35,2.42-51.78,3-6,.28-4.06-3.49-12.82-4.5-8.11-.9-9.18-2-14.4-1.66-10,.67-6.63-1.69-12-.52a92,92,0,0,1-19.95,1.57,7.76,7.76,0,0,1-5.6-2.63c-12.43,1.18-34.63.49-36.36.13-6-1.3-11.93.15-17.91,0S353.93,367.92,339,366c-5.31-.69-2.53-2.82-8.13-2.89-3.22-.07-.69-2.41-9.59-.75-.69.14-16.08.49-16.08.49-7.09.14-14-3.08-15.81-7.4-5.87-.87-18.89,5.69-49.13-5.25-3.78,1.55-11.31,6-19.56,3.11-7-2.43-10.06.32-13.31-4.32-3-4.23-5.63-5.63-12.73-1.8-4.22,2.26-9.6-1.08-15.14,3.52-5,4.14-9.39,2-24.86,2.6-2.47.11-6.71-.63-8.27-.27-9,2-29.62,8.76-30.44-3.24-8,1-12.36,1.81-13.32,1.19-8.66-5.89-59.67,15.77-68.54-3.51-.07-.22-.77-.41-1.28-.49-15.4-2.71-10.28-10.2-20.22-10.78-3.68-.21-5.25-4.79-11.39-1.87a7.17,7.17,0,0,1-1.16.41V.65A65.21,65.21,0,0,1,11,3.37C20.38,7.12,24.37,4,30.84,7.69c1.73,1,3.16,1,10.22,1.32,5.37.29,10.31-.68,15.34-1.42a13.43,13.43,0,0,1,3.07-.22c5.62.56,7.47-1.47,12.13-.9a6,6,0,0,0,.8,0c2.94-1,6.42-.66,9.65-1,21.47-2.07,9.29,1.18,60.11,2.55,6.38.16,10,1.55,21.23-.92,4.43-1,12.74-.07,17.39.57,3.34.48,4.9,3.44,13.43,3.61,2,0,20.5,1.66,25.74-.42,3.92-1.53,6.61.17,13.59-.69,3.74-.46,9.2.9,15.59.34,4.8-.41,12.56-6,12.56-6,7.84-1.13,11.18,2.09,16.53.79,4.57-1.1,7.14-.35,8.35,2C317.08,14.71,297.4,8.44,317,11c5.16.67,9.5-.56,17.46.38,1.88.22,21.25,1.19,21.94,1.21,5.33.2,9.65-2.18,17.23-1,2,.32,8.1-.47,11.47.43a10.91,10.91,0,0,0,3.61,0c15.29-2.28,47.43,3.6,55,2.25a8.1,8.1,0,0,1,3.11.27,73.2,73.2,0,0,0,12.81,2.11c5.48.58,9,3.29,31.05.64,12.53-1.51,10.08-.39,18.1-.71,43.8-1.65,11.45-.23,36.52-3.3,15.75-1.93,18-3.91,26.53-1.4,49.24-9.54,47.37,1.89,78.61-1.45,2.77-.3,5.55.46,7.92-1.3,1.34-1,2.6-1.35,15.73-1.22,5.94,0,13,3,14.86,3.61,4.42,1.51,5.8,1.49,20.06.31,7.55-.63,7.49-2.2,13.24-2,19.68.71,1.48-1.11,31.18-2.5,2.76-.13,2.51-1.53,12.14-.72.53,0,13.2-.59,19.77-.08,14.22,1.11,33.92-1.46,38-1.48,14.93-.05,15.87.32,19.2-.4,5.32-1.13,15.16.51,28.77,1.14,35.94,1.67,16.07-1.77,59.36-.11,6.18.23,9.32,1.6,9.32,1.6,5.58,0,9.88,1.54,14.53,2.56,5.79,1.27,11.91,1.53,18.1,1.74,17.21.58,17.25,2.66,22,1.31,2.2-.62,7.2-.4,9.37-.87,1-.21,12.07-2.27,23.7-4.27C1032.58,7,1044,9,1047.66,9.32a6.75,6.75,0,0,0,2.74-.19c6.44-2.68,8.58,1.43,13-2,5.67-4.42,8.92-.17,14-1.13,26.3-5.06,15.64-.49,24.94-.79s16,7.55,20.71,6.2c7.64-2.19,9.89-2.86,14.16-1.81,4.93,1.17,4.07-1.17,11.22.47,15.29,3.51,10.2.2,21.88,3.6,13.81,4,6.88,5.12,17.88,2l.24.28a39.45,39.45,0,0,1,4-2.71,14,14,0,0,1,4.71-1c1.93-1.1,4.58-1.08,9.71-1.2,2.42-.06,4.34,1.66,6.83,1s4.52-.09,6.76.07c4.07.26,5.26,5.39,14.36,3.07a5.88,5.88,0,0,1,2.31-.37c4.89,1.27,15.07-6.07,17.8-.41,7.22-.6,9.49-1.39,12.06.35.65.45,9.94,1.23,13.72-.13,1.09-.39,4.44-.14,5.46-.67,5-2.67,7.83-.61,15.34-.45,1.23-4,12.87-4,15.77-1.44,10.36-2.59,11.43-3.22,13.67-2.09,1.89,1,10.69-1,12.77-1.85,10-4.09,10.87.16,17.45-1.81,1.93-.6,3.7-1.36,6-.54.56.19,1.59-.22,2.38-.18,7.74.53,9.28,7.62,37.07,6.06,18.51-1,6.72,1.4,18.4,1.36,3-4.4,19.93,2.45,28.09-1.22a18.79,18.79,0,0,1,6.49-2.27c3.22-.4,6.17-1.59,9.3-2.26,10-2,9.2,1.77,15.14.35,3.3-.77,7.61.76,9.63-1,3.39-2.92,8.86-.32,14.93-3.5,9.17-4.85,39.35-2.44,51.78-3,6-.27,4.06,3.5,12.82,4.5,8.11.91,9.18,2,14.41,1.67,10-.68,6.62,1.69,12,.52a92,92,0,0,1,20-1.58,7.76,7.76,0,0,1,5.6,2.64c12.43-1.18,34.63-.5,36.37-.13,6,1.29,11.92-.15,17.9,0s8.78-4.49,23.74-2.54c5.31.69,2.53,2.81,8.13,2.89,3.22.07.69,2.41,9.59.74.69-.14,16.09-.48,16.09-.48,7.08-.15,14,3.08,15.81,7.39,4.12.61,26.48-4,26.48-4l21.54,2.85,20.66-1.13,13.32,4.33,12.72,1.8L1862.61,16a165.66,165.66,0,0,1,24.86-2.61c2.47-.1,6.63.44,8.27.28,20.47-2,30.45,3.23,30.45,3.23s12.36-1.81,13.31-1.18c8.66,5.88,69.32.06,69.82.14,15.4,2.71,8.2-.38,18.14.2,3.68.21,5.25,4.79,11.39,1.87a7.17,7.17,0,0,1,1.16-.4V311.88Z"/></g></g></svg>
