<svg xmlns="http://www.w3.org/2000/svg" viewBox="0 0 2022.01 199.7"><defs><style>.cls-1{fill:#17173a;}</style></defs><title>torn-bg</title><g id="Capa_2" data-name="Capa 2"><g id="Capa_1-2" data-name="Capa 1"><path class="cls-1" d="M1.15,149.48c6.08-4,7.64,2.26,11.29,2.55,9.85.8,4.78,11,20,14.72.5.11,1.2.36,1.27.66,8.8,26.31,59.36-3.24,67.93,4.79.95.85,5.25-.25,13.2-1.62.82,16.38,21.23,7.18,30.18,4.41,1.55-.48,5.75.52,8.19.38,15.34-.86,19.73,2.11,24.65-3.55,5.49-6.29,10.82-1.72,15-4.81,7-5.22,9.66-3.3,12.61,2.46,3.22,6.34,6.28,2.59,13.19,5.9,8.18,3.95,15.64-2.13,19.39-4.24,30,14.93,42.87,6,48.69,7.17,1.78,5.88,8.65,10.29,15.67,10.09,0,0,15.26-.47,16-.66,8.82-2.27,6.31.92,9.5,1,5.55.11,2.8,3,8.06,3.95,14.83,2.66,17.58-3.62,23.53-3.47s11.83-1.82,17.75-.06c1.71.51,23.72,1.44,36-.17,1.34,1.83,3,3.57,5.55,3.6,6.68.06,13.36-.25,19.78-2.15,5.36-1.6,2.05,1.63,11.92.71,5.19-.49,6.24,1,14.28,2.27,8.69,1.37,6.79,6.51,12.71,6.14,12.32-.79,42.23,2.51,51.33-4.11,6-4.34,11.43-.8,14.79-4.78,2-2.41,6.27-.31,9.55-1.37,5.88-1.93,5.12,3.27,15,.48,3.1-.91,6-2.54,9.22-3.08,2.79-.46,4.42-1.81,6.43-3.1,8.09-5,24.25-4.58,27.24-10.59,11.59,0-.1,3.28,18.25,1.86,27.55-2.13,29.07,7.54,36.75,8.27.78.05,1.8-.5,2.34-.24,2.3,1.11,4.06.08,6-.74,6.53-2.69,7.39,3.11,17.3-2.47,2.06-1.14,10.79-3.86,12.66-2.53,2.21,1.55,3.29.68,13.55-2.85,2.88,3.46,14.41,3.47,15.62-2,7.45.21,10.25,3,15.23-.62,1-.73,4.31-.38,5.41-.92,3.73-1.85,12.93-.79,13.58-.17,2.55,2.37,4.8,1.3,12,.47,2.71,7.73,12.81-2.29,17.66-.55.56.21,1.56-.26,2.29-.51,9-3.16,10.2,3.83,14.22,4.19,2.22.22,4.34,1,6.71.1s4.38,1.39,6.78,1.31c5.07-.17,7.7-.14,9.61-1.64,0,0,3.12-.15,4.68-1.3a43.06,43.06,0,0,0,3.93-3.7l.23.38c10.9-4.24,4-2.73,17.73,2.75,11.57,4.64,6.53.12,21.68,4.91,7.09,2.24,6.24-1,11.12.65,4.23,1.42,6.47.51,14-2.48,4.71-1.84,11.23,8.91,20.52,8.47s-1.34,5.82,24.72-1.08c5-1.31,8.24,4.49,13.88-1.54,4.35-4.7,6.48.91,12.86-2.75a4.93,4.93,0,0,1,2.71-.26c3.67.45,15,3.23,19.69,2.06,11.54-2.73,22.47-5.54,23.5-5.83,2.15-.63,7.11-.33,9.29-1.18,4.74-1.84,4.78,1,21.83,1.78,6.14.29,12.2.65,17.93,2.38,4.62,1.39,8.88,3.53,14.4,3.49,0,0,3.13,1.87,9.24,2.19,42.91,2.26,23.22-2.43,58.84-.15,13.48.86,23.25,3.1,28.52,1.56,3.3-1,4.22-.49,19-.55,4,0,23.56-3.53,37.66-2,6.5.69,19.07-.16,19.59-.11,9.55,1.11,9.3-.81,12-1,29.44-1.9,11.4-4.39,30.91-3.42,5.69.28,5.63-1.87,13.11-2.73,14.15-1.61,15.5-1.63,19.89.43,1.81.86,8.85,4.87,14.72,4.93,13,.17,14.26-.32,15.6-1.67,2.35-2.4,5.1-1.36,7.84-1.77,31-4.56,27,.79,75.86-12.24,8.51,3.43,10.69.73,26.3-1.91,24.85-4.19-7.22-2.24,36.2-4.5,7.94-.43,5.52,1.09,17.94-1,21.87-3.62,25.34.08,30.77.88,4.41.66,8.83,1.26,12.7,2.88a5.89,5.89,0,0,0,3.08.36c7.55-1.84,39.4,6.19,54.56,3.07a8,8,0,0,1,3.57,0c3.35,1.23,9.43.15,11.38.59,7.51,1.66,11.79-1.59,17.07-1.31.68,0,19.88,1.34,21.75,1.65,7.88,1.28,12.19-.4,17.3.52,19.46,3.51,0-5,30.19,5.06,1.2,3.16,3.76,4.19,8.28,2.69,5.3-1.77,8.61,2.62,16.39,1.07,0,0,8.29,1.25,13,.69,6.34-.76,11.75,1.1,15.45.47,6.93-1.18,9.59,1.15,13.48-.94,5.19-2.84,23.5-.63,25.51-.58,8.45.24,10,4.28,13.31,4.93,4.61.87,12.84,2.12,17.23.78,11.17-3.37,14.73-1.47,21-1.25,50.37,1.87,38.3,6.3,59.58,3.48,3.2-.42,6.65,0,9.56-1.32a5,5,0,0,1,.8,0c4.61.78,6.45-2,12-1.23a9.39,9.39,0,0,0,3-.3c5-1,9.88-2.33,15.21-1.93,7,.47,8.41.46,10.12,1.8,6.42,5,10.37.78,19.64,5.89a51,51,0,0,0,10.93,3.72V80.83H0V150A5.82,5.82,0,0,0,1.15,149.48Z"/><path class="cls-1" d="M2020.86,50.22c-6.08,4-7.64-2.26-11.29-2.55-9.85-.8-4.77-11-20-14.72-.51-.11-1.2-.36-1.28-.66-8.79-26.31-59.35,3.24-67.93-4.79-.95-.85-5.24.25-13.2,1.62-.81-16.38-21.22-7.18-30.17-4.41-1.55.48-5.75-.52-8.2-.38-15.33.86-19.72-2.11-24.64,3.55-5.5,6.29-10.82,1.72-15,4.81-7,5.22-9.66,3.3-12.61-2.46-3.23-6.34-6.29-2.59-13.2-5.9-8.17-3.95-15.63,2.13-19.39,4.24-30-14.93-42.87-6-48.69-7.17-1.77-5.88-8.65-10.29-15.67-10.09,0,0-15.26.47-15.94.66-8.82,2.27-6.31-.92-9.51-1-5.55-.11-2.79-3-8.06-4-14.83-2.66-17.58,3.62-23.53,3.47s-11.83,1.82-17.74.06c-1.72-.51-23.72-1.44-36,.17-1.35-1.83-3-3.57-5.56-3.6-6.67-.06-13.35.25-19.77,2.15-5.37,1.6-2.05-1.63-11.93-.71-5.18.49-6.24-1-14.28-2.27-8.68-1.37-6.79-6.51-12.7-6.14-12.32.79-42.24-2.51-51.33,4.11-6,4.34-11.43.8-14.79,4.78-2,2.41-6.28.31-9.55,1.37-5.88,1.93-5.13-3.27-15-.48-3.11.91-6,2.54-9.23,3.08-2.78.46-4.41,1.81-6.43,3.1-8.09,5-24.25,4.58-27.24,10.59-11.59,0,.1-3.28-18.24-1.86-27.55,2.13-29.08-7.54-36.76-8.27-.78,0-1.79.5-2.34.24-2.3-1.11-4-.08-6,.74-6.53,2.69-7.39-3.11-17.3,2.47-2,1.14-10.79,3.86-12.66,2.53-2.21-1.55-3.28-.68-13.54,2.85-2.88-3.46-14.41-3.47-15.63,2-7.45-.21-10.24-3-15.22.62-1,.73-4.32.38-5.41.92-3.73,1.85-12.94.79-13.58.17-2.56-2.37-4.8-1.3-12-.47-2.72-7.73-12.82,2.29-17.67.55-.56-.21-1.56.26-2.29.51-9,3.16-10.2-3.83-14.21-4.19-2.22-.22-4.35-1-6.71-.1s-4.38-1.39-6.78-1.31c-5.08.17-7.7.14-9.61,1.64,0,0-3.12.15-4.68,1.3a41.91,41.91,0,0,0-3.94,3.7l-.22-.38c-10.91,4.24-4,2.73-17.74-2.75-11.56-4.64-6.52-.12-21.68-4.91-7.09-2.24-6.24,1-11.12-.65-4.22-1.42-6.47-.51-14,2.48-4.7,1.84-11.23-8.91-20.51-8.47s1.34-5.82-24.72,1.08c-5,1.31-8.24-4.49-13.88,1.54-4.36,4.7-6.48-.91-12.86,2.75a5,5,0,0,1-2.72.26c-3.67-.45-15-3.23-19.69-2.06-11.54,2.73-22.47,5.54-23.5,5.83-2.15.63-7.1.33-9.29,1.18-4.74,1.84-4.77-1-21.82-1.78-6.14-.29-12.2-.65-17.94-2.38-4.62-1.39-8.88-3.53-14.4-3.49,0,0-3.13-1.87-9.23-2.19-42.91-2.26-23.22,2.43-58.84.15C848.75,16,839,13.8,833.72,15.34c-3.3,1-4.23.49-19,.55-4,0-23.57,3.53-37.67,2-6.5-.69-19.06.16-19.59.11-9.55-1.11-9.3.81-12,1-29.45,1.9-11.4,4.39-30.91,3.42-5.7-.28-5.64,1.87-13.12,2.73-14.14,1.61-15.5,1.63-19.89-.43-1.81-.86-8.84-4.87-14.72-4.93-13-.17-14.25.32-15.6,1.67-2.35,2.4-5.1,1.36-7.83,1.77-31,4.56-27.06-.79-75.87,12.24-8.5-3.43-10.69-.73-26.3,1.91-24.84,4.19,7.23,2.24-36.19,4.5-7.95.43-5.52-1.09-17.94,1-21.88,3.62-25.34-.08-30.78-.88-4.4-.66-8.83-1.26-12.69-2.88a5.93,5.93,0,0,0-3.09-.36c-7.54,1.84-39.4-6.19-54.55-3.07a8,8,0,0,1-3.58,0c-3.34-1.23-9.43-.15-11.37-.59-7.51-1.66-11.79,1.59-17.07,1.31-.69,0-19.88-1.34-21.76-1.65-7.88-1.28-12.19.4-17.3-.52-19.46-3.51.05,5.05-30.19-5.06-1.2-3.16-3.75-4.19-8.27-2.69-5.31,1.77-8.62-2.62-16.39-1.07,0,0-8.29-1.25-13.05-.69-6.33.76-11.74-1.1-15.45-.47-6.92,1.18-9.59-1.15-13.47.94-5.2,2.84-23.51.63-25.51.58-8.46-.24-10-4.28-13.32-4.93-4.61-.87-12.84-2.12-17.23-.78-11.17,3.37-14.72,1.47-21,1.25-50.37-1.87-38.3-6.3-59.59-3.48-3.2.42-6.64,0-9.56,1.32a4.84,4.84,0,0,1-.79,0c-4.62-.78-6.46,2-12,1.23a9.42,9.42,0,0,0-3.05.3c-5,1-9.87,2.33-15.2,1.93-7-.47-8.41-.46-10.13-1.8-6.42-5-10.36-.78-19.64-5.89A50.59,50.59,0,0,0,0,11.13v69.7H2022V49.67A5.82,5.82,0,0,0,2020.86,50.22Z"/></g></g></svg>