<svg xmlns="http://www.w3.org/2000/svg" viewBox="0 0 187.77 274.65"><defs><style>.cls-1{fill:#ffb93a;}</style></defs><title>torn-claw-yellow</title><g id="Capa_2" data-name="Capa 2"><g id="Capa_1-2" data-name="Capa 1"><path class="cls-1" d="M31.41,206c-.32.15.1.4-.11.58-1,.87-.47,2-.68,3.06.12.41-.65.89.13,1.23v.37a1.19,1.19,0,0,0-.38,1.95,2.34,2.34,0,0,1-.31,1.95c-.51,1-.14,1.79-.15,2.69a10.44,10.44,0,0,1-.37,4,1.12,1.12,0,0,1-1.26.85l.81.27c-1,0-1.14.7-1,1.36s-.29,1.11-.67,1.67c-.67,1-1.85,1.71-1.91,3,0,.41-.79.31-.49,1a1.59,1.59,0,0,0,1.22,1.07.9.9,0,0,0-.28,1.28c.08.15.15.18,0,.37a6.15,6.15,0,0,0-1.31,4.29c0,.32-.69.12-.64.67.08,1-.6,1.82-.73,2.82A2.75,2.75,0,0,1,21.89,243c-.49.23-.81,1-1.07,1.42-.85,1.49-1.54,3.16-.17,4.79-.66.76.25,1.11.51,1.64.46,1-.67,1.41-.86,2.18a2.37,2.37,0,0,1-1.13,1.66.34.34,0,0,0-.18.42c.58,1.21,0,2.3-.41,3.4s0,2.31-.28,3.46a3.62,3.62,0,0,1-.13.69c-.1.24-.65.63.21.66.28,0,0,.24.05.37a5.81,5.81,0,0,1-.95,2.75c-.9,1.79-1.46,3.69-2.21,5.52l-.69,0,0-.77a8.88,8.88,0,0,1,.27-1.69c.13-.6.73-1.13.71-1.61,0-1,1-1.49.94-2.5a8,8,0,0,1,.51-1.5c.22-.7.14-1.4.36-2.11s.5-1.9-.91-2.28c-.12,0-.27-.16-.13-.28.58-.51.29-1.15.25-1.69-.1-1.23.13-2.49-.55-3.67a1.61,1.61,0,0,1-.06-1.18c.24-.81.5-1.66-.54-2.27-.31-.19-.29-.58.07-.82,1-.64,1.24-1.69,1.81-2.57.37-.57.26-1.32.69-1.91.25-.35-.19-.61-.4-.88.82-.5.18-1.06-.07-1.41-.46-.64-.22-1.26-.2-1.88.07-1.46.59-2.87.56-4.37,0-.58-.13-1.47.49-1.78,1.63-.81,1.26-2.25,1.52-3.51.06-.27-.29-.22-.39-.37.48,0,.92,0,.72-.61v-.4c.63-.46.09-1.18.47-1.76a1.75,1.75,0,0,0,.47-1.39,2.44,2.44,0,0,1,2.16-2.84c.43-.08.84-.18.91-.8.05-.44-.15-1.37,1-1.18.11,0,.12-.26.18-.37.32-.58.07-1.26.43-1.83a.9.9,0,0,0-.77-1.44c-.3,0-.41-.05-.47-.25-.1-.39.25-.32.46-.31.59,0,1.22-.14,1.22-.65,0-1.28.16-2.66-1.05-3.67-.15-.12-.34-.23-.27-.47.35-1.31-.54-2.64.12-3.94.35-.69,0-1.77,1.27-1.95.35-.05.55-.26.46-.62l0-.08-.09,0a.22.22,0,0,0,0-.34l.18.09a.56.56,0,0,0,.49-.11c.1-.1.13-.2,0-.28-.07-.28.33-.48.14-.77.28-.12,0-.26,0-.38a.23.23,0,0,0,.16,0c.16,0,.2,0,.14-.17.87-1.3.31-2.74.48-4.1,0-.07-.12-.14-.18-.21s-.13-.45-.39-.55a2.65,2.65,0,0,1-.51-1.66c.08-.67.15-1.34.23-2s.56-1.6.33-2.24c-.51-1.41,1-2.47.56-3.81,0-.09.25-.27.37-.42a1.74,1.74,0,0,0,.54-1.48c.13-.14.39-.24.17-.49.54-.23.38-1,.81-1.15,1.09-.46,1.13-1.81,2.29-2.16.09-1.41,1.25-2.76.3-4.25a.62.62,0,0,1,.06-.62c1-.81,1.17-2.19,2.45-2.75.11,0,.15-.16,0-.2-.66-.29-.08-.38.09-.52A4.51,4.51,0,0,0,36.8,174a1.42,1.42,0,0,0-.3-1.86s0-.06,0-.09c1.2-.18,1-1.26,1.43-1.94s-.12-.91-.81-.88c-.15-.37.25-.85-.28-1.14l-.06-.34c.51,0,.64-.33.75-.67a7.64,7.64,0,0,0,.41-2.27l0-.07,0,.08H37c-.29-.76.55-.67.86-1,.13-.07.13-.13,0-.2a.68.68,0,0,1,.2-.69,2.08,2.08,0,0,0,.68-2c-.14-.59.31-.94.32-1.44s.4-1,1.15-.87c0-.57.48-.49.9-.55a2.06,2.06,0,0,0,1-.71c-.4-.23-.28-.35.09-.44,1.32-.32,1.83-.85,1.89-1.95a3.9,3.9,0,0,0-.44-2.6c-.6-.85.22-2.07-1.13-2.78.65,0,.87-.13,1-.56.33-1.08.75-2.13,1.14-3.19.61-.58.54-1.36.71-2.07.24-.12.1-.29.06-.44l.12-.38c.12,0,.24-.06.11-.21l0-.38c.06-.33.11-.66.17-1,.08-.14.07-.33.29-.38.71-.14.78-1,1.41-1.14,1-.24,1-1.4,2-1.67.14,0,.16-.4,0-.68a2.25,2.25,0,0,1-.25-1.67c.13-.4.66-1-.29-1.18-.12,0-.18-.44,0-.49,1.3-.27.77-1.35.88-2,.18-1.08-.18-2.22.43-3.29.14-.24,0-.54-.35-.7-.09-.28.07-.45.29-.61a4,4,0,0,0,.71-.32c.5-.38,1.35-.08,1.66-.76.21-.46.63-.53,1.12-.67s.87.1,1.3.09c.66,0,.57,0,.76-.65.08-.26.11-1.15,1-.76.4.17.63,0,.7-.41.29-1.58.27-3.25,1.75-4.46a.8.8,0,0,0,0-1.07c-.59-.51-.16-1.23-.57-1.74,0,0-.18-.17,0-.21,1-.17.92-1,1.28-1.62.08-.12.25-.24,0-.44-.84-.58-.34-1.09.23-1.49.78-.56.9-1.3.11-1.91a.73.73,0,0,1-.25-1,8.2,8.2,0,0,1,1-1.41c.46-.54.93-1.13,1.85-.65a.42.42,0,0,0,.54-.19c.15-.26-.19-.28-.25-.41-.14-.32-.81-.72.22-1,.64-.15,1.45,0,1.92-.5a9.92,9.92,0,0,0,2.1-2.19c-1.73,0-.32-1.14-.71-1.67s.19-.58.38-.83c-.08-.67.48-1,.87-1.45.18-.2.5-.32.33-.62-.35-.61,0-1.18.09-1.76l.46-.17c.42-.47.08-1.4,1.09-1.51,0,0,0-.17,0-.22-.6-.74.2-.61.53-.67s.76.21.84-.27-.46-.29-.68-.46-.28-.07-.26-.27a3,3,0,0,0,.87-.61c.51-.77,1.66-1.16,1.59-2.29,0-.22.3-.33.56-.34a.42.42,0,0,0,.44-.29,1.31,1.31,0,0,1,1.42-.86c.17,0,.37.19.51-.1a8.84,8.84,0,0,0,.87-1.79A12.49,12.49,0,0,1,78.37,84a2,2,0,0,1,2-1.14,13.55,13.55,0,0,0,2.12-.32c.81-.1.7-.64.52-.88-.41-.53-.21-.52.32-.56,1.19-.09,1.55-.76,1-1.79-.1-.17-.25-.33-.11-.49.75-.93,0-1.65-.47-2.33-.16-.24-.17-.37-.06-.51A22.41,22.41,0,0,0,85.69,72c.62-1.28,1.32-2.53,2-3.78s1.44-2.79,3-3.6c.75-.38,1.38-1,2.11-1.38.42-.24.86-.61,1.44-.3.35.19.7.45,1.07,0s.22-.74-.18-1.05a1.49,1.49,0,0,1,.79-.09c1.17.17,1.41,0,1.26-1.15-.09-.62.34-1.16.16-1.82,0-.21,0-.93.19-1,1.25-.42,1.29-1.67,2-2.44.25-.27,1.07-.63.68-1.25-.26-.42,0-.64.16-.94a10.87,10.87,0,0,1,1.66-1.59c.53-.49,1.48-.82,1.43-1.62-.09-1.52.87-2.46,1.85-3.47s2.28-1.4,3.08-2.47a1.92,1.92,0,0,1,1.74-.61c.34,0,.79,0,.8-.38,0-.92.7-1,1.39-.89.33,0,.33,0,.47-.27,1.19-1.81,1.64-3.92,3.47-5.53s3.67-3.18,4.18-5.67A8.7,8.7,0,0,1,122,28c1.22-1.82,2.53-3.59,3.56-5.51a.77.77,0,0,1,.66-.4c.78,0,1-.31,1.06-1,0-.31,1.3.45,1.72-.27a5.15,5.15,0,0,1,1.52-1.63.52.52,0,0,0,.2-.32A5.38,5.38,0,0,1,132,16.64c.55-.83,1.64-1.54,1.07-2.73-.2-.42.14-.38.32-.51.37-.27.9-.47,1.1-.83a8.59,8.59,0,0,1,2.6-2.5c1.34-1,2.66-2,3.93-3.08.27-.23.69-.26.86-.64a23.32,23.32,0,0,1,2.22-3.95l.27-.35a2.6,2.6,0,0,1-.1-.25l.16-.23a.65.65,0,0,0,.71-.35c.38-.12.27-.46.4-.69a.8.8,0,0,1,1-.46c.46.23-.08.47-.16.7-.47,1.36-1.6,2.38-2,3.82s-1.6,2.47-2.36,3.73c-.58,1-1.6,1.58-2.07,2.64a3,3,0,0,1-1.16,1.63A4.3,4.3,0,0,0,137,14c-.21.33-.43,1-.93,1s-.75.32-1.1.54-.38.86-.83,1.05c-1.29.55-1.32,2-2.29,2.77-.27.22-.26.63-.09,1.06a2.27,2.27,0,0,1,.05,1.86,16.16,16.16,0,0,1-2.07,3.28.63.63,0,0,0,0,.88c.26.83-.53,1.56-.29,2.39l0,0c-.21-.09-.46-.12-.53.1s.23.14.36.18c-.36.83-.69,1.67-2,1.21-.24-.09-.36.2-.44.43-.3.91,0,2-1,2.7,0,0,0,.24.11.32s.39.24.24.47c-.43.62-.29,1.44-.82,2-.54-.27-.51-.69-.5-1.2,0-1.22.89-2.24.83-3.45,0-.13.34-.24,0-.36a.54.54,0,0,0-.46.09c-.44.93-1.43,1.27-2.17,1.88a14.67,14.67,0,0,0-3.22,3.36,2.24,2.24,0,0,1-.71.81c-1.78.92-2.29,2.73-3.38,4.11a54.83,54.83,0,0,0-3.89,5.68c-1.19,2-3.2,3.4-4.84,5.06a1,1,0,0,1-1.05.3c-1-.33-1.2.25-1.47.89-.46,1.07-1,2.12-1.47,3.17-1.06,2.23-2.36,4.36-3.22,6.66-.11.29-.27.62-.59.63-.74,0-.86.51-1.1,1a2.17,2.17,0,0,1-2.68.68c-.27-.18-.37-.11-.45.09-.61,1.51-2,2.57-2.74,4a12.46,12.46,0,0,1-1.38,2.46,4.91,4.91,0,0,0-1.34,3.15c0,.72-.18,1.42-1.2,1.55-.46.05-.6.46-.64.8-.09.67-.86,1.32,0,2.06a.62.62,0,0,1-.2.87,3.53,3.53,0,0,0-1.67,1.61A3.65,3.65,0,0,0,85,83.49c-.08.45-.11,1.09-.73,1.32A1.91,1.91,0,0,0,83,86.33.79.79,0,0,1,82,87c-1.18-.34-1.18.46-1.34,1.08a2.52,2.52,0,0,1-.25.93,33.54,33.54,0,0,0-2.16,3.52C77.47,94,76,95.15,75.08,96.57c-.57.84-1.69.94-2.3,1.74-1,1.32-2.58,2.31-2.78,4.09-.08.77.18,1.7-.21,2.28-.78,1.2-.32,2.86-1.75,3.77,0,0,0,.13,0,.19-.22,1-.21,2.21-1.9,2.11-.07,0-.14.13-.22.19a4.8,4.8,0,0,0-2.35,3.32c-.32,2.24-1.15,4.4-1.51,6.65a8,8,0,0,1-1,2.8,19.88,19.88,0,0,1-2.66,3.49,11.31,11.31,0,0,1-3.76,3,.79.79,0,0,0-.52.56,34.76,34.76,0,0,1-1.3,3.53c-.58,1.54-1.09,3.1-1.66,4.64s-1.34,2.95-1.76,4.52-.8,2.86-1.23,4.28-1,2.67-.7,4a5,5,0,0,1,0,2.3c-.3,1.45-1.46,2.47-1.88,3.82-.1.32-.69.52-.77.83a1.62,1.62,0,0,1-1.18,1.36.93.93,0,0,0-.7.87c-.06,1.09-.09,2.19-.22,3.27-.14,1.27-.32,2.54-.57,3.8a19.52,19.52,0,0,0-.38,2.64,9.91,9.91,0,0,1-.28,2.58c-.45,1.36-1.62,2.35-2.09,3.7,1.4.85,1.48,1.22.65,2.58a15.06,15.06,0,0,1-3.78,3.86c-.31.24-.75.51-.82.83-.57,2.46-1.75,4.75-2.21,7.24-.14.76-.07,1.71-.7,2.25-.89.76-.8,1.91-1.55,2.7-.2.22-.12.74-.33,1.09-.1.16-.19.36,0,.52,1.3,1,1.19,2.32,1.05,3.66S31.7,204.59,31.41,206ZM125.68,31c.21-.06.35-.15.32-.33s-.12-.15-.18-.15-.31.13-.29.31S125.63,31,125.68,31Z"/><path class="cls-1" d="M66.12,230.47c-.53.53-.66,1.31-1.36,1.77a2.12,2.12,0,0,0-.71,1.44,15.46,15.46,0,0,1-1,3.14A1.23,1.23,0,0,0,63,238c.27.48.17.85-.13,1.42a5.12,5.12,0,0,0-.8,1.91c-.06,1.64-1.22,2.91-1.64,4.42-.09.35-.33.44-.71.3a.79.79,0,0,0-1.16.6c-.08.35-.37.54-.6.76a3.11,3.11,0,0,0-.69,3.46c.34,1-.17,1.76-.41,2.63s-1,1.51-1.09,2.39c-.09.54-.75.73-.91,1.3.92,0,1,.55.75,1.15a22.58,22.58,0,0,1-1.16,1.94,12.84,12.84,0,0,0-1.34,2.46c-.11.37-.51.55-.5,1s-.45,1,.24,1.32a.09.09,0,0,1,0,.09c-.39.86.26,1.8-.22,2.63-.93,1.65-1.36,3.46-2.12,5.16-.27.58-.59,1.15-.88,1.73-.59,0-.25-.6-.59-.77a57.89,57.89,0,0,0,1.69-6.59c.7-1.55.68-3.27,1.31-4.85.4-1,.3-2.09.66-3.12a7.42,7.42,0,0,0,.7-3.4c-.09-.69-.4-1.38.52-1.8.15-.07.08-.19,0-.2-.66-.11-.37-.6-.46-.94l.36-.12c-.61-.42.36-1-.24-1.57a1.86,1.86,0,0,1,.13-2.54,3.42,3.42,0,0,0,.62-2.46,1.84,1.84,0,0,1,.29-.9c.53-1,.93-2,1.37-3.06.21,0,.54.09.54-.09s-.36-.09-.55-.16c-.11-.47.23-.55.61-.59s.36-.31.26-.56c.14-.42.77-.6.61-1.15.53-.1.8-.44.66-.87a1,1,0,0,1,.3-.94c1.22-.12,1.17-1.28,1.65-1.88a15.67,15.67,0,0,0,1.78-4c.17-.41-.25-.45-.49-.6s-.68-.13-.75-.54c-.27-1.65.07-2.58,1.75-3.52a.65.65,0,0,0,.3-.36c0-.28-.26-.25-.45-.27-1.74-.19-2-1.1-1.54-2.5a23.9,23.9,0,0,0,1.1-4.77c0-.36.18-1,.78-1s.81-.57,1-1,.36-1.16,1-1.28.52-.37.57-.64a5.15,5.15,0,0,1,.52-1.26c.36-.77,1-1.49.56-2.41-.12-.24,0-.34.07-.51.5-.76,1-1.52,1.46-2.28s1.12-1.28,1.23-2.23c.06-.56-.42-.82-.37-1.28a3.51,3.51,0,0,1,1-2.27,1.09,1.09,0,0,0-.3-1.83c.75-.7,1.87-.91,2.77-1.55-.6-.27-1.24.11-1.72-.46.69-.08.72-.82,1.33-1s1.15-.33,1.11-.84-.66-.74-1.21-.87c-.17,0-.33-.1-.57-.18,1.13-.22,1.22-.85.8-1.63-.23-.43-.13-.6.24-1,.68-.72,1.27-1.61.52-2.71a2.36,2.36,0,0,1,.05-2,18.34,18.34,0,0,0,1.11-4c0-.3.11-.72.34-.85.39-.24.46-.5.26-.8-.29-.45.12-.33.32-.42a7.43,7.43,0,0,1,1.5-.66c-.26-.93.72-1,1.16-1.43.13-.13.43-.16.29-.41-.44-.76.33-.94.74-1.23s.64-.68.11-1.13c-.22-.19-.33-.31-.06-.49a.88.88,0,0,0,.37-1c-.14-.68.71-1.17.37-1.87,1.14-.31.62-1.29.88-1.95.1-.24,0-.54-.42-.42l-.61,0c0-.26.07-.64-.47-.56,0-.4.61,0,.67-.38.75-.08,1-.38.48-1,.22,0,.49,0,.49-.32l0,0a.26.26,0,0,0,.42,0l-.06,0c0,.19.09.29.29.3a11.46,11.46,0,0,0,1.67-.32c.31,0,.52-.08.6-.39.13-.46-.27-.18-.41-.26s0-.13.06-.14c.4-.08.25-.24.17-.48s-.23-.64.37-.49.9-.36,1-.79a2.47,2.47,0,0,0-.08-1.42c-.2-.47-.28-1.18,0-1.42.64-.52.21-1.26.65-1.77,0,0-.2,0-.29.08v0c-.23-.73.46-1.8-.9-2.12-.07-.22.14-.36.21-.54l.16-.08-.15-.17a4.2,4.2,0,0,0,.17-.5c.38-1.1,0-2.5,1.45-3.21a2,2,0,0,0,.88-1.1c.17,0,.32,0,.43-.14.31-.54.64-1.07,1-1.6.52-.83.44-2,1.56-2.53a3,3,0,0,0,.48-.83c.15-.45,1.19-.71.55-1.25-.36-.32-1-.89-1.66-.22l-.46-.41c-.3-.62-.81-.67-1.62-.23.34-.61.31-.93-.16-1.17s-.39-.59,0-.7c1.37-.34,1.3-1.56,1.61-2.41a4.51,4.51,0,0,0,0-2.5,1.33,1.33,0,0,0-.92-1.09c.11,0,.19-.1.13-.23-.24-1-.08-1.29.9-1.4.08,0,.23,0,.24,0s0-.28-.22-.33v-.33c.48.24.72.21,1-.36s.69-1.34,1.44-1a2.38,2.38,0,0,0,2.89-.71c.18-.18.34-.45.31-.55-.21-.68.31-.93.76-1.23.79,0,1.31-.34,1.2-1.18l.52-.36c.49,0,.57-.26.52-.62.5-.52,1-1,1.49-1.55a38.34,38.34,0,0,1,3.07-3.59c.56-.53,1.1-1.62.86-2.18a2.85,2.85,0,0,1,.27-2.37c.42-.09.21-.36.19-.57a1.69,1.69,0,0,0,.28-1.11h0c.46-.23-.25-.88.32-1,.81-.1.62-.6.67-1,.15,0,.27,0,.2-.18l-.12-.78c-.12-.19.12-.52-.29-.58a35.26,35.26,0,0,0-.43-4.92,2.22,2.22,0,0,1,1.28-2.43l.31-.13-.28-.34c.76-.17,0-.61.19-.87.44-.34,1-.12,1.46-.22.82-.4.57-.85.08-1.32.1-.59.6-.93,1-1.32a1.54,1.54,0,0,0,1.87-1.38c.37-.14.68.15,1,.13a1.12,1.12,0,0,0,1.74-.53c.17-.34.27-1.05.67-.91,1.12.37,1.17-.35,1.41-.95a10.32,10.32,0,0,1,.48-1,2.34,2.34,0,0,0,.48-1.64,18.88,18.88,0,0,0,2.22-5.38,14,14,0,0,1,1.69-4c.42-.69.85-1.74,2.18-1.5.34.06.55-.16.63-.51a22,22,0,0,1,1.54-5c.15-.33.34-.71.85-.74a1.21,1.21,0,0,0,1.74-.17,1.83,1.83,0,0,0,.45-1.19c.21-1.24,1.29-2,1.81-3.09l.42,0c.38.22.66.24.89-.23.58-1.21,1.22-2.41,1.83-3.62l.08-.37c.18-.09.38-.16.32-.41l.29-.56c.31,0,.38-.16.37-.4.14-.1.06-.22,0-.33a.82.82,0,0,0,.56-.65l.35-.55a20.18,20.18,0,0,0,2.6-1.83c.79-.75,2-1.17,2.38-2.29a7.48,7.48,0,0,1,1.16-2.76c.41-.47.47-1.23,1.08-1.65.16-.11.17-.15,0-.27-.65-.57.05-1,.26-1.41a1.08,1.08,0,0,0,.16-.86l0-.35c.75.11.53-.54.77-.82.11-.64,0-1.39,1.13-1.34.29,0,.41-.31.47-.57,1.14-.46.6-1.2.37-1.89a1.28,1.28,0,0,1,1.43-.85c.4.06.84-.32.74-.57-.26-.57-.1-.85.47-1a1.53,1.53,0,0,0,1.24-1.26c0-1.47,1.33-1.66,2.27-2.23.42.17.61-.17.88-.29-.07-.28-.94-.12-.38-.68l.47-.05c.57,0,1.3-.24,1.23-.7s.39-1.43-.57-1.8c.25-.36,1-.17,1-.69.09-1.14,1.1-1.74,1.69-2.59A8.1,8.1,0,0,0,156.79,40c1.52-1.39,3.25-2.76,3.86-4.7A3.89,3.89,0,0,1,162.54,33c.16-.1,0-.62.55-.71-.07,1,.43,2-.52,2.81a.4.4,0,0,0-.07.36c.32,1.08-.45,1.68-1.17,2.33-2,1.76-3.18,4-4.65,6.09-.06.08-.29.12-.17.25s.25,0,.3-.12c.39-.06.84-.24,1,.25s-.33.45-.56.63c-1.83,1.46-4.05,2.54-5.09,4.73A7.26,7.26,0,0,1,151.07,51c-1.1-.57-.9.55-1.45.83.88.33.8-.84,1.51-.62.42.68.06,1.22-.62,1.25-.94,0-1.34.28-1.07,1.2.15,0,.47-.06.6-.2.47-.52.68-.24.9.17a7.05,7.05,0,0,0,.78,1.37c.4.46-.05.61-.22.88a3,3,0,0,1-2,1.61c-.45.1-.79.65-1.16,1a1.13,1.13,0,0,1-.81.32c-.44,0-1.07-.7-1.31.26-.1.39-.63.69-.48,1.15.28.87-.25,1.75.15,2.65.15.36-.2.94-.29,1.41a4.54,4.54,0,0,0,.08,1.77,2.34,2.34,0,0,1-.27,1.94c-.15.2-.52.51-.31.76,1,1.26-.26.72-.72.82l-.44.12c1.55.66.6,1.29.18,2s-1,1.76-1.5,2.65c-.21.39-.4.76-1,.74s-.56.89-1.21.91c-.28,0-.46,0-.47.32a1,1,0,0,0-.79.39c0-.25-.08-.66.05-.74.88-.53.68-1.68,1.54-2.2.12-.07.21-.23.06-.3-.84-.37-.26-.91-.24-1.39,0-.65.69-1.11.51-2-.69.89-1.92,1-2.45,1.67a25.53,25.53,0,0,0-3,3.84,20.83,20.83,0,0,1-1.95,2.61c-.33.44-.93.56-1.26,1.08-.87,1.37-1.07,3.13-2.74,4-.12.07-.17.28-.2.43-.29,1.34-2,1.85-2.2,3.25,0,0-.1.11-.16.12-.56.09-.71.51-.78.92-.18,1.1-1.46,1.42-2,1.38-1-.06-1,.42-1.17.93a20.35,20.35,0,0,1-4.25,7c-1.14,1.17-1.51,3-2,4.66a4.33,4.33,0,0,0,.13,2.58c.14.41.09.87-.5,1a.63.63,0,0,0-.47,1c.38.82-.11,1.15-.74,1.55a1.88,1.88,0,0,1-2,.32,4.23,4.23,0,0,0-1.25-.08,1.34,1.34,0,0,0-1.54.81c-.44.9-1.72,1.32-1.84,2.47,0,.07-.22.13-.34.19a1.51,1.51,0,0,0-.81,2.46,1.26,1.26,0,0,1,.14.92,37.46,37.46,0,0,1-1.44,5.48c-.54,1.52-.66,3.14-1.19,4.67-.28.79-.89,1.49-.86,2.37-.21,0-.4.12-.37.36a.2.2,0,0,0,.12.12c.25-.05.27-.24.31-.43.34,0,1.11-.15.48.54-2.13,2.32-3.08,5.57-6.42,6.92-.84,1.35-2.74,2.19-2.13,4.26a14,14,0,0,1,0,3.18,11.27,11.27,0,0,1-1.59,6.52,5.63,5.63,0,0,0-1.28,2.6,2.43,2.43,0,0,1-1,1.72,40.72,40.72,0,0,0-2.93,3.1c-1.22,1.35-1.56,3.24-2,5a.63.63,0,0,0,0,.47c.48.66.44,1.5.85,2.14.7,1.07.06,1.8-.51,2.62s-1.18,1.5-.69,2.57a.79.79,0,0,1-.75,1.19c-.77.07-.94.59-.81,1.2.06.26.23.57-.14.64-1.29.27-1.35,1.44-2,2.19a1.18,1.18,0,0,0-.23.92c.17,1.34.2,2.62-1.23,3.49a1.17,1.17,0,0,0-.35.68,1.12,1.12,0,0,1-1.16.93c-.63,0-1,.46-1.42.75s.43.39.36.74a2.6,2.6,0,0,0,0,.68c0,.15,0,.3.12.43,1.1.83,1.14,1.23.49,2.38a30,30,0,0,1-4.12,5.89,5.22,5.22,0,0,0-1.3,3.26c-.13,1.47-1,2.81-.9,4.31a.48.48,0,0,1-.18.33,6,6,0,0,0-1.22,2.23A46.33,46.33,0,0,0,69.9,210a24.39,24.39,0,0,1-2.06,5.59,6.85,6.85,0,0,0-.92,3.65,7.69,7.69,0,0,1-.87,4.19c-.51,1-1.7,1.62-2,2.83-.2.92-.7,2.13.09,2.61S65.33,230.1,66.12,230.47Zm9-41.87c-.51,0-.78.2-.77.62a.67.67,0,0,0,.71.69c.51,0,.59-.52.66-.87S75.39,188.62,75.11,188.6Zm-1.93,2.07c.27-.35.88-.51.78-1.1C73.11,189.59,73.35,190.26,73.18,190.67Z"/><path class="cls-1" d="M69.68,35.25c.09-.78.95-1.38.64-2.27,0-.06.16-.5.49-.53.74-.07,1-.4.67-1-.22-.4.35-.33.37-.66a2.38,2.38,0,0,1,1.55-2.25c1.22-.44,1.66-2.07,3.36-1.78.4.07.22-.56.51-.74,1.78-1.7,3.77-3.22,5-5.39.28-.5.91-.61,1.83-.51a3.53,3.53,0,0,0-1.54,1.6c-.1.23-.18.56-.38.65-.87.41-.92,1.19-1.13,1.91-.13,0-.17.07-.17.18s-.2.23-.39.23-.59-.05-.62.17c-.08.9-1,1.47-1.07,2.36a.45.45,0,0,1,0,.16c-.31,0-.67,0-.59.44-.61.73-1.51,1.29-1.71,2.28a28.83,28.83,0,0,0-2.69,4.21,5,5,0,0,1-1.39,2.06c-.3.2-.63.37-.91.6-1.84,1.44-3,3.38-4.55,5.09-.15.17-.35.45-.17.58.77.55.14,1-.09,1.42a1.56,1.56,0,0,0-.25,1.18c-.86.15-1.1.88-1.53,1.43S64,48,63.81,48c-1.1-.3-1.21.42-1.56,1s-1,.49-1.31,1c-.86,1.65-2,3.13-2.81,4.86a27.82,27.82,0,0,1-2.84,5.6c-1.14,1.52-2.2,3.11-4.08,4-.41.19-.82.38-.88.87s-.36.66-.87.48c-.31-.11-.63-.16-.77.24A5.73,5.73,0,0,0,48,68.23a1.63,1.63,0,0,1-.6,1.28,27.32,27.32,0,0,1-4,3.94,8.61,8.61,0,0,0-2.17,2.42A5.86,5.86,0,0,1,39.24,78c-.25.14-.64.28-.64.6,0,1.14.18,2.3-.56,3.35-.09.13.23.49.36.75a.91.91,0,0,1-.33,1.36,14.26,14.26,0,0,0-1.7,1c-1,.7-1.73,1.65-3,2a.2.2,0,0,0-.11.15c.41.9-.61.94-.92,1-1,0-.74.54-.64,1.15.92-.84,1.29.36,2,.37.23,0,.21.34.15.58a6.34,6.34,0,0,1-1.32,2.48,34.88,34.88,0,0,0-4.72,6.75c-.1.19-.25.37-.07.53.53.46-.2.51-.31.8.84-.09.85.29.71.87-.19.79-1,1.5-.41,2.43,0,.07-.15.36-.31.46a32.7,32.7,0,0,0-3.4,2.92c-.83.7-.88,1.86-1.51,2.72a11.63,11.63,0,0,0-1.66,3.14,8.37,8.37,0,0,0-.29,4.29,1.69,1.69,0,0,1-.31,1.63c-1.57,1.23-1.49,3-1.82,4.58-.26,1.26-.14,2.47-1.62,3.16a1.85,1.85,0,0,0-.84,1,8.93,8.93,0,0,1-1.86,3.25c-1.41,1.26-1.73,2.74-2.25,4.28s-.33,3-1.43,4.26a.55.55,0,0,0,0,.55c.66,1,.26,2.31,1,3.27s.1,2-.38,2.83a12.36,12.36,0,0,1-2.27,2.78,2.8,2.8,0,0,0-1.34,2.51A2.81,2.81,0,0,1,7,153.2a17.31,17.31,0,0,0-1.48,3c.33.2.69,0,1,.11s.58.22.38.53c-.4.63-.3,1.46-.94,2-1.12.93-1,2.24-1.24,3.46,0,.24-.08.52.41.45s.6.15.51.59c-.15.76-.11,1.55-.33,2.28s.52,1.84-.31,2.62a.93.93,0,0,0-.26.89c.08.66-.12,1.28.49,1.95s-.13,1.52,0,2.39a8.08,8.08,0,0,1-.59,3.08c-.13.41-.37,1-1,.76s-.76.16-.79.56a1.8,1.8,0,0,1-.91,1.52c-.49-.49-1.2-.49-1.9-.73a3.56,3.56,0,0,0,.82-2.14,6.66,6.66,0,0,1,2-3.45c1-.91,1-.92-.24-1.41-.09,0-.27,0-.25-.17a7.88,7.88,0,0,0,.9-.26c1-.44,1.23-1.29.39-1.69A1.29,1.29,0,0,1,2.79,168,10.46,10.46,0,0,0,3,166a12.5,12.5,0,0,1,.82-5.7,1,1,0,0,0-.3-.9c-.8-1-1.15-3.11-.22-3.88s.74-1.54.86-2.29c.17-1.11-.2-2.37,1.62-2.52.21-.9.87-1.32,1.71-1.76s.68-1.6.75-2.46c0-.63.08-.91.85-.6.22.1.63.19.83-.13a.73.73,0,0,0,0-.86,1.84,1.84,0,0,0-.9-.83c-.4-.17-.42-.28-.38-.68a1.75,1.75,0,0,0-.76-1.84,1.47,1.47,0,0,1-.3-1.85,4,4,0,0,0,.21-3.2A1.22,1.22,0,0,1,8,135.07c.36-.42,1-.7,1.12-1.22.21-.68.84-.94,1.29-1.39.77-.78,2.11-1.32,1.71-2.7-.29-1,.79-1.78.51-2.81a.87.87,0,0,1,.71-.93c.31-.06.35-.15.42-.41.19-.73.74-.86,1.29-.33s.93.46,1-.08a12.44,12.44,0,0,0,.52-2.48c0-.54-.41-1.28,0-1.59,1-.75.83-1.82,1.09-2.76.3-1.1,1-2.05.81-3.37s0-2.48-.88-3.56c-.1-.12-.72-.74-.1-.72.83,0,.34-.28.38-.54.07-.5.12-1,.82-1.26a2,2,0,0,0,1.1-.7,8.64,8.64,0,0,1,2.65-2.63,1.64,1.64,0,0,0,.9-1.49,5.13,5.13,0,0,1,.83-2.86c.07-.13,0-.38.2-.39,1.14-.07,1.56-1,1.94-1.65s1-1.68.4-2.29a2.69,2.69,0,0,1-.57-2.29,4,4,0,0,0,1.55-1.92c.07-.12-.1-.22-.24-.26.16-.59.54-.64,1.11-.45S31.06,90.58,31,90c0-.14-.14-.36-.25-.39a1,1,0,0,1-.81-1.07c0-.51.08-.91.7-.93s.72-.23.45-.65c-.17-.26-.05-.47,0-.71,0-1.27,1.34-1.78,1.88-2.74.32.37.84.21,1.25.33A.63.63,0,0,0,35,83.2c1.44-.5,1-1.87,1.48-2.81a1.69,1.69,0,0,0-.41-2.21c-.17-.14-.18-.61,0-.7.88-.33.85-1.22,1.4-1.74a.67.67,0,0,0,.85.62c.61-.07.16-.43.22-.65s.15-.43.22-.64c.74,0,1.63.13,1-1.1-.17-.33.44-.54.91-.49,1.29.14,1.27.13,1.38-1.12.06-.78.2-1.56,1.42-1.41-.57-.92-.47-1.33.35-1.32s1.12-.17,1.06-.91c0-.08.25-.18.38-.27.35-.12.15-.5.42-.68.71-.46.23-.67-.24-.88a1.42,1.42,0,0,1,1.27-.79,1.83,1.83,0,0,0,1.76-1.4.2.2,0,0,1,.12-.12c.7-.2.59-1.3,1.58-1.21.15,0,.22-.28.32-.44.37-.64-.2-1.32.1-1.92.83-1.64,1.37-3.55,3.91-3.66-.79-.91-.78-1,.41-1.3a1.72,1.72,0,0,0,1.35-1,3.68,3.68,0,0,0,.47-1.47c0-.73.93-1.1,1.26-1.64a39.34,39.34,0,0,0,2.1-3.46c.26-.57.8-1.28.46-1.75-.47-.65-.08-.87.3-1.12s.46-.27.5-.54c.08-.49.3-1,.88-.84s.27.71.25,1.11c0,.11-.11.22-.18.33h-.25s0-.05,0-.06a.15.15,0,0,1,.23.07c.12.25.31.41.52.12a3,3,0,0,0,.5-.94,5.87,5.87,0,0,1,3-4c.39-.19.47-.48.62-.79a24.71,24.71,0,0,1,1-2.4A29.16,29.16,0,0,1,69.68,35.25Z"/><path class="cls-1" d="M125.22,36.26c-.5,1.09-1.09,2.18-1.5,3.25-.34.9-1.06,1.74-1,2.83a3.45,3.45,0,0,1-1.23,2.23c-.26.28-.8.34-.18.78.24.18-.06.29-.19.43-.34.37-.78.71-.7,1.28,0,.09,0,.24-.06.27-1.11.54-1.23,1.72-1.94,2.51-.31.35-.56.69-1.18.62s-.68.68-1,1a1,1,0,0,1-1.09.22c-1.22-1-1.79.06-2.51.59-1.78,1.33-3.59,2.64-5.28,4.06-.64.54-1.47,1.11-1.45,2.1s-.85,1.5-1.27,2.26a13.6,13.6,0,0,0-1.2,2.53.39.39,0,0,0,.06.45c.54.47.27.73-.41.94.85.12,1,.59,1,1.14a29,29,0,0,1-.47,5.25c-.21,1.15,0,2.36-.32,3.51-.37,1.36-.86,2.7-1.26,4-.18.62-.55.71-1.08.42-.92-.51-1.08.09-1.32.7-.15.39-.24.94-.86.94-1,0-1.24.69-1.44,1.37s-.39,1.62-.58,2.43c-.1.44-.14.88-.76,1-.35.09-.17.42-.14.67s.44.66.21.79c-1,.57-.41,1.56-.81,2.21s-.57,1.69-1,2.47c0,.08-.06.22-.13.25-2,.9-2.06,3-3.11,4.46-.69,1-1.29,2-2.67,2.23-.94.2-1,1.15-1.44,1.75a7.44,7.44,0,0,0-.93,1.82c-.23.62-.93.23-1.23.7a28,28,0,0,1-3.16,4.47.49.49,0,0,0,0,.46c.46,1,.42,2,.85,3,.17.4-.08,1,.55,1.21.65.66-.18,1.12-.46,1.32a5.69,5.69,0,0,0-1.18,1.61c-.59.86-.62,2-1.36,2.82,0,0,.11.21.17.32-.37.35-.78.67-.83,1.2l0,.57c-.23.22-.25.55-.64.7s-.8.49-.78.71c.1,1.18-1.22,1-1.7,1.59-.07.09-.33.1-.49.07-2.07-.34-3.29.57-3.29,2.5,0,.8-.06,1.5-1,1.9-.47.2-.06.85-.46,1.23a2,2,0,0,0-1.27-.6,2,2,0,0,0-1.24.66,3.38,3.38,0,0,1-1,.59c-1,.4-1.09,1.46-1.49,2.27-.19.38.12.94-.25,1.36a.19.19,0,0,0,0,.18c.9.24.2,1.34,1,1.61.3.09.15.24.1.36-.31.83.21,1.66,0,2.47-.18.57.4.71.8,1.17-1.45-.13-1.86.79-2.55,1.52A13.12,13.12,0,0,1,63,141.8a1.5,1.5,0,0,0-.69,1.66,4.38,4.38,0,0,1-.85,3.33c-.53.8-.27,1.88-1,2.63a7.84,7.84,0,0,0-1.19,2.66c-.31.77-.92,1.5-.72,2.56.16.76-.5,1.67-.81,2.51a.33.33,0,0,1-.23.18c-1.94.31-3.14,1.62-4.41,2.81-.61.56-1.49.39-2.14.87a5.38,5.38,0,0,0-2,2.05c-.23.59-.77.05-1,.51s.57.44.23.91a.87.87,0,0,0,.56,1.48c.27.33-.89-.09-.17.45.14.1-.1.24-.23.31-.66.36-.6.83-.21,1.3.69.85.39,1.75.24,2.65a2.62,2.62,0,0,1-.38.09c-.21,0-.25-.22-.37-.28-.42-.18-.41.14-.31.33.18.35.54.13.83.14a1.21,1.21,0,0,0,.39-.11c-.51,1.31-1.72,2.08-2.78,2.93a6.43,6.43,0,0,0-2.53,4c-.28,1.55-1,3-1.43,4.55a26.06,26.06,0,0,0-.41,3.44c-.05.35.31.47.5.52,1.33.38.73,1,.32,1.66-.06.1-.2.18-.08.37a2.59,2.59,0,0,0,.67-.1c.21-.08.31-.55.62-.25s-.06.75-.23.84c-1.74,1-2.33,2.72-3.5,4.06-.1.13-.14.34-.28.4-1.45.64-2.22,1.9-3.14,3-.56.66-1.17,1.41-.48,2.33.18.24,0,.36-.13.48-.78.68-1.07,1.65-1.77,2.39a1.41,1.41,0,0,0-.51,1.13c0,.1,0,.29-.16.28-1.15-.07-.79.87-.87,1.3A2.29,2.29,0,0,1,31.41,206c.29-1.44.2-2.9.35-4.35S32,199,30.71,198c-.21-.16-.12-.36,0-.52.21-.35.13-.87.33-1.09.75-.79.66-1.94,1.55-2.7.63-.54.56-1.49.7-2.25.46-2.49,1.64-4.78,2.21-7.24.07-.32.51-.59.82-.83a15.06,15.06,0,0,0,3.78-3.86c.83-1.36.75-1.73-.65-2.58.47-1.35,1.64-2.34,2.09-3.7a9.91,9.91,0,0,0,.28-2.58,19.52,19.52,0,0,1,.38-2.64c.25-1.26.43-2.53.57-3.8.13-1.08.16-2.18.22-3.27a.93.93,0,0,1,.7-.87,1.62,1.62,0,0,0,1.18-1.36c.08-.31.67-.51.77-.83.42-1.35,1.58-2.37,1.88-3.82a5,5,0,0,0,0-2.3c-.28-1.34.31-2.71.7-4s.84-2.85,1.23-4.28,1.2-3,1.76-4.52,1.08-3.1,1.66-4.64a34.76,34.76,0,0,0,1.3-3.53.79.79,0,0,1,.52-.56,11.31,11.31,0,0,0,3.76-3,19.88,19.88,0,0,0,2.66-3.49,8,8,0,0,0,1-2.8c.36-2.25,1.19-4.41,1.51-6.65a4.8,4.8,0,0,1,2.35-3.32c.08-.06.15-.19.22-.19,1.69.1,1.68-1.1,1.9-2.11,0-.06,0-.16,0-.19,1.43-.91,1-2.57,1.75-3.77.39-.58.13-1.51.21-2.28.2-1.78,1.77-2.77,2.78-4.09.61-.8,1.73-.9,2.3-1.74,1-1.42,2.39-2.53,3.18-4.06A33.54,33.54,0,0,1,80.42,89a2.52,2.52,0,0,0,.25-.93c.16-.62.16-1.42,1.34-1.08a.79.79,0,0,0,1-.65,1.91,1.91,0,0,1,1.24-1.52c.62-.23.65-.87.73-1.32a3.65,3.65,0,0,1,.72-1.33,3.53,3.53,0,0,1,1.67-1.61.62.62,0,0,0,.2-.87c-.81-.74,0-1.39,0-2.06,0-.34.18-.75.64-.8,1-.13,1.2-.83,1.2-1.55a4.91,4.91,0,0,1,1.34-3.15,12.46,12.46,0,0,0,1.38-2.46c.74-1.46,2.13-2.52,2.74-4,.08-.2.18-.27.45-.09A2.17,2.17,0,0,0,98,64.86c.24-.46.36-1,1.1-1,.32,0,.48-.34.59-.63.86-2.3,2.16-4.43,3.22-6.66.5-1.05,1-2.1,1.47-3.17.27-.64.49-1.22,1.47-.89a1,1,0,0,0,1.05-.3c1.64-1.66,3.65-3.06,4.84-5.06a54.83,54.83,0,0,1,3.89-5.68c1.09-1.38,1.6-3.19,3.38-4.11a2.24,2.24,0,0,0,.71-.81A14.67,14.67,0,0,1,123,33.22c.74-.61,1.73-.95,2.17-1.88a.54.54,0,0,1,.46-.09c.29.12-.06.23,0,.36.06,1.21-.82,2.23-.83,3.45C124.71,35.57,124.68,36,125.22,36.26Z"/><path class="cls-1" d="M66.12,230.47c-.79-.37-1.18-1.12-2-1.58s-.29-1.69-.09-2.61c.28-1.21,1.47-1.8,2-2.83a7.69,7.69,0,0,0,.87-4.19,6.85,6.85,0,0,1,.92-3.65A24.39,24.39,0,0,0,69.9,210a46.33,46.33,0,0,1,2.37-8.39,6,6,0,0,1,1.22-2.23.48.48,0,0,0,.18-.33c-.11-1.5.77-2.84.9-4.31a5.22,5.22,0,0,1,1.3-3.26A30,30,0,0,0,80,185.61c.65-1.15.61-1.55-.49-2.38-.17-.13-.12-.28-.12-.43a2.6,2.6,0,0,1,0-.68c.07-.35-.72-.49-.36-.74s.79-.73,1.42-.75a1.12,1.12,0,0,0,1.16-.93,1.17,1.17,0,0,1,.35-.68c1.43-.87,1.4-2.15,1.23-3.49a1.18,1.18,0,0,1,.23-.92c.63-.75.69-1.92,2-2.19.37-.07.2-.38.14-.64-.13-.61,0-1.13.81-1.2a.79.79,0,0,0,.75-1.19c-.49-1.07.15-1.8.69-2.57s1.21-1.55.51-2.62c-.41-.64-.37-1.48-.85-2.14a.63.63,0,0,1,0-.47c.48-1.73.82-3.62,2-5a40.72,40.72,0,0,1,2.93-3.1,2.43,2.43,0,0,0,1-1.72,5.63,5.63,0,0,1,1.28-2.6,11.27,11.27,0,0,0,1.59-6.52,14,14,0,0,0,0-3.18c-.61-2.07,1.29-2.91,2.13-4.26,3.34-1.35,4.29-4.6,6.42-6.92.63-.69-.14-.49-.48-.54l-.06,0c0-.88.58-1.58.86-2.37.53-1.53.65-3.15,1.19-4.67a37.46,37.46,0,0,0,1.44-5.48,1.26,1.26,0,0,0-.14-.92,1.51,1.51,0,0,1,.81-2.46c.12-.06.34-.12.34-.19.12-1.15,1.4-1.57,1.84-2.47a1.34,1.34,0,0,1,1.54-.81,4.23,4.23,0,0,1,1.25.08,1.88,1.88,0,0,0,2-.32c.63-.4,1.12-.73.74-1.55a.63.63,0,0,1,.47-1c.59-.13.64-.59.5-1a4.33,4.33,0,0,1-.13-2.58c.48-1.62.85-3.49,2-4.66a20.35,20.35,0,0,0,4.25-7c.2-.51.16-1,1.17-.93.58,0,1.86-.28,2-1.38.07-.41.22-.83.78-.92.06,0,.15-.07.16-.12.18-1.4,1.91-1.91,2.2-3.25,0-.15.08-.36.2-.43,1.67-.91,1.87-2.67,2.74-4,.33-.52.93-.64,1.26-1.08a20.83,20.83,0,0,0,1.95-2.61,25.53,25.53,0,0,1,3-3.84c.53-.66,1.76-.78,2.45-1.67.18.91-.49,1.37-.51,2,0,.48-.6,1,.24,1.39.15.07.06.23-.06.3-.86.52-.66,1.67-1.54,2.2-.13.08,0,.49-.05.74-.61.87-1,2.16-1.86,2.49-1.3.5-1.34,1.58-2.15,2.37.9,0,1.38,0,.7.91a3.84,3.84,0,0,0-.29,2.51c-1.38,2.72-2.59,5.5-3.71,8.32-.21.54-.78,1.27.55,1.31.23,0,.39.26.47.48,0,.54-.48.86-.8,1.15a5.65,5.65,0,0,0-1.84,3.64,5.43,5.43,0,0,1-.87,2,.82.82,0,0,1-1.25.35c-.69-.37-2.07.36-2.39,1.13,0,.11-.12.28-.21.3-1.37.22-1.39,1.35-1.82,2.22s.31,1.2.57,1.73a.81.81,0,0,1,0,1c-1,1.19-.84,2.58-.85,3.95a.13.13,0,0,0,0,.09c1,1,.14,2-.14,2.94a2.46,2.46,0,0,0-.08.85c0,.31,0,.67-.33.76-1.22.39-.87,1.14-.38,1.72a3.56,3.56,0,0,1,.79,2.76,9.53,9.53,0,0,1-.75,3.56c-.33.77-1,1.43-.91,2.36a.73.73,0,0,1-.75.67,1,1,0,0,0-1,.74c-.13.49-.84.8-.93,1.14-.36,1.32-1.92,2.42-.92,4,.42.66-.38,1.1-.7,1.57-.18.26-.73.34-1.19.43-.82.15-1.29-.75-2.07-.35a16.33,16.33,0,0,0-3.53,2.44,19.23,19.23,0,0,0-2.81,3.26c-.14.21-.37.35-.23.67.46,1.08-.3,2-.52,3-.27,1.19-1.26,2.07-1.64,3.24a1.49,1.49,0,0,1-1.5.94c-.5,0-1.57.15-1.27,1.29.08.33-.83.48-1.24.79.09.36,1.34.83-.12,1.09-.23,0-.16.33,0,.5a1.5,1.5,0,0,0,.71.5c1.78.71,1.89,1.1.78,2.58-.26.35-.44.63-.27,1-.49.57-1.18,1.05-.93,1.92.34-.58,1.16-.78,1.29-1.49.74,0,1,.23,1,1a2.53,2.53,0,0,1-.75,2.32,4.48,4.48,0,0,0-.14,2.29c1.11-.16.73.59.91,1.22-.39-.28-.65-.44-.89-.63s-.46-.32-.53-.2c-.46.67-1.44.45-2,1.23-.7,1-1.27,2.06-2,3-.48.59-.71,1-1.46.37-.17-.15-.54,0-.54.11,0,.56-.7.56-.82,1,.34.28.82-.59,1.09,0s1.16,1.38.5,2.3a.88.88,0,0,1-.22-.21c-.2-.33-1.47-.28-.47-1.09a.85.85,0,0,0-.64-.73c-.47-.06-.57.25-.62.6s0,.42,0,.62c-.06.64.68.87,1.2,1.18s.47-.28.73-.4c-.57.66.17,1.53-.45,2.21s-1.09,1.47-1.76,2.09a4.55,4.55,0,0,0-1.4,2.58c-.15.93-1.23,1-1.43,1.76s-.94,1.07-1.62,1.32a6.32,6.32,0,0,0-3.78,3.27c-.76,1.66-1.5,3.32-2.21,5-.19.47.06,1.13-.7,1.34,0,0,0,.07,0,.07.88.42.13,1,.08,1.42-.07.65-.31,1.29-.41,1.95a12.35,12.35,0,0,0-.18,1.92c0,.49,0,.86-.67.47-.41-.22-.92-.23-1.3-.57s-.74-.2-.82.08c-.25.92-1.08,1.28-1.72,1.85-.28.25.12,1,0,1.5s.38.86-.41,1.06c-.28.08-.18.37,0,.56.6.55.49,1.11.1,1.73s-1,1.26-1.44,1.89c-.65.88-1.4,1.75-1.21,3,.08.57-.14,1.17.18,1.75.19.35-1,.11-.41.74-.68.29.06,1.23-.79,1.46-.2.06-.21.24-.18.4.09.7-.39.87-1,.91a6.76,6.76,0,0,0-1.51.08c-.25.08-1.22-.16-.73.7a.35.35,0,0,1-.08.35c-1.49,1-1.37,2.29-1,3.73.13.52-.17,1.12.25,1.67.17.22-.81,1.38-1.17,1.47-.54.14-.87,1.51-.47,1.93,0,0,.5,0,.08.16-1.11.51-.55,1.68-1.12,2.4a.25.25,0,0,0,.07.26.26.26,0,0,0,.36-.07,7.41,7.41,0,0,0,.4-.67.36.36,0,0,1,.45-.13.22.22,0,0,1,.07.39c-1,.78-.8,2.15-1.82,2.95-.16.13-.22.87-.42,1.31S66.61,230.54,66.12,230.47Z"/><path class="cls-1" d="M140.64,134c.32,0,.72.42.93-.15.1-.25.24-.23.48-.13,1.39.55,2.43-.17,3.42-.89.59-.43.91-1.11,1.56-1.52.2-.12.44-.55.36-.64-.55-.67,0-1.59-.62-2.24-.09-.09-.39-.31,0-.42.68-.21.68-.75.8-1.25s.21-.83.32-1.25.33-.85-.06-1.24c-.1-.65.84-.26.89-.78.11-.94.63-.26,1-.2a1,1,0,0,0,1.11-.8,9,9,0,0,0,.7-3.29c-.08-1.42,1-2.62,1.91-3.78s2.21-2.33,1.77-4.08c-.1-.4.29-.71.56-1a52.66,52.66,0,0,0,4.67-4.9,7.43,7.43,0,0,0,1.14-1.53c.31-.72.53-1.4-.29-2-.11-.08-.32-.27-.15-.39.69-.48.73-1.45,1.46-1.78,1.17-.53,1.37-1.59,1.92-2.46.17-.27.21-.6.6-.74A3.48,3.48,0,0,0,166.87,95a3.26,3.26,0,0,0,.62-1.77,13.56,13.56,0,0,1,.35-2.2,1.89,1.89,0,0,0,.08-.94c-.16-.59.07-.79.75-.78.94,0,2.48-1.75,2.23-2.56-.12-.4.07-.45.37-.62.55-.32,1.14-.65.84-1.44-.18-.48.53-.65.53-1.09a.11.11,0,0,0,.15,0c1.5-.54,2.06-1.93,3.07-2.92.07-.07,0-.3-.07-.46a1.38,1.38,0,0,1,.34-1.26,13.18,13.18,0,0,1,3.24-3,1.58,1.58,0,0,0,.36-2.28,3.16,3.16,0,0,1,.71-1.16c.58-.45,1.21-.81,1.27-1.66,0-.49.75-.69,1.06-1.15A11.73,11.73,0,0,1,185.86,67c.38-.27.61-.59.42-1.06-.12-.31.08-.55.24-.79a6.09,6.09,0,0,0,1-1.56c.59.58,0,1.06,0,1.55a14.72,14.72,0,0,0-.38,2.24c0,.62-.87,1.4-1.53,1.94a9.24,9.24,0,0,0-1.83,2.08,12.85,12.85,0,0,1-1.84,2.43,4.51,4.51,0,0,0-1.06,1.81,1.72,1.72,0,0,0,.89,1.89c.45.26.08.38,0,.44-1.11,1.06-1.91,2.34-3,3.42a2.57,2.57,0,0,0-.51,3.06c.37.76.08,1.52.2,2.27.06.33-.28.3-.47.41-1,.53-2.08.38-3.09.74a2.5,2.5,0,0,0-1.28.93c-.46.6-.81,1.25-1.3,1.83a2.72,2.72,0,0,0-.35,2.4,2.56,2.56,0,0,0-1.62,1.76c-.38,1.79-1.33,3.4-1.75,5.17-.76.29-.54,1.08-.95,1.55-1.21,1.42-1.33,3.15-1.51,4.85-.48,0-.62.31-.7.7a5.24,5.24,0,0,1-.44,1.28c-.94,1.89-2.51,3.43-3.45,5.29-.41.81-1.3,1.27-1.54,2.07a3.68,3.68,0,0,1-1.16,1.57c-.36.36-1,.34-1.13,1.09-.24,1.12-2.3.89-2.39,2.32,0,0-.13.05-.19,0-.63-.06-.63.39-.71.75s-.25,1-.33,1.51c-.3,1.74-1.13,3.34-1.49,5.08a5.49,5.49,0,0,1-1.17,2.5c-.15.17-.28.28-.16.5.45.83-.08,1.46-.5,2.12a42.89,42.89,0,0,0-2.56,3.46,3.79,3.79,0,0,1-2.66,2.1c-1.21.26-1.76,1.42-2.93,1.7-.07,0-.08.23-.12.35-.73,1.83-1.51,3.64-2.15,5.5a6.68,6.68,0,0,0-.69,2.28,5.18,5.18,0,0,1-1.13,3.65,3.29,3.29,0,0,0-.88,2.78c.11.47-.26.85-.44,1.27s-.66.84-.27,1.13.71-.3,1-.56c.52-.44,1.07-.21,1.57,0a.5.5,0,0,1,.15.83c-1,.81-1.37,2.12-2.58,2.77a4.16,4.16,0,0,0-1.88,2.79c-.1.32.08.45.32.62a2.78,2.78,0,0,1,1.3,2.42c0,1.55-1.08,2.92-.91,4.5,0,.05-.07.11-.09.17a26.81,26.81,0,0,0-2,5.58c-.09.53,0,1.29-1,1.42-.16,0-.19.19-.11.31a.26.26,0,0,0,.35.12c.87-.46,2-.34,2.61-1.38a2.87,2.87,0,0,1,2.44-1.6c-.11.49-.43.95.08,1.47.28.29-.38.32-.5.64-.3.78-.47,1.7-1.63,2a2.2,2.2,0,0,0-1.39,1,.75.75,0,0,1-.62.48,1.41,1.41,0,0,0-1.48,1.33c-.12.66-.67,1-1,1.53-.7,1.1-.84,2.36-1.43,3.48-.16.3.14.8.44,1s.47.62.7.95l-.84.11c.66.43.19.69.06,1.1-.19.58-.24.78-1,.74-1,0-1.66.81-1.89,2.09a3.56,3.56,0,0,0-.2-.65.31.31,0,0,0-.42-.19c-.11.05-.29.23-.27.26.48.71-.54.78-.57,1.1-.07.6-.41,1.37.16,1.85,1.12.95.76,1.78.14,2.83a6.23,6.23,0,0,0-.76,2.22,28.4,28.4,0,0,1-.83,3,.3.3,0,0,0,0,.17c.67,1.74-.8,2.64-1.95,3.26-.83.44-.67,1.09-1.1,1.56-.17.19-.08.47-.58.4s-.77.48-.64.77a2.91,2.91,0,0,1,0,1.8c-.13.74.51,1.2,1.34,1.33.49.08,1.25,0,1,1.07a17.62,17.62,0,0,1-1,2.69c-.19.51-.94.63-1.38,1-.67.61-.83,1.45-1.36,2.1,0,.06.06.24-.09.32a5.31,5.31,0,0,0-2.78,4.07c-.33,1.87-1.29,3.6-1.52,5.45-.1.85-.4,1.64-.46,2.46a12.17,12.17,0,0,1-.71,2c-.48-.15-.19-.68-.62-.76l-.13-.37c.21-.85.2-1.74.39-2.57A107.49,107.49,0,0,1,116.56,219c.06-.15.32-.33.11-.48s-.43,0-.62.19c-.36.32-.24.91-1,1.27.35-.83-.18-1.45.54-2.28a2.42,2.42,0,0,0,.32-3c.64,0,1.48.35,1.41-.1a3.27,3.27,0,0,1,.69-2.29c.83-1.44.5-3.26,1.84-4.59.45-.44.4-.95.61-1,.49-.19.64-.6.89-1a2.32,2.32,0,0,0,.45-1.78c-.1-.45,1-.39.34-.9-.54-.4-.09-.64.18-.9s.59-.13.46-.26c-.63-.62-.24-1.34-.26-2a12,12,0,0,1,.35-4.16,1.89,1.89,0,0,0,.06-1.09A3.87,3.87,0,0,1,124.3,190a1.89,1.89,0,0,0,.61-2.64c-.2-.28.08-.5.16-.7.43-1.06.11-2.28,1.19-3.25.46-.41.68-1.28,1.25-1.77s0-1.06,0-1.56c0-1.09.06-2.18-.06-3.27-.09-.88-.58-2,.57-2.81a2.9,2.9,0,0,0,.89-2,13.72,13.72,0,0,1,1.52-4c.28-.63.47-1.16,0-1.76a1.31,1.31,0,0,1-.12-1.52c.79-.69.3-1.53.29-2.3,0-.28-.26-.65.12-.77.88-.29.29-.73.21-1.12.91-.42.1-1.08.26-1.6a2.76,2.76,0,0,0,1-2.92,1.2,1.2,0,0,1,.77-.93c.52-.23.95-.71.84-1.08a5.5,5.5,0,0,1,0-1.86c0-.66.53-1.2.43-1.8a2.73,2.73,0,0,1,.68-2.11,2.28,2.28,0,0,0,0-2.8c-.42-.66-.88-1.53.1-2.28.23-.16.78-.47.26-.9a.3.3,0,0,0,0-.16.7.7,0,0,0,.66-.41,2.37,2.37,0,0,0,.82-.75c.18-.05.54,0,.51-.21-.17-1,.89-1.18,1.31-1.77.13-.09.12-.18,0-.26h0v-.09l-.09,0,.07-.06,0-.08h0c.6,0,1-.26.79-.83a2.27,2.27,0,0,1,.22-1.76c.2-.46.83-.6.79-1.14.07-.14,0-.35.25-.4,0,.16.1.23.26.18s.13-.06-.26-.35C140.61,134.09,140.63,134,140.64,134Z"/><path class="cls-1" d="M138.12,175.43a2.87,2.87,0,0,0-2.44,1.6c-.57,1-1.74.92-2.61,1.38a.26.26,0,0,1-.35-.12c-.08-.12-.05-.29.11-.31.91-.13.87-.89,1-1.42a26.81,26.81,0,0,1,2-5.58c0-.06.09-.12.09-.17-.17-1.58.87-2.95.91-4.5a2.78,2.78,0,0,0-1.3-2.42c-.24-.17-.42-.3-.32-.62a4.16,4.16,0,0,1,1.88-2.79c1.21-.65,1.57-2,2.58-2.77a.5.5,0,0,0-.15-.83c-.5-.22-1.05-.45-1.57,0-.3.26-.53.9-1,.56s.11-.76.27-1.13.55-.8.44-1.27a3.29,3.29,0,0,1,.88-2.78,5.18,5.18,0,0,0,1.13-3.65,6.68,6.68,0,0,1,.69-2.28c.64-1.86,1.42-3.67,2.15-5.5,0-.12.05-.34.12-.35,1.17-.28,1.72-1.44,2.93-1.7a3.79,3.79,0,0,0,2.66-2.1,42.89,42.89,0,0,1,2.56-3.46c.42-.66.95-1.29.5-2.12-.12-.22,0-.33.16-.5a5.49,5.49,0,0,0,1.17-2.5c.36-1.74,1.19-3.34,1.49-5.08.08-.51.2-1,.33-1.51s.08-.81.71-.75c.06,0,.19,0,.19,0,.09-1.43,2.15-1.2,2.39-2.32.16-.75.77-.73,1.13-1.09a3.68,3.68,0,0,0,1.16-1.57c.24-.8,1.13-1.26,1.54-2.07.94-1.86,2.51-3.4,3.45-5.29a5.24,5.24,0,0,0,.44-1.28c.08-.39.22-.68.7-.7.33.44-.22.72-.3,1.07-.28,1.13,0,2.32-.49,3.41-.22.51.3.41.5.54s.66.07.46.45a7.57,7.57,0,0,0-.81,2.2c-.19,1-1.3,1.64-1.33,2.77,0,.71-.95.67-1.47.9s-.66.44-.59.91a2.07,2.07,0,0,1-.26,1.55,1.07,1.07,0,0,0,0,1c.72,1.34.17,2.6-.19,3.86a3.34,3.34,0,0,0,0,1.8c.32,1.32-.14,2-1.52,2.37-.17,0-.88-.21-.59.5.09.22-.29.43-.59.19-.65-.54-.77,0-1,.39s-.44.78-.65,1.18c-.08.16-.31.33-.14.52a2.77,2.77,0,0,1,.66,2.31,1.1,1.1,0,0,1-1,1.18c-.78.14-.72.13-.63.83s-.91.36-1.11.83c-.69-.47-.75.19-1,.47s-.21.34-.34.47c-.29.31-.14-1-.63-.17-.13.22.33.74-.45.64-.42,0-.34.35-.32.57.15,1.46,0,3,1.22,4.22.22.23.33.8.6,1.17.11.14.12.27-.09.39s-.11.11,0,.17.1.08.15.12c.32.28.85,2.75.56,3a6,6,0,0,0-1.36,1.05c-.11.14-.38.18-.25.43s.25.15.43.09c.36-.09.52.17.63.4s-.12.4-.29.56c-.6.61-1.57.73-2.11,1.45-.4.52-1.08.86-1.29,1.52a.38.38,0,0,1-.31.31,13.64,13.64,0,0,0-3.4,1.85c-.53.31-.7.85-1,1.26-.46.57-.71.5-1.19.14-.72-.55-.82-.52-1.05.36,0,.16-.11.23-.25.2-1.31-.26-1,1.13-1.73,1.47-.09,0-.1.49,0,.64.9,1.11.43,2.17-.05,3.25a1.86,1.86,0,0,0-.17.73c0,1.43-1,2.2-2.12,2.86a.35.35,0,0,0-.22.46c.15.5-.16.75-.59,1a13.11,13.11,0,0,0,3,1.68c-.22.31-.41.16-.57.09-.41-.2-.63-.19-.67.32a7.31,7.31,0,0,1-.28,1.21c-.13,0-.14.9-.4,0-.08-.25-.36-.05-.39.16-.05.44-.73.89,0,1.3.09,0,.13.07,0,.12-.89.54-.74,1.4-.82,2.19C138.33,175.31,138.2,175.37,138.12,175.43Z"/><path class="cls-1" d="M1.94,179.68l0-.34a1.8,1.8,0,0,0,.91-1.52c0-.4,0-.85.79-.56s.86-.35,1-.76a8.08,8.08,0,0,0,.59-3.08c-.11-.87.52-1.84,0-2.39s-.41-1.29-.49-1.95a.93.93,0,0,1,.26-.89c.83-.78,0-1.75.31-2.62s.18-1.52.33-2.28c.09-.44-.06-.66-.51-.59s-.45-.21-.41-.45c.2-1.22.12-2.53,1.24-3.46.64-.54.54-1.37.94-2,.2-.31-.07-.47-.38-.53s-.69.09-1-.11a17.31,17.31,0,0,1,1.48-3,2.81,2.81,0,0,0,.43-1.37,2.8,2.8,0,0,1,1.34-2.51A12.36,12.36,0,0,0,11,146.54c.48-.78,1.18-1.74.38-2.83s-.31-2.26-1-3.27a.55.55,0,0,1,0-.55c1.1-1.25,1-2.84,1.43-4.26s.84-3,2.25-4.28A8.93,8.93,0,0,0,16,128.1a1.85,1.85,0,0,1,.84-1c1.48-.69,1.36-1.9,1.62-3.16.33-1.56.25-3.35,1.82-4.58a1.69,1.69,0,0,0,.31-1.63,8.37,8.37,0,0,1,.29-4.29,11.63,11.63,0,0,1,1.66-3.14c.63-.86.68-2,1.51-2.72a32.7,32.7,0,0,1,3.4-2.92c.16-.1.35-.39.31-.46-.63-.93.22-1.64.41-2.43.14-.58.13-1-.71-.87.11-.29.84-.34.31-.8-.18-.16,0-.34.07-.53a34.88,34.88,0,0,1,4.72-6.75,6.34,6.34,0,0,0,1.32-2.48c.06-.24.08-.58-.15-.58-.72,0-1.09-1.21-2-.37-.1-.61-.36-1.1.64-1.15.31,0,1.33,0,.92-1a.2.2,0,0,1,.11-.15c1.26-.34,2-1.29,3-2a14.26,14.26,0,0,1,1.7-1,.91.91,0,0,0,.33-1.36c-.13-.26-.45-.62-.36-.75.74-1,.54-2.21.56-3.35,0-.32.39-.46.64-.6a5.86,5.86,0,0,0,2.06-2.14,8.61,8.61,0,0,1,2.17-2.42,27.32,27.32,0,0,0,4-3.94,1.63,1.63,0,0,0,.6-1.28A5.73,5.73,0,0,1,48.69,66c.14-.4.46-.35.77-.24.51.18.82,0,.87-.48s.47-.68.88-.87c1.88-.89,2.94-2.48,4.08-4a27.82,27.82,0,0,0,2.84-5.6c.78-1.73,1.95-3.21,2.81-4.86.29-.54,1-.56,1.31-1s.46-1.3,1.56-1c.19,0,.68-.86,1-1.32s.67-1.28,1.53-1.43A3.24,3.24,0,0,1,66,48.06c-.36.49-.9,1.19-.55,2-.29.25-.2.47,0,.75.31.44-.1,1-.39.93-.75-.16-.67.55-1,.65-.83.23-.32.61-.21,1s-.08.35-.37.48c.12-.5-.24-.75-.52-1.09-.46.46.19.82,0,1.2-.51.1-1.48-.14-1.12.76.24.58.32,1.19.56,1.76,0,.62-.63.9-.75,1.57-.32,1.77-1.91,2.93-3.11,4.26a3.38,3.38,0,0,0-1.13,1.24c-.59,1-1.05,2.29-2.7,2.34a1.31,1.31,0,0,0-1,.63,22.19,22.19,0,0,0-1.6,2.24,8.27,8.27,0,0,0-.9,2.06A8.74,8.74,0,0,1,50.42,73c-.23.44-.26.74,0,1a1.17,1.17,0,0,1,.29,1.26c-.26.7.12,1.71-.51,2.05-.9.47-.36.69-.07,1-.11.84-1.4.94-1.37,1.87a2,2,0,0,0-.29,0c-.93.24-.76-.57-1.06-.94v-.34l.14-.16-.15-.08c-.22-.77-.67-.43-.76,0-.31,1.31-1,2.56-.93,3.93.15,1.9-.92,3.32-2.21,4.53-.54.51-.36.74-.17,1.14.47,1,.16,1.41-.78,2.12s-1.89,1.46-1.62,2.73c.08.44,0,.52-.4.5s-.88.06-1.12-.35a.33.33,0,0,0-.5-.15.36.36,0,0,0-.26.35c-.08,1.87-1,3.7-.48,5.58.2.71-.35,1.56.46,2.14l0,.23a3.74,3.74,0,0,1-1.83,2.41c-.21.1,0,.28,0,.43a2.42,2.42,0,0,1-.09,1.5c-.22.42-.28.78-1,.55a2.11,2.11,0,0,0-1.51.3c-.08.72-.69.79-1.09,1.15s-.08,1,.4,1.41.67.75.12,1.36-.2,1.27-.11,1.93,0,1.38-.82,1.73c-.27.66-1.07.5-1.58.83s-.72,1-1,1.53-1.05.73-.65,1.43c-1,.28-.49,1.08-.72,1.63-.15.37-.09.44.23.64s.45.64.14,1.07-1.07.64-.36,1.25c-.63.2-.64.78-.84,1.23-.09.21-.19.5.13.69.87.49-.4.23-.2.49-.1,1-.94,2-.81,3a4.13,4.13,0,0,1-.42,2.1c-.17.44-.27.55-.76.41a1.11,1.11,0,0,0-1.58.93c-.15.7-.42,1.52-1.09,1.73-1,.31-.68,1-.81,1.52-.9-.06-1.81,0-1.75,1.1.08,1.26.36,2.52.56,3.78l-.05.19c-.34.14-.07.26,0,.39-.29.74.49,1.25.5,2a7.9,7.9,0,0,1-1.14,3.73.6.6,0,0,0,0,.67c.52,1,.36,1.27-.8,1.37-.64.05-.81.52-1,.85s.44.25.62.46.55.16.55.58a2.78,2.78,0,0,1-1,.19,1.35,1.35,0,0,0-1,.08c-1.2.63-1.06,1.83-1.53,2.75-.37.72.66,1.48.08,2.26a.3.3,0,0,0-.3.2c-.19,0-.23.18-.28.33h0l-1.19.12c-.14,0-.23,0-.19.14a1.93,1.93,0,0,1,0,1.14c-.26.65-.78.19-1.16.27s-1.06.3-1.13.92l-.1.13.3.05a1.93,1.93,0,0,0-.3.9h0c-.32.2-.77.24-1,.61-.11.14-.35.3,0,.39l.52.32v-.07l0,.07c.3.62-.53,1.26.07,1.87-.22.62.2,1.2.13,1.85-.13,1.21-.45,2.38-.68,3.56-.07.3.61,1-.46.76-.57.15-1.18-.57-1.7.07a5.58,5.58,0,0,0-1,1.36,6,6,0,0,0-.47,2.85c0,.59-.66,1.11-.21,1.74h0c-.22.07-.37.18-.38.41,0,.52.26,1.06-.2,1.53l0,.4a3.83,3.83,0,0,0,.18,1.35c-.38.19-.74.44-.61.88s.28.62-.12,1a1,1,0,0,0,.41,1.28c.49.2.44.52.17.75a2.06,2.06,0,0,0-.66,1.6,2.72,2.72,0,0,1-.36,1.45c-.84,1.06-.78,2.28-.94,3.47-.44,0-.61.22-.75.54a7.25,7.25,0,0,0-.54,2.47c0,.7-.13,1.38-.93,1.74a.5.5,0,0,0-.28.49,5.79,5.79,0,0,1-.68,2.44c-.28.71-.66,1.37-1,2.05a.73.73,0,0,1-.36-.75,18.66,18.66,0,0,1,.58-4.31c.55-1.61.23-3.28.84-4.89A11.38,11.38,0,0,0,2.74,185c0-.47.82-1-.36-1.25-.28,0,0-.39,0-.6C2.25,182,2.58,180.8,1.94,179.68Z"/></g></g></svg>