<svg xmlns="http://www.w3.org/2000/svg" viewBox="0 0 1090.25 1017.37"><defs><style>.cls-1{isolation:isolate;}.cls-2,.cls-3{fill:#fff;}.cls-2{opacity:0.89;}.cls-3{mix-blend-mode:soft-light;}</style></defs><title>torn-bg-hero-landing</title><g class="cls-1"><g id="Capa_2" data-name="Capa 2"><g id="Capa_1-2" data-name="Capa 1"><path class="cls-2" d="M1090.25,0,0,.09S2.24,12,4.27,15.68s2.15,8.25,5.6,11.16c1,.85,8.86,14.23,11.36,22.68,2.05,0,4.14.28,5,1.85,2.19,4.16,4,8.49,4.39,13.38.29,4.09,2.11.55,4.44,7.16,1.22,3.48,2.91,3.45,6.58,7.93,4,4.82,8,1.31,9.52,5.18,3.23,8.09,15.71,25.36,12.71,34.06-2,5.74,2.93,7.54.46,11.45-1.5,2.35,1.73,4.08,1.83,6.6.15,4.57,4.55,1.74,5.21,9.2.18,2.36-.35,4.94.19,7.18.48,2-.19,3.59-.71,5.45-1.88,7.33,3.65,17.27-.75,21.87,3.65,7.3,2.9-1.54,7.49,10.61,6.88,18.25,16,14.82,19.08,19.3.3.46.14,1.36.54,1.57,1.72.95,1.37,2.51,1.24,4.08-.31,5.31,5.13,3.23,3.31,12-.35,1.8,0,8.51,1.8,9.08,2.07.68,1.64,1.76,1.77,9.79,4,.24,7.69,7.46,3.24,10.69,2.56,4.57,6,5.05,4.3,9.83-.33,1,1,2.88.91,3.81-.46,3.17,3.42,8.47,4.18,8.59,2.93.54,2.68,2.43,4.23,7.29,7.76-1.8,2,9.07,5.14,11.32.37.26.26,1.1.28,1.67,0,7.09,6.66,4.67,8.26,7,.91,1.3,2.31,2.27,2.24,4.16s2.64,2.12,3.33,3.66c1.46,3.26,2.33,4.89,1.6,6.78a5.7,5.7,0,0,1,.33,3.51,36.32,36.32,0,0,1-2,4.16l.42,0c-.3,8.77-1.15,3.78,8.1,9.88,7.83,5.15,2.2,4,11.29,11.37,4.26,3.44,1.15,4.35,4.13,6.68,2.62,2,2.52,3.83,2.27,9.94-.14,3.78,11.52,3,14.1,9s4.75-3.49,6.91,16c.44,3.75,6.64,3.14,3.06,9.4-2.8,4.86,2.88,3.65,1.65,9.31a2.56,2.56,0,0,0,.63,1.82c1.58,2.11,7.66,7.92,8.12,11.43,1.25,8.47,2.23,16.6,2.31,17.38.11,1.63,2,4.6,1.9,6.36-.13,3.81,2.42,2.54,8.55,12.87,2.22,3.73,4.47,7.37,7.84,10.18,2.72,2.26,6,4,7.7,7.45a11.87,11.87,0,0,1,4.91,4.81c15.69,25.88,5.24,15.65,18.64,37,5.06,8.07,10.17,13.18,10.48,17.18.17,2.51.91,2.87,5.58,12.19,1.26,2.54,4.37,16.38,10.22,24.54,2.69,3.76,5.94,12,6.15,12.34,4,5.49,2.24,6.2,3,8,7.7,19.33-.27,9.14,6.81,20.93,2.07,3.46.14,4.39,1.75,9.47,3.08,9.6,3.5,10.46,6.74,12.28,1.34.75,7.15,3.34,9.08,7,4.31,8.08,4.26,9.08,3.49,10.55-1.39,2.56.42,3.81.92,5.7,5.81,21.5,9.34,16.62,13.29,53.15,5.77,3.78,4.06,6.37,6.69,17.35,4.19,17.5-4.31-3.51,7.53,24.75,2.15,5.18,2.73,3,4.86,11.69,3.75,15.36,8.16,15.86,10.59,18.91,2,2.46,4,5,6.63,6.66a3,3,0,0,1,1.3,1.76c.77,5.57,18.09,21.91,20.14,32.83a4,4,0,0,0,1.16,2.24c2.16,1.54,3.14,5.85,4.15,6.86,3.88,4,2.35,8.12,4.28,11.3.24.43,7.53,11.86,8.41,12.9,3.65,4.37,3.53,7.83,6,10.61,9.34,10.63-4.51,2.27,14.14,16.65,3.2-.68,4.94.45,5,4,.11,4.13,5.08,4.21,6.18,9.79,0,0,3.76,4.64,4.78,7.88,1.34,4.31,4.73,6.86,5.34,9.47,1.17,4.89,4.09,5.5,3.46,8.88-.87,4.55,6.94,15,7.62,16.26,2.92,5.21,7,4.34,8.65,6.13,2.24,2.49,6,7.09,6.19,10.44.56,8.54,3.38,9.91,5.6,13.77,17.73,30.75,17.83,21.17,22.1,35.8.66,2.2,2.11,4.18,1.88,6.59l586.25-56.89Z"/><path class="cls-3" d="M1090.25,0V959H567s-57.13-22.37-59.38-24.85c-1.65-1.78-5.74-.89-8.69-6.07-.69-1.23-8.57-11.66-7.72-16.21.61-3.39-2.32-4-3.51-8.87-.63-2.6-4-5.13-5.41-9.44-1-3.23-4.82-7.84-4.82-7.84-1.13-5.57-6.1-5.63-6.24-9.76-.12-3.51-1.86-4.64-5.07-3.94-18.73-14.26-4.83-6-14.23-16.55-2.47-2.77-2.37-6.24-6.05-10.58-.88-1-8.25-12.43-8.49-12.85-1.95-3.17-.45-7.34-4.35-11.28-1-1-2-5.31-4.19-6.83a4.05,4.05,0,0,1-1.17-2.23c-2.12-10.91-19.54-27.15-20.34-32.71a3.09,3.09,0,0,0-1.31-1.76c-2.69-1.67-4.65-4.16-6.67-6.61-2.45-3-6.87-3.51-10.71-18.84-2.18-8.71-2.75-6.5-4.92-11.67-12-28.18-3.39-7.23-7.69-24.7-2.69-11-1-13.57-6.79-17.31-4.18-36.51-7.68-31.6-13.62-53.06-.51-1.9-2.33-3.13-1-5.71.77-1.46.81-2.46-3.55-10.52-1.95-3.64-7.77-6.2-9.12-6.94-3.25-1.81-3.67-2.66-6.81-12.25-1.65-5.06.28-6-1.81-9.45-7.15-11.75.88-1.6-6.93-20.89-.74-1.79,1.05-2.51-3-8-.21-.31-3.51-8.56-6.22-12.31-5.9-8.12-9.09-21.94-10.37-24.47-4.73-9.29-5.47-9.65-5.65-12.16-.33-4-5.48-9.08-10.59-17.12-13.53-21.23-3-11.07-18.86-36.85a12,12,0,0,0-4.94-4.78c-1.74-3.47-5-5.16-7.74-7.4-3.39-2.79-5.67-6.42-7.91-10.13-6.19-10.3-8.73-9-8.62-12.82,0-1.76-1.82-4.72-1.95-6.35-.08-.78-1.11-8.91-2.41-17.37-.48-3.51-6.6-9.28-8.19-11.38a2.59,2.59,0,0,1-.64-1.81c1.19-5.67-4.48-4.42-1.71-9.3,3.54-6.29-2.65-5.64-3.11-9.38-2.28-19.47-4.41-10-7-16s-14.27-5.16-14.15-8.94c.22-6.1.3-7.93-2.33-9.92-3-2.31.11-3.24-4.17-6.65-9.14-7.28-3.5-6.21-11.35-11.31-9.29-6.05-8.42-1.06-8.17-9.82l-.42,0a34.7,34.7,0,0,0,2-4.17,5.73,5.73,0,0,0-.35-3.51c.72-1.89-.16-3.52-1.64-6.76-.71-1.54-3.41-1.65-3.35-3.64s-1.35-2.86-2.27-4.15c-1.61-2.35-8.21.12-8.3-7,0-.57.08-1.41-.29-1.67-3.12-2.23,2.53-13.14-5.22-11.29-1.57-4.85-1.33-6.75-4.27-7.26-.75-.12-4.67-5.39-4.23-8.56.12-.94-1.26-2.85-.94-3.81,1.64-4.79-1.76-5.25-4.35-9.81,4.43-3.25.7-10.45-3.31-10.67-.17-8,.25-9.11-1.83-9.78-1.79-.56-2.19-7.26-1.85-9.07,1.76-8.76-3.66-6.64-3.38-12,.11-1.56.46-3.13-1.27-4.06-.4-.21-.25-1.11-.54-1.57-3.13-4.47-12.22-1-19.21-19.19-4.66-12.12-3.85-3.29-7.55-10.56,4.38-4.62-1.21-14.53.62-21.88.5-1.86,1.17-3.5.68-5.44-.56-2.25,0-4.83-.24-7.18-.71-7.46-5.09-4.6-5.27-9.17-.11-2.53-3.35-4.24-1.87-6.6,2.45-3.92-2.44-5.69-.52-11.44,2.94-8.72-9.64-25.91-12.92-34-1.58-3.86-5.53-.33-9.56-5.13C72,61.4,70.27,61.43,69,58c-2.38-6.6-4.17-3-4.48-7.14-.39-4.89-2.27-9.21-4.48-13.35-.84-1.57-2.92-1.82-5-1.82C52.54,27.22,44.61,13.89,43.6,13.05c-3.47-2.89-6.25-13-6.25-13h1052.9"/></g></g></g></svg>