<svg xmlns="http://www.w3.org/2000/svg" viewBox="0 0 2221 80.83"><defs><style>.cls-1{fill:#010305;}</style></defs><title>torn-bg-b</title><g id="Capa_2" data-name="Capa 2"><g id="Capa_1-2" data-name="Capa 1"><path class="cls-1" d="M1.27,30.61c6.68-4,8.39,2.26,12.4,2.55,10.82.8,5.24,11,22,14.72.55.11,1.31.36,1.39.66,9.66,26.31,65.2-3.24,74.62,4.79,1,.85,5.76-.25,14.5-1.62.89,16.38,23.31,7.18,33.14,4.41,1.7-.48,6.32.52,9,.38C185.18,55.64,190,58.61,195.4,53c6-6.29,11.89-1.72,16.49-4.81,7.72-5.22,10.61-3.3,13.85,2.46,3.55,6.34,6.91,2.59,14.5,5.9,9,4,17.17-2.13,21.3-4.24,32.92,14.93,47.08,6,53.48,7.17,2,5.88,9.5,10.29,17.21,10.09,0,0,16.76-.47,17.51-.66,9.69-2.27,6.93.92,10.44,1,6.1.11,3.07,3,8.86,3.95,16.28,2.66,19.3-3.62,25.84-3.47s13-1.82,19.49-.06c1.89.51,26.06,1.44,39.59-.17,1.48,1.83,3.31,3.57,6.1,3.6,7.33.06,14.67-.25,21.72-2.15,5.89-1.6,2.25,1.63,13.1.71,5.69-.49,6.85,1,15.68,2.27,9.55,1.37,7.46,6.51,14,6.14,13.54-.79,46.39,2.51,56.38-4.11,6.6-4.34,12.56-.8,16.25-4.78,2.2-2.41,6.89-.31,10.49-1.37,6.46-1.93,5.63,3.27,16.47.48,3.42-.91,6.63-2.54,10.14-3.08,3.06-.46,4.85-1.81,7.06-3.1,8.88-5,26.64-4.58,29.92-10.59,12.73,0-.11,3.28,20,1.86,30.26-2.13,31.94,7.54,40.37,8.27.86,0,2-.5,2.57-.24,2.53,1.11,4.45.08,6.55-.74,7.17-2.69,8.12,3.11,19-2.47,2.26-1.14,11.85-3.86,13.91-2.53,2.42,1.55,3.61.68,14.88-2.85,3.16,3.46,15.82,3.47,17.16-2,8.18.21,11.25,3,16.72-.62,1.09-.73,4.74-.38,5.94-.92,4.1-1.85,14.21-.79,14.92-.17,2.81,2.37,5.27,1.3,13.13.47,3,7.73,14.07-2.29,19.4-.55.62.21,1.71-.26,2.51-.51C888.23,48,889.54,55,894,55.37c2.44.22,4.77,1,7.37.1s4.81,1.39,7.44,1.31c5.58-.17,8.47-.14,10.56-1.64,0,0,3.43-.15,5.14-1.3a44.24,44.24,0,0,0,4.32-3.7l.25.38c12-4.24,4.44-2.73,19.48,2.75,12.71,4.64,7.17.12,23.82,4.91,7.78,2.24,6.85-1,12.21.65,4.64,1.42,7.11.51,15.42-2.48,5.17-1.84,12.34,8.91,22.54,8.47s-1.48,5.82,27.15-1.08c5.53-1.31,9,4.49,15.24-1.54,4.79-4.7,7.12.91,14.13-2.75a5.94,5.94,0,0,1,3-.26c4,.45,16.42,3.23,21.63,2.06,12.68-2.73,24.68-5.54,25.82-5.83,2.35-.63,7.8-.33,10.2-1.18,5.2-1.84,5.24,1,24,1.78,6.75.29,13.4.65,19.7,2.38,5.07,1.39,9.75,3.53,15.82,3.49,0,0,3.43,1.87,10.14,2.19,47.13,2.26,25.5-2.43,64.63-.15,14.82.86,25.54,3.1,31.33,1.56,3.62-1,4.64-.49,20.91-.55,4.43,0,25.89-3.53,41.37-2,7.14.69,20.94-.16,21.52-.11,10.49,1.11,10.22-.81,13.22-1,32.34-1.9,12.52-4.39,34-3.42,6.26.28,6.19-1.87,14.41-2.73,15.53-1.61,17-1.63,21.85.43,2,.86,9.71,4.87,16.17,4.93,14.28.17,15.65-.32,17.13-1.67,2.58-2.4,5.6-1.36,8.6-1.77,34-4.56,29.72.79,83.33-12.24,9.35,3.43,11.75.73,28.89-1.91,27.3-4.19-7.93-2.24,39.76-4.5,8.73-.43,6.07,1.09,19.71-1,24-3.62,27.83.08,33.8.88,4.84.66,9.7,1.26,13.94,2.88a7.11,7.11,0,0,0,3.39.36c8.29-1.84,43.28,6.19,59.92,3.07a9.61,9.61,0,0,1,3.93,0c3.68,1.23,10.36.15,12.5.59,8.25,1.66,13-1.59,18.75-1.31.75,0,21.84,1.34,23.89,1.65,8.66,1.28,13.39-.4,19,.52,21.37,3.51-.06-5,33.15,5.06,1.32,3.16,4.13,4.19,9.1,2.69,5.82-1.77,9.46,2.62,18,1.07,0,0,9.11,1.25,14.33.69,7-.76,12.9,1.1,17,.47,7.6-1.18,10.53,1.15,14.8-.94,5.71-2.84,25.82-.63,28-.58,9.29.24,11,4.28,14.63,4.93,5.06.87,14.1,2.12,18.92.78,12.27-3.37,16.17-1.47,23.12-1.25,55.32,1.87,42.07,6.3,65.44,3.48,3.52-.42,7.31,0,10.51-1.32a5.88,5.88,0,0,1,.87,0c5.07.78,7.09-2,13.2-1.23a11.34,11.34,0,0,0,3.35-.3c5.47-1,10.85-2.33,16.7-1.93,7.68.47,9.24.46,11.12,1.8,7,5,11.39.78,21.57,5.89a59.61,59.61,0,0,0,12,3.72V0H0V31.16A7,7,0,0,0,1.27,30.61Z"/></g></g></svg>