<svg xmlns="http://www.w3.org/2000/svg" viewBox="0 0 2081.16 80.83"><defs><style>.cls-1{fill:#17173a;}</style></defs><title>torn-bg_1</title><g id="Capa_2" data-name="Capa 2"><g id="Capa_1-2" data-name="Capa 1"><path class="cls-1" d="M2080,50.22c-6.26,4-7.87-2.26-11.62-2.55-10.14-.8-4.92-11-20.63-14.72-.51-.11-1.23-.36-1.3-.66-9.06-26.31-61.1,3.24-69.93-4.79-1-.85-5.39.25-13.58,1.62-.84-16.38-21.85-7.18-31.06-4.41-1.59.48-5.91-.52-8.43-.38-15.78.86-20.3-2.11-25.37,3.55-5.65,6.29-11.14,1.72-15.45,4.81-7.23,5.22-9.94,3.3-13-2.46-3.33-6.34-6.48-2.59-13.59-5.9-8.41-3.95-16.09,2.13-20,4.24-30.85-14.93-44.13-6-50.12-7.17-1.83-5.88-8.9-10.29-16.13-10.09,0,0-15.7.47-16.41.66-9.07,2.27-6.49-.92-9.78-1-5.72-.11-2.88-3-8.3-4-15.26-2.66-18.09,3.62-24.21,3.47s-12.18,1.82-18.27.06c-1.76-.51-24.41-1.44-37.1.17-1.38-1.83-3.09-3.57-5.71-3.6-6.87-.06-13.75.25-20.35,2.15-5.52,1.6-2.12-1.63-12.28-.71-5.33.49-6.42-1-14.69-2.27-9-1.37-7-6.51-13.08-6.14-12.68.79-43.47-2.51-52.83,4.11-6.19,4.34-11.77.8-15.23,4.78-2.06,2.41-6.46.31-9.83,1.37-6,1.93-5.27-3.27-15.43-.48-3.2.91-6.22,2.54-9.5,3.08-2.87.46-4.55,1.81-6.62,3.1-8.32,5-25,4.58-28,10.59-11.93,0,.1-3.28-18.79-1.86-28.35,2.13-29.92-7.54-37.82-8.27-.8,0-1.85.5-2.41.24-2.37-1.11-4.17-.08-6.14.74-6.71,2.69-7.6-3.11-17.8,2.47-2.12,1.14-11.11,3.86-13,2.53-2.27-1.55-3.39-.68-13.94,2.85-3-3.46-14.84-3.47-16.08,2-7.67-.21-10.55-3-15.67.62-1,.73-4.45.38-5.57.92-3.84,1.85-13.32.79-14,.17-2.63-2.37-4.94-1.3-12.3-.47-2.79-7.73-13.19,2.29-18.18.55-.58-.21-1.61.26-2.36.51-9.27,3.16-10.5-3.83-14.63-4.19-2.29-.22-4.47-1-6.91-.1s-4.5-1.39-7-1.31c-5.23.17-7.93.14-9.9,1.64,0,0-3.21.15-4.81,1.3a42,42,0,0,0-4.05,3.7l-.24-.38c-11.22,4.24-4.16,2.73-18.25-2.75-11.9-4.64-6.72-.12-22.31-4.91-7.3-2.24-6.42,1-11.45-.65-4.35-1.42-6.66-.51-14.45,2.48-4.84,1.84-11.56-8.91-21.12-8.47s1.39-5.82-25.44,1.08c-5.18,1.31-8.48-4.49-14.28,1.54-4.49,4.7-6.67-.91-13.24,2.75a5.22,5.22,0,0,1-2.79.26c-3.78-.45-15.39-3.23-20.27-2.06-11.88,2.73-23.13,5.54-24.19,5.83-2.21.63-7.31.33-9.56,1.18-4.88,1.84-4.91-1-22.46-1.78-6.32-.29-12.56-.65-18.46-2.38-4.76-1.39-9.14-3.53-14.82-3.49,0,0-3.23-1.87-9.51-2.19-44.16-2.26-23.9,2.43-60.56.15-13.88-.86-23.93-3.1-29.36-1.56-3.39,1-4.34.49-19.59.55-4.15,0-24.26,3.53-38.77,2-6.69-.69-19.62.16-20.16.11-9.83-1.11-9.57.81-12.39,1-30.3,1.9-11.73,4.39-31.81,3.42-5.87-.28-5.8,1.87-13.5,2.73-14.56,1.61-16,1.63-20.47-.43-1.87-.86-9.1-4.87-15.16-4.93-13.38-.17-14.67.32-16,1.67-2.42,2.4-5.25,1.36-8.06,1.77-31.88,4.56-27.85-.79-78.09,12.24-8.75-3.43-11-.73-27.07,1.91-25.57,4.19,7.44,2.24-37.25,4.5-8.18.43-5.68-1.09-18.47,1-22.51,3.62-26.08-.08-31.67-.88-4.53-.66-9.09-1.26-13.07-2.88a6.24,6.24,0,0,0-3.17-.36c-7.77,1.84-40.56-6.19-56.15-3.07a8.44,8.44,0,0,1-3.68,0c-3.45-1.23-9.71-.15-11.71-.59-7.73-1.66-12.14,1.59-17.57,1.31-.71,0-20.46-1.34-22.39-1.65-8.11-1.28-12.55.4-17.81-.52-20-3.51,0,5.05-31.07-5.06-1.23-3.16-3.86-4.19-8.52-2.69-5.46,1.77-8.87-2.62-16.87-1.07,0,0-8.53-1.25-13.42-.69-6.52.76-12.09-1.1-15.91-.47-7.12,1.18-9.86-1.15-13.87.94-5.34,2.84-24.19.63-26.25.58-8.71-.24-10.3-4.28-13.71-4.93-4.74-.87-13.21-2.12-17.73-.78-11.5,3.37-15.15,1.47-21.66,1.25C93.19,19.4,105.61,15,83.7,17.79c-3.29.42-6.84,0-9.84,1.32a5.07,5.07,0,0,1-.81,0c-4.76-.78-6.65,2-12.38,1.23a9.91,9.91,0,0,0-3.13.3c-5.13,1-10.17,2.33-15.65,1.93-7.2-.47-8.66-.46-10.42-1.8-6.61-5-10.67-.78-20.22-5.89A53.13,53.13,0,0,0,0,11.13v69.7H2081.16V49.67A6.09,6.09,0,0,0,2080,50.22Z"/></g></g></svg>