<svg xmlns="http://www.w3.org/2000/svg" viewBox="0 0 223.24 326.54"><defs><style>.cls-1{opacity:0.2;}.cls-2{fill:#1c1c4c;}</style></defs><title>torn-claw-hero</title><g id="Capa_2" data-name="Capa 2"><g id="Capa_1-2" data-name="Capa 1"><g class="cls-1"><path class="cls-2" d="M37.34,245c-.37.18.12.49-.13.7-1.24,1-.55,2.42-.81,3.64.15.47-.77,1.05.16,1.46v.43a1.42,1.42,0,0,0-.45,2.32,2.77,2.77,0,0,1-.38,2.32c-.6,1.13-.16,2.13-.17,3.2,0,1.59.21,3.24-.44,4.8a1.32,1.32,0,0,1-1.5,1l1,.33c-1.24,0-1.35.83-1.17,1.62s-.35,1.31-.8,2c-.79,1.15-2.2,2-2.27,3.54,0,.49-.93.37-.58,1.23a1.85,1.85,0,0,0,1.45,1.27,1.08,1.08,0,0,0-.33,1.53c.09.18.18.22,0,.44a7.28,7.28,0,0,0-1.56,5.1c0,.38-.82.15-.76.79.09,1.16-.71,2.17-.87,3.36A3.26,3.26,0,0,1,26,288.85c-.59.27-1,1.15-1.27,1.69-1,1.78-1.84,3.75-.21,5.69-.78.91.3,1.32.6,1.95.56,1.15-.79,1.68-1,2.6a2.91,2.91,0,0,1-1.34,2,.4.4,0,0,0-.22.5c.68,1.43,0,2.74-.49,4S22,310,21.75,311.4a4.36,4.36,0,0,1-.14.83c-.12.28-.78.74.24.78.34,0,0,.28.06.43a6.89,6.89,0,0,1-1.13,3.28c-1.07,2.13-1.73,4.38-2.63,6.56l-.82,0,0-.92a10.65,10.65,0,0,1,.32-2c.16-.72.87-1.34.84-1.91-.05-1.16,1.2-1.78,1.12-3a9.23,9.23,0,0,1,.61-1.79c.26-.82.16-1.67.43-2.51s.59-2.26-1.08-2.7c-.15,0-.32-.2-.16-.34.69-.61.34-1.37.29-2-.11-1.46.16-3-.65-4.36a1.87,1.87,0,0,1-.06-1.41c.28-1,.58-2-.65-2.7-.37-.22-.35-.68.08-1,1.15-.76,1.48-2,2.15-3.05.44-.69.31-1.57.82-2.28.3-.42-.22-.73-.47-1.05,1-.58.21-1.26-.08-1.67-.55-.76-.27-1.5-.24-2.24.08-1.73.7-3.41.67-5.18,0-.7-.17-1.75.58-2.12,1.94-1,1.5-2.68,1.8-4.17.07-.33-.34-.27-.46-.45.57,0,1.1.05.86-.72v-.48c.74-.55.11-1.4.56-2.09a2.11,2.11,0,0,0,.56-1.65,2.9,2.9,0,0,1,2.56-3.38c.52-.1,1-.21,1.09-.95.06-.53-.19-1.63,1.18-1.4.14,0,.15-.31.22-.45.37-.69.09-1.5.51-2.17a1.07,1.07,0,0,0-.91-1.71c-.36,0-.5-.06-.56-.3-.12-.46.3-.38.54-.36.7,0,1.45-.18,1.45-.78,0-1.52.19-3.16-1.25-4.36-.17-.15-.39-.28-.32-.57.42-1.55-.64-3.13.15-4.68.42-.82,0-2.1,1.51-2.32a.56.56,0,0,0,.54-.74l0-.09-.11,0a.26.26,0,0,0,0-.41l.23.11a.67.67,0,0,0,.58-.13c.11-.12.15-.23,0-.33-.09-.33.39-.57.16-.92.33-.15,0-.3,0-.45a.26.26,0,0,0,.19,0c.19,0,.23-.05.16-.21,1-1.53.38-3.25.58-4.87,0-.07-.14-.16-.22-.24-.12-.25-.15-.54-.47-.66a3.21,3.21,0,0,1-.6-2l.27-2.39c.16-.9.68-1.9.4-2.66-.61-1.68,1.2-2.94.66-4.53,0-.12.31-.33.45-.51a2,2,0,0,0,.63-1.75c.16-.17.48-.29.21-.59.64-.27.45-1.14,1-1.36,1.28-.55,1.33-2.16,2.72-2.57.1-1.68,1.48-3.28.36-5.05A.72.72,0,0,1,39,213c1.15-1,1.39-2.61,2.91-3.27.13-.06.19-.19.06-.24-.78-.34-.09-.45.11-.61a5.45,5.45,0,0,0,1.64-2.08,1.68,1.68,0,0,0-.35-2.2s0-.08,0-.11c1.43-.22,1.23-1.5,1.71-2.31s-.14-1.09-1-1.05c-.18-.44.3-1-.34-1.35l-.06-.41c.61,0,.76-.39.88-.8a8.83,8.83,0,0,0,.5-2.69l.06-.08,0,.09H44c-.34-.9.66-.78,1-1.14.16-.08.15-.16,0-.24a.79.79,0,0,1,.24-.82,2.51,2.51,0,0,0,.81-2.44c-.18-.7.36-1.12.37-1.72s.48-1.18,1.37-1c0-.67.57-.58,1.07-.65A2.34,2.34,0,0,0,50,187c-.48-.26-.34-.41.11-.52,1.57-.37,2.18-1,2.25-2.32a4.71,4.71,0,0,0-.53-3.08c-.71-1,.27-2.46-1.34-3.31.78,0,1-.16,1.18-.67.39-1.28.89-2.53,1.35-3.79.72-.69.65-1.61.84-2.46.29-.14.12-.34.08-.52s.09-.3.14-.45.29-.08.14-.25l.06-.45c.06-.4.13-.79.19-1.18.1-.17.09-.4.35-.46.84-.17.93-1.19,1.67-1.36,1.2-.28,1.2-1.65,2.32-2,.17,0,.19-.47,0-.81a2.69,2.69,0,0,1-.3-2c.15-.46.78-1.13-.35-1.4-.14,0-.21-.52,0-.57,1.54-.33.92-1.61,1.05-2.36.22-1.28-.22-2.64.51-3.91.17-.28,0-.65-.41-.83-.11-.33.08-.54.33-.72a4.84,4.84,0,0,0,.85-.4c.6-.45,1.6-.09,2-.9.25-.55.76-.62,1.34-.79s1,.12,1.54.11c.79,0,.68-.06.91-.78.1-.31.13-1.36,1.2-.9.47.2.74,0,.84-.48.33-1.88.32-3.87,2.07-5.3a1,1,0,0,0,0-1.28c-.7-.6-.2-1.46-.68-2.07,0,0-.22-.2,0-.24,1.15-.21,1.09-1.24,1.53-1.93.09-.14.29-.29-.06-.53-1-.69-.39-1.29.28-1.77.93-.67,1.07-1.54.13-2.27a.88.88,0,0,1-.3-1.25,10.42,10.42,0,0,1,1.22-1.68c.55-.64,1.12-1.34,2.21-.76a.5.5,0,0,0,.63-.24c.19-.3-.22-.33-.29-.48-.16-.39-1-.86.26-1.15.77-.18,1.73,0,2.29-.6a11.92,11.92,0,0,0,2.5-2.61c-2.07,0-.39-1.35-.86-2-.35-.47.23-.69.46-1-.1-.8.57-1.22,1-1.73.21-.22.59-.37.39-.72-.42-.73,0-1.41.1-2.1l.55-.2c.5-.56.09-1.67,1.3-1.8,0,0,0-.2,0-.26-.71-.88.24-.72.63-.8s.9.26,1-.31-.54-.36-.81-.56c-.11-.09-.33-.08-.31-.31.34-.24.82-.41,1-.73.62-.91,2-1.38,1.9-2.72,0-.26.35-.39.67-.41a.5.5,0,0,0,.52-.34,1.55,1.55,0,0,1,1.68-1c.21,0,.44.24.61-.12a10.13,10.13,0,0,0,1-2.13,14.65,14.65,0,0,1,2-4.24,2.42,2.42,0,0,1,2.32-1.35A16,16,0,0,0,98,98.09c1-.11.84-.76.62-1-.48-.63-.25-.61.38-.66,1.43-.12,1.85-.91,1.15-2.13-.12-.21-.29-.39-.14-.59.89-1.1,0-2-.56-2.77-.18-.28-.19-.43-.07-.6a26.56,26.56,0,0,0,2.48-4.68c.74-1.52,1.57-3,2.4-4.48s1.72-3.32,3.6-4.29c.89-.45,1.65-1.13,2.51-1.64.5-.29,1-.73,1.71-.35.42.22.84.54,1.28,0s.26-.88-.22-1.25a1.87,1.87,0,0,1,.94-.11c1.4.21,1.68,0,1.5-1.37-.11-.73.4-1.37.19-2.15-.07-.26,0-1.11.23-1.2,1.48-.51,1.53-2,2.38-2.91.31-.32,1.27-.75.81-1.49-.31-.49-.06-.76.19-1.11a12.68,12.68,0,0,1,2-1.89c.63-.58,1.76-1,1.7-1.92-.11-1.81,1-2.94,2.2-4.13s2.71-1.66,3.66-2.94A2.24,2.24,0,0,1,131,51.7c.41,0,.95,0,1-.45,0-1.1.83-1.15,1.66-1.07.38,0,.38,0,.56-.31,1.41-2.16,1.94-4.67,4.11-6.59s4.37-3.77,5-6.73a10.6,10.6,0,0,1,1.79-3.31c1.45-2.16,3-4.27,4.23-6.55a.88.88,0,0,1,.79-.47c.92,0,1.15-.38,1.25-1.24,0-.37,1.55.54,2-.33a6,6,0,0,1,1.81-1.92.65.65,0,0,0,.24-.39,6.2,6.2,0,0,1,1.45-2.55c.66-1,2-1.84,1.28-3.25-.24-.5.16-.45.37-.61.44-.32,1.08-.56,1.31-1a10.19,10.19,0,0,1,3.09-3c1.6-1.18,3.17-2.39,4.67-3.66.33-.28.82-.31,1-.76a26.44,26.44,0,0,1,2.64-4.69l.31-.42-.12-.3a2.75,2.75,0,0,0,.19-.28.75.75,0,0,0,.85-.41c.45-.15.32-.55.47-.82A1,1,0,0,1,174.2.08c.54.27-.1.56-.19.83-.56,1.62-1.9,2.84-2.42,4.55s-1.91,2.93-2.81,4.43c-.69,1.15-1.9,1.88-2.47,3.14A3.49,3.49,0,0,1,164.94,15a5.19,5.19,0,0,0-2.11,1.69c-.25.39-.51,1.19-1.1,1.13s-.89.38-1.3.64-.46,1-1,1.25c-1.54.65-1.58,2.35-2.73,3.29-.32.26-.3.75-.1,1.26a2.74,2.74,0,0,1,.06,2.21,19.75,19.75,0,0,1-2.46,3.91.73.73,0,0,0-.06,1c.31,1-.62,1.86-.34,2.85l-.05.05c-.24-.11-.55-.15-.62.12s.27.16.43.22c-.43,1-.83,2-2.38,1.42-.29-.1-.43.24-.52.52-.37,1.08,0,2.39-1.23,3.21,0,0,0,.29.13.38s.46.29.28.55c-.51.75-.34,1.72-1,2.42-.65-.33-.61-.83-.6-1.44,0-1.44,1.06-2.65,1-4.1,0-.15.42-.28.07-.43-.14-.06-.51,0-.55.11-.52,1.1-1.7,1.51-2.58,2.23a17.47,17.47,0,0,0-3.82,4,2.73,2.73,0,0,1-.85,1c-2.12,1.1-2.73,3.25-4,4.89a65.2,65.2,0,0,0-4.64,6.76c-1.41,2.37-3.79,4-5.75,6a1.21,1.21,0,0,1-1.25.35c-1.16-.39-1.42.3-1.74,1.06-.55,1.27-1.16,2.52-1.75,3.78-1.26,2.65-2.81,5.17-3.83,7.92-.13.34-.32.72-.71.74-.87,0-1,.61-1.3,1.15a2.56,2.56,0,0,1-3.18.81c-.33-.21-.45-.13-.54.11-.73,1.79-2.37,3-3.25,4.79a15.65,15.65,0,0,1-1.64,2.93,5.81,5.81,0,0,0-1.6,3.74c0,.86-.22,1.69-1.43,1.84-.55.07-.71.55-.76,1-.11.8-1,1.58-.06,2.45a.74.74,0,0,1-.24,1,4.13,4.13,0,0,0-2,1.91,4.26,4.26,0,0,0-.86,1.58c-.09.54-.13,1.3-.87,1.57a2.3,2.3,0,0,0-1.47,1.81.94.94,0,0,1-1.16.77c-1.41-.4-1.41.55-1.6,1.29a3.09,3.09,0,0,1-.29,1.11A41.8,41.8,0,0,0,93,110c-.93,1.83-2.64,3.15-3.78,4.84-.67,1-2,1.11-2.73,2.06-1.2,1.57-3.07,2.75-3.3,4.87-.1.91.2,2-.25,2.71-.93,1.42-.39,3.4-2.08,4.48-.05,0,0,.15,0,.22-.27,1.21-.25,2.63-2.26,2.51-.08,0-.17.16-.26.23a5.72,5.72,0,0,0-2.8,3.94c-.37,2.67-1.37,5.24-1.8,7.91a9.22,9.22,0,0,1-1.14,3.33,23,23,0,0,1-3.17,4.15c-1.31,1.35-2.56,2.85-4.47,3.61a.94.94,0,0,0-.61.67,39.19,39.19,0,0,1-1.56,4.2c-.68,1.83-1.29,3.69-2,5.52s-1.58,3.5-2.09,5.37q-.69,2.55-1.46,5.09c-.46,1.55-1.17,3.18-.83,4.77a6.09,6.09,0,0,1,0,2.72c-.36,1.74-1.74,2.94-2.24,4.56-.12.37-.83.61-.91,1a2,2,0,0,1-1.41,1.62,1.1,1.1,0,0,0-.83,1c-.07,1.3-.11,2.6-.26,3.89-.17,1.51-.38,3-.68,4.51a22.33,22.33,0,0,0-.45,3.15,11.87,11.87,0,0,1-.34,3.06c-.53,1.62-1.92,2.79-2.48,4.4,1.67,1,1.76,1.45.77,3.07A18,18,0,0,1,43.16,218c-.37.29-.89.61-1,1-.67,2.92-2.07,5.65-2.62,8.61-.17.91-.09,2-.83,2.67-1.07.91-1,2.27-1.85,3.22-.23.25-.14.87-.39,1.29-.12.19-.22.44,0,.62,1.55,1.18,1.42,2.76,1.25,4.35S37.69,243.24,37.34,245ZM149.43,36.87c.24-.08.41-.18.38-.39s-.15-.19-.22-.18-.37.15-.35.37S149.37,36.81,149.43,36.87Z"/><path class="cls-2" d="M78.61,274c-.63.64-.79,1.56-1.61,2.1a2.54,2.54,0,0,0-.85,1.71A18.12,18.12,0,0,1,75,281.57a1.46,1.46,0,0,0,0,1.37c.33.57.21,1-.14,1.69a5.72,5.72,0,0,0-1,2.27c-.07,2-1.45,3.46-1.94,5.25-.12.42-.4.53-.85.36a.94.94,0,0,0-1.38.71c-.1.42-.44.64-.72.9a3.73,3.73,0,0,0-.82,4.12c.41,1.24-.2,2.09-.48,3.13s-1.13,1.8-1.3,2.84c-.11.64-.9.87-1.09,1.54,1.1,0,1.23.66.9,1.37s-.93,1.54-1.38,2.31a15.2,15.2,0,0,0-1.59,2.93c-.14.43-.61.65-.59,1.19s-.55,1.14.28,1.57a.11.11,0,0,1,0,.1c-.47,1,.3,2.14-.26,3.13-1.11,2-1.62,4.11-2.53,6.13-.32.7-.7,1.37-1,2.06-.69,0-.3-.72-.69-.91a70.91,70.91,0,0,0,2-7.84c.84-1.85.81-3.89,1.56-5.76.48-1.2.36-2.49.78-3.71a8.88,8.88,0,0,0,.84-4.05c-.11-.82-.47-1.64.62-2.14.18-.08.09-.23,0-.24-.79-.13-.44-.71-.55-1.11l.43-.14c-.72-.51.43-1.15-.28-1.88a2.22,2.22,0,0,1,.14-3,4,4,0,0,0,.74-2.92,2.22,2.22,0,0,1,.35-1.07c.63-1.17,1.1-2.42,1.63-3.64.24.06.64.11.64-.11s-.43-.1-.66-.18c-.12-.56.28-.66.74-.71s.42-.36.3-.67c.17-.49.91-.71.73-1.36.63-.12.94-.52.79-1a1.12,1.12,0,0,1,.35-1.11c1.45-.14,1.39-1.53,2-2.23,1.07-1.35,1.46-3.17,2.12-4.79.2-.49-.3-.53-.58-.71s-.81-.15-.89-.65c-.33-2,.08-3.06,2.07-4.18a.72.72,0,0,0,.36-.43c0-.33-.31-.29-.54-.31-2.06-.23-2.34-1.32-1.83-3A28.44,28.44,0,0,0,73.51,261c0-.42.22-1.13.92-1.2s1-.68,1.2-1.21.43-1.38,1.18-1.53c.58-.11.62-.44.67-.76a6.51,6.51,0,0,1,.62-1.49c.43-.92,1.24-1.78.67-2.87-.15-.28,0-.41.08-.6.59-.9,1.17-1.81,1.74-2.71s1.33-1.53,1.46-2.66c.07-.66-.5-1-.45-1.51a4.22,4.22,0,0,1,1.15-2.7,1.3,1.3,0,0,0-.36-2.18c.9-.83,2.22-1.08,3.3-1.85-.72-.31-1.47.13-2-.54.81-.09.85-1,1.57-1.14s1.37-.4,1.33-1-.79-.89-1.45-1c-.2,0-.39-.12-.68-.21,1.35-.27,1.46-1,1-1.94-.27-.51-.16-.72.28-1.19.81-.87,1.51-1.92.62-3.24a2.8,2.8,0,0,1,.07-2.38,22.31,22.31,0,0,0,1.31-4.8c0-.36.14-.86.4-1,.47-.28.55-.59.32-1-.36-.53.14-.38.37-.5a8.66,8.66,0,0,1,1.79-.78c-.32-1.1.86-1.18,1.38-1.7.15-.15.51-.2.34-.49-.52-.91.39-1.12.88-1.45.64-.44.76-.81.13-1.35-.26-.23-.4-.38-.07-.58a1,1,0,0,0,.44-1.23c-.17-.8.85-1.39.44-2.22,1.36-.38.74-1.53,1-2.32.11-.29,0-.65-.5-.5l-.72,0c-.07-.3.07-.76-.56-.67.05-.47.71,0,.79-.44.89-.11,1.15-.46.57-1.17.26,0,.58,0,.58-.38l0,0a.32.32,0,0,0,.51,0l-.08,0c0,.22.12.34.35.35a12.06,12.06,0,0,0,2-.38c.36-.05.61-.09.71-.46.15-.55-.32-.22-.49-.32s0-.15.07-.16c.48-.09.29-.28.2-.57s-.26-.76.44-.58c.88.21,1.07-.42,1.15-.94a2.89,2.89,0,0,0-.09-1.69c-.24-.56-.33-1.4,0-1.69.76-.62.25-1.49.77-2.09,0,0-.24-.06-.34.08v0c-.28-.86.54-2.13-1.07-2.51-.09-.27.16-.42.24-.64l.2-.1-.19-.2a4.63,4.63,0,0,0,.21-.59c.45-1.32,0-3,1.72-3.83a2.33,2.33,0,0,0,1-1.3c.2,0,.38.06.51-.17.37-.64.76-1.27,1.16-1.9.62-1,.53-2.34,1.86-3a3.28,3.28,0,0,0,.57-1c.18-.54,1.42-.84.66-1.49-.44-.38-1.19-1.06-2-.26l-.55-.48c-.35-.75-1-.81-1.93-.29.41-.71.37-1.09-.19-1.38s-.46-.7.07-.83c1.62-.41,1.55-1.86,1.91-2.88a5.34,5.34,0,0,0,0-3,1.58,1.58,0,0,0-1.08-1.29c.13-.05.22-.12.15-.27-.29-1.23-.1-1.54,1.06-1.67.1,0,.28,0,.29,0,.06-.2,0-.34-.26-.4v-.39c.57.28.85.25,1.14-.42s.82-1.6,1.71-1.25a2.84,2.84,0,0,0,3.44-.84c.22-.21.4-.53.36-.65-.25-.81.37-1.1.91-1.46.94-.07,1.56-.41,1.43-1.4l.61-.44c.59,0,.69-.3.62-.74.6-.61,1.24-1.18,1.78-1.83a45.77,45.77,0,0,1,3.65-4.27c.66-.63,1.3-1.92,1-2.59-.48-1.14,0-1.91.32-2.83.5-.1.24-.42.22-.67a2,2,0,0,0,.34-1.32v0c.55-.26-.3-1,.38-1.12,1-.12.73-.72.8-1.24.18,0,.32,0,.24-.21l-.15-.93c-.14-.22.15-.62-.34-.68a42.53,42.53,0,0,0-.52-5.86,2.66,2.66,0,0,1,1.53-2.89l.36-.15c-.11-.14-.22-.27-.32-.41.9-.19,0-.72.22-1,.52-.39,1.16-.13,1.74-.25,1-.47.68-1,.09-1.57.12-.71.71-1.11,1.21-1.57a1.83,1.83,0,0,0,2.22-1.65c.44-.15.8.18,1.22.16a1.32,1.32,0,0,0,2.06-.63c.21-.4.33-1.24.8-1.08,1.34.44,1.39-.41,1.68-1.13a11.75,11.75,0,0,1,.57-1.19,2.92,2.92,0,0,0,.58-2,22.51,22.51,0,0,0,2.63-6.4,16.87,16.87,0,0,1,2-4.69c.5-.83,1-2.07,2.6-1.79.4.07.65-.19.74-.6a26.43,26.43,0,0,1,1.83-5.91c.18-.4.41-.85,1-.88.75.41,1.33.58,2.07-.2a2.21,2.21,0,0,0,.54-1.42c.24-1.47,1.53-2.4,2.15-3.67l.49,0c.46.27.8.29,1.06-.27.7-1.44,1.45-2.87,2.18-4.3l.09-.44c.22-.11.46-.2.39-.49l.34-.67c.37,0,.46-.19.44-.48.17-.11.07-.25,0-.39a.92.92,0,0,0,.66-.77l.42-.65a24.71,24.71,0,0,0,3.09-2.17c.95-.9,2.35-1.4,2.83-2.73.41-1.11.5-2.29,1.38-3.28.49-.56.56-1.47,1.28-2,.19-.13.2-.19,0-.32-.76-.68.06-1.2.31-1.68a1.32,1.32,0,0,0,.2-1c0-.14,0-.28,0-.42.89.14.62-.64.91-1,.13-.75,0-1.65,1.35-1.59.34,0,.49-.36.56-.67,1.35-.55.71-1.44.44-2.26a1.52,1.52,0,0,1,1.7-1c.47.07,1-.39.87-.68-.3-.67-.12-1,.57-1.16a1.84,1.84,0,0,0,1.47-1.51c0-1.74,1.58-2,2.7-2.65.49.21.72-.2,1.05-.34-.09-.33-1.12-.14-.46-.81l.55-.06c.69,0,1.56-.28,1.47-.83-.1-.7.47-1.7-.67-2.14.29-.42,1.15-.2,1.2-.82.11-1.36,1.31-2.07,2-3.08a10.07,10.07,0,0,0,3-2.24c1.8-1.66,3.86-3.29,4.58-5.6a4.67,4.67,0,0,1,2.25-2.67c.19-.12,0-.73.65-.84-.08,1.16.51,2.36-.61,3.33a.48.48,0,0,0-.08.44c.37,1.28-.54,2-1.4,2.76-2.33,2.09-3.78,4.76-5.53,7.24-.07.1-.34.15-.2.3s.3,0,.35-.14c.46-.07,1-.29,1.24.29s-.4.54-.68.76c-2.17,1.73-4.81,3-6.05,5.62a8.46,8.46,0,0,1-1.33,1.58c-1.31-.68-1.06.66-1.72,1,1,.39,1-1,1.79-.74.5.81.07,1.46-.73,1.49-1.13,0-1.59.33-1.27,1.42.18-.06.55-.06.71-.24.55-.61.8-.28,1.06.21a8.23,8.23,0,0,0,.94,1.63c.47.54-.07.72-.27,1a3.62,3.62,0,0,1-2.41,1.9c-.54.12-.94.78-1.38,1.21a1.34,1.34,0,0,1-1,.38c-.51,0-1.26-.84-1.55.3-.12.48-.75.83-.58,1.37.34,1-.29,2.09.18,3.16.19.42-.23,1.11-.34,1.67a5.44,5.44,0,0,0,.1,2.1,2.79,2.79,0,0,1-.33,2.31c-.17.24-.61.61-.37.91,1.22,1.49-.3.86-.85,1l-.52.13c1.85.79.72,1.54.21,2.45s-1.21,2.08-1.79,3.14c-.25.46-.46.9-1.12.89-.82,0-.66,1.05-1.43,1.07-.34,0-.56,0-.57.39a1.18,1.18,0,0,0-.94.46c0-.3-.1-.78.07-.88,1-.63.8-2,1.82-2.61.15-.09.26-.29.08-.37-1-.43-.31-1.07-.29-1.65,0-.77.82-1.31.61-2.4-.83,1.06-2.29,1.2-2.92,2a29.9,29.9,0,0,0-3.61,4.56A25.27,25.27,0,0,1,158.9,93c-.4.53-1.11.67-1.5,1.29-1,1.63-1.27,3.73-3.26,4.81-.14.07-.19.33-.23.51-.35,1.59-2.4,2.2-2.62,3.86,0,.06-.12.13-.19.14a1.12,1.12,0,0,0-.93,1.09c-.21,1.32-1.73,1.69-2.42,1.65-1.21-.07-1.16.5-1.4,1.1a24,24,0,0,1-5,8.3c-1.36,1.39-1.81,3.62-2.38,5.54a5.32,5.32,0,0,0,.16,3.07c.17.49.11,1-.59,1.19a.75.75,0,0,0-.56,1.17c.45,1-.14,1.37-.88,1.84a2.22,2.22,0,0,1-2.35.39,4.69,4.69,0,0,0-1.47-.1,1.6,1.6,0,0,0-1.84,1c-.52,1.08-2,1.57-2.18,2.94,0,.09-.27.16-.41.22-1.44.64-1.75,1.59-1,2.93A1.46,1.46,0,0,1,128,137a45.14,45.14,0,0,1-1.71,6.53c-.64,1.8-.79,3.73-1.42,5.55-.33.94-1,1.76-1,2.81-.25,0-.47.14-.43.43,0,.06.09.15.13.14.3-.05.33-.29.38-.51.4.06,1.31-.18.56.65-2.53,2.75-3.65,6.61-7.63,8.22-1,1.61-3.26,2.6-2.53,5.07.35,1.17,0,2.52,0,3.78a13.4,13.4,0,0,1-1.88,7.75c-.58,1-1.48,1.84-1.52,3.08a2.9,2.9,0,0,1-1.16,2.05,46.49,46.49,0,0,0-3.48,3.69c-1.46,1.61-1.86,3.85-2.43,5.91a.71.71,0,0,0,0,.56c.57.78.52,1.78,1,2.54.82,1.27.07,2.14-.61,3.11s-1.4,1.79-.83,3.07a.93.93,0,0,1-.88,1.41c-.92.08-1.12.7-1,1.43.07.3.27.67-.17.76-1.54.31-1.61,1.7-2.35,2.6a1.39,1.39,0,0,0-.27,1.09c.2,1.59.23,3.12-1.47,4.15a1.34,1.34,0,0,0-.41.81,1.36,1.36,0,0,1-1.39,1.11,3.07,3.07,0,0,0-1.68.88c-.44.31.51.47.43.89a3.57,3.57,0,0,0,0,.8c0,.18-.06.37.15.52,1.31,1,1.35,1.46.58,2.83a35.65,35.65,0,0,1-4.89,7,6.13,6.13,0,0,0-1.55,3.87c-.16,1.76-1.2,3.34-1.07,5.14a.61.61,0,0,1-.21.38,7,7,0,0,0-1.45,2.65c-1.45,3.19-2,6.62-2.82,10a29.53,29.53,0,0,1-2.45,6.65,8.05,8.05,0,0,0-1.1,4.34,8.92,8.92,0,0,1-1,5c-.6,1.23-2,1.93-2.35,3.37-.25,1.1-.84,2.54.1,3.1S77.67,273.58,78.61,274ZM89.3,224.23c-.6,0-.92.24-.91.74a.79.79,0,0,0,.84.81c.6,0,.71-.61.78-1S89.63,224.26,89.3,224.23ZM87,226.69c.33-.41,1-.61.94-1.31C86.92,225.4,87.21,226.2,87,226.69Z"/><path class="cls-2" d="M82.85,41.91c.1-.93,1.12-1.64.76-2.7a.77.77,0,0,1,.58-.63c.88-.09,1.21-.48.79-1.23-.26-.47.42-.38.44-.78a2.83,2.83,0,0,1,1.85-2.67c1.45-.53,2-2.47,4-2.12.48.08.26-.66.61-.88,2.11-2,4.48-3.82,5.89-6.41.33-.6,1.09-.72,2.19-.61a4.25,4.25,0,0,0-1.84,1.91c-.12.28-.21.67-.45.78-1,.48-1.1,1.41-1.35,2.26a.18.18,0,0,0-.19.22c-.06.22-.25.27-.47.27s-.71-.06-.73.2c-.11,1.07-1.17,1.75-1.28,2.8a1.2,1.2,0,0,1,0,.2c-.37,0-.8,0-.7.52-.74.87-1.8,1.53-2,2.71a33.52,33.52,0,0,0-3.19,5A6,6,0,0,1,86,43.21c-.35.24-.75.44-1.08.7-2.2,1.73-3.63,4-5.41,6.06-.18.21-.42.54-.2.69.91.65.16,1.15-.12,1.69a1.89,1.89,0,0,0-.29,1.4c-1,.18-1.3,1-1.82,1.7s-1,1.63-1.23,1.57c-1.31-.36-1.44.5-1.85,1.18s-1.22.59-1.56,1.24c-1,2-2.42,3.72-3.34,5.78a34.12,34.12,0,0,1-3.38,6.65c-1.36,1.81-2.62,3.7-4.86,4.75-.49.23-1,.45-1,1s-.42.78-1,.57c-.37-.13-.74-.19-.91.28a7.09,7.09,0,0,0-.79,2.62,1.93,1.93,0,0,1-.71,1.51c-1.55,1.57-2.77,3.37-4.7,4.68a10.41,10.41,0,0,0-2.58,2.88,7.14,7.14,0,0,1-2.46,2.55c-.29.16-.76.33-.76.71,0,1.36.21,2.73-.67,4-.1.14.28.58.44.88a1.09,1.09,0,0,1-.4,1.62,16.74,16.74,0,0,0-2,1.24c-1.15.83-2.05,2-3.55,2.37-.06,0-.15.14-.13.18.48,1.06-.73,1.11-1.1,1.13-1.18,0-.88.63-.76,1.36,1.1-1,1.53.43,2.39.44.27,0,.25.41.18.69a7.53,7.53,0,0,1-1.57,3,41.29,41.29,0,0,0-5.62,8c-.11.21-.29.43-.07.62.63.55-.24.61-.38,1,1-.1,1,.35.85,1-.22.94-1.24,1.78-.49,2.88.06.09-.18.44-.36.55a38.55,38.55,0,0,0-4.05,3.47c-1,.84-1,2.22-1.79,3.24a13.81,13.81,0,0,0-2,3.74,10,10,0,0,0-.34,5.09,2,2,0,0,1-.38,1.94c-1.85,1.46-1.77,3.59-2.16,5.45-.31,1.49-.16,2.94-1.93,3.76a2.17,2.17,0,0,0-1,1.24,10.53,10.53,0,0,1-2.21,3.86c-1.67,1.49-2.06,3.26-2.67,5.08s-.39,3.59-1.71,5.07a.66.66,0,0,0-.06.65c.79,1.21.32,2.75,1.16,3.89,1,1.3.12,2.44-.46,3.37a14.17,14.17,0,0,1-2.7,3.3c-.89.77-1.76,1.62-1.59,3a3.5,3.5,0,0,1-.5,1.64c-.53,1.19-1.47,2.2-1.76,3.5.39.24.82,0,1.21.13s.69.26.45.63c-.48.75-.36,1.74-1.12,2.38-1.33,1.11-1.23,2.66-1.48,4.11-.05.29-.09.62.5.54s.7.18.6.7a24.76,24.76,0,0,1-.4,2.72c-.31,1,.63,2.17-.36,3.1A1.15,1.15,0,0,0,5.6,201c.09.77-.14,1.51.58,2.31s-.15,1.81,0,2.84a9.52,9.52,0,0,1-.71,3.67c-.15.49-.43,1.18-1.16.9-.91-.34-.92.19-1,.66a2.16,2.16,0,0,1-1.08,1.82c-.58-.59-1.43-.59-2.26-.88a4.25,4.25,0,0,0,1-2.54,7.9,7.9,0,0,1,2.32-4.1c1.14-1.08,1.13-1.09-.28-1.67-.11,0-.32,0-.3-.22a9,9,0,0,0,1.08-.3c1.18-.52,1.45-1.53.46-2a1.54,1.54,0,0,1-.94-1.84,12.64,12.64,0,0,0,.26-2.27,15,15,0,0,1,1-6.78c.15-.37-.11-.77-.35-1.07-1-1.16-1.37-3.7-.26-4.61s.87-1.83,1-2.72c.21-1.32-.23-2.82,1.94-3,.24-1.07,1-1.56,2-2.1s.81-1.89.88-2.92c.06-.74.11-1.08,1-.7.26.1.75.22,1-.17a.86.86,0,0,0,0-1,2.2,2.2,0,0,0-1.07-1c-.47-.2-.49-.33-.45-.8a2.07,2.07,0,0,0-.9-2.19c-.74-.49-.65-1.42-.35-2.2a4.82,4.82,0,0,0,.24-3.81,1.45,1.45,0,0,1,.28-1.75c.43-.49,1.13-.82,1.32-1.45.25-.8,1-1.11,1.54-1.64.92-.93,2.51-1.58,2-3.22-.35-1.21.94-2.11.6-3.34a1.05,1.05,0,0,1,.85-1.11c.37-.06.41-.17.49-.47.23-.87.88-1,1.54-.4.49.48,1.1.55,1.23-.1a14.74,14.74,0,0,0,.62-2.95c0-.64-.49-1.52,0-1.88,1.22-.9,1-2.17,1.29-3.28.36-1.32,1.18-2.44,1-4s0-2.95-1.06-4.24c-.12-.14-.86-.87-.11-.85,1,0,.4-.34.45-.64.09-.6.14-1.21,1-1.5a2.35,2.35,0,0,0,1.3-.83,10.26,10.26,0,0,1,3.16-3.13,1.94,1.94,0,0,0,1.07-1.77,6.08,6.08,0,0,1,1-3.4c.08-.16,0-.45.24-.47,1.35-.07,1.85-1.15,2.3-2s1.16-2,.48-2.72a3.19,3.19,0,0,1-.68-2.72A4.85,4.85,0,0,0,33,110.21c.07-.13-.13-.26-.29-.31.19-.69.64-.75,1.32-.53s2.9-1.68,2.77-2.31c0-.17-.15-.43-.29-.47a1.13,1.13,0,0,1-1-1.28c0-.6.09-1.08.83-1.1s.86-.27.54-.77c-.2-.31-.06-.56-.05-.85,0-1.51,1.59-2.12,2.23-3.26.38.45,1,.26,1.49.4a.75.75,0,0,0,1-.81c1.71-.6,1.2-2.22,1.76-3.34A2,2,0,0,0,42.89,93c-.21-.16-.22-.73,0-.83,1-.39,1-1.46,1.67-2.08a.79.79,0,0,0,1,.75c.72-.08.18-.52.26-.78s.17-.51.26-.76c.87,0,1.94.15,1.22-1.3-.19-.39.53-.64,1.09-.59,1.53.17,1.51.16,1.63-1.33.08-.93.25-1.86,1.69-1.67-.67-1.1-.55-1.59.42-1.58s1.33-.2,1.26-1.07c0-.1.3-.22.46-.32.41-.15.17-.61.49-.82.84-.54.27-.8-.28-1a1.66,1.66,0,0,1,1.51-.94,2.17,2.17,0,0,0,2.09-1.67.26.26,0,0,1,.15-.14c.83-.24.69-1.55,1.87-1.44.18,0,.26-.33.38-.52.44-.77-.24-1.57.12-2.28,1-2,1.63-4.22,4.65-4.36-.94-1.08-.92-1.15.48-1.54A2,2,0,0,0,67,65.49a4.39,4.39,0,0,0,.56-1.75c0-.88,1.11-1.31,1.5-2a46.13,46.13,0,0,0,2.49-4.1c.32-.69,1-1.53.55-2.09-.56-.77-.1-1,.36-1.32.3-.19.54-.33.6-.65.09-.58.35-1.18,1-1s.32.85.3,1.32c0,.14-.14.27-.21.4h-.3s0-.06,0-.07a.19.19,0,0,1,.28.09c.14.3.37.49.62.14a3.49,3.49,0,0,0,.59-1.11c.57-2,1.44-3.8,3.54-4.81.46-.22.55-.57.73-.94.45-.94.69-2,1.21-2.86A33.77,33.77,0,0,1,82.85,41.91Z"/><path class="cls-2" d="M148.88,43.12c-.6,1.28-1.3,2.59-1.78,3.86-.41,1.07-1.27,2.06-1.25,3.36A4.12,4.12,0,0,1,144.4,53c-.32.33-1,.4-.22.92.29.21-.06.34-.22.51-.41.44-.93.84-.84,1.52,0,.11,0,.29-.07.32-1.31.64-1.45,2-2.31,3-.37.41-.67.82-1.4.74s-.81.81-1.2,1.18a1.13,1.13,0,0,1-1.3.26c-1.44-1.23-2.13.07-3,.71-2.11,1.58-4.27,3.13-6.27,4.83-.77.64-1.75,1.31-1.73,2.49s-1,1.79-1.51,2.69a17.17,17.17,0,0,0-1.43,3,.5.5,0,0,0,.07.54c.65.55.33.86-.48,1.12a1.14,1.14,0,0,1,1.13,1.35,34.58,34.58,0,0,1-.55,6.25c-.26,1.36,0,2.8-.38,4.16-.44,1.62-1,3.21-1.5,4.83-.21.73-.65.84-1.28.49-1.1-.6-1.29.1-1.57.84-.18.46-.29,1.11-1,1.11-1.22,0-1.47.83-1.7,1.63-.28,1-.47,1.93-.69,2.89-.12.52-.18,1-.9,1.23-.43.1-.21.49-.18.79s.52.78.25.94c-1.13.68-.49,1.85-1,2.63-.58.94-.68,2-1.24,2.93-.06.1-.07.26-.16.3-2.41,1.07-2.43,3.55-3.69,5.31-.82,1.16-1.53,2.31-3.17,2.65-1.12.23-1.18,1.36-1.71,2.07a8.72,8.72,0,0,0-1.11,2.17c-.28.74-1.1.27-1.46.83a33,33,0,0,1-3.76,5.31.59.59,0,0,0,0,.55c.56,1.14.51,2.41,1,3.58.2.48-.1,1.14.66,1.44.77.79-.21,1.33-.55,1.58a6.31,6.31,0,0,0-1.4,1.91c-.71,1-.73,2.36-1.62,3.35,0,.05.13.25.21.38-.45.41-.94.79-1,1.43l0,.68c-.27.25-.29.65-.75.83s-1,.57-.94.84c.12,1.4-1.45,1.17-2,1.89a.8.8,0,0,1-.59.08c-2.46-.4-3.91.68-3.91,3,0,.95-.07,1.78-1.19,2.25-.56.24-.07,1-.55,1.47a2.23,2.23,0,0,0-1.51-.72,2.43,2.43,0,0,0-1.47.79,3.86,3.86,0,0,1-1.22.69c-1.24.48-1.3,1.75-1.78,2.7-.23.46.15,1.12-.3,1.62a.28.28,0,0,0,0,.22c1.07.29.23,1.6,1.2,1.91.35.11.17.29.12.43-.37,1,.25,2-.06,2.94-.21.68.49.85,1,1.39-1.72-.15-2.22.94-3,1.8A14.63,14.63,0,0,1,75,168.59a1.78,1.78,0,0,0-.82,2,5.2,5.2,0,0,1-1,4c-.63,1-.33,2.23-1.14,3.13a9.25,9.25,0,0,0-1.42,3.16c-.37.92-1.1,1.79-.85,3,.18.91-.6,2-1,3a.46.46,0,0,1-.27.22c-2.31.36-3.73,1.92-5.25,3.33-.72.68-1.76.47-2.54,1a6.41,6.41,0,0,0-2.35,2.43c-.28.71-.92.07-1.14.61s.67.53.27,1.09c-.55.77-.32,1.49.66,1.75.33.39-1-.1-.2.54.17.12-.11.29-.27.37-.79.42-.71,1-.25,1.55.82,1,.47,2.07.28,3.14a2.46,2.46,0,0,1-.45.11c-.24,0-.29-.26-.44-.33-.49-.21-.48.16-.36.39.21.42.64.16,1,.17a1.33,1.33,0,0,0,.46-.13c-.6,1.55-2,2.47-3.3,3.48a7.6,7.6,0,0,0-3,4.74c-.33,1.84-1.24,3.58-1.7,5.41a32.62,32.62,0,0,0-.49,4.09c0,.42.37.56.6.63,1.58.44.87,1.21.38,2-.07.12-.24.22-.1.44a3.22,3.22,0,0,0,.81-.11c.25-.1.36-.65.73-.3s-.08.89-.27,1c-2.07,1.13-2.77,3.23-4.16,4.83-.13.15-.18.4-.33.47-1.73.77-2.65,2.26-3.74,3.57-.66.79-1.39,1.68-.57,2.76.21.29,0,.43-.16.58-.92.8-1.27,2-2.11,2.83a1.74,1.74,0,0,0-.6,1.35c0,.12.06.35-.19.33-1.36-.08-.94,1-1,1.55A2.68,2.68,0,0,1,37.34,245c.35-1.71.24-3.45.42-5.17s.3-3.17-1.25-4.35c-.24-.18-.14-.43,0-.62.25-.42.16-1,.39-1.29.89-1,.78-2.31,1.85-3.22.74-.63.66-1.76.83-2.67.55-3,1.95-5.69,2.62-8.61.09-.37.61-.69,1-1a18,18,0,0,0,4.49-4.59c1-1.62.9-2.06-.77-3.07.56-1.61,1.95-2.78,2.48-4.4a11.87,11.87,0,0,0,.34-3.06,22.33,22.33,0,0,1,.45-3.15c.3-1.49.51-3,.68-4.51.15-1.29.19-2.59.26-3.89a1.1,1.1,0,0,1,.83-1,2,2,0,0,0,1.41-1.62c.08-.36.79-.6.91-1,.5-1.62,1.88-2.82,2.24-4.56a6.09,6.09,0,0,0,0-2.72c-.34-1.59.37-3.22.83-4.77s1-3.39,1.46-5.09c.51-1.87,1.42-3.57,2.09-5.37s1.29-3.69,2-5.52a39.19,39.19,0,0,0,1.56-4.2.94.94,0,0,1,.61-.67c1.91-.76,3.16-2.26,4.47-3.61a23,23,0,0,0,3.17-4.15,9.22,9.22,0,0,0,1.14-3.33c.43-2.67,1.43-5.24,1.8-7.91a5.72,5.72,0,0,1,2.8-3.94c.09-.07.18-.23.26-.23,2,.12,2-1.3,2.26-2.51,0-.07,0-.19,0-.22,1.69-1.08,1.15-3.06,2.08-4.48.45-.7.15-1.8.25-2.71.23-2.12,2.1-3.3,3.3-4.87.72-.95,2.06-1.07,2.73-2.06,1.14-1.69,2.85-3,3.78-4.84a41.8,41.8,0,0,1,2.58-4.17,3.09,3.09,0,0,0,.29-1.11c.19-.74.19-1.69,1.6-1.29a.94.94,0,0,0,1.16-.77,2.3,2.3,0,0,1,1.47-1.81c.74-.27.78-1,.87-1.57a4.26,4.26,0,0,1,.86-1.58,4.13,4.13,0,0,1,2-1.91.74.74,0,0,0,.24-1c-1-.87,0-1.65.06-2.45,0-.4.21-.88.76-1,1.21-.15,1.43-1,1.43-1.84a5.81,5.81,0,0,1,1.6-3.74,15.65,15.65,0,0,0,1.64-2.93c.88-1.74,2.52-3,3.25-4.79.09-.24.21-.32.54-.11a2.56,2.56,0,0,0,3.18-.81c.28-.54.43-1.13,1.3-1.15.39,0,.58-.4.71-.74,1-2.75,2.57-5.27,3.83-7.92.59-1.26,1.2-2.51,1.75-3.78.32-.76.58-1.45,1.74-1.06a1.21,1.21,0,0,0,1.25-.35c2-2,4.34-3.64,5.75-6a65.2,65.2,0,0,1,4.64-6.76c1.28-1.64,1.89-3.79,4-4.89a2.73,2.73,0,0,0,.85-1,17.47,17.47,0,0,1,3.82-4c.88-.72,2.06-1.13,2.58-2.23,0-.1.41-.17.55-.11.35.15-.07.28-.07.43.08,1.45-1,2.66-1,4.1C148.27,42.29,148.23,42.79,148.88,43.12Z"/><path class="cls-2" d="M78.61,274c-.94-.43-1.4-1.33-2.33-1.88s-.35-2-.1-3.1c.32-1.44,1.75-2.14,2.35-3.37a8.92,8.92,0,0,0,1-5,8.05,8.05,0,0,1,1.1-4.34,29.53,29.53,0,0,0,2.45-6.65c.8-3.36,1.37-6.79,2.82-10a7,7,0,0,1,1.45-2.65.61.61,0,0,0,.21-.38c-.13-1.8.91-3.38,1.07-5.14a6.13,6.13,0,0,1,1.55-3.87,35.65,35.65,0,0,0,4.89-7c.77-1.37.73-1.85-.58-2.83-.21-.15-.14-.34-.15-.52a3.57,3.57,0,0,1,0-.8c.08-.42-.87-.58-.43-.89a3.07,3.07,0,0,1,1.68-.88A1.36,1.36,0,0,0,97,213.65a1.34,1.34,0,0,1,.41-.81c1.7-1,1.67-2.56,1.47-4.15a1.39,1.39,0,0,1,.27-1.09c.74-.9.81-2.29,2.35-2.6.44-.09.24-.46.17-.76-.16-.73,0-1.35,1-1.43a.93.93,0,0,0,.88-1.41c-.57-1.28.19-2.15.83-3.07s1.43-1.84.61-3.11c-.49-.76-.44-1.76-1-2.54a.71.71,0,0,1,0-.56c.57-2.06,1-4.3,2.43-5.91a46.49,46.49,0,0,1,3.48-3.69,2.9,2.9,0,0,0,1.16-2.05c0-1.24.94-2.11,1.52-3.08a13.4,13.4,0,0,0,1.88-7.75c-.05-1.26.32-2.61,0-3.78-.73-2.47,1.53-3.46,2.53-5.07,4-1.61,5.1-5.47,7.63-8.22.75-.83-.16-.59-.56-.65l-.08-.06c0-1.05.69-1.87,1-2.81.63-1.82.78-3.75,1.42-5.55A45.14,45.14,0,0,0,128,137a1.46,1.46,0,0,0-.17-1.09c-.78-1.34-.47-2.29,1-2.93.14-.06.4-.13.41-.22.14-1.37,1.66-1.86,2.18-2.94a1.6,1.6,0,0,1,1.84-1,4.69,4.69,0,0,1,1.47.1,2.22,2.22,0,0,0,2.35-.39c.74-.47,1.33-.87.88-1.84a.75.75,0,0,1,.56-1.17c.7-.16.76-.7.59-1.19a5.32,5.32,0,0,1-.16-3.07c.57-1.92,1-4.15,2.38-5.54a24,24,0,0,0,5-8.3c.24-.6.19-1.17,1.4-1.1.69,0,2.21-.33,2.42-1.65a1.12,1.12,0,0,1,.93-1.09c.07,0,.18-.08.19-.14.22-1.66,2.27-2.27,2.62-3.86,0-.18.09-.44.23-.51,2-1.08,2.23-3.18,3.26-4.81.39-.62,1.1-.76,1.5-1.29a25.27,25.27,0,0,0,2.32-3.1,29.9,29.9,0,0,1,3.61-4.56c.63-.79,2.09-.93,2.92-2,.21,1.09-.59,1.63-.61,2.4,0,.58-.72,1.22.29,1.65.18.08.07.28-.08.37-1,.61-.78,2-1.82,2.61-.17.1-.05.58-.07.88-.72,1-1.2,2.57-2.21,3-1.55.59-1.59,1.88-2.55,2.82,1.07,0,1.64-.06.82,1.08a4.64,4.64,0,0,0-.34,3c-1.63,3.23-3.08,6.54-4.41,9.89-.25.64-.93,1.51.66,1.56.27,0,.46.31.56.58,0,.63-.58,1-1,1.36a6.71,6.71,0,0,0-2.18,4.33,6.38,6.38,0,0,1-1,2.35,1,1,0,0,1-1.48.42c-.83-.44-2.46.43-2.84,1.35-.06.13-.15.33-.25.34-1.64.27-1.65,1.61-2.17,2.65s.36,1.43.68,2a1,1,0,0,1-.07,1.22c-1.14,1.42-1,3.07-1,4.69,0,0,0,.09,0,.11,1.24,1.22.17,2.35-.17,3.49a3,3,0,0,0-.09,1c0,.36,0,.79-.39.9-1.45.47-1,1.36-.45,2a4.31,4.31,0,0,1,.94,3.28,11.36,11.36,0,0,1-.9,4.23c-.39.93-1.14,1.71-1.08,2.81a.87.87,0,0,1-.89.8,1.16,1.16,0,0,0-1.14.88c-.16.59-1,1-1.11,1.36-.42,1.57-2.28,2.87-1.09,4.78.5.8-.45,1.31-.84,1.87-.21.31-.86.41-1.41.51-1,.19-1.53-.89-2.46-.42a20.43,20.43,0,0,0-4.2,2.91,21.85,21.85,0,0,0-3.33,3.88c-.18.24-.44.41-.28.8.55,1.28-.35,2.38-.62,3.55-.32,1.41-1.5,2.46-2,3.85a1.75,1.75,0,0,1-1.79,1.11c-.59,0-1.86.19-1.51,1.55.11.38-1,.56-1.46.93.11.43,1.58,1-.15,1.3-.27.05-.19.38-.06.59a1.72,1.72,0,0,0,.85.59c2.11.85,2.25,1.31.92,3.07-.31.42-.52.76-.32,1.24-.57.67-1.4,1.24-1.1,2.28.41-.68,1.38-.93,1.53-1.77.89,0,1.18.28,1.19,1.15a3,3,0,0,1-.89,2.76,5.33,5.33,0,0,0-.17,2.73c1.33-.19.87.7,1.08,1.45-.47-.33-.77-.53-1.06-.75s-.54-.38-.63-.24c-.55.8-1.71.54-2.37,1.47-.83,1.16-1.51,2.44-2.43,3.57-.57.7-.84,1.23-1.74.44-.2-.17-.63,0-.63.13,0,.66-.84.66-1,1.2.4.33,1-.7,1.29,0s1.39,1.64.59,2.73a2,2,0,0,1-.26-.24c-.24-.4-1.75-.34-.55-1.31a1,1,0,0,0-.76-.86c-.56-.07-.68.29-.74.71,0,.24,0,.5,0,.74-.07.76.81,1,1.43,1.4s.57-.33.87-.47c-.68.78.2,1.82-.53,2.62s-1.3,1.75-2.1,2.49a5.39,5.39,0,0,0-1.66,3.07c-.18,1.1-1.47,1.17-1.71,2.09s-1.11,1.27-1.92,1.57a7.49,7.49,0,0,0-4.49,3.88c-.9,2-1.78,3.95-2.62,5.94-.24.56.06,1.35-.85,1.61,0,0,0,.07,0,.08,1,.5.16,1.13.1,1.68-.08.78-.37,1.54-.49,2.32a16,16,0,0,0-.21,2.29c0,.58,0,1-.8.56-.49-.27-1.09-.28-1.54-.68-.28-.25-.89-.24-1,.09-.3,1.09-1.28,1.52-2,2.2-.34.3.14,1.14,0,1.78-.08.48.45,1-.49,1.27-.33.09-.21.43,0,.66a1.42,1.42,0,0,1,.12,2c-.51.8-1.15,1.51-1.71,2.26-.77,1-1.66,2.07-1.45,3.55.1.68-.16,1.39.22,2.08.23.42-1.25.13-.49.87-.8.36.07,1.48-.93,1.75-.25.07-.25.28-.23.48.12.82-.46,1-1.16,1.08a7.52,7.52,0,0,0-1.79.09c-.3.1-1.46-.19-.86.84a.4.4,0,0,1-.11.4c-1.76,1.18-1.63,2.73-1.18,4.44.16.62-.2,1.34.3,2,.19.25-1,1.64-1.4,1.74-.63.17-1,1.8-.56,2.3,0,.05.61,0,.11.19-1.33.61-.67,2-1.35,2.85a.32.32,0,0,0,.09.31.31.31,0,0,0,.43-.08c.17-.26.32-.53.47-.79a.44.44,0,0,1,.54-.17.27.27,0,0,1,.09.47c-1.16.92-1,2.56-2.17,3.51-.19.15-.26,1-.5,1.55S79.19,274.1,78.61,274Z"/><path class="cls-2" d="M167.21,159.28c.38,0,.86.5,1.11-.18.11-.29.29-.27.57-.16,1.65.66,2.89-.19,4.07-1.05.7-.51,1.08-1.32,1.85-1.81.24-.14.52-.65.43-.75-.65-.81,0-1.9-.75-2.67-.1-.1-.45-.37,0-.51.81-.24.82-.88,1-1.47s.25-1,.38-1.5.39-1-.08-1.47c-.11-.77,1-.3,1.07-.92.13-1.12.75-.31,1.18-.24a1.17,1.17,0,0,0,1.32-1,10.61,10.61,0,0,0,.84-3.91c-.1-1.7,1.18-3.13,2.27-4.5s2.62-2.77,2.1-4.85c-.12-.47.35-.84.67-1.17a61,61,0,0,0,5.55-5.82,9.24,9.24,0,0,0,1.35-1.82c.37-.86.64-1.66-.34-2.34-.14-.1-.39-.32-.17-.47.81-.56.86-1.72,1.73-2.12,1.39-.62,1.63-1.88,2.28-2.92.2-.32.25-.71.72-.88A4.23,4.23,0,0,0,198.4,113a4,4,0,0,0,.73-2.11,14.49,14.49,0,0,1,.43-2.61,2.22,2.22,0,0,0,.08-1.11c-.19-.71.09-1,.9-.93,1.12,0,2.94-2.09,2.65-3-.15-.48.08-.54.43-.74.67-.37,1.36-.77,1-1.71-.21-.57.63-.77.64-1.3a.11.11,0,0,0,.17,0c1.79-.64,2.46-2.29,3.65-3.46.09-.09,0-.36-.07-.55a1.62,1.62,0,0,1,.39-1.49,15.77,15.77,0,0,1,3.86-3.55,1.89,1.89,0,0,0,.43-2.71,3.43,3.43,0,0,1,.85-1.38c.68-.54,1.43-1,1.5-2,.05-.57.89-.82,1.26-1.36A14,14,0,0,1,221,79.69c.44-.32.72-.7.5-1.25-.15-.38.09-.66.28-.94a7.23,7.23,0,0,0,1.17-1.86c.7.69,0,1.26,0,1.84a16.39,16.39,0,0,0-.45,2.66c.05.74-1,1.67-1.82,2.31a11.09,11.09,0,0,0-2.18,2.47,15.07,15.07,0,0,1-2.19,2.89A5.49,5.49,0,0,0,215,90a2,2,0,0,0,1.05,2.24c.53.31.09.45,0,.53-1.32,1.25-2.27,2.78-3.56,4.07a3,3,0,0,0-.61,3.63c.44.91.09,1.81.24,2.7.07.39-.33.35-.56.48-1.13.64-2.48.46-3.67.88a3,3,0,0,0-1.52,1.11c-.55.71-1,1.49-1.55,2.18a3.24,3.24,0,0,0-.42,2.85,3,3,0,0,0-1.92,2.09c-.45,2.13-1.58,4-2.09,6.15-.9.34-.64,1.28-1.12,1.84-1.45,1.7-1.58,3.75-1.8,5.77-.57,0-.73.37-.83.83a6.91,6.91,0,0,1-.52,1.53c-1.12,2.24-3,4.07-4.11,6.29-.49,1-1.54,1.5-1.82,2.46a4.44,4.44,0,0,1-1.38,1.86c-.44.43-1.16.41-1.35,1.29-.29,1.33-2.74,1.07-2.83,2.77a.58.58,0,0,1-.24,0c-.75-.08-.74.46-.84.88-.15.6-.29,1.19-.39,1.8-.35,2.06-1.35,4-1.77,6a6.7,6.7,0,0,1-1.4,3c-.17.19-.33.32-.19.58.54,1-.09,1.74-.59,2.53-.91,1.43-2.27,2.57-3,4.11A4.52,4.52,0,0,1,173,165c-1.44.3-2.09,1.69-3.48,2-.08,0-.09.28-.15.42-.86,2.18-1.79,4.34-2.55,6.54a7.9,7.9,0,0,0-.82,2.72,6.16,6.16,0,0,1-1.35,4.34,3.9,3.9,0,0,0-1,3.3c.13.56-.31,1-.52,1.5s-.79,1-.32,1.35.84-.35,1.2-.66a1.62,1.62,0,0,1,1.86,0,.61.61,0,0,1,.18,1c-1.19,1-1.63,2.52-3.07,3.28s-1.81,2-2.23,3.33c-.12.38.09.53.38.73a3.34,3.34,0,0,1,1.55,2.89c0,1.83-1.29,3.46-1.09,5.34,0,.06-.07.13-.1.2a31.77,31.77,0,0,0-2.4,6.64c-.11.62-.06,1.53-1.15,1.68a.23.23,0,0,0-.13.37.32.32,0,0,0,.42.15c1-.55,2.42-.41,3.1-1.65a3.4,3.4,0,0,1,2.91-1.89c-.13.58-.51,1.12.08,1.74.34.34-.44.38-.59.76-.36.93-.56,2-1.94,2.4a2.61,2.61,0,0,0-1.64,1.16.89.89,0,0,1-.74.56,1.68,1.68,0,0,0-1.76,1.59c-.14.79-.8,1.23-1.18,1.82-.83,1.31-1,2.81-1.7,4.14-.19.35.16.94.53,1.2s.55.73.83,1.13l-1,.12c.79.51.23.83.07,1.32-.21.68-.28.92-1.14.88-1.15-.06-2,.95-2.25,2.48a6.56,6.56,0,0,0-.24-.78.36.36,0,0,0-.49-.22c-.14.06-.35.27-.33.31.57.84-.64.93-.68,1.31-.09.71-.49,1.62.19,2.2,1.33,1.13.9,2.12.17,3.36a7.74,7.74,0,0,0-.91,2.64,31.5,31.5,0,0,1-1,3.61.58.58,0,0,0,.05.21c.8,2.06-.94,3.14-2.31,3.87-1,.53-.8,1.3-1.31,1.85-.2.23-.09.57-.68.49-.43-.06-.92.56-.77.91a3.47,3.47,0,0,1,0,2.14c-.16.88.61,1.42,1.59,1.58.59.1,1.48,0,1.21,1.28a21.7,21.7,0,0,1-1.22,3.19c-.23.61-1.12.75-1.64,1.23-.79.72-1,1.72-1.61,2.5-.06.06.07.27-.12.37a6.31,6.31,0,0,0-3.3,4.84c-.4,2.22-1.53,4.28-1.81,6.48-.12,1-.47,1.95-.55,2.92a12.57,12.57,0,0,1-.84,2.42c-.57-.18-.22-.81-.73-.91-.06-.14-.11-.29-.16-.44.25-1,.23-2.06.46-3.05a127,127,0,0,1,3.84-13.85c.06-.18.37-.39.12-.57s-.51,0-.74.22c-.43.38-.28,1.09-1.12,1.52.41-1-.22-1.73.64-2.71a2.9,2.9,0,0,0,.38-3.61c.76,0,1.76.41,1.68-.11a3.85,3.85,0,0,1,.82-2.73c1-1.71.59-3.88,2.18-5.45.54-.53.48-1.14.73-1.24.58-.23.76-.72,1.05-1.17a2.76,2.76,0,0,0,.55-2.12c-.12-.53,1.21-.45.4-1.06-.64-.49-.11-.77.21-1.07.16-.15.7-.16.55-.31-.76-.74-.29-1.6-.31-2.37a14.54,14.54,0,0,1,.41-4.95,2.07,2.07,0,0,0,.07-1.29,4.63,4.63,0,0,1,1.58-5.39,2.24,2.24,0,0,0,.72-3.14c-.24-.33.1-.6.19-.83.51-1.26.13-2.71,1.41-3.86.55-.48.82-1.52,1.49-2.11s.05-1.26,0-1.86c-.07-1.29.06-2.58-.07-3.88-.11-1-.7-2.32.67-3.34a3.51,3.51,0,0,0,1.06-2.35c.17-1.76,1.13-3.22,1.81-4.77.32-.75.55-1.38,0-2.1a1.52,1.52,0,0,1-.15-1.8c.94-.82.36-1.82.35-2.74,0-.33-.31-.77.14-.91,1-.34.35-.87.25-1.34,1.09-.49.12-1.28.31-1.9a3.29,3.29,0,0,0,1.19-3.47,1.43,1.43,0,0,1,.91-1.11c.62-.26,1.13-.84,1-1.28a6.79,6.79,0,0,1,.06-2.21c0-.79.63-1.42.51-2.14a3.25,3.25,0,0,1,.8-2.51,2.71,2.71,0,0,0,0-3.33c-.51-.79-1.06-1.81.12-2.7.26-.2.91-.56.3-1.08a.41.41,0,0,0,0-.19.82.82,0,0,0,.79-.49,2.68,2.68,0,0,0,1-.89c.22,0,.64,0,.6-.24-.19-1.19,1.06-1.4,1.57-2.11.15-.11.14-.21,0-.3h-.05v-.1l-.1-.06.08-.07,0-.09h0c.71,0,1.15-.31.93-1a2.79,2.79,0,0,1,.26-2.09c.24-.55,1-.72,1-1.36.08-.17,0-.42.3-.48,0,.2.11.28.3.23s.15-.08-.31-.43A1.6,1.6,0,0,0,167.21,159.28Z"/><path class="cls-2" d="M164.22,208.58a3.4,3.4,0,0,0-2.91,1.89c-.68,1.24-2.07,1.1-3.1,1.65a.32.32,0,0,1-.42-.15.23.23,0,0,1,.13-.37c1.09-.15,1-1.06,1.15-1.68a31.77,31.77,0,0,1,2.4-6.64c0-.07.11-.14.1-.2-.2-1.88,1-3.51,1.09-5.34a3.34,3.34,0,0,0-1.55-2.89c-.29-.2-.5-.35-.38-.73.42-1.3.85-2.59,2.23-3.33s1.88-2.32,3.07-3.28a.61.61,0,0,0-.18-1,1.62,1.62,0,0,0-1.86,0c-.36.31-.64,1.07-1.2.66s.13-.9.32-1.35.65-.94.52-1.5a3.9,3.9,0,0,1,1-3.3,6.16,6.16,0,0,0,1.35-4.34,7.9,7.9,0,0,1,.82-2.72c.76-2.2,1.69-4.36,2.55-6.54.06-.14.07-.4.15-.42,1.39-.32,2-1.71,3.48-2a4.52,4.52,0,0,0,3.17-2.5c.77-1.54,2.13-2.68,3-4.11.5-.79,1.13-1.54.59-2.53-.14-.26,0-.39.19-.58a6.7,6.7,0,0,0,1.4-3c.42-2.07,1.42-4,1.77-6,.1-.61.24-1.2.39-1.8.1-.42.09-1,.84-.88a.58.58,0,0,0,.24,0c.09-1.7,2.54-1.44,2.83-2.77.19-.88.91-.86,1.35-1.29a4.44,4.44,0,0,0,1.38-1.86c.28-1,1.33-1.5,1.82-2.46,1.12-2.22,3-4,4.11-6.29a6.91,6.91,0,0,0,.52-1.53c.1-.46.26-.8.83-.83.4.53-.25.85-.36,1.28-.32,1.34,0,2.75-.58,4-.26.6.36.49.6.64s.78.08.55.53a8.91,8.91,0,0,0-1,2.62c-.22,1.21-1.54,1.95-1.58,3.3,0,.83-1.13.79-1.74,1.06s-.79.53-.7,1.09a2.6,2.6,0,0,1-.31,1.84,1.27,1.27,0,0,0-.07,1.16c.85,1.59.2,3.1-.23,4.59a4,4,0,0,0,0,2.14c.38,1.57-.16,2.39-1.8,2.82-.21,0-1.06-.25-.71.6.11.25-.35.51-.7.22-.78-.64-.92,0-1.16.46s-.53.93-.77,1.41c-.1.19-.38.38-.17.61a3.35,3.35,0,0,1,.78,2.76,1.31,1.31,0,0,1-1.21,1.4c-.93.16-.86.14-.75,1s-1.08.43-1.32,1c-.82-.56-.89.22-1.23.56-.18.18-.25.4-.4.56-.34.36-.17-1.16-.75-.21-.16.27.39.88-.53.76-.51-.06-.41.41-.38.68.17,1.74,0,3.52,1.45,5,.26.28.39,1,.71,1.39.13.17.14.33-.11.47s-.13.13.06.2.12.09.18.14c.37.34,1,3.27.67,3.52a7.57,7.57,0,0,0-1.62,1.24c-.13.17-.46.22-.3.52s.29.17.52.11c.41-.12.62.2.74.47s-.14.47-.34.67c-.72.72-1.87.86-2.52,1.72-.47.62-1.27,1-1.52,1.8a.47.47,0,0,1-.38.38,16.27,16.27,0,0,0-4,2.19c-.63.38-.82,1-1.21,1.5-.54.68-.84.6-1.41.17-.86-.65-1-.61-1.25.42-.05.2-.13.28-.3.25-1.56-.31-1.19,1.34-2.06,1.75-.11.05-.11.58,0,.75,1.07,1.32.51,2.58-.06,3.86a2.12,2.12,0,0,0-.2.87c.05,1.71-1.15,2.62-2.53,3.4a.42.42,0,0,0-.25.55c.17.6-.2.9-.71,1.16a16,16,0,0,0,3.63,2c-.26.36-.49.19-.68.1-.48-.24-.75-.22-.79.38a9.12,9.12,0,0,1-.34,1.44c-.15-.05-.16,1.07-.48,0-.09-.3-.42-.06-.45.19-.07.52-.87,1.05,0,1.55.1,0,.15.07,0,.14-1.07.63-.89,1.66-1,2.6C164.46,208.43,164.31,208.5,164.22,208.58Z"/><path class="cls-2" d="M2.31,213.63l-.05-.4a2.16,2.16,0,0,0,1.08-1.82c0-.47,0-1,1-.66.73.28,1-.41,1.16-.9a9.52,9.52,0,0,0,.71-3.67c-.13-1,.62-2.18,0-2.84S5.69,201.8,5.6,201A1.15,1.15,0,0,1,5.91,200c1-.93,0-2.07.36-3.1a24.76,24.76,0,0,0,.4-2.72c.1-.52-.07-.78-.6-.7s-.55-.25-.5-.54c.25-1.45.15-3,1.48-4.11.76-.64.64-1.63,1.12-2.38.24-.37-.08-.55-.45-.63s-.82.11-1.21-.13c.29-1.3,1.23-2.31,1.76-3.5a3.5,3.5,0,0,0,.5-1.64c-.17-1.36.7-2.21,1.59-3a14.17,14.17,0,0,0,2.7-3.3c.58-.93,1.41-2.07.46-3.37-.84-1.14-.37-2.68-1.16-3.89a.66.66,0,0,1,.06-.65c1.32-1.48,1.14-3.38,1.71-5.07s1-3.59,2.67-5.08A10.53,10.53,0,0,0,19,152.31a2.17,2.17,0,0,1,1-1.24c1.77-.82,1.62-2.27,1.93-3.76.39-1.86.31-4,2.16-5.45a2,2,0,0,0,.38-1.94,10,10,0,0,1,.34-5.09,13.81,13.81,0,0,1,2-3.74c.74-1,.8-2.4,1.79-3.24a38.55,38.55,0,0,1,4.05-3.47c.18-.11.42-.46.36-.55-.75-1.1.27-1.94.49-2.88.17-.69.15-1.14-.85-1,.14-.34,1-.4.38-1-.22-.19,0-.41.07-.62a41.29,41.29,0,0,1,5.62-8,7.53,7.53,0,0,0,1.57-3c.07-.28.09-.69-.18-.69-.86,0-1.29-1.44-2.39-.44-.12-.73-.42-1.31.76-1.36.37,0,1.58-.07,1.1-1.13,0,0,.07-.17.13-.18,1.5-.41,2.4-1.54,3.55-2.37a16.74,16.74,0,0,1,2-1.24,1.09,1.09,0,0,0,.4-1.62c-.16-.3-.54-.74-.44-.88.88-1.26.65-2.63.67-4,0-.38.47-.55.76-.71a7.14,7.14,0,0,0,2.46-2.55,10.41,10.41,0,0,1,2.58-2.88c1.93-1.31,3.15-3.11,4.7-4.68a1.93,1.93,0,0,0,.71-1.51,7.09,7.09,0,0,1,.79-2.62c.17-.47.54-.41.91-.28.62.21,1,0,1-.57s.55-.81,1-1c2.24-1.05,3.5-2.94,4.86-4.75a34.12,34.12,0,0,0,3.38-6.65c.92-2.06,2.31-3.82,3.34-5.78.34-.65,1.22-.67,1.56-1.24s.54-1.54,1.85-1.18c.22.06.8-1,1.23-1.57s.79-1.52,1.82-1.7c.21,1.15.47,2.24-.4,3.39-.43.58-1.07,1.42-.66,2.34-.34.3-.24.56,0,.9.37.52-.11,1.17-.46,1.1-.9-.19-.8.65-1.23.77-1,.28-.38.73-.24,1.13s-.1.42-.44.57c.13-.6-.28-.89-.62-1.3-.55.55.23,1,0,1.43-.6.13-1.76-.16-1.32.9.29.7.38,1.42.66,2.1,0,.74-.75,1.07-.89,1.86C72.93,71.05,71,72.43,69.62,74a4.09,4.09,0,0,0-1.36,1.47c-.69,1.21-1.24,2.72-3.2,2.79a1.59,1.59,0,0,0-1.17.74A25.27,25.27,0,0,0,62,81.68a9.92,9.92,0,0,0-1.07,2.45,10.63,10.63,0,0,1-1,2.65c-.27.52-.31.87,0,1.18a1.4,1.4,0,0,1,.34,1.5c-.31.82.14,2-.61,2.43-1.07.56-.43.82-.08,1.24-.13,1-1.67,1.11-1.63,2.22a1.81,1.81,0,0,0-.34,0c-1.1.28-.9-.68-1.26-1.12v-.41l.17-.18-.18-.1c-.26-.92-.8-.51-.91,0-.37,1.56-1.23,3-1.1,4.68.18,2.26-1.1,3.94-2.63,5.38-.65.61-.43.89-.21,1.35.57,1.2.19,1.68-.92,2.52s-2.24,1.74-1.93,3.26c.11.51-.05.62-.48.59s-1,.07-1.32-.42a.39.39,0,0,0-.59-.18.44.44,0,0,0-.31.42c-.1,2.22-1.2,4.39-.57,6.63.24.85-.42,1.85.54,2.55l0,.27a4.49,4.49,0,0,1-2.17,2.87c-.24.11,0,.33,0,.51a2.87,2.87,0,0,1-.11,1.78c-.26.49-.33.92-1.2.65a2.49,2.49,0,0,0-1.8.36c-.09.86-.81.94-1.29,1.37s-.09,1.2.47,1.68.8.89.14,1.62-.23,1.5-.13,2.29,0,1.64-1,2c-.31.79-1.27.6-1.87,1-.77.5-.85,1.22-1.24,1.82s-1.24.87-.77,1.71c-1.18.32-.59,1.27-.85,1.93-.18.44-.11.52.27.76s.53.76.17,1.27-1.28.76-.43,1.49c-.75.24-.76.92-1,1.45-.11.26-.22.61.16.82,1,.59-.48.29-.24.59-.12,1.25-1.12,2.33-1,3.6a5,5,0,0,1-.5,2.5c-.21.53-.33.66-.91.49a1.33,1.33,0,0,0-1.88,1.1c-.17.83-.5,1.81-1.29,2.06-1.19.37-.82,1.14-1,1.81-1.08-.08-2.16,0-2.09,1.31.09,1.5.43,3,.66,4.49l0,.22c-.41.17-.08.32,0,.47-.35.89.58,1.49.6,2.33a9.45,9.45,0,0,1-1.36,4.43.73.73,0,0,0,0,.8c.63,1.18.44,1.52-.95,1.63-.75.06-1,.62-1.19,1s.52.29.74.54.66.18.66.68a3.28,3.28,0,0,1-1.21.23,1.61,1.61,0,0,0-1.23.1c-1.42.75-1.26,2.17-1.82,3.27-.44.86.79,1.76.1,2.69a.34.34,0,0,0-.36.23c-.22,0-.27.22-.33.39h0l-1.42.15c-.16,0-.27,0-.21.17a2.3,2.3,0,0,1,0,1.35c-.32.77-.93.22-1.39.33s-1.26.35-1.34,1.09l-.11.15.35.06a2.16,2.16,0,0,0-.35,1.07h0c-.39.24-.92.28-1.16.72-.14.17-.42.35,0,.46l.62.39v-.08l0,.08c.36.73-.63,1.5.08,2.22-.25.74.24,1.43.16,2.2-.15,1.44-.53,2.83-.81,4.24-.08.35.73,1.16-.55.9-.67.18-1.4-.68-2,.08a6.54,6.54,0,0,0-1.2,1.62,7.15,7.15,0,0,0-.56,3.39c0,.7-.78,1.32-.24,2.07h0c-.26.07-.44.21-.45.48,0,.62.32,1.26-.23,1.82l0,.48A4.42,4.42,0,0,0,8.09,212c-.46.22-.88.52-.73,1s.33.73-.14,1.18a1.13,1.13,0,0,0,.48,1.53c.58.24.52.62.21.89a2.43,2.43,0,0,0-.79,1.9,3.17,3.17,0,0,1-.43,1.72c-1,1.27-.92,2.72-1.12,4.13-.52,0-.72.27-.88.64A8.59,8.59,0,0,0,4,228a2,2,0,0,1-1.1,2.07.6.6,0,0,0-.34.59,7.07,7.07,0,0,1-.8,2.9c-.34.83-.79,1.62-1.2,2.43a.91.91,0,0,1-.43-.9A22.41,22.41,0,0,1,.87,230c.65-1.91.27-3.89,1-5.81.51-1.35,1.33-2.66,1.39-4.16,0-.56,1-1.25-.43-1.49-.33,0-.05-.46-.06-.71C2.68,216.41,3.06,215,2.31,213.63Z"/></g></g></g></svg>