<svg xmlns="http://www.w3.org/2000/svg" viewBox="0 0 26.05 21.17"><defs><style>.cls-1{fill:#15255c;}</style></defs><title>twitter</title><g id="Capa_2" data-name="Capa 2"><g id="Capa_1-2" data-name="Capa 1"><path class="cls-1" d="M26.05,2.51A10.9,10.9,0,0,1,23,3.35a5.33,5.33,0,0,0,2.35-3,10.7,10.7,0,0,1-3.39,1.3,5.35,5.35,0,0,0-9.25,3.65,5.43,5.43,0,0,0,.14,1.22A15.19,15.19,0,0,1,1.81,1,5.35,5.35,0,0,0,3.47,8.11a5.21,5.21,0,0,1-2.42-.66v.06a5.34,5.34,0,0,0,4.28,5.24,5,5,0,0,1-1.4.19,5.58,5.58,0,0,1-1-.09,5.36,5.36,0,0,0,5,3.71,10.73,10.73,0,0,1-6.63,2.29A10.73,10.73,0,0,1,0,18.77a15.09,15.09,0,0,0,8.19,2.4A15.1,15.1,0,0,0,23.4,6c0-.23,0-.46,0-.69A10.62,10.62,0,0,0,26.05,2.51Z"/></g></g></svg>