<svg xmlns="http://www.w3.org/2000/svg" viewBox="0 0 21.18 21.17"><defs><style>.cls-1{fill:#15255c;}</style></defs><title>wap-fill</title><g id="Capa_2" data-name="Capa 2"><g id="Capa_1-2" data-name="Capa 1"><path class="cls-1" d="M10.55,0A10.51,10.51,0,0,0,0,10.49a10.74,10.74,0,0,0,1.63,5.69l.27.4-1,3.7,3.79-1,.4.23a10.45,10.45,0,0,0,5.51,1.63A10.7,10.7,0,0,0,21.18,10.49,10.55,10.55,0,0,0,10.55,0Zm6.52,14.42a2.63,2.63,0,0,1-1.14,1.68,3.62,3.62,0,0,1-3,.35A13.39,13.39,0,0,1,5.69,11.2,5.79,5.79,0,0,1,4.37,6.7,3.77,3.77,0,0,1,5.6,4.8a1,1,0,0,1,.71-.26l.84,0a.39.39,0,0,1,.35.27L8.78,7.72a.51.51,0,0,1-.09.44L7.63,9.35a.36.36,0,0,0,0,.35,8.54,8.54,0,0,0,4.63,4,.32.32,0,0,0,.35-.09l1.1-1.41a.43.43,0,0,1,.54-.13L17,13.31a.46.46,0,0,1,.23.49Z"/></g></g></svg>