<svg xmlns="http://www.w3.org/2000/svg" viewBox="0 0 14.75 14.75"><defs><style>.cls-1{fill:#302d5c;}</style></defs><title>wap</title><g id="Capa_2" data-name="Capa 2"><g id="Capa_1-2" data-name="Capa 1"><path class="cls-1" d="M14.75,7.18A7.24,7.24,0,0,1,4,13.47L0,14.75l1.31-3.86a7.09,7.09,0,0,1-1-3.71,7.24,7.24,0,0,1,14.48,0Zm-7.24-6a6.06,6.06,0,0,0-6.09,6,6,6,0,0,0,1.16,3.54L1.82,13l2.34-.74A6.05,6.05,0,1,0,7.51,1.15Zm3.65,7.69c0-.07-.16-.12-.34-.21s-1.05-.51-1.21-.57-.28-.09-.4.09-.46.57-.56.69-.21.13-.39.05A5,5,0,0,1,6.84,8a5.17,5.17,0,0,1-1-1.22c-.1-.17,0-.27.08-.36s.17-.2.26-.31a1.08,1.08,0,0,0,.18-.29.34.34,0,0,0,0-.31c-.05-.09-.4-.95-.55-1.3s-.3-.3-.4-.3H5.07a.63.63,0,0,0-.47.22A2,2,0,0,0,4,5.6,3.44,3.44,0,0,0,4.7,7.42a7.37,7.37,0,0,0,3,2.66c1.81.7,1.81.46,2.13.43a1.79,1.79,0,0,0,1.2-.83A1.39,1.39,0,0,0,11.16,8.84Z"/></g></g></svg>