<svg xmlns="http://www.w3.org/2000/svg" viewBox="0 0 23.81 23.81"><defs><style>.cls-1{fill:#fdfdfd;}.cls-2{fill:#55cc6c;}</style></defs><title>wats</title><g id="Capa_2" data-name="Capa 2"><g id="Capa_1-2" data-name="Capa 1"><path class="cls-1" d="M5.26,21.72,5.7,22a11.81,11.81,0,0,0,6.2,1.84,12,12,0,0,0,11.91-12A11.87,11.87,0,0,0,11.85,0a11.86,11.86,0,0,0-10,18.2l.29.45L1,22.82Z"/><path class="cls-2" d="M8,5.16l-.94,0a1.11,1.11,0,0,0-.79.3A4.07,4.07,0,0,0,4.91,7.54C4.56,9,5.11,10.81,6.4,12.6a15.06,15.06,0,0,0,8.13,5.9,4,4,0,0,0,3.38-.4,2.88,2.88,0,0,0,1.28-1.88l.15-.7A.5.5,0,0,0,19.1,15L16,13.54a.46.46,0,0,0-.59.15l-1.24,1.59a.39.39,0,0,1-.4.1,9.67,9.67,0,0,1-5.21-4.47.38.38,0,0,1,.05-.4L9.77,9.18a.62.62,0,0,0,.1-.5L8.43,5.46a.44.44,0,0,0-.4-.3"/></g></g></svg>