<svg xmlns="http://www.w3.org/2000/svg" viewBox="0 0 66.35 57.67"><defs><style>.cls-1{fill:#ffb93a;}.cls-2{fill:#60dc4d;}.cls-3{fill:#00ba63;}.cls-4{fill:#fff;}.cls-5{fill:#ffde46;}.cls-6{fill:#ffb64c;}</style></defs><title>table-ico1</title><g id="Capa_2" data-name="Capa 2"><g id="Capa_1-2" data-name="Capa 1"><polygon class="cls-1" points="57.59 57.67 7.92 57.67 16.68 8 66.35 8 57.59 57.67"/><path class="cls-2" d="M51.36,3.37V30.73A3.37,3.37,0,0,1,48,34.1H3.37A3.37,3.37,0,0,1,0,30.73V3.37A3.37,3.37,0,0,1,3.37,0H48A3.37,3.37,0,0,1,51.36,3.37Z"/><path class="cls-3" d="M51.36,3.37V30.73A3.37,3.37,0,0,1,48,34.1H25.68V0H48A3.37,3.37,0,0,1,51.36,3.37Z"/><path class="cls-4" d="M27.19,6.64V0h-3V6.64a10.52,10.52,0,0,0,0,20.82V34.1h3V27.46a10.52,10.52,0,0,0,0-20.82Zm-3,17.77a7.51,7.51,0,0,1,0-14.72Zm3,0V9.69a7.51,7.51,0,0,1,0,14.72Z"/><path class="cls-5" d="M9.43,32.05a7.48,7.48,0,0,0-2.19-5,7.5,7.5,0,0,0-5-2.21H0v5.89A3.37,3.37,0,0,0,3.37,34.1H9.43Z"/><path class="cls-6" d="M51.36,25v5.69A3.37,3.37,0,0,1,48,34.1H42.13V32.42A7.51,7.51,0,0,1,49.46,25Z"/><path class="cls-5" d="M9.43,0V1.94A7.53,7.53,0,0,1,2.1,9.29H0V3.37A3.37,3.37,0,0,1,3.37,0Z"/><path class="cls-6" d="M51.36,3.37V9.69h-2A7.53,7.53,0,0,1,42,2.35V0h6A3.37,3.37,0,0,1,51.36,3.37Z"/><path class="cls-4" d="M7.39,17h0V12.43a1.51,1.51,0,1,0-3,0v3H0v3H4.38v3a1.51,1.51,0,0,0,3,0V17Z"/><path class="cls-4" d="M51.36,15.46H47v-3a1.51,1.51,0,1,0-3,0v9a1.51,1.51,0,0,0,3,0v-3h4.38Z"/></g></g></svg>