<svg xmlns="http://www.w3.org/2000/svg" viewBox="0 0 58.43 71.23"><defs><style>.cls-1{fill:#ffb93a;}.cls-2{fill:#fff;}.cls-3{fill:#ff4f19;}.cls-4{fill:#ed2500;}.cls-5{fill:#ff9800;}.cls-6{fill:#ff8700;}</style></defs><title>table-ico5</title><g id="Capa_2" data-name="Capa 2"><g id="Capa_1-2" data-name="Capa 1"><polygon class="cls-1" points="49.68 71.23 0 71.23 8.76 21.55 58.44 21.55 49.68 71.23"/><path class="cls-2" d="M41.37,37.13l-6,5.89,1.42,8.31a2.19,2.19,0,0,1-.88,2.17,2.23,2.23,0,0,1-2.33.17l-7.47-3.93L18.6,53.67a2.21,2.21,0,0,1-3.21-2.34L16.82,43l-6.05-5.89A2.22,2.22,0,0,1,12,33.35l8.35-1.21,3.74-7.57a2.18,2.18,0,0,1,2-1.23,2.21,2.21,0,0,1,2,1.23l3.73,7.57,8.35,1.21a2.22,2.22,0,0,1,1.23,3.78Z"/><path class="cls-2" d="M41.37,37.13l-6,5.89,1.42,8.31a2.19,2.19,0,0,1-.88,2.17,2.23,2.23,0,0,1-2.33.17l-7.47-3.93V23.34a2.21,2.21,0,0,1,2,1.23l3.73,7.57,8.35,1.21a2.22,2.22,0,0,1,1.23,3.78Z"/><path class="cls-3" d="M37.07,5.91l-6.13,11.7H21.2L15.07,5.91A4,4,0,0,1,18.64,0H33.5A4,4,0,0,1,37,2,4,4,0,0,1,37.07,5.91Z"/><path class="cls-4" d="M37.07,5.91l-6.13,11.7H26.07V0H33.5A4,4,0,0,1,37,2,4,4,0,0,1,37.07,5.91Z"/><rect class="cls-2" x="24.49" width="3.16" height="17.61"/><path class="cls-5" d="M32.4,20.12a6.33,6.33,0,1,1-6.33-6.33A6.34,6.34,0,0,1,32.4,20.12Z"/><path class="cls-6" d="M32.4,20.12a6.34,6.34,0,0,1-6.33,6.33V13.79A6.34,6.34,0,0,1,32.4,20.12Z"/></g></g></svg>