<svg xmlns="http://www.w3.org/2000/svg" viewBox="0 0 80.48 54.83"><defs><style>.cls-1{fill:#ffb93a;}.cls-2{fill:#ff9800;}.cls-3{fill:#ff8700;}.cls-4{fill:#b28964;}.cls-5{fill:#9f7953;}.cls-6{fill:#ffde46;}.cls-7{fill:#ffb64c;}</style></defs><title>table-ico16</title><g id="Capa_2" data-name="Capa 2"><g id="Capa_1-2" data-name="Capa 1"><polygon class="cls-1" points="71.72 54.83 22.05 54.83 30.81 5.15 80.48 5.15 71.72 54.83"/><path class="cls-2" d="M42,43.28V48.2a5.72,5.72,0,0,1-5.72,5.72H17.54a5.73,5.73,0,0,1-5.72-5.72V43.28Z"/><path class="cls-3" d="M26.6,43.28H42V48.2a5.72,5.72,0,0,1-5.72,5.72H26.6Z"/><path class="cls-4" d="M53.74,15.65v1.6a6.06,6.06,0,0,1-9.2,5.19l-.27-.16,0,16.13v4.43a3.59,3.59,0,0,1-3.61,3.6H13.34a3.58,3.58,0,0,1-1.52-.33,3.76,3.76,0,0,1-1-.72,3.59,3.59,0,0,1-1-2.55V22.1l-.82.42a6.07,6.07,0,0,1-6-.22A6.05,6.05,0,0,1,0,17.09V15.78A14.26,14.26,0,0,1,10.91,1.87L15,.88,18.11.14a4,4,0,0,1,3.77,1l2.66,2.65a2.79,2.79,0,0,0,2,.81h.05a2.8,2.8,0,0,0,1.94-.84l2.54-2.6A4,4,0,0,1,34.8.09l3.56.77,4.18.91a14.17,14.17,0,0,1,11.2,13.88Z"/><path class="cls-5" d="M53.74,15.65v1.6a6.06,6.06,0,0,1-9.2,5.19l-.27-.16,0,16.13v4.43a3.59,3.59,0,0,1-3.61,3.6H26.6V4.65a2.8,2.8,0,0,0,1.94-.84l2.54-2.6A4,4,0,0,1,34.8.09l3.56.77,4.18.91a14.17,14.17,0,0,1,11.2,13.88Z"/><path class="cls-2" d="M38.36.86c-.19,1-.39,1.93-.39,2a11.55,11.55,0,0,1-11.3,9.24h-.24a11.51,11.51,0,0,1-11.1-9.43c0-.08-.17-1-.29-1.74L18.11.14a4,4,0,0,1,3.77,1l2.66,2.65a2.79,2.79,0,0,0,1.89.81h.17a2.8,2.8,0,0,0,1.94-.84l2.54-2.6A4,4,0,0,1,34.8.09Z"/><path class="cls-3" d="M38.36.86c-.19,1-.39,1.93-.39,2a11.55,11.55,0,0,1-11.3,9.24H26.6V4.65a2.8,2.8,0,0,0,1.94-.84l2.54-2.6A4,4,0,0,1,34.8.09Z"/><polygon class="cls-2" points="44.31 41.57 9.74 41.57 9.74 38.41 44.3 38.41 44.31 41.57"/><path class="cls-6" d="M20.28,17.6a1.16,1.16,0,0,1,.6-1.09l2.7-1.64a1.07,1.07,0,0,1,.6-.15,1.75,1.75,0,0,1,1,.29.83.83,0,0,1,.44.72v13a.78.78,0,0,1-.47.73,2.33,2.33,0,0,1-1.13.26,2.39,2.39,0,0,1-1.13-.26.8.8,0,0,1-.47-.73V18.33l-.59.37a.94.94,0,0,1-.51.17.86.86,0,0,1-.72-.39A1.47,1.47,0,0,1,20.28,17.6Z"/><path class="cls-7" d="M26.6,17.6a1.17,1.17,0,0,1,.59-1.09l2.71-1.64a1.05,1.05,0,0,1,.59-.15,1.79,1.79,0,0,1,1,.29.85.85,0,0,1,.44.72v13a.8.8,0,0,1-.47.73,2.59,2.59,0,0,1-2.26,0,.8.8,0,0,1-.47-.73V18.33l-.59.37a1,1,0,0,1-.52.17.89.89,0,0,1-.72-.39A1.46,1.46,0,0,1,26.6,17.6Z"/><polygon class="cls-3" points="44.31 41.57 26.6 41.57 26.6 38.41 44.3 38.41 44.31 41.57"/></g></g></svg>