<svg xmlns="http://www.w3.org/2000/svg" viewBox="0 0 58.43 72.24"><defs><style>.cls-1{fill:#ffb93a;}.cls-2{fill:#ff4f19;}.cls-3{fill:#e50e3d;}.cls-4{fill:#ed2500;}.cls-5{fill:#e0e0e2;}.cls-6{fill:#c10019;}</style></defs><title>table-ico3</title><g id="Capa_2" data-name="Capa 2"><g id="Capa_1-2" data-name="Capa 1"><polygon class="cls-1" points="49.68 72.24 0 72.24 8.76 22.57 58.44 22.57 49.68 72.24"/><path class="cls-2" d="M33,30.62V46.31a8.64,8.64,0,0,1-8.63,8.63H15.22c-5.3,0-8.8-1.19-10.69-3.62-1.61-2.07-1.95-4.93-1-8.49h0L4.61,38.5c-1.3-1.28-1.39-2.84-1.28-5.74V4.7a4.69,4.69,0,0,1,9.38,0v8.66a5,5,0,0,1,6.51,3.12,5,5,0,0,1,6.48,2.37A4.87,4.87,0,0,1,28,18.29a5,5,0,0,1,5,5v7A1.58,1.58,0,0,1,33,30.62Z"/><path class="cls-3" d="M33,30.62V46.31a8.64,8.64,0,0,1-8.63,8.63H18V14.5a5,5,0,0,1,1.22,2,5,5,0,0,1,6.48,2.37A4.87,4.87,0,0,1,28,18.29a5,5,0,0,1,5,5v7A1.58,1.58,0,0,1,33,30.62Z"/><path class="cls-4" d="M33,30.22v-7a5,5,0,0,0-7.26-4.43,5,5,0,0,0-6.48-2.36,4.89,4.89,0,0,0-1.22-2A4.94,4.94,0,0,0,14.48,13a5.19,5.19,0,0,0-1.77.32V4.69a4.69,4.69,0,0,0-9.38,0V32.74c-.11,2.91,0,4.46,1.28,5.74L3.52,42.82h0c-.94,3.56-.6,6.41,1,8.49,1.89,2.43,5.39,3.61,10.69,3.61h9.16A8.64,8.64,0,0,0,33,46.29V30.6A1.65,1.65,0,0,0,33,30.22Zm-6.75-7a1.77,1.77,0,0,1,3.53,0v7.89a1.77,1.77,0,1,1-3.53,0ZM19.46,21A1.77,1.77,0,0,1,23,21v7.89a1.77,1.77,0,1,1-3.53,0Zm-6.75-3a1.77,1.77,0,1,1,3.53,0V25.9a1.77,1.77,0,0,1-3.53,0ZM29.79,46.29a5.41,5.41,0,0,1-5.41,5.41H15.53c-4.36,0-7.2-.75-8.46-2.37-1-1.24-1.11-3.16-.44-5.71h0L8.57,36a1.76,1.76,0,1,1,3.42.87l-1.18,4.75a1.61,1.61,0,0,0,3.12.78l1.19-4.75A5,5,0,0,0,6.54,33.1c0-.08,0-.17,0-.26V4.69a1.47,1.47,0,0,1,2.94,0V25.9a5,5,0,0,0,7,4.56,5,5,0,0,0,7,2.89,5,5,0,0,0,6.28,2.45V46.29Z"/><path class="cls-5" d="M23.34,40.47h-1l.32-1.65a.56.56,0,0,0-.24-.47.93.93,0,0,0-.56-.16,1.16,1.16,0,0,0-.47.1.35.35,0,0,0-.23.25l-.36,1.93H19.33l.29-1.62a.56.56,0,0,0-.23-.5,1,1,0,0,0-.56-.16,1.21,1.21,0,0,0-.48.1.42.42,0,0,0-.25.26l-.35,1.92h-1.3a.38.38,0,0,0-.34.19.89.89,0,0,0-.14.5.79.79,0,0,0,.14.49.41.41,0,0,0,.35.17h1l-.28,1.57H15.93a.39.39,0,0,0-.34.2.89.89,0,0,0-.14.5.8.8,0,0,0,.14.48.39.39,0,0,0,.34.18h1l-.35,1.89a.46.46,0,0,0,.27.41,1.06,1.06,0,0,0,.58.16.94.94,0,0,0,.43-.1c.15-.06.23-.14.25-.23l.39-2.13H20l-.36,1.88a.46.46,0,0,0,.27.42,1.15,1.15,0,0,0,.58.16,1,1,0,0,0,.45-.1.36.36,0,0,0,.24-.24l.39-2.12h1.29a.46.46,0,0,0,.35-.2.72.72,0,0,0,.16-.49.71.71,0,0,0-.16-.47.48.48,0,0,0-.36-.2h-1l.29-1.57h1.3a.43.43,0,0,0,.35-.19.88.88,0,0,0,.14-.49.81.81,0,0,0-.15-.48A.43.43,0,0,0,23.34,40.47ZM20.2,43.39H18.79l.29-1.57H20.5Z"/><path class="cls-5" d="M27,38.09a.93.93,0,0,0-.54-.16.51.51,0,0,0-.35.13l-1.57,1.2a.69.69,0,0,0-.33.62.81.81,0,0,0,.15.48.49.49,0,0,0,.4.21.45.45,0,0,0,.32-.12l.43-.42v7.1a.44.44,0,0,0,.25.4,1.28,1.28,0,0,0,.61.14,1.34,1.34,0,0,0,.61-.14.45.45,0,0,0,.26-.4V38.49A.46.46,0,0,0,27,38.09Z"/><path class="cls-6" d="M33,30.22v-7a5,5,0,0,0-7.26-4.43,5,5,0,0,0-6.48-2.36,4.89,4.89,0,0,0-1.22-2V32.72a5,5,0,0,0,3.23,1.19,4.9,4.9,0,0,0,2.28-.56,5,5,0,0,0,6.28,2.45V46.29a5.41,5.41,0,0,1-5.41,5.41H18v3.22h6.38A8.64,8.64,0,0,0,33,46.29V30.6A1.65,1.65,0,0,0,33,30.22Zm-10-1.3a1.77,1.77,0,1,1-3.53,0V21A1.77,1.77,0,0,1,23,21Zm6.75,2.23a1.77,1.77,0,1,1-3.53,0V23.26a1.77,1.77,0,0,1,3.53,0Z"/></g></g></svg>