<svg xmlns="http://www.w3.org/2000/svg" viewBox="0 0 58.43 72.39"><defs><style>.cls-1{fill:#ffb93a;}.cls-2{fill:#fff;}.cls-3{fill:#08f;}.cls-4{fill:#4b5be4;}.cls-5{fill:#7f5f4a;}.cls-6{fill:#654c33;}.cls-7{fill:#b28964;}.cls-8{fill:#9f7953;}</style></defs><title>table-ico2</title><g id="Capa_2" data-name="Capa 2"><g id="Capa_1-2" data-name="Capa 1"><polygon class="cls-1" points="49.68 72.39 0 72.39 8.76 22.71 58.44 22.71 49.68 72.39"/><path class="cls-2" d="M26.38,48.16a1.57,1.57,0,0,1-2.23.16l-7.24-6.27h0l1.42,4.61a1.58,1.58,0,0,1-1,2,1.48,1.48,0,0,1-.46.08,1.58,1.58,0,0,1-1.51-1.12l-3-9.87v0l0-.08s0,0,0-.07a.22.22,0,0,1,0-.08.19.19,0,0,1,0-.08.13.13,0,0,0,0-.06v-.15a.31.31,0,0,0,0-.1s0,0,0-.06,0-.06,0-.08a.19.19,0,0,1,0-.08s0-.05,0-.07l0-.08,0-.06,0-.08,0-.06a.25.25,0,0,0,0-.07l.05-.07,0,0a.18.18,0,0,1,.05-.07l0,0,0,0a.46.46,0,0,0,.07-.07l.05,0L12.8,36a.1.1,0,0,1,0,0l.07,0,.07,0,.06,0,.07,0h0l.06,0,.09,0,0,0h0l.09,0H14l.08,0,.08,0h.06l.09,0,.05,0,.09,0,0,0,.07,0,.07,0a.1.1,0,0,1,.05,0l.08,0,0,0,11.4,9.87A1.58,1.58,0,0,1,26.38,48.16Z"/><path class="cls-2" d="M26.38,48.16a1.57,1.57,0,0,1-2.23.16l-7.24-6.27h0l-3.79-6.23h0l.06,0,.09,0,0,0h0l.09,0H14l.08,0,.08,0,.06,0,.09,0,.05,0,.09,0,0,0,.07,0,.07,0a.1.1,0,0,1,.05,0l.08,0,0,0,11.4,9.87A1.58,1.58,0,0,1,26.38,48.16Z"/><path class="cls-3" d="M30.68,48V51.5a2.42,2.42,0,0,1-2.43,2.42H14.44A2.42,2.42,0,0,1,12,51.5V48a2.42,2.42,0,0,1,2.42-2.42H28.25A2.42,2.42,0,0,1,30.68,48Z"/><path class="cls-4" d="M30.68,48V51.5a2.42,2.42,0,0,1-2.43,2.42h-6.9V45.55h6.9A2.42,2.42,0,0,1,30.68,48Z"/><path class="cls-5" d="M33,30.44a28.42,28.42,0,0,1-10.73,6.62,31.75,31.75,0,0,1-10.32,1.83l-.92,0c-4-.15-5.77-1.2-6.56-2.08a.46.46,0,0,1-.07-.07C2.74,34.79,2.16,29.94,3,24.66A31.8,31.8,0,0,1,4.3,19.09,27.65,27.65,0,0,1,10.85,8.3,27.75,27.75,0,0,1,21,2,32.88,32.88,0,0,1,27.27.36c5.4-.82,10.25-.2,12.07,1.55,1.67,1.6,1.95,5.24,2,7.26a31.91,31.91,0,0,1-2,11.11A27.87,27.87,0,0,1,33,30.44Z"/><path class="cls-6" d="M33,30.44a28.42,28.42,0,0,1-10.73,6.62,31.75,31.75,0,0,1-10.32,1.83l-.92,0c-4-.15-5.77-1.2-6.56-2.08L39.34,1.91c1.67,1.6,1.95,5.24,2,7.26a31.91,31.91,0,0,1-2,11.11A27.87,27.87,0,0,1,33,30.44Z"/><path class="cls-7" d="M22.26,37.06a31.75,31.75,0,0,1-10.32,1.83l-.92,0c-4-.15-5.77-1.2-6.56-2.08a.46.46,0,0,1-.07-.07C2.74,34.79,2.16,29.94,3,24.66A31.8,31.8,0,0,1,4.3,19.09Z"/><path class="cls-7" d="M39.34,20.28,21,2A32.77,32.77,0,0,1,27.28.36c5.39-.82,10.24-.2,12.06,1.55,1.67,1.6,1.95,5.24,2,7.26A31.91,31.91,0,0,1,39.34,20.28Z"/><path class="cls-8" d="M13.22,28l9,9a31.75,31.75,0,0,1-10.32,1.83l-.92,0c-4-.15-5.77-1.2-6.56-2.08Z"/><path class="cls-8" d="M39.34,20.28l-9.19-9.19,9.19-9.18c1.67,1.6,1.95,5.24,2,7.26A31.91,31.91,0,0,1,39.34,20.28Z"/><path class="cls-7" d="M24.28,19.26l-.6.6.52.53a1.57,1.57,0,0,1,0,2.23,1.55,1.55,0,0,1-1.11.47A1.58,1.58,0,0,1,22,22.62l-.53-.52-.55.55.53.53a1.58,1.58,0,1,1-2.24,2.23l-.53-.53-.5.51.55.55a1.58,1.58,0,0,1,0,2.24,1.54,1.54,0,0,1-1.11.46,1.57,1.57,0,0,1-1.12-.46l-.56-.56a1.6,1.6,0,0,1-1,.4,1.58,1.58,0,0,1-1.12-.47l0,0a1.58,1.58,0,0,1,0-2.13l-.55-.56a1.58,1.58,0,0,1,2.23-2.23l.56.56.5-.51-.58-.58a1.58,1.58,0,1,1,2.23-2.23l.58.58.56-.56-.58-.58a1.58,1.58,0,1,1,2.23-2.23l.58.58.61-.61-.56-.55a1.58,1.58,0,0,1,2.24-2.24l.55.56.56-.56-.56-.55a1.58,1.58,0,0,1,2.23-2.23l.56.55.29-.29a1.57,1.57,0,0,1,2.2,0l0,0a1.59,1.59,0,0,1,0,2.23l-.3.29.56.56a1.58,1.58,0,0,1-1.12,2.69A1.54,1.54,0,0,1,27.63,17l-.56-.55-.56.55.56.56A1.58,1.58,0,0,1,26,20.27a1.54,1.54,0,0,1-1.11-.46Z"/><path class="cls-8" d="M13.75,27.55l0,0L29.56,11.68l0,0a1.59,1.59,0,0,1,0,2.23l-.3.29.56.56a1.58,1.58,0,0,1-1.12,2.69A1.54,1.54,0,0,1,27.63,17l-.56-.55-.56.55.56.56A1.58,1.58,0,0,1,26,20.27a1.54,1.54,0,0,1-1.11-.46l-.56-.55-.6.6.52.53a1.57,1.57,0,0,1,0,2.23,1.55,1.55,0,0,1-1.11.47A1.58,1.58,0,0,1,22,22.62l-.53-.52-.55.55.53.53a1.58,1.58,0,1,1-2.24,2.23l-.53-.53-.5.51.55.55a1.58,1.58,0,0,1,0,2.24,1.54,1.54,0,0,1-1.11.46,1.57,1.57,0,0,1-1.12-.46l-.56-.56a1.6,1.6,0,0,1-1,.4A1.58,1.58,0,0,1,13.75,27.55Z"/></g></g></svg>