<svg xmlns="http://www.w3.org/2000/svg" viewBox="0 0 74.68 69.22"><defs><style>.cls-1{fill:#ffb93a;}.cls-2{fill:#6da8d6;}.cls-3{fill:#2974a8;}.cls-4{fill:#fff;}</style></defs><title>table-ico4</title><g id="Capa_2" data-name="Capa 2"><g id="Capa_1-2" data-name="Capa 1"><polygon class="cls-1" points="65.92 69.22 16.24 69.22 25 19.55 74.68 19.55 65.92 69.22"/><path class="cls-2" d="M23.31,28.19H46.63V23.31A23.38,23.38,0,0,0,23.31,0h0A23.38,23.38,0,0,0,0,23.31V40.52H23.31Z"/><path class="cls-2" d="M13.88,49.85h0A10.29,10.29,0,0,1,3.62,39.59V29.12c0-5.64,4.61-12.33,10.26-12.33h0c5.64,0,10.25,6.69,10.25,12.33V39.59A10.29,10.29,0,0,1,13.88,49.85Z"/><path class="cls-2" d="M49,53.19,35.35,48.63a8.19,8.19,0,0,1-5.6-7.78V39.39H17.69V34.57H29.75V24.38h4.82V34.57H49ZM34.57,39.39v1.46a3.37,3.37,0,0,0,2.31,3.2l7.34,2.45V39.39Z"/><path class="cls-3" d="M34.57,34.57V24.38H29.75V34.57H24.52v4.82h5.23v1.46a8.19,8.19,0,0,0,5.6,7.78L49,53.19V34.57ZM44.22,46.5l-7.34-2.45a3.37,3.37,0,0,1-2.31-3.2V39.39h9.65Z"/><path class="cls-3" d="M24.52,0V28.19H46.63V23.31A23.39,23.39,0,0,0,24.52,0Z"/><circle class="cls-4" cx="14.07" cy="38.66" r="5.63"/></g></g></svg>