<?xml version="1.0" encoding="utf-8"?>
<!-- Generator: Adobe Illustrator 23.0.4, SVG Export Plug-In . SVG Version: 6.00 Build 0)  -->
<svg version="1.1"
	 id="svg3538" xmlns:cc="http://creativecommons.org/ns#" xmlns:dc="http://purl.org/dc/elements/1.1/" xmlns:rdf="http://www.w3.org/1999/02/22-rdf-syntax-ns#" xmlns:svg="http://www.w3.org/2000/svg"
	 xmlns="http://www.w3.org/2000/svg" xmlns:xlink="http://www.w3.org/1999/xlink" x="0px" y="0px" viewBox="0 0 1098.4 458.7"
	 style="enable-background:new 0 0 1098.4 458.7;" xml:space="preserve">
<style type="text/css">
	.st0{opacity:0.8;}
	.st1{fill:#FFFFFF;}
</style>
<g id="g3646" transform="matrix(7.4464891,0,0,7.4464891,2804.5105,-1839.1239)" class="st0">
	<path id="path3346" class="st1" d="M-329.3,258.3h-44.2v-8.2h44.2L-329.3,258.3L-329.3,258.3z M-326.1,247h-50.5v14.5h50.5V247z"/>
	<g id="g3348" transform="matrix(1.25,0,0,-1.25,-431.10089,333.35578)">
		<path id="path3350" class="st1" d="M46.1,38.3h-2.5v11.6h2.5v-4.6h4.5v4.6h2.5V38.3h-2.5v4.8h-4.5V38.3"/>
	</g>
	<g id="g3352" transform="matrix(1.25,0,0,-1.25,-414.13839,325.41203)">
		<path id="path3354" class="st1" d="M43.4,37.1h3c-0.1,0.9-0.4,1.4-1.4,1.4C44.3,38.5,43.6,38.2,43.4,37.1z M45.3,31.8
			c-2.6,0-4.3,1.6-4.3,4.3c0,2.6,1.7,4.4,4,4.4c2.5,0,3.7-1.7,3.7-4.1v-0.9h-5.3c0.3-1.3,1.3-1.6,2.3-1.6c0.9,0,1.5,0.2,2.3,0.7h0.1
			v-1.9C47.4,32,46.5,31.8,45.3,31.8"/>
	</g>
	<g id="g3356" transform="matrix(1.25,0,0,-1.25,-395.61089,325.76078)">
		<path id="path3358" class="st1" d="M40.4,37.1l-1.3-4.9h-2.2l-2.5,8.2v0.1h2.4l1.4-4.9l1.3,4.9h2l1.3-4.9l1.4,4.9h2.3v-0.1
			L44,32.3h-2.2L40.4,37.1"/>
	</g>
	<g id="g3360" transform="matrix(1.25,0,0,-1.25,-379.75089,333.64578)">
		<path id="path3362" class="st1" d="M37.9,38.4c-2,0-2.8,0.8-2.8,2.7v9.1h2.4v-8.9c0-0.6,0.2-0.8,0.7-0.8c0.2,0,0.4,0.1,0.6,0.1h0
			v-2C38.6,38.5,38.3,38.4,37.9,38.4"/>
	</g>
	<g id="g3364" transform="matrix(1.25,0,0,-1.25,-373.48714,325.41203)">
		<path id="path3366" class="st1" d="M36.9,37.1h3c-0.1,0.9-0.4,1.4-1.4,1.4C37.8,38.5,37.1,38.2,36.9,37.1z M38.8,31.8
			c-2.6,0-4.3,1.6-4.3,4.3c0,2.6,1.7,4.4,4,4.4c2.5,0,3.7-1.7,3.7-4.1v-0.9h-5.3c0.3-1.3,1.3-1.6,2.3-1.6c0.9,0,1.5,0.2,2.3,0.7h0.1
			v-1.9C40.9,32,40,31.8,38.8,31.8"/>
	</g>
	<g id="g3368" transform="matrix(1.25,0,0,-1.25,-349.53714,320.45453)">
		<path id="path3370" class="st1" d="M33.1,36.3h1.8v-2h-1.8V31c0-0.7,0.3-1.1,1-1.1c0.2,0,0.5,0,0.7,0.1h0.1v-1.9
			c-0.3-0.1-0.8-0.2-1.5-0.2c-2,0-2.8,0.9-2.8,3v3.5h-3.1V31c0-0.7,0.3-1.1,1-1.1c0.2,0,0.5,0,0.7,0.1h0.1v-1.9
			c-0.3-0.1-0.8-0.2-1.5-0.2c-2,0-2.8,0.9-2.8,3v3.5h-1.3v2H25v2.3h2.4v-2.3h3.1v2.3h2.4V36.3"/>
	</g>
	<g id="g3372" transform="matrix(1.25,0,0,-1.25,-333.79964,324.13703)">
		<path id="path3374" class="st1" d="M30.5,36.9c1.3,0,1.9,0.7,1.9,1.8c0,1.1-0.6,1.8-1.9,1.8h-1.6v-3.6H30.5z M35,38.6
			c0-2.5-1.7-3.9-4.3-3.9h-1.8V31h-2.5v11.6h4.3C33.3,42.6,35,41.2,35,38.6"/>
	</g>
	<g id="g3376" transform="matrix(1.25,0,0,-1.25,-318.43214,329.29703)">
		<path id="path3378" class="st1" d="M28.1,37.7v0.7c-0.4,0.2-0.9,0.3-1.4,0.3c-0.8,0-1.3-0.3-1.3-1c0-0.7,0.5-1,1.2-1
			C27.3,36.7,27.9,37.1,28.1,37.7z M28.2,35.9c-0.5-0.6-1.3-1-2.2-1c-1.6,0-2.9,1-2.9,2.7c0,1.6,1.3,2.7,3.2,2.7
			c0.6,0,1.2-0.1,1.8-0.3v0.1c0,0.9-0.5,1.3-1.8,1.3c-0.8,0-1.6-0.2-2.3-0.6h-0.1v2c0.6,0.4,1.7,0.7,2.8,0.7c2.5,0,3.8-1.2,3.8-3.3
			v-5.2h-2.4V35.9"/>
	</g>
	<g id="g3380" transform="matrix(1.25,0,0,-1.25,-312.66214,326.92078)">
		<path id="path3382" class="st1" d="M27.2,37.3c0,2.7,1.9,4.3,4.3,4.3c0.9,0,1.7-0.2,2.3-0.6v-2.1h-0.1c-0.5,0.4-1.2,0.6-1.9,0.6
			c-1.2,0-2.2-0.8-2.2-2.2c0-1.4,0.9-2.2,2.2-2.2c0.7,0,1.4,0.2,1.9,0.7h0.1v-2.1c-0.6-0.4-1.4-0.6-2.3-0.6
			C29,33,27.2,34.7,27.2,37.3"/>
	</g>
	<g id="g3384" transform="matrix(1.25,0,0,-1.25,-296.07714,327.50078)">
		<path id="path3386" class="st1" d="M24.5,37.4v-3.7h-2.4v11.6h2.4v-6.6l2.5,3.3h2.8v-0.1l-3-3.7l3-4.3v-0.1H27L24.5,37.4"/>
	</g>
	<g id="g3388" transform="matrix(1.25,0,0,-1.25,-279.28839,329.29703)">
		<path id="path3390" class="st1" d="M21.8,37.7v0.7c-0.4,0.2-0.9,0.3-1.4,0.3c-0.8,0-1.3-0.3-1.3-1c0-0.7,0.5-1,1.2-1
			C21.1,36.7,21.6,37.1,21.8,37.7z M21.9,35.9c-0.5-0.6-1.3-1-2.2-1c-1.6,0-2.9,1-2.9,2.7c0,1.6,1.3,2.7,3.2,2.7
			c0.6,0,1.2-0.1,1.8-0.3v0.1c0,0.9-0.5,1.3-1.8,1.3c-0.8,0-1.6-0.2-2.3-0.6h-0.1v2c0.6,0.4,1.7,0.7,2.8,0.7c2.5,0,3.8-1.2,3.8-3.3
			v-5.2h-2.4V35.9"/>
	</g>
	<g id="g3392" transform="matrix(1.25,0,0,-1.25,-269.02339,322.54203)">
		<path id="path3394" class="st1" d="M20.2,36.6c0.4,0.9,1.1,1.4,2,1.4c0.3,0,0.7-0.1,0.8-0.1v-2.3h-0.1c-0.3,0.1-0.6,0.2-1.1,0.2
			c-0.8,0-1.4-0.4-1.6-1.3v-4.8h-2.4v8.3h2.4V36.6"/>
	</g>
	<g id="g3396" transform="matrix(1.25,0,0,-1.25,-254.49714,328.97828)">
		<path id="path3398" class="st1" d="M17.9,37.6v2.7c-0.4,0.6-0.9,0.9-1.6,0.9c-1.1,0-1.8-0.8-1.8-2.2c0-1.4,0.7-2.2,1.8-2.2
			C16.9,36.8,17.4,37,17.9,37.6z M17.9,35.7c-0.5-0.7-1.3-1-2.4-1c-2.1,0-3.5,1.9-3.5,4.3c0,2.4,1.4,4.3,3.5,4.3
			c1.1,0,1.9-0.3,2.4-0.9v4.1h2.4V34.8h-2.4V35.7"/>
	</g>
	<g id="g3400" transform="matrix(1.25,0,0,-1.25,-435.04464,339.27328)">
		<path id="path3402" class="st1" d="M46.7,39.3h7.2v-1.4h-5.5v-3.5h5V33h-5v-3.9h5.5v-1.4h-7.2V39.3"/>
	</g>
	<g id="g3404" transform="matrix(1.25,0,0,-1.25,-414.60339,344.37453)">
		<path id="path3406" class="st1" d="M43.5,40.1c1.8,0,2.9-1.2,2.9-3.2v-5.1h-1.5v5.1c0,1.1-0.5,1.8-1.7,1.8c-1,0-1.8-0.6-2.1-1.5
			v-5.4h-1.5v8.2H41v-1.2C41.5,39.5,42.3,40.1,43.5,40.1"/>
	</g>
	<g id="g3408" transform="matrix(1.25,0,0,-1.25,-403.67089,344.63578)">
		<path id="path3410" class="st1" d="M41.7,40.1h2.1v-1.3h-2.1v-4.4c0-0.9,0.5-1.2,1.4-1.2c0.2,0,0.5,0,0.7,0.1h0.1V32
			c-0.2-0.1-0.5-0.2-1-0.2c-1.9,0-2.7,0.9-2.7,2.5v4.5h-1.4v1.3h1.4v2.2h1.5V40.1"/>
	</g>
	<g id="g3412" transform="matrix(1.25,0,0,-1.25,-396.36464,349.76578)">
		<path id="path3414" class="st1" d="M40.5,41h4.1c-0.1,1.2-0.6,2.1-1.9,2.1C41.5,43.1,40.8,42.2,40.5,41z M43,35.9
			c-2.4,0-4,1.6-4,4.2c0,2.6,1.5,4.3,3.7,4.3c2.2,0,3.4-1.6,3.4-4v-0.7h-5.6c0.2-1.7,1.2-2.4,2.7-2.4c0.9,0,1.6,0.2,2.3,0.7h0.1
			v-1.4C44.9,36.1,44,35.9,43,35.9"/>
	</g>
	<g id="g3416" transform="matrix(1.25,0,0,-1.25,-382.44714,346.60703)">
		<path id="path3418" class="st1" d="M38.3,40.5c0.4,0.9,1.1,1.4,2,1.4c0.4,0,0.7-0.1,0.8-0.1v-1.5h-0.1c-0.2,0.1-0.6,0.2-1,0.2
			c-0.8,0-1.5-0.6-1.8-1.5v-5.3h-1.5v8.2l1.5,0V40.5"/>
	</g>
	<g id="g3420" transform="matrix(1.25,0,0,-1.25,-370.26964,355.47703)">
		<path id="path3422" class="st1" d="M36.4,41.9c1.5,0,2.4,1.2,2.4,2.9c0,1.6-0.9,2.9-2.4,2.9c-0.8,0-1.6-0.5-2-1.3v-3.1
			C34.8,42.4,35.5,41.9,36.4,41.9z M36.6,49c2.4,0,3.7-2,3.7-4.2c0-2.3-1.3-4.2-3.7-4.2c-1,0-1.9,0.5-2.3,1.1v-4h-1.5v11.3h1.5v-0.9
			C34.8,48.5,35.6,49,36.6,49"/>
	</g>
	<g id="g3424" transform="matrix(1.25,0,0,-1.25,-358.78714,346.60703)">
		<path id="path3426" class="st1" d="M34.5,40.5c0.4,0.9,1.1,1.4,2,1.4c0.4,0,0.7-0.1,0.8-0.1v-1.5h-0.1c-0.2,0.1-0.6,0.2-1,0.2
			c-0.8,0-1.5-0.6-1.8-1.5v-5.3H33v8.2l1.5,0V40.5"/>
	</g>
	<g id="g3428" transform="matrix(1.25,0,0,-1.25,-350.90089,339.47578)">
		<path id="path3430" class="st1" d="M33.3,39.3c0.5,0,1-0.4,1-1c0-0.5-0.4-1-1-1c-0.5,0-1,0.4-1,1C32.3,38.9,32.8,39.3,33.3,39.3"
			/>
	</g>
	<path id="path3432" class="st1" d="M-310.3,304.7h1.9v-10.2h-1.9V304.7z"/>
	<g id="g3434" transform="matrix(1.25,0,0,-1.25,-341.09964,349.94078)">
		<path id="path3436" class="st1" d="M31.7,41c1.2-0.4,2.5-0.9,2.5-2.4c0-1.7-1.4-2.5-3.1-2.5c-1.1,0-2.2,0.3-2.8,0.7v1.5h0.1
			c0.7-0.6,1.7-0.9,2.7-0.9c0.9,0,1.7,0.3,1.7,1c0,0.7-0.6,0.9-1.9,1.3c-1.2,0.4-2.4,0.8-2.4,2.3c0,1.6,1.3,2.5,3,2.5
			c1,0,1.8-0.2,2.5-0.7v-1.5h-0.1c-0.7,0.5-1.4,0.9-2.4,0.9s-1.5-0.4-1.5-1C29.8,41.6,30.4,41.4,31.7,41"/>
	</g>
	<g id="g3438" transform="matrix(1.25,0,0,-1.25,-332.66214,349.76578)">
		<path id="path3440" class="st1" d="M30.4,41h4.1c-0.1,1.2-0.6,2.1-1.9,2.1C31.3,43.1,30.6,42.2,30.4,41z M32.8,35.9
			c-2.4,0-4,1.6-4,4.2c0,2.6,1.5,4.3,3.7,4.3c2.2,0,3.4-1.6,3.4-4v-0.7h-5.6c0.2-1.7,1.2-2.4,2.7-2.4c0.9,0,1.6,0.2,2.3,0.7h0.1
			v-1.4C34.7,36.1,33.8,35.9,32.8,35.9"/>
	</g>
</g>
</svg>
