<svg xmlns="http://www.w3.org/2000/svg" viewBox="0 0 599.95 105.7"><defs><style>.cls-1{opacity:0.8;}.cls-2{fill:#fff;}</style></defs><g id="Capa_2" data-name="Capa 2"><g id="layer"><g id="Page-1" class="cls-1"><g id="Group-28"><g id="Group-3"><path id="Fill-1" class="cls-2" d="M62.35,105.7H36.55a14.92,14.92,0,0,1-12.9-7.5L2,60.3a15.4,15.4,0,0,1,0-15L23.65,7.5A15,15,0,0,1,36.55,0H80a14.92,14.92,0,0,1,12.9,7.5l21.7,37.8a14.9,14.9,0,0,1,0,15l-5.6,9a14.82,14.82,0,0,1-12.9,7.4H70.25l14.1-24L71.25,30H45.15L32.05,52.8Z"/></g><path id="Fill-4" class="cls-2" d="M158.65,53c4.6,0,7.6-1.4,7.6-6.3s-2.5-6.1-6.9-6.1H156V53ZM156,77.9H144V31.1h17c11,0,17.6,5.1,17.6,14.9,0,10.9-7.9,16.4-19.1,16.4H156Z"/><path id="Fill-6" class="cls-2" d="M197.35,31.1V61.2c0,5.3,2.7,6.8,6.5,6.8,3.6,0,6.2-2.1,6.2-6.5V31.1H222V62.9c0,9.3-7.5,15-18.3,15-12,0-18.1-4.8-18.1-16V31.1Z"/><polygon id="Fill-8" class="cls-2" points="273.95 31.1 304.65 31.1 304.65 41.7 286.05 41.7 286.05 48.8 302.05 48.8 302.05 59.3 286.05 59.3 286.05 67.4 305.15 67.4 305.15 77.9 273.95 77.9 273.95 31.1"/><path id="Fill-10" class="cls-2" d="M316.15,69A24.39,24.39,0,0,0,329,73c4.7,0,9.9-1.5,9.9-8.7,0-5.6-5-7.5-10.6-9-6.8-1.8-13.5-4.4-13.5-13,0-7.8,6.1-13,14.9-13A22.25,22.25,0,0,1,345,35.6l-3.1,3.7c-3.7-3.2-7.8-5.2-12.2-5.2-4,0-9.1,1.7-9.1,7.6,0,5.6,4.8,7.2,10.9,9,6.5,2,13.2,4.5,13.2,13.4s-5.9,13.7-15.9,13.7c-6.8,0-13.1-2.7-15-4.3Z"/><polygon id="Fill-12" class="cls-2" points="383.15 31.1 383.15 35.9 369.25 35.9 369.25 77.9 363.85 77.9 363.85 35.9 350.25 35.9 350.25 31.1 383.15 31.1"/><path id="Fill-14" class="cls-2" d="M406.15,73.2c10,0,13.1-9.7,13.1-19.2,0-8.3-2.7-19.8-13.2-19.8-10.1,0-13.8,9.8-13.8,19.4,0,9.2,2.5,19.6,13.9,19.6m-.6,4.7c-11.8,0-18.9-8.1-18.9-24.2,0-18.1,10.2-24.4,19.6-24.4,9.9,0,18.6,6.4,18.6,24.4,0,16.2-7.5,24.2-19.3,24.2"/><path id="Fill-16" class="cls-2" d="M483.45,59h15.8l-8-22.9Zm-11.8,18.9,16.5-46.8h6.6l16.8,46.8h-5.8l-5.1-14.4h-18.4l-5,14.4Z"/><path id="Fill-18" class="cls-2" d="M547.75,73.6a27.19,27.19,0,0,1-15.1,4.3c-12,0-19.4-7.8-19.4-24.2,0-18.3,10.3-24.4,19.4-24.4A18.61,18.61,0,0,1,548,36.9l-3.9,3.2c-3-3.7-6.6-6-11.4-6-8.6,0-13.8,7.3-13.8,19.1,0,12.7,4.4,20.1,14.3,20.1a18.77,18.77,0,0,0,9.3-2.5V56.9h-10.4V52.1h15.8V73.6Z"/><polygon id="Fill-20" class="cls-2" points="558.35 31.1 583.85 31.1 583.85 35.9 563.75 35.9 563.75 51.7 581.05 51.7 581.05 56.4 563.75 56.4 563.75 73.1 584.35 73.1 584.35 77.9 558.35 77.9 558.35 31.1"/><path id="Fill-22" class="cls-2" d="M446.25,56.2h-7.1V35.7h6.2c8.1,0,13.8.9,13.8,10.2C459.15,53.4,453.85,56.2,446.25,56.2Zm13.4,7c-1.1-2.4-1.8-3.5-3.3-4.3,5.2-2.3,8.5-6.9,8.5-13.9,0-9.2-6-13.9-16-13.9h-15.4V77.9h5.6V60.6h8.1a9.7,9.7,0,0,0,1.7-.1h-.1c2.9,0,4.3,1.9,5.5,4.4l6,12.8h6Z"/><path id="Fill-24" class="cls-2" d="M242.45,53V40.6h3.3c4.3,0,6.8,1.3,6.8,6.1s-2.9,6.3-7.4,6.3Zm18.3,10.1a6.89,6.89,0,0,0-3-3.6c4.3-2.7,7-7.2,7-13.5,0-9.7-6.5-14.9-17.3-14.9h-16.8V77.9h11.8V62.3h3c1.6.1,2.6,1,3.3,2.7l5.6,12.9h12.7Z"/><path id="Fill-26" class="cls-2" d="M594,35.1c.8,0,1.6-.1,1.6-1.1,0-.8-.8-.9-1.5-.9h-1.4v2Zm-1.3,3.8h-1.1V32.2h2.6c1.7,0,2.5.6,2.5,1.9a1.73,1.73,0,0,1-1.8,1.8l1.9,3h-1.3l-1.8-2.9h-1.1v2.9Zm1.2-8.5a4.79,4.79,0,0,0-4.8,5,4.76,4.76,0,1,0,9.5,0A4.65,4.65,0,0,0,593.85,30.4Zm0,11.1a5.88,5.88,0,0,1-6.1-6.1,6.1,6.1,0,1,1,6.1,6.1Z"/></g></g></g></g></svg>