<svg xmlns="http://www.w3.org/2000/svg" viewBox="0 0 419.25 75.4"><defs><style>.cls-1{opacity:0.8;}.cls-2{fill:#fff;}</style></defs><g id="Capa_2" data-name="Capa 2"><g id="Layer_1" data-name="Layer 1"><g class="cls-1"><path class="cls-2" d="M76.74,1.5a6.83,6.83,0,0,0-9.3,3.1L42.64,58.1h0c-.6,1.1-1.1,1.9-2.4,1.9s-1.8-.8-2.4-1.9h0L13,4.7a6.64,6.64,0,0,0-9.3-3.1,7.49,7.49,0,0,0-3,9.8L25,60.8l2.8,5.6a13.61,13.61,0,0,0,24.8,0l2.8-5.6,24.2-49.5A7.39,7.39,0,0,0,76.74,1.5Z"/><path class="cls-2" d="M407,.7a12,12,0,0,0-10.7,6.9c-6.3,12.9-24.9,51.2-24.9,51.3s-.5,1.1-1.3,1.1-1.2-.8-1.3-1.1h0c-6.1-12.7-18.3-37.8-24.6-50.8-2.5-5-6.6-7.4-11-7.4h0c-6.8,0-12.4,5.8-12.4,13.6V67c0,3.2,1.8,6.2,4.6,7.1,4.6,1.5,8.5-2.5,8.5-7.2l-1-51.3a.49.49,0,0,1,.9-.3L359,66.5c2.4,4.9,6.4,7.8,10.9,7.8s8.6-2.9,10.9-7.8l25.3-51.3c.2-.5.9-.3.9.3l-1,51.6c0,4.1,3.1,7.4,6.8,7.2s6.4-3.6,6.4-7.5V14.3C419.44,6.4,413.84.8,407,.7Z"/><path class="cls-2" d="M312.24,63.7,284.34,8.6A13.84,13.84,0,0,0,271.94.7a13.33,13.33,0,0,0-8.8,3.3,14,14,0,0,0-3.6,4.7l-27.8,54.8c0,.1-.1.1-.1.2v.1a7.56,7.56,0,0,0,.5,7.7c0,.1.1.1.1.2s.1.1.1.2a6.9,6.9,0,0,0,1.8,1.6,6.49,6.49,0,0,0,7.2-.3.1.1,0,0,0,.1-.1,1.38,1.38,0,0,0,.4-.3l.3-.3.1-.1a8.32,8.32,0,0,0,1.3-1.8l1-2.2,5.8-12.2a.89.89,0,0,1,.8-.5H277a6.61,6.61,0,0,0,0-13.2h-19.2a.55.55,0,0,1-.5-.8l1.4-3,10.5-21.1v-.1a.1.1,0,0,1,.1-.1h0c.2-.4.7-1.9,1.7-2.2a1.93,1.93,0,0,1,1.5,0c1.1.3,1.5,1.6,2,2.6h0l25.4,52.8a6.83,6.83,0,0,0,6.1,3.8,5.87,5.87,0,0,0,2.3-.4.1.1,0,0,0,.1-.1l.6-.3c.1,0,.1-.1.2-.1a.1.1,0,0,0,.1-.1c.1,0,.1-.1.2-.1a.22.22,0,0,0,.2-.2c.1,0,.1-.1.2-.1s.2-.2.3-.2l.3-.3.1-.1A7.13,7.13,0,0,0,312.24,63.7Z"/><path class="cls-2" d="M95.54,45.5h47a8.27,8.27,0,0,0,8.2-8.8c0-20.2-15.6-36.7-34.9-36.7s-35,16.5-35,36.7v1.9c0,23.1,14.8,35.6,34.5,36.7a26.2,26.2,0,0,0,2.8.1c7.6,0,13.9-2,20.9-6.3a24.91,24.91,0,0,0,6.3-5.9c2.3-2.9,2.4-7.2,0-9.5-3.5-3.3-7.2-1.5-10.4,1.3-5.1,4.3-9,7.7-19.2,7.7-9.6,0-18.6-5.5-20.8-16.4C94.94,45.9,95.14,45.5,95.54,45.5ZM94.94,32c1.3-10.6,8.6-20,20.8-20s19.9,9.2,21.1,20c0,.4-.2.8-.6.8H95.54A.76.76,0,0,1,94.94,32Z"/><path class="cls-2" d="M173.54,45.5h47a8.27,8.27,0,0,0,8.2-8.8C228.64,16.5,213,0,193.84,0s-34.9,16.5-34.9,36.7v1.9c0,23.1,14.8,35.6,34.5,36.7a26.2,26.2,0,0,0,2.8.1c7.6,0,13.9-2,20.9-6.3a24.91,24.91,0,0,0,6.3-5.9c2.3-2.9,2.4-7.2,0-9.5-3.5-3.3-7.2-1.5-10.4,1.3-5.1,4.3-9,7.7-19.2,7.7-9.6,0-18.6-5.5-20.8-16.4A.64.64,0,0,1,173.54,45.5ZM173,32c1.3-10.6,8.6-20,20.8-20s19.9,9.2,21.1,20c0,.4-.2.8-.6.8h-40.7C173.24,32.7,172.94,32.4,173,32Z"/></g></g></g></svg>