<?xml version="1.0" encoding="utf-8"?>
<!-- Generator: Adobe Illustrator 24.1.0, SVG Export Plug-In . SVG Version: 6.00 Build 0)  -->
<svg version="1.1"
	 id="svg3538" xmlns:cc="http://creativecommons.org/ns#" xmlns:dc="http://purl.org/dc/elements/1.1/" xmlns:rdf="http://www.w3.org/1999/02/22-rdf-syntax-ns#" xmlns:svg="http://www.w3.org/2000/svg"
	 xmlns="http://www.w3.org/2000/svg" xmlns:xlink="http://www.w3.org/1999/xlink" x="0px" y="0px" viewBox="0 0 1098.4 458.7"
	 style="enable-background:new 0 0 1098.4 458.7;" xml:space="preserve">
<style type="text/css">
	.st0{fill:#00B188;}
	.st1{fill:#787878;}
</style>
<g id="layer1" transform="translate(435.04467,-285.29078)">
	<g id="g3646" transform="matrix(7.4464891,0,0,7.4464891,2804.5105,-1839.1239)">
		<path id="path3346" class="st0" d="M-387.7,296.6h-44.2v-8.2h44.2L-387.7,296.6L-387.7,296.6z M-384.6,285.3H-435v14.5h50.5V285.3
			z"/>
		<g id="g3348" transform="matrix(1.25,0,0,-1.25,-431.10089,333.35578)">
			<path id="path3350" class="st1" d="M-0.6,7.7h-2.5v11.6h2.5v-4.6h4.5v4.6h2.5V7.7H3.9v4.8l-4.5,0V7.7"/>
		</g>
		<g id="g3352" transform="matrix(1.25,0,0,-1.25,-414.13839,325.41203)">
			<path id="path3354" class="st1" d="M-3.3,6.4h3c-0.1,0.9-0.4,1.4-1.4,1.4C-2.5,7.9-3.1,7.6-3.3,6.4z M-1.4,1.1
				c-2.6,0-4.3,1.6-4.3,4.3c0,2.6,1.7,4.4,4,4.4c2.5,0,3.7-1.7,3.7-4.1V4.7h-5.3C-3,3.5-2,3.1-1,3.1c0.9,0,1.5,0.2,2.3,0.7h0.1V1.9
				C0.7,1.4-0.3,1.1-1.4,1.1"/>
		</g>
		<g id="g3356" transform="matrix(1.25,0,0,-1.25,-395.61089,325.76078)">
			<path id="path3358" class="st1" d="M-6.3,6.5l-1.3-4.9h-2.2l-2.5,8.2v0.1h2.4L-8.6,5l1.3,4.9h2L-4,5l1.4,4.9h2.3V9.8l-2.5-8.2H-5
				L-6.3,6.5"/>
		</g>
		<g id="g3360" transform="matrix(1.25,0,0,-1.25,-379.75089,333.64578)">
			<path id="path3362" class="st1" d="M-8.8,7.7c-2,0-2.8,0.8-2.8,2.7v9.1h2.4v-8.9c0-0.6,0.2-0.8,0.7-0.8c0.2,0,0.4,0.1,0.6,0.1h0
				v-2C-8.1,7.8-8.5,7.7-8.8,7.7"/>
		</g>
		<g id="g3364" transform="matrix(1.25,0,0,-1.25,-373.48714,325.41203)">
			<path id="path3366" class="st1" d="M-9.8,6.4h3c-0.1,0.9-0.4,1.4-1.4,1.4C-9,7.9-9.6,7.6-9.8,6.4z M-7.9,1.1
				c-2.6,0-4.3,1.6-4.3,4.3c0,2.6,1.7,4.4,4,4.4c2.5,0,3.7-1.7,3.7-4.1V4.7h-5.3c0.3-1.3,1.3-1.6,2.3-1.6c0.9,0,1.5,0.2,2.3,0.7h0.1
				V1.9C-5.8,1.4-6.8,1.1-7.9,1.1"/>
		</g>
		<g id="g3368" transform="matrix(1.25,0,0,-1.25,-349.53714,320.45453)">
			<path id="path3370" class="st1" d="M-13.7,5.6h1.8v-2h-1.8V0.3c0-0.7,0.3-1.1,1-1.1c0.2,0,0.5,0,0.7,0.1h0.1v-1.9
				c-0.3-0.1-0.8-0.2-1.5-0.2c-2,0-2.8,0.9-2.8,3v3.5h-3.1V0.3c0-0.7,0.3-1.1,1-1.1c0.2,0,0.5,0,0.7,0.1h0.1v-1.9
				c-0.3-0.1-0.8-0.2-1.5-0.2c-2,0-2.8,0.9-2.8,3v3.5H-23v2h1.3v2.3h2.4V5.6h3.1v2.3l2.4,0V5.6"/>
		</g>
		<g id="g3372" transform="matrix(1.25,0,0,-1.25,-333.79964,324.13703)">
			<path id="path3374" class="st1" d="M-16.2,6.2c1.3,0,1.9,0.7,1.9,1.8c0,1.1-0.6,1.8-1.9,1.8h-1.6V6.2H-16.2z M-11.7,8
				c0-2.5-1.7-3.9-4.3-3.9h-1.8V0.3h-2.5v11.6h4.3C-13.4,11.9-11.7,10.5-11.7,8"/>
		</g>
		<g id="g3376" transform="matrix(1.25,0,0,-1.25,-318.43214,329.29703)">
			<path id="path3378" class="st1" d="M-18.7,7v0.7C-19,7.9-19.5,8-20,8c-0.8,0-1.3-0.3-1.3-1c0-0.7,0.5-1,1.2-1
				C-19.4,6.1-18.9,6.4-18.7,7z M-18.6,5.3c-0.5-0.6-1.3-1-2.2-1c-1.6,0-2.9,1-2.9,2.7c0,1.6,1.3,2.7,3.2,2.7c0.6,0,1.2-0.1,1.8-0.3
				v0.1c0,0.9-0.5,1.3-1.8,1.3c-0.8,0-1.6-0.2-2.3-0.6h-0.1v2c0.6,0.4,1.7,0.7,2.8,0.7c2.5,0,3.8-1.2,3.8-3.3V4.4h-2.4V5.3"/>
		</g>
		<g id="g3380" transform="matrix(1.25,0,0,-1.25,-312.66214,326.92078)">
			<path id="path3382" class="st1" d="M-19.6,6.7c0,2.7,1.9,4.3,4.3,4.3c0.9,0,1.7-0.2,2.3-0.6V8.3H-13c-0.5,0.4-1.2,0.6-1.9,0.6
				c-1.2,0-2.2-0.8-2.2-2.2s0.9-2.2,2.2-2.2c0.7,0,1.4,0.2,1.9,0.7h0.1V3c-0.6-0.4-1.4-0.6-2.3-0.6C-17.7,2.4-19.6,4-19.6,6.7"/>
		</g>
		<g id="g3384" transform="matrix(1.25,0,0,-1.25,-296.07714,327.50078)">
			<path id="path3386" class="st1" d="M-22.2,6.8V3h-2.4v11.6h2.4V8l2.5,3.3h2.8v-0.1l-3-3.7l3-4.3V3h-2.8L-22.2,6.8"/>
		</g>
		<g id="g3388" transform="matrix(1.25,0,0,-1.25,-279.28839,329.29703)">
			<path id="path3390" class="st1" d="M-24.9,7v0.7C-25.3,7.9-25.8,8-26.3,8c-0.8,0-1.3-0.3-1.3-1c0-0.7,0.5-1,1.2-1
				C-25.7,6.1-25.1,6.4-24.9,7z M-24.8,5.3c-0.5-0.6-1.3-1-2.2-1c-1.6,0-2.9,1-2.9,2.7c0,1.6,1.3,2.7,3.2,2.7c0.6,0,1.2-0.1,1.8-0.3
				v0.1c0,0.9-0.5,1.3-1.8,1.3c-0.8,0-1.6-0.2-2.3-0.6h-0.1v2c0.6,0.4,1.7,0.7,2.8,0.7c2.5,0,3.8-1.2,3.8-3.3V4.4h-2.4V5.3"/>
		</g>
		<g id="g3392" transform="matrix(1.25,0,0,-1.25,-269.02339,322.54203)">
			<path id="path3394" class="st1" d="M-26.6,6c0.4,0.9,1.1,1.4,2,1.4c0.3,0,0.7-0.1,0.8-0.1V4.9h-0.1c-0.3,0.1-0.6,0.2-1.1,0.2
				c-0.8,0-1.4-0.4-1.6-1.3V-1h-2.4v8.3h2.4V6"/>
		</g>
		<g id="g3396" transform="matrix(1.25,0,0,-1.25,-254.49714,328.97828)">
			<path id="path3398" class="st1" d="M-28.9,7v2.7c-0.4,0.6-0.9,0.9-1.6,0.9c-1.1,0-1.8-0.8-1.8-2.2s0.7-2.2,1.8-2.2
				C-29.8,6.1-29.3,6.4-28.9,7z M-28.8,5c-0.5-0.7-1.3-1-2.4-1c-2.1,0-3.5,1.9-3.5,4.3s1.4,4.3,3.5,4.3c1.1,0,1.9-0.3,2.4-0.9v4.1
				h2.4V4.2h-2.4V5"/>
		</g>
		<g id="g3400" transform="matrix(1.25,0,0,-1.25,-435.04464,339.27328)">
			<path id="path3402" class="st1" d="M0,8.6h7.2V7.2H1.6V3.7h5V2.3h-5v-3.9h5.5V-3H0V8.6"/>
		</g>
		<g id="g3404" transform="matrix(1.25,0,0,-1.25,-414.60339,344.37453)">
			<path id="path3406" class="st1" d="M-3.3,9.5c1.8,0,2.9-1.2,2.9-3.2V1.1H-2v5.1C-2,7.3-2.5,8-3.7,8c-1,0-1.8-0.6-2.1-1.5V1.1
				h-1.5v8.2h1.5V8.1C-5.2,8.9-4.4,9.5-3.3,9.5"/>
		</g>
		<g id="g3408" transform="matrix(1.25,0,0,-1.25,-403.67089,344.63578)">
			<path id="path3410" class="st1" d="M-5,9.5h2.1V8.2H-5V3.8c0-0.9,0.5-1.2,1.4-1.2c0.2,0,0.5,0,0.7,0.1h0.1V1.3
				c-0.2-0.1-0.5-0.2-1-0.2c-1.9,0-2.7,0.9-2.7,2.5v4.5H-8v1.3h1.4v2.2l1.5,0V9.5"/>
		</g>
		<g id="g3412" transform="matrix(1.25,0,0,-1.25,-396.36464,349.76578)">
			<path id="path3414" class="st1" d="M-6.2,10.3h4.1c-0.1,1.2-0.6,2.1-1.9,2.1C-5.2,12.4-6,11.6-6.2,10.3z M-3.8,5.3
				c-2.4,0-4,1.6-4,4.2c0,2.6,1.5,4.3,3.7,4.3c2.2,0,3.4-1.6,3.4-4V9.1h-5.6C-6.1,7.4-5,6.6-3.6,6.6c0.9,0,1.6,0.2,2.3,0.7h0.1V6
				C-1.9,5.5-2.8,5.3-3.8,5.3"/>
		</g>
		<g id="g3416" transform="matrix(1.25,0,0,-1.25,-382.44714,346.60703)">
			<path id="path3418" class="st1" d="M-8.4,9.8c0.4,0.9,1.1,1.4,2,1.4c0.4,0,0.7-0.1,0.8-0.1V9.6h-0.1c-0.2,0.1-0.6,0.2-1,0.2
				c-0.8,0-1.5-0.6-1.8-1.5V2.9H-10v8.2h1.5V9.8"/>
		</g>
		<g id="g3420" transform="matrix(1.25,0,0,-1.25,-370.26964,355.47703)">
			<path id="path3422" class="st1" d="M-10.4,11.2c1.5,0,2.4,1.2,2.4,2.9c0,1.6-0.9,2.9-2.4,2.9c-0.8,0-1.6-0.5-2-1.3v-3.1
				C-12,11.7-11.2,11.2-10.4,11.2z M-10.1,18.3c2.4,0,3.7-2,3.7-4.2c0-2.3-1.3-4.2-3.7-4.2c-1,0-1.9,0.5-2.3,1.1v-4h-1.5v11.3h1.5
				v-0.9C-12,17.8-11.1,18.3-10.1,18.3"/>
		</g>
		<g id="g3424" transform="matrix(1.25,0,0,-1.25,-358.78714,346.60703)">
			<path id="path3426" class="st1" d="M-12.2,9.8c0.4,0.9,1.1,1.4,2,1.4c0.4,0,0.7-0.1,0.8-0.1V9.6h-0.1c-0.2,0.1-0.6,0.2-1,0.2
				c-0.8,0-1.5-0.6-1.8-1.5V2.9h-1.5v8.2h1.5V9.8"/>
		</g>
		<g id="g3428" transform="matrix(1.25,0,0,-1.25,-350.90089,339.47578)">
			<path id="path3430" class="st1" d="M-13.5,8.7c0.5,0,1-0.4,1-1s-0.4-1-1-1c-0.5,0-1,0.4-1,1S-14,8.7-13.5,8.7"/>
		</g>
		<path id="path3432" class="st1" d="M-368.7,343h1.9v-10.2h-1.9V343z"/>
		<g id="g3434" transform="matrix(1.25,0,0,-1.25,-341.09964,349.94078)">
			<path id="path3436" class="st1" d="M-15,10.3c1.2-0.4,2.5-0.9,2.5-2.4c0-1.7-1.4-2.5-3.1-2.5c-1.1,0-2.2,0.3-2.8,0.7v1.5h0.1
				c0.7-0.6,1.7-0.9,2.7-0.9c0.9,0,1.7,0.3,1.7,1c0,0.7-0.6,0.9-1.9,1.3c-1.2,0.4-2.4,0.8-2.4,2.3c0,1.6,1.3,2.5,3,2.5
				c1,0,1.8-0.2,2.5-0.7v-1.5H-13c-0.7,0.5-1.4,0.9-2.4,0.9s-1.5-0.4-1.5-1C-16.9,11-16.3,10.8-15,10.3"/>
		</g>
		<g id="g3438" transform="matrix(1.25,0,0,-1.25,-332.66214,349.76578)">
			<path id="path3440" class="st1" d="M-16.4,10.3h4.1c-0.1,1.2-0.6,2.1-1.9,2.1C-15.4,12.4-16.2,11.6-16.4,10.3z M-14,5.3
				c-2.4,0-4,1.6-4,4.2c0,2.6,1.5,4.3,3.7,4.3c2.2,0,3.4-1.6,3.4-4V9.1h-5.6c0.2-1.7,1.2-2.4,2.7-2.4c0.9,0,1.6,0.2,2.3,0.7h0.1V6
				C-12.1,5.5-12.9,5.3-14,5.3"/>
		</g>
	</g>
</g>
</svg>
