<?xml version="1.0" encoding="utf-8"?>
<!-- Generator: Adobe Illustrator 24.1.0, SVG Export Plug-In . SVG Version: 6.00 Build 0)  -->
<svg version="1.1" id="Capa_1" xmlns="http://www.w3.org/2000/svg" xmlns:xlink="http://www.w3.org/1999/xlink" x="0px" y="0px"
	 viewBox="0 0 600 105.7" style="enable-background:new 0 0 600 105.7;" xml:space="preserve">
<style type="text/css">
	.st0{fill:#FE5000;}
	.st1{fill:#787878;}
</style>
<g id="Capa_2_1_">
	<g id="layer">
		<g id="Page-1">
			<g id="Group-28">
				<g id="Group-3">
					<path id="Fill-1" class="st0" d="M62.3,105.7H36.5c-5.3,0-10.2-2.9-12.9-7.5L2,60.3c-2.6-4.7-2.6-10.3,0-15L23.6,7.5
						C26.3,2.9,31.2,0,36.5,0H80c5.3,0,10.2,2.9,12.9,7.5l21.7,37.8c2.7,4.6,2.7,10.4,0,15l-5.6,9c-2.7,4.6-7.6,7.4-12.9,7.4H70.3
						l14.1-24L71.3,30H45.2L32,52.8L62.3,105.7z"/>
				</g>
				<path id="Fill-4" class="st1" d="M158.6,53c4.6,0,7.6-1.4,7.6-6.3s-2.5-6.1-6.9-6.1H156V53H158.6z M156,77.9h-12V31.1h17
					c11,0,17.6,5.1,17.6,14.9c0,10.9-7.9,16.4-19.1,16.4H156V77.9z"/>
				<path id="Fill-6" class="st1" d="M197.4,31.1v30.1c0,5.3,2.7,6.8,6.5,6.8c3.6,0,6.2-2.1,6.2-6.5V31.1H222v31.8
					c0,9.3-7.5,15-18.3,15c-12,0-18.1-4.8-18.1-16V31.1H197.4z"/>
				<polygon id="Fill-8" class="st1" points="274,31.1 304.6,31.1 304.6,41.7 286,41.7 286,48.8 302,48.8 302,59.3 286,59.3 
					286,67.4 305.1,67.4 305.1,77.9 274,77.9 				"/>
				<path id="Fill-10" class="st1" d="M316.1,69c3.8,2.5,8.3,3.9,12.9,4c4.7,0,9.9-1.5,9.9-8.7c0-5.6-5-7.5-10.6-9
					c-6.8-1.8-13.5-4.4-13.5-13c0-7.8,6.1-13,14.9-13c5.7,0.1,11.2,2.3,15.3,6.3l-3.1,3.7c-3.7-3.2-7.8-5.2-12.2-5.2
					c-4,0-9.1,1.7-9.1,7.6c0,5.6,4.8,7.2,10.9,9c6.5,2,13.2,4.5,13.2,13.4s-5.9,13.7-15.9,13.7c-6.8,0-13.1-2.7-15-4.3L316.1,69z"/>
				<polygon id="Fill-12" class="st1" points="383.1,31.1 383.1,35.9 369.3,35.9 369.3,77.9 363.9,77.9 363.9,35.9 350.3,35.9 
					350.3,31.1 				"/>
				<path id="Fill-14" class="st1" d="M406.1,73.2c10,0,13.1-9.7,13.1-19.2c0-8.3-2.7-19.8-13.2-19.8c-10.1,0-13.8,9.8-13.8,19.4
					C392.3,62.8,394.8,73.2,406.1,73.2 M405.5,77.9c-11.8,0-18.9-8.1-18.9-24.2c0-18.1,10.2-24.4,19.6-24.4
					c9.9,0,18.6,6.4,18.6,24.4C424.9,69.9,417.4,77.9,405.5,77.9"/>
				<path id="Fill-16" class="st1" d="M483.5,59h15.8l-8-22.9L483.5,59z M471.7,77.9l16.5-46.8h6.6l16.8,46.8h-5.8l-5.1-14.4h-18.4
					l-5,14.4H471.7z"/>
				<path id="Fill-18" class="st1" d="M547.8,73.6c-4.5,2.9-9.8,4.4-15.1,4.3c-12,0-19.4-7.8-19.4-24.2c0-18.3,10.3-24.4,19.4-24.4
					c6-0.1,11.8,2.7,15.3,7.6l-3.9,3.2c-3-3.7-6.6-6-11.4-6c-8.6,0-13.8,7.3-13.8,19.1c0,12.7,4.4,20.1,14.3,20.1
					c3.3,0,6.5-0.9,9.3-2.5V56.9h-10.4v-4.8h15.8v21.5H547.8z"/>
				<polygon id="Fill-20" class="st1" points="558.3,31.1 583.8,31.1 583.8,35.9 563.8,35.9 563.8,51.7 581,51.7 581,56.4 
					563.8,56.4 563.8,73.1 584.3,73.1 584.3,77.9 558.3,77.9 				"/>
				<path id="Fill-22" class="st1" d="M446.3,56.2h-7.1V35.7h6.2c8.1,0,13.8,0.9,13.8,10.2C459.1,53.4,453.9,56.2,446.3,56.2z
					 M459.6,63.2c-1.1-2.4-1.8-3.5-3.3-4.3c5.2-2.3,8.5-6.9,8.5-13.9c0-9.2-6-13.9-16-13.9h-15.4v46.8h5.6V60.6h8.1
					c0.6,0,1.1,0,1.7-0.1h-0.1c2.9,0,4.3,1.9,5.5,4.4l6,12.8h6L459.6,63.2z"/>
				<path id="Fill-24" class="st1" d="M242.4,53V40.6h3.3c4.3,0,6.8,1.3,6.8,6.1s-2.9,6.3-7.4,6.3L242.4,53z M260.8,63.1
					c-0.5-1.5-1.6-2.8-3-3.6c4.3-2.7,7-7.2,7-13.5c0-9.7-6.5-14.9-17.3-14.9h-16.8v46.8h11.8V62.3h3c1.6,0.1,2.6,1,3.3,2.7l5.6,12.9
					h12.7L260.8,63.1z"/>
				<path id="Fill-26" class="st1" d="M594,35.1c0.8,0,1.6-0.1,1.6-1.1c0-0.8-0.8-0.9-1.5-0.9h-1.4v2H594z M592.7,38.9h-1.1v-6.7
					h2.6c1.7,0,2.5,0.6,2.5,1.9c0,1-0.7,1.8-1.7,1.8c0,0-0.1,0-0.1,0l1.9,3h-1.3l-1.8-2.9h-1.1L592.7,38.9L592.7,38.9z M593.9,30.4
					c-2.6,0-4.8,2.1-4.8,4.8c0,0.1,0,0.1,0,0.2c-0.2,2.6,1.8,4.9,4.4,5.1c2.6,0.2,4.9-1.8,5.1-4.4c0-0.2,0-0.4,0-0.6
					c0.2-2.6-1.7-4.8-4.3-5C594.2,30.4,594,30.4,593.9,30.4L593.9,30.4z M593.9,41.5c-3.2,0.1-6-2.4-6.1-5.7c0-0.1,0-0.3,0-0.4
					c0-3.4,2.7-6.1,6.1-6.1c3.4,0,6.1,2.7,6.1,6.1C600,38.8,597.3,41.5,593.9,41.5L593.9,41.5z"/>
			</g>
		</g>
	</g>
</g>
</svg>
