<svg xmlns="http://www.w3.org/2000/svg" viewBox="0 0 408.54 62.22"><defs><style>.cls-1{opacity:0.8;}.cls-2{fill:#fff;}</style></defs><g id="Capa_2" data-name="Capa 2"><g id="SVGLogo"><g class="cls-1"><path class="cls-2" d="M175.37,57.93,157.62,8.05A5.85,5.85,0,0,1,157,5.6a4.45,4.45,0,0,1,4.59-4.28c2.14,0,3.67,1.53,4.59,3.67l14.69,42.84,15-43.14C196.49,2.54,198,1,200.16,1h.61a4.61,4.61,0,0,1,4.59,3.68l14.69,43.14L235,4.69c.61-1.84,1.84-3.37,4.29-3.37a4.13,4.13,0,0,1,4.28,4A5.89,5.89,0,0,1,243,7.75L224.94,57.62c-.91,2.76-2.75,4-4.89,4h-.31c-2.14,0-4-1.22-4.89-4L200.16,15.4,185.47,57.62c-.92,2.76-2.45,4-4.9,4h-.3c-2.14.31-4-1.22-4.9-3.67"/><path class="cls-2" d="M305.73,5.91A4.44,4.44,0,0,1,310,1.32a4.51,4.51,0,0,1,4.59,4.59V16c4.29-9.79,14.08-14.38,20.2-14.38,2.75,0,4.28,1.83,4.28,4.59,0,2.44-1.53,4-4,4.59C323.78,12,314.29,20.6,314.29,37.73V57.62a4.45,4.45,0,0,1-4.28,4.6,4.51,4.51,0,0,1-4.59-4.6V5.91"/><path class="cls-2" d="M367.54,62.21c-15.91,0-28.76-12.24-28.76-30.29v-.31c0-16.83,11.62-30.29,27.84-30.29,17.14,0,26.93,14.08,26.93,29.68a3.86,3.86,0,0,1-4,4H347.65c1.22,12.55,10.1,19.89,20.5,19.89a22.78,22.78,0,0,0,16.53-6.73,3.48,3.48,0,0,1,2.44-.92,3.72,3.72,0,0,1,3.68,3.67,3.33,3.33,0,0,1-1.23,2.76c-5.81,5.2-12.24,8.56-22,8.56m17.14-33.66c-.92-10.71-7-19.89-18.36-19.89-10.1,0-17.75,8.57-18.67,19.89Z"/><path class="cls-2" d="M243.3,44.16h0c0-12.55,10.1-19.28,25.1-19.28a59.78,59.78,0,0,1,18.05,2.45V25.19C286.45,14.48,280,9.28,269,9.28c-5.81,0-9.49.61-13.77,2.75a3.3,3.3,0,0,1-1.53.31,4,4,0,0,1-4-3.68A3.69,3.69,0,0,1,252.18,5c5.81-2.45,10.1-3.36,17.75-3.36,8.26,0,14.68,2.14,19,6.42,4,4,6.12,9.79,6.12,17.14V57.62a4.19,4.19,0,0,1-4.28,4.29,4.13,4.13,0,0,1-4.29-4V52.12c-4,5.5-11,10.1-21.42,10.1S243.3,56.09,243.3,44.16m43.46-4.59V33.76a62.34,62.34,0,0,0-17.44-2.45c-11,0-17.14,4.89-17.14,12.24v.3c0,7.35,6.73,11.63,14.69,11.63,11,0,19.89-6.73,19.89-15.91"/><path class="cls-2" d="M16,5A8.31,8.31,0,0,0,4.93.71a7.8,7.8,0,0,0-4,11l18.67,40.7c3.06,6.43,6.12,9.79,11.93,9.79,6.12,0,8.88-3.67,11.94-9.79,0,0,16.21-35.49,16.52-35.8a2.6,2.6,0,0,1,2.45-1.53,2.5,2.5,0,0,1,2.45,2.75V52.42c0,5.2,3.06,9.8,8.56,9.8,5.82,0,8.88-4.29,8.88-9.8V24a8.84,8.84,0,0,1,9.18-9.18c5.2,0,8.87,3.67,8.87,9.18V52.42c0,5.2,3.06,9.8,8.57,9.8,5.81,0,8.87-4.29,8.87-9.8V24A8.84,8.84,0,0,1,127,14.79c5.21,0,8.88,3.67,8.88,9.18V52.42c0,5.2,3.06,9.8,8.57,9.8,5.81,0,8.87-4.29,8.87-9.8V20.29C153.34,8.36,143.85.1,132.23.1a26.57,26.57,0,0,0-18.67,8c-4-4.89-9.18-8-18-8-9.49,0-17.75,8-17.75,8A21.17,21.17,0,0,0,62.15.1c-8.26,0-15,3.67-19,12.85L31.25,41.1,16,5"/><path class="cls-2" d="M393.86,8.66h0a7.34,7.34,0,0,1,14.68,0h0A7.45,7.45,0,0,1,401.2,16a7.25,7.25,0,0,1-7.34-7.35m13.15,0h0a5.62,5.62,0,0,0-5.81-5.81,5.81,5.81,0,0,0-5.81,5.81h0a5.63,5.63,0,0,0,5.81,5.82A5.81,5.81,0,0,0,407,8.66"/><path class="cls-2" d="M398.45,5.6a1,1,0,0,1,.91-.91h2.45A4.36,4.36,0,0,1,404,5.3a2.31,2.31,0,0,1,.62,1.53h0A2.05,2.05,0,0,1,403,9l1.22,1.22c0,.31.31.31.31.62a.66.66,0,0,1-.61.61,1.08,1.08,0,0,1-.62-.31l-1.53-1.83h-1.22v1.53a.92.92,0,0,1-1.84,0V5.6Zm3.06,2.76c.61,0,1.22-.31,1.22-.92h0c0-.61-.31-.92-1.22-.92H400V8.66h1.53Z"/></g></g></g></svg>