<?xml version="1.0" encoding="utf-8"?>
<!-- Generator: Adobe Illustrator 24.1.0, SVG Export Plug-In . SVG Version: 6.00 Build 0)  -->
<svg version="1.1" id="Capa_1" xmlns="http://www.w3.org/2000/svg" xmlns:xlink="http://www.w3.org/1999/xlink" x="0px" y="0px"
	 viewBox="0 0 408.5 62.2" style="enable-background:new 0 0 408.5 62.2;" xml:space="preserve">
<style type="text/css">
	.st0{fill:#787878;}
</style>
<g id="Capa_2_1_">
	<g id="SVGLogo">
		<path class="st0" d="M175.4,57.9L157.6,8.1c-0.4-0.8-0.6-1.6-0.6-2.5c0.1-2.4,2.1-4.4,4.6-4.3c2.1,0,3.7,1.5,4.6,3.7l14.7,42.8
			l15-43.1c0.6-2.2,2.1-3.7,4.3-3.7h0.6c2.2,0,4.1,1.5,4.6,3.7l14.7,43.1L235,4.7c0.6-1.8,1.8-3.4,4.3-3.4c2.3-0.1,4.2,1.7,4.3,4
			c0,0,0,0,0,0c0,0.8-0.2,1.7-0.6,2.4l-18.1,49.9c-0.9,2.8-2.8,4-4.9,4h-0.3c-2.1,0-4-1.2-4.9-4l-14.7-42.2l-14.7,42.2
			c-0.9,2.8-2.4,4-4.9,4h-0.3C178.1,61.9,176.3,60.4,175.4,57.9"/>
		<path class="st0" d="M305.7,5.9c-0.1-2.4,1.8-4.5,4.3-4.6c2.5,0,4.5,1.9,4.6,4.4c0,0.1,0,0.1,0,0.2V16
			c4.3-9.8,14.1-14.4,20.2-14.4c2.8,0,4.3,1.8,4.3,4.6c0,2.4-1.5,4-4,4.6c-11.3,1.2-20.8,9.8-20.8,26.9v19.9
			c0.1,2.5-1.8,4.5-4.3,4.6c-2.5,0-4.5-1.9-4.6-4.4c0-0.1,0-0.1,0-0.2V5.9"/>
		<path class="st0" d="M367.5,62.2c-15.9,0-28.8-12.2-28.8-30.3v-0.3c0-16.8,11.6-30.3,27.8-30.3c17.1,0,26.9,14.1,26.9,29.7
			c0.1,2.1-1.6,3.9-3.7,4c-0.1,0-0.2,0-0.3,0h-41.9c1.2,12.5,10.1,19.9,20.5,19.9c6.2,0.1,12.2-2.3,16.5-6.7
			c0.7-0.6,1.5-0.9,2.4-0.9c2,0,3.7,1.7,3.7,3.7c0.1,1.1-0.4,2.1-1.2,2.8C383.8,58.9,377.3,62.2,367.5,62.2 M384.7,28.6
			c-0.9-10.7-7-19.9-18.4-19.9c-10.1,0-17.8,8.6-18.7,19.9H384.7z"/>
		<path class="st0" d="M243.3,44.2L243.3,44.2c0-12.5,10.1-19.3,25.1-19.3c6.1-0.1,12.2,0.7,18,2.5v-2.1c0-10.7-6.4-15.9-17.4-15.9
			c-5.8,0-9.5,0.6-13.8,2.8c-0.5,0.2-1,0.3-1.5,0.3c-2.1,0-3.8-1.6-4-3.7c-0.1-1.6,0.9-3.1,2.5-3.7c5.8-2.5,10.1-3.4,17.8-3.4
			c8.3,0,14.7,2.1,19,6.4c4,4,6.1,9.8,6.1,17.1v32.4c0.1,2.3-1.8,4.2-4.1,4.3c-0.1,0-0.1,0-0.2,0c-2.3,0.1-4.2-1.7-4.3-4
			c0,0,0,0,0,0v-5.8c-4,5.5-11,10.1-21.4,10.1S243.3,56.1,243.3,44.2 M286.8,39.6v-5.8c-5.7-1.6-11.5-2.5-17.4-2.5
			c-11,0-17.1,4.9-17.1,12.2v0.3c0,7.3,6.7,11.6,14.7,11.6C277.9,55.5,286.8,48.7,286.8,39.6"/>
		<path class="st0" d="M16,5C14.2,0.8,9.3-1.2,5.1,0.6C5,0.7,5,0.7,4.9,0.7c-4,1.6-6,6.1-4.4,10.1c0.1,0.3,0.3,0.6,0.4,0.9
			l18.7,40.7c3.1,6.4,6.1,9.8,11.9,9.8c6.1,0,8.9-3.7,11.9-9.8c0,0,16.2-35.5,16.5-35.8c0.4-1,1.4-1.6,2.5-1.5
			c1.4,0,2.5,1.2,2.5,2.5c0,0.1,0,0.1,0,0.2v34.6c0,5.2,3.1,9.8,8.6,9.8c5.8,0,8.9-4.3,8.9-9.8V24c-0.2-4.9,3.6-9,8.5-9.2
			c0.2,0,0.5,0,0.7,0c5.2,0,8.9,3.7,8.9,9.2v28.4c0,5.2,3.1,9.8,8.6,9.8c5.8,0,8.9-4.3,8.9-9.8V24c-0.2-4.9,3.6-9,8.5-9.2
			c0.2,0,0.5,0,0.7,0c5.2,0,8.9,3.7,8.9,9.2v28.4c0,5.2,3.1,9.8,8.6,9.8c5.8,0,8.9-4.3,8.9-9.8V20.3c0-11.9-9.5-20.2-21.1-20.2
			c-7,0.1-13.8,3-18.7,8c-4-4.9-9.2-8-18-8c-9.5,0-17.8,8-17.8,8c-3.8-4.8-9.5-7.7-15.7-8c-8.3,0-15,3.7-19,12.9L31.3,41.1L16,5"/>
		<path class="st0" d="M393.9,8.7L393.9,8.7c0-4.1,3.3-7.3,7.3-7.3c4,0,7.3,3.3,7.3,7.3l0,0c-0.1,4-3.3,7.3-7.3,7.3
			c-4,0.1-7.3-3.2-7.3-7.2C393.9,8.8,393.9,8.7,393.9,8.7 M407,8.6L407,8.6c0.1-3.1-2.3-5.7-5.4-5.8c-0.1,0-0.3,0-0.4,0
			c-3.2,0-5.8,2.6-5.8,5.8l0,0c-0.1,3.1,2.3,5.7,5.4,5.8c0.1,0,0.3,0,0.4,0C404.4,14.5,407,11.9,407,8.6"/>
		<path class="st0" d="M398.5,5.6c0-0.5,0.4-0.9,0.9-0.9h2.5c0.8,0,1.5,0.2,2.2,0.6c0.4,0.4,0.6,1,0.6,1.5l0,0c0.1,1-0.6,2-1.6,2.2
			l1.2,1.2c0,0.3,0.3,0.3,0.3,0.6c0,0.3-0.3,0.6-0.6,0.6c-0.2,0-0.5-0.1-0.6-0.3l-1.5-1.8h-1.2v1.5c0,0.5-0.4,0.9-0.9,0.9
			c-0.5,0-0.9-0.4-0.9-0.9V5.6H398.5z M401.5,8.4c0.6,0,1.2-0.3,1.2-0.9l0,0c0-0.6-0.3-0.9-1.2-0.9H400v2.1h1.5L401.5,8.4z"/>
	</g>
</g>
</svg>
